<svg width="12" height="13" viewBox="0 0 12 13" fill="none" xmlns="http://www.w3.org/2000/svg">
<path d="M11.7338 0.775313C11.3788 0.420364 10.8055 0.420364 10.4505 0.775313L6 5.21672L1.54949 0.766212C1.19454 0.411263 0.62116 0.411263 0.266212 0.766212C-0.0887372 1.12116 -0.0887372 1.69454 0.266212 2.04949L4.71672 6.5L0.266212 10.9505C-0.0887372 11.3055 -0.0887372 11.8788 0.266212 12.2338C0.62116 12.5887 1.19454 12.5887 1.54949 12.2338L6 7.78328L10.4505 12.2338C10.8055 12.5887 11.3788 12.5887 11.7338 12.2338C12.0887 11.8788 12.0887 11.3055 11.7338 10.9505L7.28328 6.5L11.7338 2.04949C12.0796 1.70364 12.0796 1.12116 11.7338 0.775313Z" fill="#323232"/>
</svg>
