<svg width="12" height="13" viewBox="0 0 12 13" fill="none" xmlns="http://www.w3.org/2000/svg">
<g clip-path="url(#clip0_42_46)">
<path d="M6 1.5C3.24 1.5 1 3.74 1 6.5C1 9.26 3.24 11.5 6 11.5C8.76 11.5 11 9.26 11 6.5C11 3.74 8.76 1.5 6 1.5ZM6 9C5.725 9 5.5 8.775 5.5 8.5V6.5C5.5 6.225 5.725 6 6 6C6.275 6 6.5 6.225 6.5 6.5V8.5C6.5 8.775 6.275 9 6 9ZM6.5 5H5.5V4H6.5V5Z" fill="#FF0000" fill-opacity="0.6"/>
</g>
<defs>
<clipPath id="clip0_42_46">
<rect width="12" height="12" fill="white" transform="translate(0 0.5)"/>
</clipPath>
</defs>
</svg>
