<svg width="12" height="13" viewBox="0 0 12 13" fill="none" xmlns="http://www.w3.org/2000/svg">
<g clip-path="url(#clip0_42_150)">
<path d="M2 7C2.275 7 2.5 6.775 2.5 6.5C2.5 6.225 2.275 6 2 6C1.725 6 1.5 6.225 1.5 6.5C1.5 6.775 1.725 7 2 7ZM2 9C2.275 9 2.5 8.775 2.5 8.5C2.5 8.225 2.275 8 2 8C1.725 8 1.5 8.225 1.5 8.5C1.5 8.775 1.725 9 2 9ZM2 5C2.275 5 2.5 4.775 2.5 4.5C2.5 4.225 2.275 4 2 4C1.725 4 1.5 4.225 1.5 4.5C1.5 4.775 1.725 5 2 5ZM4 7H10C10.275 7 10.5 6.775 10.5 6.5C10.5 6.225 10.275 6 10 6H4C3.725 6 3.5 6.225 3.5 6.5C3.5 6.775 3.725 7 4 7ZM4 9H10C10.275 9 10.5 8.775 10.5 8.5C10.5 8.225 10.275 8 10 8H4C3.725 8 3.5 8.225 3.5 8.5C3.5 8.775 3.725 9 4 9ZM3.5 4.5C3.5 4.775 3.725 5 4 5H10C10.275 5 10.5 4.775 10.5 4.5C10.5 4.225 10.275 4 10 4H4C3.725 4 3.5 4.225 3.5 4.5ZM2 7C2.275 7 2.5 6.775 2.5 6.5C2.5 6.225 2.275 6 2 6C1.725 6 1.5 6.225 1.5 6.5C1.5 6.775 1.725 7 2 7ZM2 9C2.275 9 2.5 8.775 2.5 8.5C2.5 8.225 2.275 8 2 8C1.725 8 1.5 8.225 1.5 8.5C1.5 8.775 1.725 9 2 9ZM2 5C2.275 5 2.5 4.775 2.5 4.5C2.5 4.225 2.275 4 2 4C1.725 4 1.5 4.225 1.5 4.5C1.5 4.775 1.725 5 2 5ZM4 7H10C10.275 7 10.5 6.775 10.5 6.5C10.5 6.225 10.275 6 10 6H4C3.725 6 3.5 6.225 3.5 6.5C3.5 6.775 3.725 7 4 7ZM4 9H10C10.275 9 10.5 8.775 10.5 8.5C10.5 8.225 10.275 8 10 8H4C3.725 8 3.5 8.225 3.5 8.5C3.5 8.775 3.725 9 4 9ZM3.5 4.5C3.5 4.775 3.725 5 4 5H10C10.275 5 10.5 4.775 10.5 4.5C10.5 4.225 10.275 4 10 4H4C3.725 4 3.5 4.225 3.5 4.5Z"/>
</g>
<defs>
<clipPath id="clip0_42_150">
<rect width="12" height="12" fill="none" transform="translate(0 0.5)"/>
</clipPath>
</defs>
</svg>
