<svg width="10" height="11" viewBox="0 0 10 11" fill="none" xmlns="http://www.w3.org/2000/svg">
<path d="M1.66663 3H8.33329M7.49996 3V7.91667C7.49996 8.38338 7.50005 8.61675 7.40922 8.79501C7.32933 8.95181 7.20167 9.07926 7.04487 9.15916C6.86661 9.24999 6.63342 9.25 6.16671 9.25H3.83337C3.36666 9.25 3.13313 9.24999 2.95487 9.15916C2.79807 9.07926 2.67068 8.95181 2.59079 8.79501C2.49996 8.61675 2.49996 8.38338 2.49996 7.91667V3H7.49996ZM6.66663 3H3.33329C3.33329 2.61172 3.33329 2.41757 3.39673 2.26442C3.4813 2.06023 3.64343 1.89801 3.84762 1.81343C4.00076 1.75 4.19501 1.75 4.58329 1.75H5.41663C5.80491 1.75 5.99905 1.75 6.1522 1.81343C6.35639 1.89801 6.51857 2.06023 6.60315 2.26442C6.66658 2.41757 6.66663 2.61172 6.66663 3Z" stroke="white" stroke-linecap="round" stroke-linejoin="round"/>
</svg>
