<svg width="15" height="14" viewBox="0 0 15 14" fill="none" xmlns="http://www.w3.org/2000/svg">
    <g clip-path="url(#clip0_1890_30872)">
        <path
            d="M0.758105 0.257324C1.0999 -0.0844727 1.65225 -0.0844727 1.99404 0.257324L4.87607 3.13662V1.75029C4.87607 1.26631 5.26709 0.875293 5.75107 0.875293C6.23506 0.875293 6.62607 1.26631 6.62607 1.75029V5.25029C6.62607 5.73428 6.23506 6.12529 5.75107 6.12529H2.25107C1.76709 6.12529 1.37607 5.73428 1.37607 5.25029C1.37607 4.76631 1.76709 4.37529 2.25107 4.37529H3.6374L0.758105 1.49326C0.416309 1.15146 0.416309 0.599121 0.758105 0.257324ZM13.0081 0.257324C13.3499 -0.0844727 13.905 -0.0844727 14.2468 0.257324C14.5886 0.599121 14.5886 1.1542 14.2468 1.496L11.3647 4.37529H12.7511C13.2351 4.37529 13.6261 4.76631 13.6261 5.25029C13.6261 5.73428 13.2351 6.12529 12.7511 6.12529H9.25107C8.76709 6.12529 8.37607 5.73428 8.37607 5.25029V1.75029C8.37607 1.26631 8.76709 0.875293 9.25107 0.875293C9.73506 0.875293 10.1261 1.26631 10.1261 1.75029V3.13662L13.0081 0.257324ZM1.37607 8.75029C1.37607 8.26631 1.76709 7.87529 2.25107 7.87529H5.75107C6.23506 7.87529 6.62607 8.26631 6.62607 8.75029V12.2503C6.62607 12.7343 6.23506 13.1253 5.75107 13.1253C5.26709 13.1253 4.87607 12.7343 4.87607 12.2503V10.864L1.99404 13.7433C1.65225 14.0851 1.09717 14.0851 0.755371 13.7433C0.413574 13.4015 0.413574 12.8464 0.755371 12.5046L3.6374 9.62529H2.25107C1.76709 9.62529 1.37607 9.23428 1.37607 8.75029ZM8.37607 8.75029C8.37607 8.26631 8.76709 7.87529 9.25107 7.87529H12.7511C13.2351 7.87529 13.6261 8.26631 13.6261 8.75029C13.6261 9.23428 13.2351 9.62529 12.7511 9.62529H11.3647L14.244 12.5073C14.5858 12.8491 14.5858 13.4042 14.244 13.746C13.9022 14.0878 13.3472 14.0878 13.0054 13.746L10.1261 10.864V12.2503C10.1261 12.7343 9.73506 13.1253 9.25107 13.1253C8.76709 13.1253 8.37607 12.7343 8.37607 12.2503V8.75029Z"
            fill="#E0AF65" />
    </g>
    <defs>
        <clipPath id="clip0_1890_30872">
            <rect width="14" height="14" fill="white" transform="translate(0.501953)" />
        </clipPath>
    </defs>
</svg>