<svg viewBox="0 0 56 92" fill="none" xmlns="http://www.w3.org/2000/svg">
    <path fill-rule="evenodd" clip-rule="evenodd"
        d="M27.4063 0.00017951C28.4944 0.0104811 29.5314 0.463666 30.2781 1.25524C36.6926 8.05517 47 20.8141 47 41.3043C47 51.3561 44.858 60.6403 41.6968 68.1979C39.0381 74.5539 35.5511 79.938 31.7763 83.5H52C54.2091 83.5 56 85.2909 56 87.5C56 89.7091 54.2091 91.5 52 91.5H4C1.79086 91.5 0 89.7091 0 87.5C0 85.2909 1.79086 83.5 4 83.5H22.6617C21.4677 82.3589 20.324 81.0408 19.2598 79.59C16.4655 76.2342 13.9101 72.1962 11.8134 67.7748C8.34698 60.4648 6 51.827 6 43C6 34.0051 9.02225 25.2386 12.7381 18.0054C16.4598 10.7607 21.0342 4.74951 24.5112 1.20064C25.2728 0.423348 26.3181 -0.0101221 27.4063 0.00017951ZM39 41.3043C39 42.2493 38.9787 43.1864 38.9372 44.1146C36.754 37.7116 33.0746 32.8726 29.062 30.5414C27.7757 29.794 26.181 29.8223 24.9219 30.6147C21.2797 32.9071 18.0961 37.1377 15.8485 41.8155C15.2048 43.1552 14.6186 44.571 14.1085 46.041C14.037 45.0287 14 44.0142 14 43C14 35.7166 16.4778 28.2332 19.854 21.6609C22.2255 17.0446 24.9631 13.0279 27.3847 10.0244C32.8269 16.5273 39 26.5633 39 41.3043ZM25.5667 74.6606C26.067 75.2535 26.5705 75.813 27.0746 76.3372C28.1197 74.9742 29.196 73.1767 30.1511 70.9685C31.8346 67.0765 33 62.2239 33 56.9565C33 48.3605 29.9496 42.2276 27.0976 39.1688C25.7294 40.6266 24.2992 42.6997 23.0594 45.2802C21.2021 49.1456 20 53.6862 20 58C20 62.2964 21.1931 66.6529 23.0454 70.4302C23.8138 71.9971 24.6725 73.4179 25.5667 74.6606Z" />
</svg>