<svg viewBox="0 0 88 95" fill="none" xmlns="http://www.w3.org/2000/svg">
    <path fill-rule="evenodd" clip-rule="evenodd"
        d="M43 0C43.3453 0 43.6804 0.043753 44 0.126018C44.3196 0.043753 44.6547 0 45 0C47.2091 0 49 1.79086 49 4C49 20.0533 54.9991 29.6206 62.112 35.2671C69.4014 41.0538 78.2245 43 84 43C86.2091 43 88 44.7909 88 47C88 47.1693 87.9895 47.3362 87.9691 47.5C87.9895 47.6638 88 47.8307 88 48C88 50.2091 86.2091 52 84 52C78.2245 52 69.4014 53.9462 62.112 59.7329C54.9991 65.3794 49 74.9467 49 91C49 93.2091 47.2091 95 45 95C44.6547 95 44.3196 94.9563 44 94.874C43.6804 94.9563 43.3453 95 43 95C40.7909 95 39 93.2091 39 91C39 74.9467 33.0009 65.3794 25.888 59.7329C18.5986 53.9462 9.7755 52 4 52C1.79086 52 3.56605e-06 50.2091 3.75918e-06 48C3.77398e-06 47.8307 0.0105247 47.6638 0.0309486 47.5C0.0105223 47.3362 0 47.1693 0 47C0 44.7909 1.79086 43 4 43C9.7755 43 18.5986 41.0538 25.888 35.2671C33.0009 29.6206 39 20.0533 39 4C39 1.79086 40.7909 0 43 0ZM20.7035 47.5C24.1511 48.9416 27.619 50.8927 30.862 53.4671C36.3754 57.8439 41.111 63.9244 44 72.0897C46.889 63.9244 51.6246 57.8439 57.138 53.4671C60.381 50.8927 63.8489 48.9416 67.2965 47.5C63.8489 46.0584 60.381 44.1073 57.138 41.5329C51.6246 37.1561 46.889 31.0756 44 22.9103C41.111 31.0756 36.3754 37.1561 30.862 41.5329C27.619 44.1073 24.1511 46.0584 20.7035 47.5Z" />
</svg>