<svg viewBox="0 0 81 88" fill="none" xmlns="http://www.w3.org/2000/svg">
    <path fill-rule="evenodd" clip-rule="evenodd"
        d="M8 40.5C8 22.5507 22.5507 8 40.5 8C58.4493 8 73 22.5507 73 40.5C73 58.4493 58.4493 73 40.5 73C22.5507 73 8 58.4493 8 40.5ZM40.5 0C18.1325 0 0 18.1325 0 40.5C0 59.07 12.4981 74.7209 29.5416 79.5H9C6.79086 79.5 5 81.2909 5 83.5C5 85.7091 6.79086 87.5 9 87.5H73C75.2091 87.5 77 85.7091 77 83.5C77 81.2909 75.2091 79.5 73 79.5H51.4584C68.5019 74.7209 81 59.07 81 40.5C81 18.1325 62.8675 0 40.5 0Z" />
</svg>