<svg viewBox="0 0 68 88" fill="none" xmlns="http://www.w3.org/2000/svg">
    <path fill-rule="evenodd" clip-rule="evenodd"
        d="M32.8175 0.000459506C33.8992 -0.0159272 34.9415 0.406571 35.7065 1.17157L66.3894 31.8545C67.9515 33.4166 67.9515 35.9493 66.3894 37.5114C64.8273 39.0735 62.2947 39.0735 60.7326 37.5114L37 13.7788V34.4651L66.3894 63.8545C67.9515 65.4166 67.9515 67.9493 66.3894 69.5114C64.8273 71.0735 62.2947 71.0735 60.7326 69.5114L37 45.7788V83.5C37 85.7091 35.2092 87.5 33 87.5C30.7909 87.5 29 85.7091 29 83.5V45.9567L6.91281 69.4244C5.39875 71.0331 2.86725 71.1098 1.25855 69.5957C-0.350142 68.0817 -0.426854 65.5502 1.08721 63.9415L29 34.2841V13.9567L6.91281 37.4244C5.39875 39.0331 2.86725 39.1098 1.25855 37.5957C-0.350142 36.0817 -0.426854 33.5502 1.08721 31.9415L29.9653 1.25854C30.7067 0.470719 31.7357 0.0168458 32.8175 0.000459506Z" />
</svg>