<svg width="20" height="20" viewBox="0 0 20 20" fill="none" xmlns="http://www.w3.org/2000/svg">
    <path
        d="M3.2324 14.2627C3.2324 15.0671 3.44356 15.683 3.86589 16.1104C4.2832 16.5327 4.89407 16.7439 5.69851 16.7439L14.3412 16.7439C15.1406 16.7439 15.749 16.5327 16.1663 16.1104C16.5886 15.683 16.7998 15.0671 16.7998 14.2627L16.7998 5.65014C16.7998 4.8457 16.5886 4.23232 16.1663 3.80998C15.744 3.38765 15.1356 3.17649 14.3412 3.17649L5.69851 3.17649C4.8991 3.17649 4.28822 3.38765 3.86589 3.80998C3.44356 4.23232 3.2324 4.8457 3.2324 5.65014L3.2324 14.2627ZM10.035 13.8102C9.77854 13.8102 9.55732 13.7096 9.37129 13.5085L6.91272 10.9595C6.76691 10.8086 6.69401 10.6301 6.69401 10.424C6.69401 10.2229 6.75937 10.0595 6.89009 9.9338C7.02584 9.80307 7.1993 9.73771 7.41046 9.73771C7.62666 9.73771 7.80263 9.81564 7.93838 9.9715L8.72271 10.8313L9.30341 11.593L9.22046 10.1073L9.22046 6.77385C9.22046 6.55263 9.29839 6.36911 9.45425 6.22331C9.61011 6.07751 9.80368 6.0046 10.035 6.0046C10.2662 6.0046 10.4573 6.07751 10.6081 6.22331C10.764 6.36911 10.8419 6.55263 10.8419 6.77385L10.8419 10.1073L10.759 11.593L11.3397 10.8162L12.1315 9.9715C12.2723 9.81564 12.4483 9.73771 12.6594 9.73771C12.8656 9.73771 13.034 9.80307 13.1647 9.9338C13.3005 10.0595 13.3684 10.2229 13.3684 10.424C13.3684 10.6301 13.2955 10.8086 13.1497 10.9595L10.6835 13.5085C10.4975 13.7096 10.2813 13.8102 10.035 13.8102Z"
        fill="#E0AF65" />
</svg>