<svg width="24" height="24" viewBox="0 0 24 24" fill="none" xmlns="http://www.w3.org/2000/svg">
<path d="M3 6.5V8C3 8.55312 3.44687 9 4 9H4.5H6V6.5C6 5.67188 5.32812 5 4.5 5C3.67188 5 3 5.67188 3 6.5ZM6.5 5C6.8125 5.41875 7 5.9375 7 6.5V16C7 17.1031 7.89687 18 9 18C10.1031 18 11 17.1031 11 16V15.8344C11 14.8219 11.8219 14 12.8344 14H18V8C18 6.34375 16.6562 5 15 5H6.5ZM17.5 19C19.4344 19 21 17.4344 21 15.5C21 15.225 20.775 15 20.5 15H12.8344C12.375 15 12 15.3719 12 15.8344V16C12 17.6562 10.6562 19 9 19H14.5H17.5Z" />
</svg>
