<svg width="20" height="20" viewBox="0 0 20 20" fill="none" xmlns="http://www.w3.org/2000/svg">
<path d="M5.23875 4.28563C4.71196 4.28563 4.28637 4.71123 4.28637 5.23801V14.7618C4.28637 15.2886 4.71196 15.7142 5.23875 15.7142H14.7626C15.2893 15.7142 15.7149 15.2886 15.7149 14.7618V5.23801C15.7149 4.71123 15.2893 4.28563 14.7626 4.28563H5.23875ZM3.33398 5.23801C3.33398 4.18742 4.18815 3.33325 5.23875 3.33325H14.7626C15.8132 3.33325 16.6673 4.18742 16.6673 5.23801V14.7618C16.6673 15.8124 15.8132 16.6666 14.7626 16.6666H5.23875C4.18815 16.6666 3.33398 15.8124 3.33398 14.7618V5.23801Z" />
<path d="M9.38374 12.2411L13.1933 8.43162C13.3778 8.24709 13.3778 7.94352 13.1933 7.759C13.0087 7.57447 12.7052 7.57447 12.5206 7.759L9.04743 11.2322L7.47898 9.66376C7.29446 9.47924 6.99089 9.47924 6.80636 9.66376C6.62184 9.84828 6.62184 10.1519 6.80636 10.3364L8.71112 12.2411C8.89565 12.4257 9.19922 12.4257 9.38374 12.2411Z" fill="#F6C297"/>
</svg>
