<svg width="24" height="24" viewBox="0 0 24 24" fill="none" xmlns="http://www.w3.org/2000/svg">
<path d="M4 5.99999C4 5.52661 4.38376 5.14285 4.85714 5.14285C5.33053 5.14285 5.71429 5.52661 5.71429 6L5.71429 18C5.71429 18.4734 5.33053 18.8571 4.85714 18.8571C4.38376 18.8571 4 18.4734 4 18L4 5.99999ZM8.56513 12.3641C8.35551 12.1666 8.35556 11.8334 8.56525 11.636L13.6965 6.80607C14.0416 6.48127 14.5847 6.49788 14.9092 6.84316C15.2336 7.1882 15.2169 7.73081 14.8719 8.05526L11.5893 11.1429L19.1429 11.1429C19.6162 11.1429 20 11.5266 20 12C20 12.4734 19.6162 12.8571 19.1429 12.8571L11.5893 12.8571L14.8725 15.9482C15.2171 16.2728 15.2337 16.8152 14.9095 17.1602C14.5848 17.5055 14.0415 17.5221 13.6965 17.1971L8.56513 12.3641Z" fill="#F6C297"/>
</svg>
