<svg width="20" height="20" viewBox="0 0 20 20" fill="none" xmlns="http://www.w3.org/2000/svg">
<path d="M9.99949 4.81519C8.12929 4.81519 6.63173 5.66696 5.54155 6.68076C4.45831 7.68531 3.73383 8.88891 3.39127 9.71522C3.31489 9.89808 3.31489 10.1018 3.39127 10.2846C3.73383 11.1109 4.45831 12.3145 5.54155 13.3191C6.63173 14.3329 8.12929 15.1847 9.99949 15.1847C11.8697 15.1847 13.3673 14.3329 14.4574 13.3191C15.5407 12.3122 16.2652 11.1109 16.61 10.2846C16.6864 10.1018 16.6864 9.89808 16.61 9.71522C16.2652 8.88891 15.5407 7.68531 14.4574 6.68076C13.3673 5.66696 11.8697 4.81519 9.99949 4.81519ZM6.66645 9.99992C6.66645 9.11594 7.01761 8.26817 7.64268 7.6431C8.26774 7.01804 9.11552 6.66688 9.99949 6.66688C10.8835 6.66688 11.7312 7.01804 12.3563 7.6431C12.9814 8.26817 13.3325 9.11594 13.3325 9.99992C13.3325 10.8839 12.9814 11.7317 12.3563 12.3567C11.7312 12.9818 10.8835 13.333 9.99949 13.333C9.11552 13.333 8.26774 12.9818 7.64268 12.3567C7.01761 11.7317 6.66645 10.8839 6.66645 9.99992ZM9.99949 8.51857C9.99949 9.33563 9.3352 9.99992 8.51814 9.99992C8.3538 9.99992 8.19641 9.97215 8.04827 9.92354C7.92097 9.88188 7.77284 9.96057 7.77746 10.0948C7.78441 10.2545 7.80755 10.4142 7.85153 10.5739C8.16863 11.759 9.38844 12.4627 10.5735 12.1456C11.7586 11.8285 12.4622 10.6087 12.1451 9.42358C11.8882 8.46302 11.0388 7.81724 10.0944 7.77789C9.96015 7.77326 9.88145 7.91908 9.92311 8.0487C9.97172 8.19684 9.99949 8.35423 9.99949 8.51857Z" fill="#F5C297"/>
</svg>
