<svg width="24" height="24" viewBox="0 0 24 24" fill="none" xmlns="http://www.w3.org/2000/svg">
<path opacity="0.25" fill-rule="evenodd" clip-rule="evenodd" d="M12 18C15.3137 18 18 15.3137 18 12C18 8.68629 15.3137 6 12 6C8.68629 6 6 8.68629 6 12C6 15.3137 8.68629 18 12 18ZM11.8979 8.21798C11.5459 8.21798 11.2599 8.49298 11.2599 8.83398C11.2599 9.17498 11.5459 9.44998 11.8979 9.44998C12.2389 9.44998 12.4919 9.17498 12.4919 8.83398C12.4919 8.49298 12.2389 8.21798 11.8979 8.21798ZM12.5249 10.495H10.7869C11.3809 10.88 11.5239 12.376 11.5239 13.256C11.5239 14.565 11.4689 14.884 11.3259 15.5H13.0639C12.8109 15.368 12.3159 14.73 12.3159 12.651C12.3159 11.892 12.3929 11.078 12.5249 10.495Z" fill="#F6C297"/>
</svg>
