<svg width="24" height="24" viewBox="0 0 24 24" fill="none" xmlns="http://www.w3.org/2000/svg">
<path d="M8.92374 8.19383H15.9827L14.1887 10.0125C13.9417 10.2629 13.9417 10.6681 14.1887 10.9195C14.3118 11.0442 14.4735 11.1071 14.6361 11.1071C14.7978 11.1071 14.9595 11.0442 15.0835 10.9195L17.9562 8.00719C17.9859 7.97714 18.0119 7.94526 18.0353 7.91066C18.0407 7.90155 18.0452 7.89153 18.0506 7.88243C18.0658 7.85602 18.082 7.82961 18.0937 7.80138C18.0991 7.78772 18.1018 7.77315 18.1063 7.75949C18.1143 7.73399 18.1242 7.70849 18.1296 7.68117C18.1377 7.63928 18.1422 7.59738 18.1422 7.55458C18.1422 7.51178 18.1377 7.46898 18.1296 7.428C18.1242 7.40068 18.1152 7.37518 18.1063 7.34968C18.1018 7.33602 18.0991 7.32145 18.0937 7.30779C18.082 7.27956 18.0667 7.25315 18.0506 7.22674C18.0452 7.21763 18.0416 7.2067 18.0353 7.19851C18.0119 7.1639 17.9859 7.13112 17.9562 7.10198L15.0835 4.18782C14.8364 3.93739 14.4367 3.93739 14.1887 4.18782C13.9417 4.43825 13.9417 4.84351 14.1887 5.09485L15.9818 6.91256L8.92377 6.91165C6.599 6.91165 4.70703 8.82953 4.70703 11.1864C4.70703 11.5406 4.99001 11.8275 5.33945 11.8275C5.68889 11.8275 5.97187 11.5406 5.97187 11.1864C5.97187 9.53623 7.29597 8.19383 8.92374 8.19383ZM18.6598 12.1719C18.3103 12.1719 18.0273 12.4588 18.0273 12.813C18.0273 14.4632 16.7032 15.8055 15.0754 15.8055H8.01651L9.81046 13.9869C10.0575 13.7365 10.0575 13.3312 9.81046 13.0799C9.56343 12.8294 9.16367 12.8294 8.91574 13.0799L6.04295 15.9931C6.01331 16.0231 5.98726 16.055 5.9639 16.0896C5.95851 16.0987 5.95492 16.1078 5.94953 16.1169C5.93336 16.1433 5.91808 16.1707 5.90641 16.1998C5.90102 16.2135 5.89832 16.2271 5.89383 16.2408C5.88575 16.2663 5.87586 16.2927 5.87047 16.32C5.86239 16.3619 5.8579 16.4038 5.8579 16.4466C5.8579 16.4894 5.86239 16.5322 5.87047 16.5732C5.87586 16.6005 5.88575 16.626 5.89383 16.6524C5.89832 16.6661 5.90102 16.6797 5.90641 16.6934C5.91809 16.7225 5.93425 16.7489 5.94953 16.7763C5.95492 16.7854 5.95851 16.7945 5.9639 16.8036C5.98726 16.8382 6.01331 16.871 6.04295 16.9001L8.91574 19.8124C9.03881 19.9372 9.20051 20 9.3631 20C9.5248 20 9.68649 19.9372 9.81046 19.8124C10.0575 19.562 10.0575 19.1567 9.81046 18.9054L8.01741 17.0877H15.0763C17.4011 17.0877 19.2931 15.1698 19.2931 12.813C19.2922 12.4587 19.0083 12.1719 18.6598 12.1719Z" />
</svg>
