<svg width="14" height="14" viewBox="0 0 14 14" fill="none" xmlns="http://www.w3.org/2000/svg">
    <path
        d="M2.7138 13.744C1.90936 13.744 1.29346 13.5328 0.866103 13.1105C0.443771 12.6932 0.232605 12.0823 0.232605 11.2779V2.63515C0.232605 1.83574 0.443771 1.22738 0.866103 0.810072C1.29346 0.387741 1.90936 0.176575 2.7138 0.176575H11.3264C12.1308 0.176575 12.7442 0.387741 13.1665 0.810072C13.5888 1.2324 13.8 1.84076 13.8 2.63515V11.2779C13.8 12.0773 13.5888 12.6882 13.1665 13.1105C12.7442 13.5328 12.1308 13.744 11.3264 13.744H2.7138ZM3.1663 6.94143C3.1663 7.19784 3.26686 7.41906 3.46797 7.60509L6.01704 10.0637C6.16787 10.2095 6.34636 10.2824 6.5525 10.2824C6.75361 10.2824 6.91701 10.217 7.04271 10.0863C7.17343 9.95054 7.23879 9.77708 7.23879 9.56592C7.23879 9.34972 7.16086 9.17375 7.005 9.038L6.14525 8.25367L5.38354 7.67296L6.86925 7.75592H10.2027C10.4239 7.75592 10.6074 7.67799 10.7532 7.52213C10.899 7.36627 10.9719 7.1727 10.9719 6.94143C10.9719 6.71015 10.899 6.51909 10.7532 6.36826C10.6074 6.2124 10.4239 6.13447 10.2027 6.13447H6.86925L5.38354 6.21743L6.16033 5.63672L7.005 4.84485C7.16086 4.70407 7.23879 4.5281 7.23879 4.31694C7.23879 4.1108 7.17343 3.94237 7.04271 3.81165C6.91701 3.6759 6.75361 3.60802 6.5525 3.60802C6.34636 3.60802 6.16787 3.68092 6.01704 3.82673L3.46797 6.29284C3.26686 6.47887 3.1663 6.69507 3.1663 6.94143Z"
        fill="white" />
</svg>