<svg xmlns="http://www.w3.org/2000/svg" xml:space="preserve" viewBox="0 0 85.311 100"><path d="M67.83 64.129c.028-2.929.017-9.357-.493-15.71.045 2.677.115 5.127.206 6.409.051.735.163 4.585.287 9.301zM43.334 9.037c.087-2.058-.024-4.262 1.72-4.136.837.061 2.279.274 4.063.631 1.978.396 1.699 11.121 1.699 11.121l7.171 2.788c.236-7.761-1.704-16.773-3.64-17.325-3.244-.925-8.005-2.854-12.736-1.819-3.161.691-4.007 12.296-4.007 12.296l5.532 1.449s.058-1.712.198-5.005zM9.969 48.267c1.165.431 3.085 1.064 5.358 1.777 1.699-4.705 4.58-8.294 4.58-8.294s.665-1.743 4.006-1.041c3.341.701 3.497 2.226 3.497 2.226s-2.164 3.508-4.268 8.236c-.13.292-.301.655-.431 1.102 5.297 1.544 10.415 2.911 11.887 3.045 2.897.265 10.174.583 11.557-6.42 1.364-6.911 2.714-11.127 3.864-13.759.23-.575.437-1.051.589-1.395.313-.708 1.266-2.128 2.652-3.52v-.002c.004-.01.01-.015.018-.017 1.852-1.85 4.472-3.642 7.397-3.631.154 0 .342.019.551.051-1.721-1.914-3.682-3.544-5.77-4.349-.475-.183-17.718-6.998-22.87-6.269l-.419.06.419-.06s-11.811.293-19.621 8.097c-4.08 4.076-7.662 11.388-9.911 18.414-.029 1.783 2.246 4.023 6.915 5.749z"/><path d="M33.018 60.553c-2.322-.426-6.635-1.608-11.232-2.967-.7 2.769-.105 7.525-.105 7.525s-.904 2.158-4.467 1.369c-3.036-.674-2.958-2.865-2.958-2.865s-.776-4.446-.092-8.359c-4.376-1.378-8.094-2.615-9.462-3.14-1.646-.63-2.833-1.508-3.688-2.489-.063.389-.119 1.96-.172 2.334-3.102 22.092 3.336 31.606 3.792 33.615.613 2.701 12.381 8.364 23.741 12.513 6.59 2.407 13.947 1.94 16.869 1.73l.214-.012c.465-8.542 1.731-30.777 2.352-44.384-.984 4.996-9.233 6.148-14.792 5.13zM67.83 64.129c-.124-4.716-.235-8.564-.287-9.303-.091-1.28-.161-3.73-.206-6.408-.455-5.656-1.913-11.727-3.16-14.882-2.096-5.312-8.183 1.351-9.902 5.546-1.78 4.344-3.465 54.419-3.629 59.383 4.25-1.107 10.338-2.696 11.084-3.867 1.581-2.476 2.438-4.873 2.833-6.914.262-1.359 3.777-2.63 3.777-2.63s-.249-10.8-.474-19.516l-.062.23c0 .002.017-.599.026-1.639z"/><path d="M83.415 42.354s-.901-10.732-1.105-12.818c-.494-5.037-5.038-21.237-20.526-8.825l4.103 4.476s10.496-9.432 10.892 13.042c.033 1.902.159 4.559 1.303 20.549 1.266 17.679-5.648 17.777-5.648 17.777l.312 7.518s2.568-.672 5.22-1.788c3.753-1.581 7.349-8.198 7.349-17.897-.004-3.838-1.9-22.034-1.9-22.034zM29.176 12.348l3.424-.526V8.924l.659-2.37s-3.162 1.449-4.083 2.897c-.922 1.449-1.318 2.239-1.318 2.897 0 .659 1.318 0 1.318 0z"/></svg>