<svg width="16" height="16" viewBox="0 0 16 16" fill="none" xmlns="http://www.w3.org/2000/svg">
    <path
        d="M9.875 1.4375C9.35645 1.4375 8.9375 1.85645 8.9375 2.375C8.9375 2.89355 9.35645 3.3125 9.875 3.3125H11.3604L8 6.67285L4.63965 3.3125H6.125C6.64355 3.3125 7.0625 2.89355 7.0625 2.375C7.0625 1.85645 6.64355 1.4375 6.125 1.4375H2.375C1.85645 1.4375 1.4375 1.85645 1.4375 2.375V6.125C1.4375 6.64355 1.85645 7.0625 2.375 7.0625C2.89355 7.0625 3.3125 6.64355 3.3125 6.125V4.63965L6.67285 8L3.3125 11.3604V9.875C3.3125 9.35645 2.89355 8.9375 2.375 8.9375C1.85645 8.9375 1.4375 9.35645 1.4375 9.875V13.625C1.4375 14.1436 1.85645 14.5625 2.375 14.5625H6.125C6.64355 14.5625 7.0625 14.1436 7.0625 13.625C7.0625 13.1064 6.64355 12.6875 6.125 12.6875H4.63965L8 9.32715L11.3604 12.6875H9.875C9.35645 12.6875 8.9375 13.1064 8.9375 13.625C8.9375 14.1436 9.35645 14.5625 9.875 14.5625H13.625C14.1436 14.5625 14.5625 14.1436 14.5625 13.625V9.875C14.5625 9.35645 14.1436 8.9375 13.625 8.9375C13.1064 8.9375 12.6875 9.35645 12.6875 9.875V11.3604L9.32715 8L12.6875 4.63965V6.125C12.6875 6.64355 13.1064 7.0625 13.625 7.0625C14.1436 7.0625 14.5625 6.64355 14.5625 6.125V2.375C14.5625 1.85645 14.1436 1.4375 13.625 1.4375H9.875Z"
        fill="#E0AF65" />
</svg>