<svg width="12" height="12" viewBox="0 0 12 12" fill="none" xmlns="http://www.w3.org/2000/svg">
    <path
        d="M2.25 0.75C1.42266 0.75 0.75 1.42266 0.75 2.25V9.75C0.75 10.5773 1.42266 11.25 2.25 11.25H9.75C10.5773 11.25 11.25 10.5773 11.25 9.75V2.25C11.25 1.42266 10.5773 0.75 9.75 0.75H2.25ZM5.0625 7.875H5.625V6.375H5.0625C4.75078 6.375 4.5 6.12422 4.5 5.8125C4.5 5.50078 4.75078 5.25 5.0625 5.25H6.1875C6.49922 5.25 6.75 5.50078 6.75 5.8125V7.875H6.9375C7.24922 7.875 7.5 8.12578 7.5 8.4375C7.5 8.74922 7.24922 9 6.9375 9H5.0625C4.75078 9 4.5 8.74922 4.5 8.4375C4.5 8.12578 4.75078 7.875 5.0625 7.875ZM6 3C6.19891 3 6.38968 3.07902 6.53033 3.21967C6.67098 3.36032 6.75 3.55109 6.75 3.75C6.75 3.94891 6.67098 4.13968 6.53033 4.28033C6.38968 4.42098 6.19891 4.5 6 4.5C5.80109 4.5 5.61032 4.42098 5.46967 4.28033C5.32902 4.13968 5.25 3.94891 5.25 3.75C5.25 3.55109 5.32902 3.36032 5.46967 3.21967C5.61032 3.07902 5.80109 3 6 3Z"
        fill="#E0AF65" />
</svg>