<svg width="13" height="13" viewBox="0 0 13 13" fill="none" xmlns="http://www.w3.org/2000/svg">
    <path
        d="M11.6319 3.13193C12.7483 4.68923 13.1189 6.70857 12.617 8.56139C12.6099 8.5825 12.6053 8.60595 12.5982 8.62706C12.5677 8.73026 12.5372 8.8358 12.5021 8.93665L12.4974 8.95072C12.4622 9.05626 12.4223 9.15945 12.3801 9.26265C12.2534 9.57458 11.7961 9.56754 11.6812 9.25092C11.639 9.14304 11.5968 9.03281 11.5498 8.92492C11.5123 8.83814 11.4748 8.75136 11.4349 8.66459L11.4162 8.62472C10.7501 7.16591 9.75331 5.81265 8.63693 4.69392C7.52758 3.58458 6.17198 2.57608 4.71317 1.91704L4.6733 1.89828C4.58653 1.8584 4.4974 1.82088 4.40828 1.78335C4.30039 1.73879 4.19251 1.69658 4.08462 1.65436C3.77035 1.53709 3.76331 1.07975 4.0729 0.955448C4.17609 0.913231 4.27929 0.875706 4.38483 0.838181L4.38952 0.835835C4.49506 0.800655 4.6006 0.76782 4.70614 0.737331C4.72959 0.730295 4.75304 0.725604 4.77415 0.718568C6.62463 0.21901 8.64397 0.589574 10.1989 1.70596L10.4217 1.47377C10.5625 1.32836 10.7548 1.24627 10.9565 1.24392C11.1582 1.24158 11.3528 1.32132 11.4936 1.46439L11.8688 1.83964C12.0119 1.98271 12.0916 2.17503 12.0893 2.37673C12.0869 2.57842 12.0048 2.77074 11.8594 2.91146L11.6272 3.13427L11.6319 3.13193ZM10.1731 3.14834C9.2092 2.18675 7.8958 1.65905 6.56365 1.62622C7.62843 2.27588 8.60175 3.06626 9.43435 3.9012C10.2763 4.74318 11.062 5.71884 11.7093 6.78128C11.6788 5.43974 11.1441 4.11697 10.1731 3.15069V3.14834ZM1.04506 11.228L7.42439 4.59307C7.65189 4.79008 7.88173 5.00116 8.10688 5.22632C8.33204 5.45147 8.54312 5.68131 8.74013 5.90881L2.1075 12.2905C1.81199 12.5743 1.34526 12.5696 1.05679 12.2811C0.768308 11.9926 0.763617 11.5236 1.04506 11.228Z" />
</svg>