<svg width="13" height="10" viewBox="0 0 13 10" fill="none" xmlns="http://www.w3.org/2000/svg">
    <path
        d="M10.2603 0.9H7.88467C7.65405 0.369375 7.1253 0 6.5103 0C5.8953 0 5.36655 0.369375 5.13592 0.9H2.7603C2.51092 0.9 2.3103 1.10062 2.3103 1.35C2.3103 1.59937 2.51092 1.8 2.7603 1.8H5.0403C5.14905 2.33625 5.54467 2.76937 6.0603 2.93062V8.7H2.7603C2.51092 8.7 2.3103 8.90062 2.3103 9.15C2.3103 9.39937 2.51092 9.6 2.7603 9.6H6.5103H10.2603C10.5097 9.6 10.7103 9.39937 10.7103 9.15C10.7103 8.90062 10.5097 8.7 10.2603 8.7H6.9603V2.93062C7.47592 2.76937 7.87155 2.33625 7.9803 1.8H10.2603C10.5097 1.8 10.7103 1.59937 10.7103 1.35C10.7103 1.10062 10.5097 0.9 10.2603 0.9ZM10.1103 3.67125L11.4678 6H8.7528L10.1103 3.67125ZM7.7478 6.32062C7.9503 7.1625 8.93092 7.8 10.1103 7.8C11.2897 7.8 12.2703 7.1625 12.4728 6.32062C12.5215 6.11437 12.454 5.9025 12.3472 5.71875L10.5622 2.65875C10.4684 2.4975 10.2959 2.4 10.1103 2.4C9.92467 2.4 9.75217 2.49937 9.65842 2.65875L7.87342 5.72062C7.76655 5.90437 7.69905 6.11625 7.7478 6.3225V6.32062ZM1.5303 6L2.8878 3.67125L4.24717 6H1.5303ZM2.8878 7.8C4.06717 7.8 5.0478 7.1625 5.2503 6.32062C5.29905 6.11437 5.23155 5.9025 5.12467 5.71875L3.33967 2.65875C3.24592 2.4975 3.07342 2.4 2.8878 2.4C2.70217 2.4 2.52967 2.49937 2.43592 2.65875L0.6528 5.72062C0.545925 5.90437 0.478425 6.11625 0.527175 6.3225C0.729675 7.1625 1.7103 7.8 2.8878 7.8ZM6.5103 0.9C6.66943 0.9 6.82204 0.963214 6.93456 1.07574C7.04708 1.18826 7.1103 1.34087 7.1103 1.5C7.1103 1.65913 7.04708 1.81174 6.93456 1.92426C6.82204 2.03679 6.66943 2.1 6.5103 2.1C6.35117 2.1 6.19856 2.03679 6.08604 1.92426C5.97351 1.81174 5.9103 1.65913 5.9103 1.5C5.9103 1.34087 5.97351 1.18826 6.08604 1.07574C6.19856 0.963214 6.35117 0.9 6.5103 0.9Z" />
</svg>