<svg xmlns="http://www.w3.org/2000/svg" fill="none" viewBox="-0.5 -0.5 14 14" height="14" width="14"><g id="gold--gold-money-payment-bars-finance-wealth-bullion-jewelry"><path id="Vector" stroke="currentColor" stroke-linecap="round" stroke-linejoin="round" d="M5.255714285714286 8.635677142857144c-0.04341071428571429 -0.21290285714285717 -0.1601042857142857 -0.4038357142857143 -0.32977285714285715 -0.539565 -0.16966857142857142 -0.13573857142857143 -0.3815592857142857 -0.207675 -0.5987985714285714 -0.20329214285714287H2.1542857142857144c-0.21723928571428572 -0.004382857142857143 -0.42913 0.06755357142857142 -0.5987985714285714 0.20329214285714287 -0.16966857142857142 0.13572928571428572 -0.28636214285714284 0.32666214285714285 -0.32977285714285715 0.539565L0.4642857142857143 12.535714285714286h5.571428571428571l-0.78 -3.900037142857143Z" stroke-width="1"></path><path id="Vector_2" stroke="currentColor" stroke-linecap="round" stroke-linejoin="round" d="M11.755714285714287 8.635677142857144c-0.04345714285714286 -0.21290285714285717 -0.16008571428571428 -0.4038357142857143 -0.3297357142857143 -0.539565 -0.16974285714285714 -0.13573857142857143 -0.3816428571428571 -0.207675 -0.5988357142857144 -0.20329214285714287H8.654285714285715c-0.21723928571428572 -0.004382857142857143 -0.42913 0.06755357142857142 -0.5987985714285714 0.20329214285714287 -0.16966857142857142 0.13572928571428572 -0.28636214285714284 0.32666214285714285 -0.32977285714285715 0.539565L6.964285714285714 12.535714285714286h5.571428571428571l-0.78 -3.900037142857143Z" stroke-width="1"></path><path id="Vector_3" stroke="currentColor" stroke-linecap="round" stroke-linejoin="round" d="m9.285714285714286 7.89282 -0.78 -3.9000000000000004c-0.04341071428571429 -0.21290285714285717 -0.1601042857142857 -0.4038357142857143 -0.32977285714285715 -0.539565 -0.16966857142857142 -0.13573857142857143 -0.3815592857142857 -0.207675 -0.5987985714285714 -0.20329214285714287H5.404285714285715c-0.21723928571428572 -0.004382857142857143 -0.42913 0.06755357142857142 -0.5987985714285714 0.20329214285714287 -0.16966857142857142 0.13572928571428572 -0.28636214285714284 0.32666214285714285 -0.32977285714285715 0.539565l-0.7614285714285715 3.9000000000000004" stroke-width="1"></path><path id="Vector_4" stroke="currentColor" stroke-linecap="round" stroke-linejoin="round" d="M4.345760714285714 7.892857142857143h4.308571428571429" stroke-width="1"></path></g></svg>