<svg width="10" height="10" viewBox="0 0 10 10" fill="none" xmlns="http://www.w3.org/2000/svg">
    <g clip-path="url(#clip0_1367_24532)">
        <path
            d="M9.0625 5C9.0625 6.07744 8.63449 7.11075 7.87262 7.87262C7.11075 8.63449 6.07744 9.0625 5 9.0625C3.92256 9.0625 2.88925 8.63449 2.12738 7.87262C1.36551 7.11075 0.9375 6.07744 0.9375 5C0.9375 3.92256 1.36551 2.88925 2.12738 2.12738C2.88925 1.36551 3.92256 0.9375 5 0.9375C6.07744 0.9375 7.11075 1.36551 7.87262 2.12738C8.63449 2.88925 9.0625 3.92256 9.0625 5ZM0 5C0 6.32608 0.526784 7.59785 1.46447 8.53553C2.40215 9.47322 3.67392 10 5 10C6.32608 10 7.59785 9.47322 8.53553 8.53553C9.47322 7.59785 10 6.32608 10 5C10 3.67392 9.47322 2.40215 8.53553 1.46447C7.59785 0.526784 6.32608 0 5 0C3.67392 0 2.40215 0.526784 1.46447 1.46447C0.526784 2.40215 0 3.67392 0 5ZM4.53125 2.34375V5C4.53125 5.15625 4.60938 5.30273 4.74023 5.39062L6.61523 6.64062C6.83008 6.78516 7.12109 6.72656 7.26562 6.50977C7.41016 6.29297 7.35156 6.00391 7.13477 5.85938L5.46875 4.75V2.34375C5.46875 2.08398 5.25977 1.875 5 1.875C4.74023 1.875 4.53125 2.08398 4.53125 2.34375Z"
            fill="#E0AF65" />
    </g>
    <defs>
        <clipPath id="clip0_1367_24532">
            <rect width="10" height="10" fill="white" />
        </clipPath>
    </defs>
</svg>