<svg width="15" height="12" viewBox="0 0 15 12" fill="none" xmlns="http://www.w3.org/2000/svg">
    <g clip-path="url(#clip0_1165_21864)">
        <path
            d="M9.63889 2.8125C9.63889 2.98594 9.57326 3.25781 9.41042 3.63281C9.25243 3.99375 9.02882 4.39219 8.76875 4.79766C8.35313 5.44922 7.87188 6.07969 7.5 6.54141C7.12813 6.07969 6.64688 5.44922 6.23125 4.79766C5.97118 4.39219 5.74757 3.99375 5.58958 3.63281C5.42674 3.26016 5.36111 2.98594 5.36111 2.8125C5.36111 1.67344 6.31875 0.75 7.5 0.75C8.68125 0.75 9.63889 1.67344 9.63889 2.8125ZM10.4167 2.8125C10.4167 1.25859 9.11146 0 7.5 0C5.88854 0 4.58333 1.25859 4.58333 2.8125C4.58333 4.09219 6.36007 6.37266 7.14028 7.3125C7.32743 7.5375 7.675 7.5375 7.85972 7.3125C8.63993 6.37266 10.4167 4.09219 10.4167 2.8125ZM10.3049 5.24063C10.3267 5.23594 10.3462 5.23125 10.3656 5.22188L13.7222 3.92813V9.87188L10.6111 11.0719V7.125C10.6111 6.91875 10.4361 6.75 10.2222 6.75C10.0083 6.75 9.83333 6.91875 9.83333 7.125V11.1281L5.16667 9.84141V7.125C5.16667 6.91875 4.99167 6.75 4.77778 6.75C4.56389 6.75 4.38889 6.91875 4.38889 7.125V9.87188L1.27778 11.0719V5.12813L4.08507 4.04531C3.99028 3.81094 3.91007 3.56719 3.86146 3.32344L0.867014 4.47891C0.645833 4.56563 0.5 4.77187 0.5 5.00156V11.3484C0.5 11.7469 0.915625 12.0188 1.29965 11.8711L4.79965 10.5211L10.1153 11.9859C10.1979 12.0094 10.2854 12.0047 10.3656 11.9742L14.133 10.5211C14.3542 10.4367 14.5 10.2281 14.5 9.99844V3.65156C14.5 3.25313 14.0844 2.98125 13.7003 3.12891L10.8347 4.23516C10.6865 4.56797 10.5042 4.91016 10.3049 5.24063Z" />
    </g>
    <defs>
        <clipPath id="clip0_1165_21864">
            <rect width="14" height="12" fill="white" transform="translate(0.5)" />
        </clipPath>
    </defs>
</svg>