<svg viewBox="0 0 129 128" fill="none" xmlns="http://www.w3.org/2000/svg">
<path d="M122.399 124.802C125.39 124.802 127.323 121.639 125.958 118.977L94.5972 57.8226L19.4388 124.802H122.399Z" fill="#3B3B3B"/>
<path d="M68.5044 6.94075C67.0174 4.04107 62.8728 4.04107 61.3858 6.94075L3.93235 118.977C2.56735 121.639 4.50026 124.802 7.49164 124.802H19.4388L94.5972 57.8226L68.5044 6.94075Z" fill="#838383"/>
<path d="M96.9866 65.638L25.6343 123.789H18.0054L91.3158 54.1475L96.9866 65.638Z" fill="#A8FFF6"/>
<path d="M70.4147 6.37092C68.1376 1.93039 61.7343 1.9304 59.4571 6.37093L7.99383 106.726L12.1334 108.993L63.6716 8.4917C64.1971 7.46695 65.6748 7.46696 66.2002 8.49169L70.4147 6.37092Z" fill="white"/>
<path d="M70.4147 6.37092L66.2002 8.49169L71.616 19.0526L75.7513 16.7775L70.4147 6.37092Z" fill="white"/>
<path d="M80.902 26.8214L76.7667 29.0966L79.5998 34.6213L83.781 32.4357L80.902 26.8214Z" fill="white"/>
<path d="M124.038 121.276L128.252 119.156L87.1995 39.1018L83.0413 41.3322L124.038 121.276Z" fill="white"/>
<path d="M122.773 128C127.359 128 130.329 123.205 128.252 119.156L124.038 121.276C124.517 122.211 123.831 123.317 122.773 123.317H7.09856C6.04041 123.317 5.35498 122.211 5.83423 121.276L8.34911 116.372L4.2101 114.104L1.61976 119.156C-0.45695 123.205 2.51321 128 7.09856 128H122.773Z" fill="white"/>
<ellipse cx="73.6594" cy="17.855" rx="2.36353" ry="2.34131" fill="white"/>
<ellipse cx="79.0061" cy="28.2809" rx="2.36354" ry="2.34131" fill="white"/>
<ellipse cx="81.7883" cy="33.6975" rx="2.36354" ry="2.34131" fill="white"/>
<ellipse cx="85.1809" cy="40.2886" rx="2.36353" ry="2.3413" fill="white"/>
<ellipse cx="10.093" cy="107.802" rx="2.36353" ry="2.3413" fill="white"/>
<ellipse cx="6.1565" cy="115.437" rx="2.36353" ry="2.3413" fill="white"/>
</svg>
