<svg viewBox="0 0 88 146" fill="none" xmlns="http://www.w3.org/2000/svg">
<path d="M6.64737 35.8125C19.9361 29.5768 27.4905 25.4598 24.7023 2.34403C33.859 8.13443 39.0371 10.8794 45.0108 10.4776C50.1654 10.131 55.9124 7.44144 65.3193 2.34393C62.5311 25.4597 69.909 29.5768 83.1978 35.8125C77.6416 53.6071 81.5891 64.6794 86.4692 81.3145C67.3178 85.4148 62.4028 99.7556 65.3193 127.887C52.7094 124.563 49.3344 130.245 45.0108 143.842C40.6872 130.245 37.3122 124.563 24.7023 127.887C27.6187 99.7557 21.4369 85.4148 2.28552 81.3145C7.16558 64.6794 12.2035 53.6071 6.64737 35.8125Z" fill="#340D07"/>
<path d="M10.6066 37.8709C22.759 32.1685 31.3361 29.5229 28.7864 8.38397C37.16 13.6792 43.3554 14.4939 44.5648 14.7255C45.7742 14.9571 44.7321 138.487 44.7321 138.487C40.7783 126.053 40.3179 120.59 28.7864 123.63C31.4534 97.9043 24.1314 83.2314 6.6178 79.4818C11.0805 64.2693 15.6876 54.1438 10.6066 37.8709Z" fill="#5D0503"/>
<path d="M78.9202 37.8709C66.7679 32.1685 58.1907 29.5229 60.7405 8.38397C52.3668 13.6792 46.1715 14.4939 44.9621 14.7255C43.7527 14.9571 44.7948 138.487 44.7948 138.487C48.7486 126.053 49.2089 120.59 60.7405 123.63C58.0735 97.9043 65.3955 83.2314 82.9091 79.4818C78.4463 64.2693 73.8392 54.1438 78.9202 37.8709Z" fill="#5D0503"/>
<path d="M74.182 40.228C53.8598 48.7144 43.9747 49.7461 58.4959 12.8835C51.2709 17.794 45.7486 18.5798 44.7051 18.7946C43.6616 19.0094 44.7375 133.534 44.7375 133.534C48.149 122.003 48.5462 116.937 58.4959 119.756C44.1051 86.3982 50.7975 73.1056 77.6237 78.8157C54.7246 69.5065 47.2094 61.009 74.182 40.228Z" fill="#B75700"/>
<path d="M15.3449 40.228C35.6671 48.7144 45.5521 49.7461 31.0309 12.8835C38.256 17.794 43.6625 18.5756 44.706 18.7903C45.7495 19.0051 44.7894 133.534 44.7894 133.534C41.3779 122.003 40.9807 116.937 31.0309 119.756C45.4217 86.3982 38.7294 73.1056 11.9032 78.8157C34.8023 69.5065 42.3175 61.009 15.3449 40.228Z" fill="#B75700"/>
<path d="M25.7538 47.3948C46.076 55.8811 48.0682 52.629 33.547 15.7664C40.772 20.6769 44.7051 44.6415 44.7051 19.0203C44.7051 -6.60092 44.7885 133.764 44.7885 133.764C41.377 122.233 43.4967 74.9409 33.547 77.7596C35.9532 68.2491 52.7264 68.1757 25.7538 47.3948Z" fill="#FF1800"/>
<path d="M63.6436 47.3948C43.3214 55.8811 41.3292 52.629 55.8504 15.7664C48.6253 20.6769 44.6922 44.6415 44.6922 19.0203C44.6922 -6.60092 44.6089 133.764 44.6089 133.764C48.0203 122.233 45.9006 74.9409 55.8504 77.7596C53.4441 68.2491 36.671 68.1757 63.6436 47.3948Z" fill="#FF1800"/>
<path fill-rule="evenodd" clip-rule="evenodd" d="M66.1243 0.972665C66.637 1.3213 66.9124 1.92689 66.8382 2.54248C65.4594 13.9733 66.6577 20.2854 69.4786 24.4834C72.3373 28.7376 77.052 31.1567 83.7748 34.3113C84.5252 34.6634 84.9003 35.5155 84.6532 36.3066C79.5747 52.5715 82.6363 62.9262 87.106 78.0434C87.377 78.9599 87.6531 79.8939 87.933 80.8477C88.0628 81.2903 88.0024 81.7669 87.7664 82.1631C87.5303 82.5594 87.14 82.8394 86.689 82.9359C77.5408 84.8945 72.0253 89.2085 69.0159 96.2413C65.9328 103.447 65.3888 113.705 66.8413 127.716C66.8974 128.257 66.6841 128.792 66.2705 129.146C65.8569 129.5 65.2958 129.629 64.7693 129.49C58.7054 127.892 55.405 128.59 53.0487 130.743C51.7926 131.891 50.6833 133.556 49.6088 135.849C48.5354 138.139 47.5402 140.959 46.4637 144.344C46.2448 145.033 45.6057 145.5 44.8835 145.5C44.1612 145.5 43.5221 145.033 43.3032 144.344C42.2267 140.959 41.2316 138.139 40.1581 135.849C39.0836 133.556 37.9743 131.891 36.7182 130.743C34.3619 128.59 31.0616 127.892 24.9976 129.49C24.4711 129.629 23.91 129.5 23.4964 129.146C23.0828 128.792 22.8695 128.257 22.9256 127.716C24.3746 113.739 23.5205 103.492 20.141 96.2938C16.8265 89.2341 10.98 84.899 1.81104 82.9359C1.36006 82.8394 0.969661 82.5594 0.733623 82.1631C0.497585 81.7669 0.437231 81.2903 0.567058 80.8477C1.20362 78.6778 1.83818 76.6128 2.44909 74.6247C6.57165 61.2087 9.61756 51.2964 4.93721 36.3066C4.69018 35.5155 5.06529 34.6634 5.81564 34.3113C12.5416 31.1552 17.3032 28.7349 20.206 24.4746C23.0665 20.2764 24.3067 13.9664 22.9287 2.54257C22.8521 1.90702 23.1481 1.28411 23.6893 0.942177C24.2305 0.600248 24.9202 0.600386 25.4612 0.942532C34.0652 6.38338 38.7429 8.83325 43.6727 8.85775C48.655 8.88251 54.1617 6.43515 64.4019 0.886027C64.9471 0.590609 65.6115 0.624032 66.1243 0.972665ZM26.5696 5.54512C27.3771 15.2869 26.132 21.667 22.9467 26.3419C19.6793 31.1372 14.5288 33.8578 8.51851 36.704C12.909 51.9749 9.62618 62.6205 5.60469 75.6617C5.15833 77.1092 4.70287 78.5862 4.24779 80.1024C13.2861 82.4212 19.5352 87.2001 23.143 94.8843C26.7062 102.474 27.5973 112.705 26.4455 125.755C31.8159 124.714 35.8212 125.432 38.955 128.295C40.6593 129.852 41.9926 131.948 43.161 134.441C43.7599 135.719 44.3269 137.127 44.8835 138.655C45.44 137.127 46.007 135.719 46.6059 134.441C47.7744 131.948 49.1076 129.852 50.8119 128.295C53.9451 125.432 57.9496 124.715 63.3185 125.755C62.1378 112.738 62.7228 102.518 65.967 94.9367C69.2664 87.226 75.2309 82.4267 84.2561 80.1022C84.1335 79.6875 84.0116 79.2758 83.8906 78.867C79.5499 64.2056 76.2836 53.1732 81.0701 36.7029C75.063 33.8556 69.9518 31.1336 66.726 26.333C63.5568 21.6167 62.3603 15.1671 63.2181 5.28527C54.7271 9.78949 49.0735 12.201 43.6563 12.1741C38.3333 12.1476 33.4462 9.77136 26.5696 5.54512Z" fill="white"/>
</svg>
