<svg viewBox="0 0 129 128" fill="none" xmlns="http://www.w3.org/2000/svg">
<path d="M122.102 124.146C125.095 124.146 127.028 120.978 125.659 118.316L94.3866 57.5184L19.397 124.146H122.102Z" fill="#D54C28"/>
<path d="M68.3581 6.91538C66.8696 4.02153 62.7325 4.02153 61.244 6.91538L3.9434 118.316C2.57415 120.978 4.5069 124.146 7.50043 124.146H19.397L94.3866 57.5184L68.3581 6.91538Z" fill="#FF6239"/>
<path d="M93.3221 58.2119L20.1406 123.404H28.6158L99.3814 69.0324L93.3221 58.2119Z" fill="#028860"/>
<path d="M70.5653 7.01063C68.2933 2.59345 61.9043 2.59347 59.6323 7.01064L8.28463 106.838L12.4149 109.093L63.8373 9.12025C64.3616 8.1009 65.836 8.1009 66.3603 9.12025L70.5653 7.01063Z" fill="white"/>
<path d="M70.5653 7.01063L66.3603 9.12025L71.7639 19.6256L75.8899 17.3624L70.5653 7.01063Z" fill="white"/>
<path d="M81.029 27.3535L76.903 29.6167L79.7298 35.1124L83.9016 32.9383L81.029 27.3535Z" fill="white"/>
<path d="M124.068 121.312L128.273 119.202L87.3124 39.5694L83.1635 41.788L124.068 121.312Z" fill="white"/>
<path d="M122.806 128C127.381 128 130.345 123.231 128.273 119.202L124.068 121.312C124.546 122.241 123.862 123.342 122.806 123.342H7.39138C6.33561 123.342 5.65172 122.241 6.12989 121.312L8.63912 116.433L4.50941 114.177L1.92489 119.202C-0.147159 123.231 2.81633 128 7.39138 128H122.806Z" fill="white"/>
<ellipse cx="73.8026" cy="18.4343" rx="2.35822" ry="2.32899" fill="white"/>
<ellipse cx="79.1375" cy="28.8054" rx="2.35823" ry="2.32899" fill="white"/>
<ellipse cx="81.9139" cy="34.1935" rx="2.35823" ry="2.32899" fill="white"/>
<ellipse cx="85.2987" cy="40.7499" rx="2.35822" ry="2.32899" fill="white"/>
<ellipse cx="10.3787" cy="107.908" rx="2.35822" ry="2.32899" fill="white"/>
<ellipse cx="6.45197" cy="115.503" rx="2.35822" ry="2.32899" fill="white"/>
</svg>
