<svg viewBox="0 0 130 130" fill="none" xmlns="http://www.w3.org/2000/svg">
<path d="M4.49403 68.5358C2.54141 66.5832 2.54141 63.4173 4.49403 61.4647L39.6175 26.3413L44.7773 21.1815L61.423 4.53586C63.3756 2.58324 66.5414 2.58324 68.494 4.53586L71.7944 7.83622L76.1328 12.1746L84.4467 20.4885L90.2995 26.3413L125.423 61.4647C127.376 63.4173 127.376 66.5832 125.423 68.5358L90.2995 103.659L84.4467 109.512L68.494 125.465C66.5414 127.417 63.3756 127.417 61.423 125.465L45.4703 109.512L39.6175 103.659L12.1328 76.1745L7.7944 71.8361L4.49403 68.5358Z" fill="#F0F0F0"/>
<path d="M64.9585 129L128.958 65.0002L109.509 45.551L64.9585 86.0745L51.7241 74.0365L20.4079 45.551L0.958496 65.0002L51.7241 115.766L57.2552 121.297L64.9585 129Z" fill="#E1E1E1"/>
<path d="M71.6797 8.18956L64.9035 2.67395L58.127 8.18956V15.4091H71.6797V8.18956Z" fill="#BD029F"/>
<path d="M58.127 22.6285H71.6797V15.4091H58.127V22.6285Z" fill="#9C00D2"/>
<path d="M71.6797 22.6285H58.127V29.848H71.6797V22.6285Z" fill="#5400DE"/>
<path d="M58.127 37.0675H71.6797V29.848H58.127V37.0675Z" fill="#0085E5"/>
<path d="M71.6797 37.0675H58.127V44.287H71.6797V37.0675Z" fill="#03D7B0"/>
<path d="M58.127 51.5065H71.6797V44.287H58.127V51.5065Z" fill="#7CC800"/>
<path d="M71.6797 51.5065H58.127V58.726H71.6797V51.5065Z" fill="#E9B600"/>
<path d="M58.127 65.9455H71.6797V58.726H58.127V65.9455Z" fill="#E25F00"/>
<path d="M71.6797 65.9455H58.127V73.165H71.6797V65.9455Z" fill="#D40303"/>
<path fill-rule="evenodd" clip-rule="evenodd" d="M64.9035 127.326L58.127 123.701V116.482V109.262V102.043V94.8235V87.604V80.3845H71.6797V87.604V94.8235V102.043V109.262V116.482V123.701L64.9035 127.326Z" fill="#C4C4C4"/>
<path d="M58.127 80.3845H71.6797V73.165H58.127V80.3845Z" fill="#C4C4C4"/>
<path d="M58.127 117.348H64.9033H71.6797V123.715L64.9033 127.262L58.127 123.715V117.348Z" fill="#9C00D2"/>
<path d="M71.6797 117.348H64.9033H58.127V110.128H71.6797V117.348Z" fill="#5400DE"/>
<path d="M58.127 102.909H71.6797V110.128H58.127V102.909Z" fill="#0085E5"/>
<path d="M71.6797 102.909H58.127V95.6894H71.6797V102.909Z" fill="#03D7B0"/>
<path d="M58.127 88.4699H71.6797V95.6894H58.127V88.4699Z" fill="#7CC800"/>
<path d="M71.6797 88.4699H58.127V81.2504H71.6797V88.4699Z" fill="#E9B600"/>
<path d="M58.127 74.0309H71.6797V81.2504H58.127V74.0309Z" fill="#E25F00"/>
<path d="M71.6797 74.0309H58.127V66.8114H71.6797V74.0309Z" fill="#D40303"/>
<path fill-rule="evenodd" clip-rule="evenodd" d="M60.3622 2.06069L23.4415 38.9816L26.9771 42.5171L63.8978 5.5962C64.4836 5.01041 65.4333 5.01041 66.0191 5.5962L124.362 63.9392C124.948 64.525 124.948 65.4748 124.362 66.0606L89.2496 101.173L92.7851 104.709L127.898 69.5961C130.436 67.0577 130.436 62.9421 127.898 60.4037L69.5546 2.06067C67.0162 -0.477744 62.9006 -0.477736 60.3622 2.06069Z" fill="white"/>
<path fill-rule="evenodd" clip-rule="evenodd" d="M69.5546 127.939L117.063 80.4305L113.528 76.895L66.0191 124.404C65.4333 124.989 64.4836 124.989 63.8978 124.404L5.55462 66.0606C4.96884 65.4748 4.96884 64.525 5.55462 63.9392L20.8959 48.598L17.3604 45.0624L2.01909 60.4037C-0.519322 62.9421 -0.519322 67.0577 2.01909 69.5961L60.3622 127.939C62.9006 130.478 67.0162 130.478 69.5546 127.939Z" fill="white"/>
<path d="M21.6099 46.8712C21.6099 48.2633 20.4814 49.3918 19.0894 49.3918C17.6973 49.3918 16.5688 48.2633 16.5688 46.8712C16.5688 45.4792 17.6973 44.3507 19.0894 44.3507C20.4814 44.3507 21.6099 45.4792 21.6099 46.8712Z" fill="white"/>
<path d="M27.7007 40.7786C27.7007 42.1706 26.5722 43.2991 25.1802 43.2991C23.7881 43.2991 22.6597 42.1706 22.6597 40.7786C22.6597 39.3865 23.7881 38.2581 25.1802 38.2581C26.5722 38.2581 27.7007 39.3865 27.7007 40.7786Z" fill="white"/>
</svg>
