<svg viewBox="0 0 176 199" fill="none" xmlns="http://www.w3.org/2000/svg">
<path fill-rule="evenodd" clip-rule="evenodd" d="M2.05994 143.483V132.482L98.859 188.449L89.3598 193.941C87.0283 195.288 84.1558 195.288 81.8243 193.941L5.82767 150.016C3.4962 148.669 2.05994 146.179 2.05994 143.483Z" fill="#A8D5FF"/>
<path d="M108.358 182.959L117.857 177.468L2.05994 110.54V121.522L108.358 182.959Z" fill="#A8D5FF"/>
<path d="M165.355 49.1043L89.3598 5.17965C87.0284 3.83237 84.1559 3.83237 81.8244 5.17965L5.82776 49.1043C3.49628 50.4516 2.06003 52.9409 2.06003 55.637L1.9696 84.4488L138.52 165.02L165.355 150.016C167.686 148.669 169.123 146.179 169.123 143.483V55.637C169.123 52.9409 167.686 50.4516 165.355 49.1043Z" fill="#A8D5FF"/>
<path d="M138.52 165.02L1.9696 84.4489L2.06003 110.541L117.857 177.468L138.52 165.02Z" fill="#A8D5FF"/>
<path d="M138.52 165.02L1.9696 84.4489L2.06003 110.541L117.857 177.468L138.52 165.02Z" fill="black" fill-opacity="0.05"/>
<path d="M108.358 182.959L2.05994 121.522V132.482L98.859 188.449L108.358 182.959Z" fill="#A8D5FF"/>
<path d="M108.358 182.959L2.05994 121.522V132.482L98.859 188.449L108.358 182.959Z" fill="black" fill-opacity="0.05"/>
<path d="M133.542 27.1103C133.542 29.1938 131.855 30.8821 129.774 30.8821C127.694 30.8821 126.006 29.1938 126.006 27.1103C126.006 25.0267 127.694 23.3385 129.774 23.3385C131.855 23.3385 133.542 25.0267 133.542 27.1103Z" fill="white"/>
<path d="M93.7395 1.91332C90.243 -0.106848 85.9342 -0.106848 82.4363 1.91332L6.44115 45.8379C2.94319 47.8581 0.789551 51.5936 0.789551 55.637V143.483C0.789551 147.527 2.94319 151.262 6.44115 153.282L82.4363 197.207C85.9342 199.227 90.243 199.227 93.7395 197.207L169.736 153.282C173.234 151.262 175.388 147.527 175.388 143.483V55.637C175.388 51.5936 173.234 47.8581 169.736 45.8379L150.738 34.856L146.97 41.3887L165.968 52.3706C167.135 53.0435 167.852 54.2897 167.852 55.637V143.483C167.852 144.83 167.135 146.077 165.968 146.75L89.9717 190.674C88.8068 191.347 87.3705 191.347 86.204 190.674L10.2089 146.75C9.04239 146.077 8.32501 144.83 8.32501 143.483V55.637C8.32501 54.2897 9.04239 53.0435 10.2089 52.3706L86.204 8.44604C87.3705 7.77315 88.8068 7.77315 89.9717 8.44604L127.97 30.4083L131.738 23.8756L93.7395 1.91332Z" fill="white"/>
<path d="M152.735 38.1872C152.735 40.2707 151.048 41.959 148.967 41.959C146.886 41.959 145.199 40.2707 145.199 38.1872C145.199 36.1052 146.886 34.4154 148.967 34.4154C151.048 34.4154 152.735 36.1052 152.735 38.1872Z" fill="white"/>
<path d="M62.1402 47.4085L88.3726 23.2993L114.046 47.4085V91.7691L88.0878 127.001L119.75 159.839L88.0878 152.35L56.4253 159.839L88.0878 127.001L62.1402 91.7691V47.4085Z" fill="#EBEBEB"/>
<path d="M65.388 64.395V54.9143H58.8925V64.395H65.388Z" fill="black"/>
<path fill-rule="evenodd" clip-rule="evenodd" d="M90.5956 25.1187C89.3568 23.9555 87.4292 23.945 86.1784 25.0961L59.9444 49.2038C59.2737 49.8194 58.8925 50.6884 58.8925 51.5996V54.9143H65.388C75.912 55.3503 80.4333 57.894 82.4272 59.9126C83.5153 61.0155 84.0217 62.1259 84.3081 63.0643C84.4573 63.5532 84.5492 64.0013 84.6396 64.4644L84.6517 64.5263L84.6667 64.6047C84.7029 64.7903 84.7466 65.0091 84.7933 65.2082C84.8446 65.4225 84.9561 65.8721 85.1837 66.3307C85.7338 67.4321 86.8581 68.1276 88.0894 68.1276C89.3191 68.1276 90.4434 67.4321 90.9935 66.3307C91.2211 65.8736 91.3326 65.4239 91.3823 65.2097C91.4366 64.9819 91.4863 64.7285 91.5255 64.5293L91.5376 64.4659C91.628 64.0043 91.7199 63.5562 91.8706 63.0673C92.157 62.1274 92.6634 61.017 93.7545 59.9141C95.7499 57.894 100.274 55.3503 110.798 54.9143H117.294V51.5996C117.294 50.7004 116.923 49.842 116.267 49.2279L90.5956 25.1187ZM89.1368 55.3412C92.267 52.1745 97.4951 49.6519 106.242 48.7286L88.3501 31.9261L70.054 48.7391C78.7348 49.673 83.9313 52.1865 87.0464 55.3428C87.4308 55.732 87.7774 56.1258 88.0909 56.5196C88.4043 56.1258 88.751 55.732 89.1368 55.3412ZM85.051 63.7568C85.051 63.7568 85.0526 63.7478 85.0571 63.7327C85.0526 63.7493 85.051 63.7568 85.051 63.7568ZM91.1201 63.7327C91.1246 63.7493 91.1261 63.7584 91.1261 63.7584C91.1261 63.7584 91.1246 63.7508 91.1201 63.7327Z" fill="black"/>
<path d="M110.798 54.9143V60.7862H117.294V54.9143H110.798Z" fill="black"/>
<path fill-rule="evenodd" clip-rule="evenodd" d="M58.8924 64.3951L65.388 69.9698V64.3951H58.8924ZM117.294 66.3655V60.7863H110.798L117.294 66.3655ZM58.8924 91.7722V70.8494L65.388 76.3999V90.7025L88.0893 121.525L110.798 90.7025V67.2103L117.294 72.7669V91.7722C117.294 92.4662 117.072 93.1421 116.659 93.7018L92.3303 126.721L122.088 157.584C123.089 158.622 123.286 160.197 122.573 161.45C121.86 162.704 120.407 163.338 119.004 163.006L88.0893 155.693L82.5191 157.01V150.33L87.3418 149.189C87.8331 149.073 88.344 149.073 88.8353 149.189L109.731 154.132L88.0893 131.684L66.446 154.132L71.228 153V159.681L57.1728 163.006C55.7697 163.338 54.3169 162.704 53.6041 161.45C52.8912 160.197 53.0886 158.622 54.0893 157.584L83.8469 126.721L59.5269 93.7018C59.1155 93.1421 58.8924 92.4662 58.8924 91.7722ZM79.2713 151.098L76.117 151.843V158.525L79.2713 157.778V151.098Z" fill="black"/>
<path d="M80.352 48.3184C81.6971 48.3184 82.7876 47.2268 82.7876 45.8802C82.7876 44.5336 81.6971 43.442 80.352 43.442C79.0068 43.442 77.9164 44.5336 77.9164 45.8802C77.9164 47.2268 79.0068 48.3184 80.352 48.3184Z" fill="black"/>
<path fill-rule="evenodd" clip-rule="evenodd" d="M103.309 63.8304C103.855 63.2074 104.802 63.1449 105.425 63.6908L114.706 71.8228C115.329 72.3687 115.392 73.3164 114.846 73.9395C114.3 74.5626 113.352 74.6251 112.729 74.0791L103.448 65.9472C102.825 65.4012 102.763 64.4535 103.309 63.8304Z" fill="black"/>
<path fill-rule="evenodd" clip-rule="evenodd" d="M61.4534 76.246C61.9925 75.617 62.9395 75.544 63.5685 76.0831L72.9381 84.1125C73.5671 84.6515 73.6401 85.5985 73.101 86.2275C72.5619 86.8566 71.615 86.9295 70.986 86.3904L61.6164 78.3611C60.9873 77.822 60.9144 76.8751 61.4534 76.246Z" fill="black"/>
</svg>
