<svg width="20" height="20" viewBox="0 0 20 20" fill="none" xmlns="http://www.w3.org/2000/svg">
    <circle cx="9.7998" cy="11.2571" r="7" fill="#FFB000" />
    <path fill-rule="evenodd" clip-rule="evenodd"
        d="M9.7998 18.2571C13.6658 18.2571 16.7998 15.1231 16.7998 11.2571C16.7998 7.39109 13.6658 4.25708 9.7998 4.25708C9.7137 4.25708 9.62796 4.25863 9.54261 4.26172C13.02 4.38942 15.7998 7.24871 15.7998 10.7573C15.7998 14.3471 12.8897 17.2573 9.2998 17.2573C5.79208 17.2573 2.93331 14.4787 2.80435 11.0025C2.80133 11.087 2.7998 11.1719 2.7998 11.2571C2.7998 15.1231 5.93381 18.2571 9.7998 18.2571Z"
        fill="#E69E00" />
    <path
        d="M9.85042 18.5146C13.89 18.5146 17.1647 15.2398 17.1647 11.2003C17.1647 9.15499 16.3246 7.30498 14.9719 5.97821C13.6529 4.68459 11.8444 3.88599 9.85042 3.88599C7.37457 3.88599 5.18603 5.11612 3.86266 6.99853L4.28346 7.32171C5.50956 5.56515 7.54579 4.41601 9.85042 4.41601C11.7001 4.41601 13.3769 5.15623 14.6007 6.3566C15.856 7.5878 16.6347 9.30309 16.6347 11.2003C16.6347 14.9471 13.5973 17.9845 9.85042 17.9845C7.82106 17.9845 5.99981 17.0935 4.75655 15.6813C3.70436 14.4862 3.06615 12.9178 3.06615 11.2003C3.06615 10.275 3.2514 9.39291 3.58683 8.58919L3.09643 8.38775C2.73546 9.25357 2.53613 10.2036 2.53613 11.2003C2.53613 13.0516 3.22462 14.7434 4.35874 16.0316C5.69835 17.5532 7.66244 18.5146 9.85042 18.5146Z"
        fill="white" />
    <path
        d="M4.3435 7.15197C4.3435 7.29833 4.22485 7.41697 4.07848 7.41697C3.93213 7.41697 3.81348 7.29833 3.81348 7.15197C3.81348 7.0056 3.93213 6.88696 4.07848 6.88696C4.22485 6.88696 4.3435 7.0056 4.3435 7.15197Z"
        fill="white" />
    <path
        d="M3.60131 8.5006C3.60131 8.64697 3.48266 8.76561 3.3363 8.76561C3.18994 8.76561 3.07129 8.64697 3.07129 8.5006C3.07129 8.35424 3.18994 8.2356 3.3363 8.2356C3.48266 8.2356 3.60131 8.35424 3.60131 8.5006Z"
        fill="white" />
    <path fill-rule="evenodd" clip-rule="evenodd"
        d="M9.09524 14.746C11.574 14.746 13.5835 12.7365 13.5835 10.2577C13.5835 9.62729 13.4536 9.02726 13.219 8.48291C13.8341 9.24014 14.2027 10.2057 14.2027 11.2573C14.2027 13.6891 12.2313 15.6606 9.7994 15.6606C8.20255 15.6606 6.80424 14.8106 6.03223 13.5383C6.83424 14.2875 7.9112 14.746 9.09524 14.746Z"
        fill="#E69E00" />
    <path
        d="M10.6205 14.1626L10.3792 16.3578L9.59522 16.4543L9.51079 16.3699L9.75202 14.2229L10.6205 14.1626ZM10.343 8.75891L10.5602 6.70841L11.3683 6.59985L11.4407 6.70841L11.2115 8.6986L10.343 8.75891ZM10.0174 14.6451C9.66357 14.6451 9.34996 14.6129 9.07656 14.5486C8.8112 14.4923 8.60213 14.436 8.44935 14.3797C8.30461 14.3154 8.23224 14.2832 8.23224 14.2832L8.13574 14.1385C8.13574 14.1385 8.1478 14.0581 8.17193 13.8972C8.20409 13.7284 8.23224 13.5233 8.25636 13.2821C8.28852 13.0408 8.30461 12.7996 8.30461 12.5584L9.2213 12.486C9.2213 12.7996 9.25347 13.0449 9.3178 13.2218C9.39017 13.3987 9.50274 13.5233 9.65553 13.5957C9.80831 13.6681 10.0134 13.7042 10.2707 13.7042C10.5682 13.7042 10.8014 13.648 10.9703 13.5354C11.1472 13.4148 11.2356 13.262 11.2356 13.077C11.2356 12.9082 11.1632 12.7674 11.0185 12.6549C10.8818 12.5342 10.7009 12.4217 10.4757 12.3171C10.2586 12.2126 10.0254 12.1081 9.77614 12.0035C9.51883 11.8829 9.26955 11.7502 9.02831 11.6055C8.79512 11.4608 8.60213 11.2838 8.44935 11.0748C8.29657 10.8577 8.22017 10.5963 8.22017 10.2908C8.22017 9.91282 8.33275 9.58313 8.5579 9.30169C8.7911 9.02025 9.11275 8.79912 9.52285 8.63829C9.93295 8.46943 10.4074 8.385 10.9461 8.385C11.2839 8.385 11.5814 8.40912 11.8387 8.45737C12.1041 8.49757 12.3091 8.53778 12.4539 8.57799C12.6066 8.61819 12.683 8.63829 12.683 8.63829L12.7675 8.78304C12.7675 8.78304 12.7514 8.85943 12.7192 9.01221C12.6871 9.15695 12.6509 9.35396 12.6107 9.60324C12.5785 9.84447 12.5504 10.1098 12.5262 10.3993L11.694 10.4596L11.5975 10.3993C11.5975 10.3993 11.5975 10.3712 11.5975 10.3149C11.6055 10.2586 11.6095 10.1902 11.6095 10.1098C11.6095 9.85251 11.5372 9.66757 11.3924 9.55499C11.2557 9.43437 11.0225 9.37406 10.6928 9.37406C10.4355 9.37406 10.2224 9.43035 10.0536 9.54293C9.8847 9.6555 9.80027 9.80427 9.80027 9.98921C9.80027 10.2144 9.93295 10.3993 10.1983 10.5441C10.4637 10.6888 10.7652 10.8335 11.1029 10.9783C11.3763 11.0989 11.6457 11.2356 11.9111 11.3884C12.1845 11.5331 12.4096 11.714 12.5865 11.9312C12.7634 12.1402 12.8519 12.4096 12.8519 12.7393C12.8519 13.1253 12.7353 13.463 12.5021 13.7525C12.2689 14.0339 11.9392 14.2551 11.513 14.4159C11.0949 14.5687 10.5963 14.6451 10.0174 14.6451Z"
        fill="#E69E00" />
    <path
        d="M9.92613 13.9106L9.6849 16.1059L8.90088 16.2024L8.81645 16.1179L9.05768 13.9709L9.92613 13.9106ZM9.64871 8.50696L9.86582 6.45646L10.674 6.3479L10.7463 6.45646L10.5172 8.44665L9.64871 8.50696ZM9.32304 14.3931C8.96923 14.3931 8.65563 14.3609 8.38223 14.2966C8.11687 14.2403 7.9078 14.184 7.75501 14.1277C7.61027 14.0634 7.5379 14.0313 7.5379 14.0313L7.44141 13.8865C7.44141 13.8865 7.45347 13.8061 7.47759 13.6453C7.50976 13.4764 7.5379 13.2714 7.56202 13.0301C7.59419 12.7889 7.61027 12.5477 7.61027 12.3064L8.52697 12.234C8.52697 12.5477 8.55913 12.7929 8.62346 12.9698C8.69583 13.1467 8.80841 13.2714 8.96119 13.3437C9.11397 13.4161 9.31902 13.4523 9.57634 13.4523C9.87387 13.4523 10.1071 13.396 10.2759 13.2834C10.4528 13.1628 10.5413 13.01 10.5413 12.8251C10.5413 12.6562 10.4689 12.5155 10.3242 12.4029C10.1875 12.2823 10.0065 12.1697 9.78139 12.0652C9.56428 11.9606 9.33109 11.8561 9.08181 11.7516C8.82449 11.631 8.57521 11.4983 8.33398 11.3535C8.10078 11.2088 7.9078 11.0319 7.75501 10.8228C7.60223 10.6057 7.52584 10.3444 7.52584 10.0388C7.52584 9.66087 7.63842 9.33118 7.86357 9.04974C8.09676 8.7683 8.41841 8.54717 8.82851 8.38634C9.23861 8.21748 9.71304 8.13304 10.2518 8.13304C10.5895 8.13304 10.8871 8.15717 11.1444 8.20541C11.4097 8.24562 11.6148 8.28583 11.7595 8.32603C11.9123 8.36624 11.9887 8.38634 11.9887 8.38634L12.0731 8.53108C12.0731 8.53108 12.057 8.60747 12.0249 8.76026C11.9927 8.905 11.9565 9.10201 11.9163 9.35128C11.8842 9.59252 11.856 9.85788 11.8319 10.1474L10.9996 10.2077L10.9031 10.1474C10.9031 10.1474 10.9031 10.1192 10.9031 10.0629C10.9112 10.0066 10.9152 9.93829 10.9152 9.85788C10.9152 9.60056 10.8428 9.41561 10.6981 9.30304C10.5614 9.18242 10.3282 9.12211 9.9985 9.12211C9.74119 9.12211 9.52809 9.1784 9.35923 9.29097C9.19036 9.40355 9.10593 9.55231 9.10593 9.73726C9.10593 9.96241 9.23861 10.1474 9.50397 10.2921C9.76933 10.4368 10.0709 10.5816 10.4086 10.7263C10.682 10.8469 10.9514 10.9836 11.2167 11.1364C11.4901 11.2812 11.7153 11.4621 11.8922 11.6792C12.0691 11.8883 12.1576 12.1577 12.1576 12.4873C12.1576 12.8733 12.041 13.2111 11.8078 13.5005C11.5746 13.782 11.2449 14.0031 10.8187 14.1639C10.4006 14.3167 9.90201 14.3931 9.32304 14.3931Z"
        fill="white" />
    <path fill-rule="evenodd" clip-rule="evenodd"
        d="M9.7998 16.2571C12.5612 16.2571 14.7998 14.0185 14.7998 11.2571C14.7998 8.49566 12.5612 6.25708 9.7998 6.25708C7.03838 6.25708 4.7998 8.49566 4.7998 11.2571C4.7998 14.0185 7.03838 16.2571 9.7998 16.2571ZM9.7998 15.6604C12.2317 15.6604 14.2031 13.689 14.2031 11.2571C14.2031 8.82519 12.2317 6.85376 9.7998 6.85376C7.36792 6.85376 5.39648 8.82519 5.39648 11.2571C5.39648 13.689 7.36792 15.6604 9.7998 15.6604Z"
        fill="white" />
    <circle cx="8.7998" cy="9.25708" r="7" fill="#FFB000" />
    <path fill-rule="evenodd" clip-rule="evenodd"
        d="M8.7998 16.2571C12.6658 16.2571 15.7998 13.1231 15.7998 9.25708C15.7998 5.39109 12.6658 2.25708 8.7998 2.25708C8.7137 2.25708 8.62796 2.25863 8.54261 2.26172C12.02 2.38942 14.7998 5.24871 14.7998 8.75727C14.7998 12.3471 11.8897 15.2573 8.2998 15.2573C4.79208 15.2573 1.93331 12.4787 1.80435 9.00254C1.80133 9.08701 1.7998 9.17187 1.7998 9.25708C1.7998 13.1231 4.93381 16.2571 8.7998 16.2571Z"
        fill="#E69E00" />
    <path
        d="M8.85042 16.5146C12.89 16.5146 16.1647 13.2398 16.1647 9.20027C16.1647 7.15499 15.3246 5.30498 13.9719 3.97821C12.6529 2.68459 10.8444 1.88599 8.85042 1.88599C6.37457 1.88599 4.18603 3.11612 2.86266 4.99853L3.28346 5.32171C4.50956 3.56515 6.54579 2.41601 8.85042 2.41601C10.7001 2.41601 12.3769 3.15623 13.6007 4.3566C14.856 5.5878 15.6347 7.30309 15.6347 9.20027C15.6347 12.9471 12.5973 15.9845 8.85042 15.9845C6.82106 15.9845 4.99981 15.0935 3.75655 13.6813C2.70436 12.4862 2.06615 10.9178 2.06615 9.20027C2.06615 8.27496 2.2514 7.39291 2.58683 6.58919L2.09643 6.38775C1.73546 7.25357 1.53613 8.20364 1.53613 9.20027C1.53613 11.0516 2.22462 12.7434 3.35874 14.0316C4.69835 15.5532 6.66244 16.5146 8.85042 16.5146Z"
        fill="white" />
    <path
        d="M3.3435 5.15197C3.3435 5.29833 3.22485 5.41697 3.07848 5.41697C2.93213 5.41697 2.81348 5.29833 2.81348 5.15197C2.81348 5.0056 2.93213 4.88696 3.07848 4.88696C3.22485 4.88696 3.3435 5.0056 3.3435 5.15197Z"
        fill="white" />
    <path
        d="M2.60131 6.5006C2.60131 6.64697 2.48266 6.76561 2.3363 6.76561C2.18994 6.76561 2.07129 6.64697 2.07129 6.5006C2.07129 6.35424 2.18994 6.2356 2.3363 6.2356C2.48266 6.2356 2.60131 6.35424 2.60131 6.5006Z"
        fill="white" />
    <path fill-rule="evenodd" clip-rule="evenodd"
        d="M8.09523 12.746C10.574 12.746 12.5835 10.7365 12.5835 8.25767C12.5835 7.62729 12.4536 7.02726 12.219 6.48291C12.8341 7.24014 13.2027 8.20565 13.2027 9.25726C13.2027 11.6891 11.2313 13.6606 8.7994 13.6606C7.20255 13.6606 5.80424 12.8106 5.03223 11.5383C5.83424 12.2875 6.9112 12.746 8.09523 12.746Z"
        fill="#E69E00" />
    <path fill-rule="evenodd" clip-rule="evenodd"
        d="M8.7998 14.2571C11.5612 14.2571 13.7998 12.0185 13.7998 9.25708C13.7998 6.49566 11.5612 4.25708 8.7998 4.25708C6.03838 4.25708 3.7998 6.49566 3.7998 9.25708C3.7998 12.0185 6.03838 14.2571 8.7998 14.2571ZM8.7998 13.6604C11.2317 13.6604 13.2031 11.689 13.2031 9.25708C13.2031 6.82519 11.2317 4.85376 8.7998 4.85376C6.36792 4.85376 4.39648 6.82519 4.39648 9.25708C4.39648 11.689 6.36792 13.6604 8.7998 13.6604Z"
        fill="white" />
</svg>