<svg viewBox="0 0 134 133" fill="none" xmlns="http://www.w3.org/2000/svg">
<path d="M131.445 7.49725C131.445 4.73735 129.208 2.5 126.448 2.5H8.44531C5.68389 2.5 3.44531 4.73858 3.44531 7.5V106.543C105.845 106.543 131.445 40.5124 131.445 7.49725Z" fill="#794200"/>
<path d="M3.44531 125.5C3.44531 128.261 5.68389 130.5 8.44531 130.5H126.445C129.207 130.5 131.445 128.261 131.445 125.5V7.49725C131.445 40.5124 105.845 106.543 3.44531 106.543V125.5Z" fill="#623500"/>
<path d="M7.44531 0C3.85546 0 0.945312 2.91015 0.945312 6.5V126.5C0.945312 130.09 3.85546 133 7.44531 133V128C6.61689 128 5.94531 127.328 5.94531 126.5V6.5C5.94531 5.67157 6.61689 5 7.44531 5V0Z" fill="white"/>
<path d="M133.945 6.5C133.945 2.91015 131.035 0 127.445 0H27.3399V5H127.445C128.274 5 128.945 5.67157 128.945 6.5V126.5C128.945 127.328 128.274 128 127.445 128H27.3399V133H127.445C131.035 133 133.945 130.09 133.945 126.5V6.5Z" fill="white"/>
<path d="M7.44531 128V133H17.9297V128H7.44531Z" fill="white"/>
<path d="M7.44531 0V5H12.8125V0H7.44531Z" fill="white"/>
<circle cx="17.9248" cy="130.5" r="2.5" fill="white"/>
<circle cx="27.5508" cy="130.5" r="2.5" fill="white"/>
<circle cx="12.9248" cy="2.5" r="2.5" fill="white"/>
<circle cx="27.4023" cy="2.5" r="2.5" fill="white"/>
<path d="M7.44531 0C3.85546 0 0.945312 2.91015 0.945312 6.5V126.5C0.945312 130.09 3.85546 133 7.44531 133V128C6.61689 128 5.94531 127.328 5.94531 126.5V6.5C5.94531 5.67157 6.61689 5 7.44531 5V0Z" fill="white"/>
<path d="M133.945 6.5C133.945 2.91015 131.035 0 127.445 0H27.3399V5H127.445C128.274 5 128.945 5.67157 128.945 6.5V126.5C128.945 127.328 128.274 128 127.445 128H27.3399V133H127.445C131.035 133 133.945 130.09 133.945 126.5V6.5Z" fill="white"/>
<path d="M7.44531 128V133H17.9297V128H7.44531Z" fill="white"/>
<path d="M7.44531 0V5H12.8125V0H7.44531Z" fill="white"/>
<circle cx="17.9248" cy="130.5" r="2.5" fill="white"/>
<circle cx="27.5508" cy="130.5" r="2.5" fill="white"/>
<circle cx="12.9248" cy="2.5" r="2.5" fill="white"/>
<circle cx="27.4023" cy="2.5" r="2.5" fill="white"/>
</svg>
