<svg viewBox="0 0 109 106" fill="none" xmlns="http://www.w3.org/2000/svg">
<path fill-rule="evenodd" clip-rule="evenodd" d="M75.493 19.9411L83.8694 70.8487L109 4.92436L75.493 19.9411ZM78.1741 21.3947L84.7971 61.6458L90.9194 45.5855L92.647 41.0534L94.684 35.7097L104.667 9.52147L84.9513 18.3574L81.4176 19.9411L78.1741 21.3947Z" fill="white"/>
<path fill-rule="evenodd" clip-rule="evenodd" d="M75.6787 13.6858C75.6787 13.7085 75.6152 13.7079 75.493 13.6858C75.1664 13.6267 74.4204 13.4137 73.3457 13.0793L73.2695 13.0556C67.9196 11.3867 54.7031 6.81309 44.3398 3.18244C41.8199 2.29964 39.4688 1.4726 37.4404 0.756612L105.888 0.75676L75.6787 13.6858ZM94.0612 3.18254L85.8125 3.18253L72.8773 3.1825L51.6933 3.18245C55.2138 4.40729 58.8025 5.64843 62.1147 6.78214C66.0949 8.14451 69.6648 9.34793 72.2346 10.181C73.5239 10.5989 74.539 10.9163 75.2217 11.1133C75.2884 11.1325 75.3502 11.1501 75.4073 11.1661L82.9463 7.93952L87.3256 6.06526L90.6934 4.6239L94.0612 3.18254ZM75.9282 11.2999C75.9282 11.2999 75.9258 11.2996 75.9177 11.298C75.9239 11.299 75.9282 11.2999 75.9282 11.2999Z" fill="white"/>
<path fill-rule="evenodd" clip-rule="evenodd" d="M70.0978 24.1865L65.4743 56.6947L79.0053 75.8108L70.0978 24.1865ZM74.8183 65.716L73.7476 59.5105L72.6765 53.3028L71.9328 48.9927L70.327 39.6863L69.3008 46.9017L68.7366 50.8686L67.9957 56.0774L71.407 60.8967L74.8183 65.716Z" fill="white"/>
<path fill-rule="evenodd" clip-rule="evenodd" d="M58.2361 106L77.0803 82.71L65.2911 64.6541L58.2361 106ZM62.1643 97.3045L74.097 82.5566L72.7579 80.5058L71.1825 78.0928L66.6317 71.123L64.8931 81.3121L64.2671 84.9809L63.3639 90.2739L62.1643 97.3045Z" fill="white"/>
<path fill-rule="evenodd" clip-rule="evenodd" d="M66.6579 16.9986L55.2288 92.7266L34.0637 6.34276L66.6579 16.9986ZM37.4404 9.99715L54.6667 80.3052L56.6844 66.9359L57.9835 58.3283L58.997 51.6135L63.9689 18.67L46.7955 13.0556L41.6667 11.3788L37.4404 9.99715Z" fill="white"/>
<path fill-rule="evenodd" clip-rule="evenodd" d="M22.41 57.2692L34.8372 33.6437L52.8614 103.533L22.41 57.2692ZM34.0639 40.2965L28.4567 50.9565L27.2225 53.3028L25.209 57.1307L46.907 90.0957L43.7528 77.8654L41.6667 69.7763L40.6195 65.716L34.0639 40.2965Z" fill="white"/>
<path fill-rule="evenodd" clip-rule="evenodd" d="M31.1927 23.9648L27.7374 8.61368L17.9142 50.0084L31.1927 23.9648ZM28.6497 23.6412L28.1625 21.477L27.6754 19.3127L24.9056 30.9845L26.7776 27.3129L28.6497 23.6412Z" fill="white"/>
<path fill-rule="evenodd" clip-rule="evenodd" d="M15.7714 35.6455C17.4916 28.1443 21.128 12.5788 23.6827 2.42581C23.8964 1.57672 24.1025 0.765493 24.2992 0H0L14.8 39.9653C14.8302 39.783 15.1921 38.1715 15.7714 35.6455ZM14.2473 31.5297C14.8895 28.754 15.6572 25.4617 16.4769 21.9823C16.8612 20.3508 17.2569 18.6783 17.6566 16.9986C17.9676 15.6912 18.281 14.3794 18.5932 13.0793C19.5012 9.29776 20.3987 5.61517 21.1979 2.42581H10.8162H7.45008H3.46948L14.2473 31.5297Z" fill="white"/>
<path d="M3.46948 2.42581L14.2473 31.5297C14.8895 28.754 15.6572 25.4617 16.4769 21.9823L3.46948 2.42581Z" fill="#CEB782"/>
<path d="M25.209 57.1307L46.907 90.0957L43.7528 77.8654L25.209 57.1307Z" fill="#CEB782"/>
<path fill-rule="evenodd" clip-rule="evenodd" d="M28.1625 21.477L27.6754 19.3127L24.9056 30.9845L28.1625 21.477Z" fill="white"/>
<path d="M26.7776 27.3129L28.6497 23.6412L28.1625 21.477L24.9056 30.9845L26.7776 27.3129Z" fill="#CEB782"/>
<path d="M37.4404 9.99715L54.6667 80.3052L56.6844 66.9359L37.4404 9.99715Z" fill="#CEB782"/>
<path d="M51.6933 3.18245C55.2138 4.40729 58.8025 5.64843 62.1147 6.78214C66.0949 8.14451 69.6648 9.34793 72.2346 10.181C73.5239 10.5989 74.539 10.9163 75.2217 11.1133C75.2884 11.1325 75.3502 11.1501 75.4073 11.1661L82.9463 7.93952L51.6933 3.18245Z" fill="#CEB782"/>
<path d="M78.1741 21.3947L84.7971 61.6458L90.9194 45.5855L78.1741 21.3947Z" fill="#CEB782"/>
<path d="M67.9957 56.0774L71.407 60.8967L74.8183 65.716L73.7476 59.5105L67.9957 56.0774Z" fill="#CEB782"/>
<path d="M62.1643 97.3045L74.097 82.5566L63.3639 90.2739L62.1643 97.3045Z" fill="#CEB782"/>
<path fill-rule="evenodd" clip-rule="evenodd" d="M46.7955 13.0556L63.9689 18.67L58.997 51.6135L46.7955 13.0556ZM41.6667 11.3788L37.4404 9.99715L56.6844 66.9359L57.9835 58.3283L41.6667 11.3788Z" fill="#F3D899"/>
<path fill-rule="evenodd" clip-rule="evenodd" d="M72.6765 53.3028L73.7476 59.5105L67.9957 56.0774L68.7366 50.8686L72.6765 53.3028ZM71.9328 48.9927L70.327 39.6863L69.3008 46.9017L71.9328 48.9927Z" fill="#F3D899"/>
<path fill-rule="evenodd" clip-rule="evenodd" d="M84.9513 18.3574L104.667 9.52147L94.684 35.7097L84.9513 18.3574ZM81.4176 19.9411L78.1741 21.3947L90.9194 45.5855L92.647 41.0534L81.4176 19.9411Z" fill="#F3D899"/>
<path d="M81.4176 19.9411L92.647 41.0534L94.684 35.7097L84.9513 18.3574L81.4176 19.9411Z" fill="#00A29D"/>
<path d="M68.7366 50.8686L72.6765 53.3028L71.9328 48.9927L69.3008 46.9017L68.7366 50.8686Z" fill="#00A29D"/>
<path d="M41.6667 11.3788L57.9835 58.3283L58.997 51.6135L46.7955 13.0556L41.6667 11.3788Z" fill="#00A29D"/>
<path fill-rule="evenodd" clip-rule="evenodd" d="M85.8125 3.18253L94.0612 3.18254L90.6934 4.6239L85.8125 3.18253ZM72.8773 3.1825L51.6933 3.18245L82.9463 7.93952L87.3256 6.06526L72.8773 3.1825Z" fill="#F3D899"/>
<path d="M72.8773 3.1825L87.3256 6.06526L90.6934 4.6239L85.8125 3.18253L72.8773 3.1825Z" fill="#00A29D"/>
<path fill-rule="evenodd" clip-rule="evenodd" d="M17.6566 16.9986C17.2569 18.6783 16.8612 20.3508 16.4769 21.9823L3.46948 2.42581H7.45008L17.6566 16.9986ZM18.5932 13.0793C19.5012 9.29776 20.3987 5.61517 21.1979 2.42581H10.8162L18.5932 13.0793Z" fill="#F3D899"/>
<path d="M7.45008 2.42581L17.6566 16.9986C17.9676 15.6912 18.281 14.3794 18.5932 13.0793L10.8162 2.42581H7.45008Z" fill="#00A29D"/>
<path fill-rule="evenodd" clip-rule="evenodd" d="M28.4567 50.9565L34.0639 40.2965L40.6195 65.716L28.4567 50.9565ZM27.2225 53.3028L25.209 57.1307L43.7528 77.8654L41.6667 69.7763L27.2225 53.3028Z" fill="#F3D899"/>
<path d="M27.2225 53.3028L41.6667 69.7763L40.6195 65.716L28.4567 50.9565L27.2225 53.3028Z" fill="#00A29D"/>
<path fill-rule="evenodd" clip-rule="evenodd" d="M72.7579 80.5058L74.097 82.5566L63.3639 90.2739L64.2671 84.9809L72.7579 80.5058ZM71.1825 78.0928L66.6317 71.123L64.8931 81.3121L71.1825 78.0928Z" fill="#F3D899"/>
<path d="M64.2671 84.9809L72.7579 80.5058L71.1825 78.0928L64.8931 81.3121L64.2671 84.9809Z" fill="#00A29D"/>
</svg>
