<svg viewBox="0 0 134 133" fill="none" xmlns="http://www.w3.org/2000/svg">
<path fill-rule="evenodd" clip-rule="evenodd" d="M82.8103 2.5H125.82C128.58 2.5 130.817 4.73735 130.817 7.49725C130.817 29.2545 119.7 65.3499 82.8103 87.4366V2.5ZM50.6114 2.5H7.81738C5.05596 2.5 2.81738 4.73858 2.81738 7.5V106.543C21.0997 106.543 36.9338 104.438 50.6114 100.792V2.5Z" fill="#794200"/>
<path fill-rule="evenodd" clip-rule="evenodd" d="M50.6114 130.5H7.81739C5.05596 130.5 2.81738 128.261 2.81738 125.5V106.543C21.0997 106.543 36.9338 104.438 50.6114 100.792V130.5ZM82.8103 130.5H125.817C128.579 130.5 130.817 128.261 130.817 125.5V7.49725C130.817 29.2545 119.7 65.3499 82.8103 87.4366V108.968V130.5Z" fill="#623500"/>
<path d="M82.8103 2.5H50.6114V100.792C63.0568 97.4746 73.7166 92.8812 82.8103 87.4366V2.5Z" fill="#BB0010"/>
<path d="M50.6114 130.5H82.8103V108.968V87.4366C73.7166 92.8812 63.0568 97.4746 50.6114 100.792V130.5Z" fill="#A9010F"/>
<path d="M7.44531 0C3.85546 0 0.945312 2.91015 0.945312 6.5V126.5C0.945312 130.09 3.85546 133 7.44531 133V128C6.61689 128 5.94531 127.328 5.94531 126.5V6.5C5.94531 5.67157 6.61689 5 7.44531 5V0Z" fill="white"/>
<path d="M133.945 6.5C133.945 2.91015 131.035 0 127.445 0H27.3399V5H127.445C128.274 5 128.945 5.67157 128.945 6.5V126.5C128.945 127.328 128.274 128 127.445 128H27.3399V133H127.445C131.035 133 133.945 130.09 133.945 126.5V6.5Z" fill="white"/>
<path d="M7.44531 128V133H17.9297V128H7.44531Z" fill="white"/>
<path d="M7.44531 0V5H12.8125V0H7.44531Z" fill="white"/>
<circle cx="17.9248" cy="130.5" r="2.5" fill="white"/>
<circle cx="27.5508" cy="130.5" r="2.5" fill="white"/>
<circle cx="12.9248" cy="2.5" r="2.5" fill="white"/>
<circle cx="27.4023" cy="2.5" r="2.5" fill="white"/>
</svg>
