<svg viewBox="0 0 105 134" fill="none" xmlns="http://www.w3.org/2000/svg">
<path fill-rule="evenodd" clip-rule="evenodd" d="M52.8992 14.1384L91.312 52.5512L52.2809 92.7467L13.8681 54.3339L52.8992 14.1384ZM17.7646 54.3053L52.2518 88.7925L87.4155 52.5799L52.9282 18.0926L17.7646 54.3053Z" fill="white"/>
<path fill-rule="evenodd" clip-rule="evenodd" d="M52.8473 3L102.533 52.6859L101.66 81.0257L51.6859 131L2 81.3141L2.87293 52.9743L52.8473 3ZM5.53137 56.8176L51.1179 102.404L50.3977 125.787L4.81113 80.2L5.53137 56.8176ZM53.1809 125.58L53.407 118.237L53.8936 102.44L99.6327 56.7004L98.92 79.8408L53.1809 125.58ZM99.1651 53.2429L52.5235 99.8846L6.20567 53.5668L52.8473 6.92516L99.1651 53.2429Z" fill="white"/>
<path d="M5.53137 56.8176L51.1179 102.404L50.3977 125.787L4.81113 80.2L5.53137 56.8176Z" fill="#AF4226"/>
<path d="M53.1809 125.58L53.407 118.237L53.8936 102.44L99.6327 56.7004L98.92 79.8408L53.1809 125.58Z" fill="#802F1A"/>
<path fill-rule="evenodd" clip-rule="evenodd" d="M99.1651 53.2429L52.5235 99.8846L6.20567 53.5668L52.8473 6.92516L99.1651 53.2429ZM52.8992 14.1384L91.312 52.5512L52.2809 92.7467L13.8681 54.3339L52.8992 14.1384Z" fill="#CF6D54"/>
<path d="M52.2518 88.7925L17.7646 54.3053L52.9282 18.0926L87.4155 52.5799L52.2518 88.7925Z" fill="#652414"/>
<path fill-rule="evenodd" clip-rule="evenodd" d="M30.4748 55.934C31.529 54.8798 31.529 53.1706 30.4748 52.1165C29.4207 51.0623 27.7115 51.0623 26.6573 52.1165C25.6032 53.1706 25.6032 54.8798 26.6573 55.934C27.7115 56.9881 29.4207 56.9881 30.4748 55.934ZM34.7175 60.1766C38.1148 56.7793 38.1148 51.2711 34.7175 47.8738C31.3202 44.4765 25.812 44.4765 22.4147 47.8738C19.0174 51.2711 19.0174 56.7793 22.4147 60.1766C25.812 63.5739 31.3202 63.5739 34.7175 60.1766Z" fill="white"/>
<path fill-rule="evenodd" clip-rule="evenodd" d="M30.4748 55.934C31.529 54.8798 31.529 53.1706 30.4748 52.1165C29.4207 51.0623 27.7115 51.0623 26.6573 52.1165C25.6032 53.1706 25.6032 54.8798 26.6573 55.934C27.7115 56.9881 29.4207 56.9881 30.4748 55.934ZM34.7175 60.1766C38.1148 56.7793 38.1148 51.2711 34.7175 47.8738C31.3202 44.4765 25.812 44.4765 22.4147 47.8738C19.0174 51.2711 19.0174 56.7793 22.4147 60.1766C25.812 63.5739 31.3202 63.5739 34.7175 60.1766Z" fill="black" fill-opacity="0.2"/>
<path fill-rule="evenodd" clip-rule="evenodd" d="M42.7776 43.6311C43.8317 42.5769 43.8317 40.8678 42.7776 39.8136C41.7234 38.7594 40.0142 38.7594 38.9601 39.8136C37.9059 40.8678 37.9059 42.5769 38.9601 43.6311C40.0142 44.6853 41.7234 44.6853 42.7776 43.6311ZM47.0202 47.8737C50.4175 44.4764 50.4175 38.9683 47.0202 35.571C43.6229 32.1736 38.1148 32.1736 34.7174 35.571C31.3201 38.9683 31.3201 44.4764 34.7174 47.8737C38.1148 51.2711 43.6229 51.2711 47.0202 47.8737Z" fill="white"/>
<path fill-rule="evenodd" clip-rule="evenodd" d="M42.7776 43.6311C43.8317 42.5769 43.8317 40.8678 42.7776 39.8136C41.7234 38.7594 40.0142 38.7594 38.9601 39.8136C37.9059 40.8678 37.9059 42.5769 38.9601 43.6311C40.0142 44.6853 41.7234 44.6853 42.7776 43.6311ZM47.0202 47.8737C50.4175 44.4764 50.4175 38.9683 47.0202 35.571C43.6229 32.1736 38.1148 32.1736 34.7174 35.571C31.3201 38.9683 31.3201 44.4764 34.7174 47.8737C38.1148 51.2711 43.6229 51.2711 47.0202 47.8737Z" fill="black" fill-opacity="0.2"/>
<path fill-rule="evenodd" clip-rule="evenodd" d="M55.0803 31.3282C56.1345 30.2741 56.1345 28.5649 55.0803 27.5107C54.0261 26.4566 52.317 26.4566 51.2628 27.5107C50.2086 28.5649 50.2086 30.2741 51.2628 31.3282C52.317 32.3824 54.0261 32.3824 55.0803 31.3282ZM59.3229 35.5709C62.7203 32.1736 62.7203 26.6654 59.3229 23.2681C55.9256 19.8708 50.4175 19.8708 47.0202 23.2681C43.6228 26.6654 43.6228 32.1736 47.0202 35.5709C50.4175 38.9682 55.9256 38.9682 59.3229 35.5709Z" fill="white"/>
<path fill-rule="evenodd" clip-rule="evenodd" d="M55.0803 31.3282C56.1345 30.2741 56.1345 28.5649 55.0803 27.5107C54.0261 26.4566 52.317 26.4566 51.2628 27.5107C50.2086 28.5649 50.2086 30.2741 51.2628 31.3282C52.317 32.3824 54.0261 32.3824 55.0803 31.3282ZM59.3229 35.5709C62.7203 32.1736 62.7203 26.6654 59.3229 23.2681C55.9256 19.8708 50.4175 19.8708 47.0202 23.2681C43.6228 26.6654 43.6228 32.1736 47.0202 35.5709C50.4175 38.9682 55.9256 38.9682 59.3229 35.5709Z" fill="black" fill-opacity="0.2"/>
<path fill-rule="evenodd" clip-rule="evenodd" d="M42.3195 67.7784C43.3737 66.7243 43.3737 65.0151 42.3195 63.9609C41.2653 62.9068 39.5562 62.9068 38.502 63.9609C37.4478 65.0151 37.4478 66.7243 38.502 67.7784C39.5562 68.8326 41.2653 68.8326 42.3195 67.7784ZM46.5621 72.0211C49.9595 68.6238 49.9595 63.1156 46.5621 59.7183C43.1648 56.321 37.6567 56.321 34.2594 59.7183C30.862 63.1156 30.862 68.6238 34.2594 72.0211C37.6567 75.4184 43.1648 75.4184 46.5621 72.0211Z" fill="white"/>
<path fill-rule="evenodd" clip-rule="evenodd" d="M42.3195 67.7784C43.3737 66.7243 43.3737 65.0151 42.3195 63.9609C41.2653 62.9068 39.5562 62.9068 38.502 63.9609C37.4478 65.0151 37.4478 66.7243 38.502 67.7784C39.5562 68.8326 41.2653 68.8326 42.3195 67.7784ZM46.5621 72.0211C49.9595 68.6238 49.9595 63.1156 46.5621 59.7183C43.1648 56.321 37.6567 56.321 34.2594 59.7183C30.862 63.1156 30.862 68.6238 34.2594 72.0211C37.6567 75.4184 43.1648 75.4184 46.5621 72.0211Z" fill="black" fill-opacity="0.2"/>
<path fill-rule="evenodd" clip-rule="evenodd" d="M54.6223 80.0812C55.6764 79.027 55.6764 77.3178 54.6223 76.2637C53.5681 75.2095 51.8589 75.2095 50.8048 76.2637C49.7506 77.3178 49.7506 79.027 50.8048 80.0812C51.8589 81.1353 53.5681 81.1353 54.6223 80.0812ZM58.8649 84.3238C62.2622 80.9265 62.2622 75.4184 58.8649 72.021C55.4676 68.6237 49.9594 68.6237 46.5621 72.021C43.1648 75.4184 43.1648 80.9265 46.5621 84.3238C49.9594 87.7211 55.4676 87.7211 58.8649 84.3238Z" fill="white"/>
<path fill-rule="evenodd" clip-rule="evenodd" d="M54.6223 80.0812C55.6764 79.027 55.6764 77.3178 54.6223 76.2637C53.5681 75.2095 51.8589 75.2095 50.8048 76.2637C49.7506 77.3178 49.7506 79.027 50.8048 80.0812C51.8589 81.1353 53.5681 81.1353 54.6223 80.0812ZM58.8649 84.3238C62.2622 80.9265 62.2622 75.4184 58.8649 72.021C55.4676 68.6237 49.9594 68.6237 46.5621 72.021C43.1648 75.4184 43.1648 80.9265 46.5621 84.3238C49.9594 87.7211 55.4676 87.7211 58.8649 84.3238Z" fill="black" fill-opacity="0.2"/>
<path fill-rule="evenodd" clip-rule="evenodd" d="M54.6223 55.4756C55.6764 54.4214 55.6764 52.7123 54.6223 51.6581C53.5681 50.6039 51.8589 50.6039 50.8048 51.6581C49.7506 52.7123 49.7506 54.4214 50.8048 55.4756C51.8589 56.5298 53.5681 56.5298 54.6223 55.4756ZM58.8649 59.7182C62.2622 56.3209 62.2622 50.8128 58.8649 47.4154C55.4676 44.0181 49.9594 44.0181 46.5621 47.4154C43.1648 50.8128 43.1648 56.3209 46.5621 59.7182C49.9594 63.1155 55.4676 63.1155 58.8649 59.7182Z" fill="white"/>
<path fill-rule="evenodd" clip-rule="evenodd" d="M54.6223 55.4756C55.6764 54.4214 55.6764 52.7123 54.6223 51.6581C53.5681 50.6039 51.8589 50.6039 50.8048 51.6581C49.7506 52.7123 49.7506 54.4214 50.8048 55.4756C51.8589 56.5298 53.5681 56.5298 54.6223 55.4756ZM58.8649 59.7182C62.2622 56.3209 62.2622 50.8128 58.8649 47.4154C55.4676 44.0181 49.9594 44.0181 46.5621 47.4154C43.1648 50.8128 43.1648 56.3209 46.5621 59.7182C49.9594 63.1155 55.4676 63.1155 58.8649 59.7182Z" fill="black" fill-opacity="0.2"/>
<path fill-rule="evenodd" clip-rule="evenodd" d="M66.925 67.7784C67.9792 66.7242 67.9792 65.0151 66.925 63.9609C65.8708 62.9067 64.1617 62.9067 63.1075 63.9609C62.0533 65.0151 62.0533 66.7242 63.1075 67.7784C64.1617 68.8326 65.8708 68.8326 66.925 67.7784ZM71.1676 72.021C74.565 68.6237 74.565 63.1156 71.1676 59.7182C67.7703 56.3209 62.2622 56.3209 58.8649 59.7182C55.4675 63.1156 55.4675 68.6237 58.8649 72.021C62.2622 75.4183 67.7703 75.4183 71.1676 72.021Z" fill="white"/>
<path fill-rule="evenodd" clip-rule="evenodd" d="M66.925 67.7784C67.9792 66.7242 67.9792 65.0151 66.925 63.9609C65.8708 62.9067 64.1617 62.9067 63.1075 63.9609C62.0533 65.0151 62.0533 66.7242 63.1075 67.7784C64.1617 68.8326 65.8708 68.8326 66.925 67.7784ZM71.1676 72.021C74.565 68.6237 74.565 63.1156 71.1676 59.7182C67.7703 56.3209 62.2622 56.3209 58.8649 59.7182C55.4675 63.1156 55.4675 68.6237 58.8649 72.021C62.2622 75.4183 67.7703 75.4183 71.1676 72.021Z" fill="black" fill-opacity="0.2"/>
<path fill-rule="evenodd" clip-rule="evenodd" d="M66.925 43.1727C67.9792 42.1186 67.9792 40.4094 66.925 39.3552C65.8708 38.3011 64.1617 38.3011 63.1075 39.3552C62.0533 40.4094 62.0533 42.1186 63.1075 43.1727C64.1617 44.2269 65.8708 44.2269 66.925 43.1727ZM71.1676 47.4154C74.565 44.018 74.565 38.5099 71.1676 35.1126C67.7703 31.7153 62.2622 31.7153 58.8649 35.1126C55.4675 38.5099 55.4675 44.018 58.8649 47.4154C62.2622 50.8127 67.7703 50.8127 71.1676 47.4154Z" fill="white"/>
<path fill-rule="evenodd" clip-rule="evenodd" d="M66.925 43.1727C67.9792 42.1186 67.9792 40.4094 66.925 39.3552C65.8708 38.3011 64.1617 38.3011 63.1075 39.3552C62.0533 40.4094 62.0533 42.1186 63.1075 43.1727C64.1617 44.2269 65.8708 44.2269 66.925 43.1727ZM71.1676 47.4154C74.565 44.018 74.565 38.5099 71.1676 35.1126C67.7703 31.7153 62.2622 31.7153 58.8649 35.1126C55.4675 38.5099 55.4675 44.018 58.8649 47.4154C62.2622 50.8127 67.7703 50.8127 71.1676 47.4154Z" fill="black" fill-opacity="0.2"/>
<path fill-rule="evenodd" clip-rule="evenodd" d="M79.2277 55.4755C80.2819 54.4213 80.2819 52.7122 79.2277 51.658C78.1736 50.6038 76.4644 50.6038 75.4102 51.658C74.3561 52.7122 74.3561 54.4213 75.4102 55.4755C76.4644 56.5297 78.1736 56.5297 79.2277 55.4755ZM83.4704 59.7182C86.8677 56.3208 86.8677 50.8127 83.4704 47.4154C80.0731 44.0181 74.5649 44.0181 71.1676 47.4154C67.7703 50.8127 67.7703 56.3208 71.1676 59.7182C74.5649 63.1155 80.0731 63.1155 83.4704 59.7182Z" fill="white"/>
<path fill-rule="evenodd" clip-rule="evenodd" d="M79.2277 55.4755C80.2819 54.4213 80.2819 52.7122 79.2277 51.658C78.1736 50.6038 76.4644 50.6038 75.4102 51.658C74.3561 52.7122 74.3561 54.4213 75.4102 55.4755C76.4644 56.5297 78.1736 56.5297 79.2277 55.4755ZM83.4704 59.7182C86.8677 56.3208 86.8677 50.8127 83.4704 47.4154C80.0731 44.0181 74.5649 44.0181 71.1676 47.4154C67.7703 50.8127 67.7703 56.3208 71.1676 59.7182C74.5649 63.1155 80.0731 63.1155 83.4704 59.7182Z" fill="black" fill-opacity="0.2"/>
<path fill-rule="evenodd" clip-rule="evenodd" d="M11.8309 54.3927L53.1711 13.0525L93.8638 53.7452L52.5236 95.0854L11.8309 54.3927ZM20.3162 54.3927L52.5236 86.6001L85.3785 53.7452L53.1711 21.5378L20.3162 54.3927Z" fill="white"/>
<path fill-rule="evenodd" clip-rule="evenodd" d="M52.8475 0.71991L104.166 52.0388L103.252 81.7139L51.6862 133.28L0.36731 81.9612L1.28138 52.2861L52.8475 0.71991ZM7.02831 60.5943L6.44434 79.5529L48.9012 122.01L49.4852 103.051L7.02831 60.5943ZM55.4857 103.128L54.9178 121.563L97.3284 79.1525L97.8963 60.7172L55.4857 103.128ZM96.8853 53.2429L52.5237 97.6045L8.48599 53.5667L52.8475 9.20519L96.8853 53.2429Z" fill="white"/>
<circle r="6.97319" transform="matrix(-1 0 0 1 40.8689 41.7223)" fill="#2F590E"/>
<circle r="5.48619" transform="matrix(-1 0 0 1 40.8696 41.7212)" fill="#59912D"/>
<circle r="3.82819" transform="matrix(-1 0 0 1 41.9553 40.5278)" fill="#2F590E"/>
<circle r="1.80105" transform="matrix(-1 0 0 1 42.6723 39.7228)" fill="white"/>
<circle r="1.55949" transform="matrix(-1 0 0 1 42.431 39.9643)" fill="#2F590E"/>
<circle r="6.97319" transform="matrix(-1 0 0 1 65.0582 65.8697)" fill="#2F590E"/>
<circle r="5.48619" transform="matrix(-1 0 0 1 65.059 65.8686)" fill="#59912D"/>
<circle r="3.82819" transform="matrix(-1 0 0 1 66.1446 64.6752)" fill="#2F590E"/>
<circle r="1.80105" transform="matrix(-1 0 0 1 66.8621 63.8702)" fill="white"/>
<circle r="1.55949" transform="matrix(-1 0 0 1 66.6207 64.1117)" fill="#2F590E"/>
<circle r="6.97319" transform="matrix(-1 0 0 1 65.0162 41.264)" fill="#2F590E"/>
<circle r="5.48619" transform="matrix(-1 0 0 1 65.017 41.2629)" fill="#59912D"/>
<circle r="3.82819" transform="matrix(-1 0 0 1 66.1027 40.0695)" fill="#2F590E"/>
<circle r="1.80105" transform="matrix(-1 0 0 1 66.8197 39.2646)" fill="white"/>
<circle r="1.55949" transform="matrix(-1 0 0 1 66.5783 39.5061)" fill="#2F590E"/>
<circle r="6.97319" transform="matrix(-1 0 0 1 40.4107 65.8686)" fill="#2F590E"/>
<circle r="5.48619" transform="matrix(-1 0 0 1 40.4115 65.8675)" fill="#59912D"/>
<circle r="3.82819" transform="matrix(-1 0 0 1 41.4972 64.6741)" fill="#2F590E"/>
<circle r="1.80105" transform="matrix(-1 0 0 1 42.2141 63.8691)" fill="white"/>
<circle r="1.55949" transform="matrix(-1 0 0 1 41.9728 64.1106)" fill="#2F590E"/>
<circle r="6.97319" transform="matrix(-1 0 0 1 53.1716 29.4195)" fill="#C55300"/>
<circle r="5.48618" transform="matrix(-1 0 0 1 53.1724 29.4184)" fill="#A04400"/>
<circle r="3.82819" transform="matrix(-1 0 0 1 54.2581 28.225)" fill="#C55300"/>
<circle r="1.80105" transform="matrix(-1 0 0 1 54.6751 27.4189)" fill="white"/>
<circle r="1.55949" transform="matrix(-1 0 0 1 54.4342 27.6604)" fill="#C55300"/>
<circle r="6.97319" transform="matrix(-1 0 0 1 52.874 53.5668)" fill="#C55300"/>
<circle r="5.48618" transform="matrix(-1 0 0 1 52.8748 53.5657)" fill="#A04400"/>
<circle r="3.82819" transform="matrix(-1 0 0 1 53.9604 52.3723)" fill="#C55300"/>
<circle r="1.80105" transform="matrix(-1 0 0 1 54.3771 51.5662)" fill="white"/>
<circle r="1.55949" transform="matrix(-1 0 0 1 54.1362 51.8077)" fill="#C55300"/>
<circle r="6.97319" transform="matrix(-1 0 0 1 28.2685 54.069)" fill="#C55300"/>
<circle r="5.48618" transform="matrix(-1 0 0 1 28.2693 54.0679)" fill="#A04400"/>
<circle r="3.82819" transform="matrix(-1 0 0 1 29.3549 52.8745)" fill="#C55300"/>
<circle r="1.80105" transform="matrix(-1 0 0 1 29.7715 52.0684)" fill="white"/>
<circle r="1.55949" transform="matrix(-1 0 0 1 29.5307 52.3099)" fill="#C55300"/>
<circle r="6.97319" transform="matrix(-1 0 0 1 77.319 53.5657)" fill="#C55300"/>
<circle r="5.48618" transform="matrix(-1 0 0 1 77.3198 53.5646)" fill="#A04400"/>
<circle r="3.82819" transform="matrix(-1 0 0 1 78.4054 52.3712)" fill="#C55300"/>
<circle r="1.80105" transform="matrix(-1 0 0 1 78.8224 51.5651)" fill="white"/>
<circle r="1.55949" transform="matrix(-1 0 0 1 78.5815 51.8066)" fill="#C55300"/>
<circle r="6.97319" transform="matrix(-1 0 0 1 52.874 78.1724)" fill="#C55300"/>
<circle r="5.48618" transform="matrix(-1 0 0 1 52.8748 78.1714)" fill="#A04400"/>
<circle r="3.82819" transform="matrix(-1 0 0 1 53.9604 76.9779)" fill="#C55300"/>
<circle r="1.80105" transform="matrix(-1 0 0 1 54.3771 76.1718)" fill="white"/>
<circle r="1.55949" transform="matrix(-1 0 0 1 54.1362 76.4134)" fill="#C55300"/>
</svg>
