<?xml version="1.0" encoding="utf-8"?>
<svg viewBox="0 0 13 13" xmlns="http://www.w3.org/2000/svg">
  <path d="M 1.95 0.012 C 0.872 0.012 0 0.883 0 1.96 L 0 11.052 C 0 12.129 0.872 13 1.95 13 L 11.05 13 C 12.128 13 13 12.129 13 11.052 L 13.009 9.241 C 13.009 8.881 12.719 8.592 12.359 8.592 C 11.999 8.592 11.709 8.881 11.709 9.241 L 11.7 11.052 C 11.7 11.412 11.41 11.701 11.05 11.701 L 1.95 11.701 C 1.59 11.701 1.3 11.412 1.3 11.052 L 1.3 1.96 C 1.3 1.6 1.59 1.311 1.95 1.311 L 4.395 1.314 C 4.755 1.314 5.045 1.024 5.045 0.664 C 5.045 0.304 4.755 0.015 4.395 0.015 L 1.95 0.012 Z" style=""/>
  <path d="M 10.138 7.885 C 10.138 7.521 9.846 7.229 9.482 7.229 L 6.69 7.229 L 12.791 1.131 C 13.048 0.874 13.048 0.458 12.791 0.204 C 12.533 -0.05 12.118 -0.053 11.864 0.204 L 5.766 6.302 L 5.766 3.51 C 5.766 3.146 5.473 2.854 5.11 2.854 C 4.746 2.854 4.453 3.146 4.453 3.51 L 4.453 7.885 C 4.453 8.249 4.746 8.541 5.11 8.541 L 9.482 8.541 C 9.846 8.541 10.138 8.249 10.138 7.885 Z" style="transform-origin: 8.71838px 4.27669px;" transform="matrix(-1, 0, 0, -1, 0, 0)"/>
</svg>