<svg width="13" height="13" viewBox="0 0 13 13" xmlns="http://www.w3.org/2000/svg">
    <path
        d="M1.95 0C0.872083 0 0 0.872083 0 1.95V11.05C0 12.1279 0.872083 13 1.95 13H11.05C12.1279 13 13 12.1279 13 11.05V7.58333C13 7.22313 12.7102 6.93333 12.35 6.93333C11.9898 6.93333 11.7 7.22313 11.7 7.58333V11.05C11.7 11.4102 11.4102 11.7 11.05 11.7H1.95C1.58979 11.7 1.3 11.4102 1.3 11.05V1.95C1.3 1.58979 1.58979 1.3 1.95 1.3H5.41667C5.77687 1.3 6.06667 1.01021 6.06667 0.65C6.06667 0.289792 5.77687 0 5.41667 0H1.95Z" />
    <path
        d="M9.15214 8.87305C9.15214 8.50938 8.85956 8.2168 8.49589 8.2168H5.70409L11.8045 2.11914C12.0615 1.86211 12.0615 1.44648 11.8045 1.19219C11.5474 0.93789 11.1318 0.935156 10.8775 1.19219L4.77987 7.28984V4.49805C4.77987 4.13438 4.48729 3.8418 4.12362 3.8418C3.75995 3.8418 3.46737 4.13438 3.46737 4.49805V8.87305C3.46737 9.23672 3.75995 9.5293 4.12362 9.5293H8.49589C8.85956 9.5293 9.15214 9.23672 9.15214 8.87305Z" />
</svg>