<svg width="145" height="32" viewBox="0 0 145 32" fill="none" xmlns="http://www.w3.org/2000/svg">
<rect width="144.365" height="32" rx="4" fill="#FF2F42"/>
<path d="M15 21.464V10.008H21.128C21.928 10.008 22.648 10.1413 23.288 10.408C23.928 10.6747 24.4293 11.0533 24.792 11.544C25.1547 12.024 25.336 12.5627 25.336 13.16C25.336 13.736 25.1707 14.2587 24.84 14.728C24.52 15.1867 24.104 15.4907 23.592 15.64C24.1573 15.768 24.6213 16.0827 24.984 16.584C25.3573 17.0853 25.544 17.6507 25.544 18.28C25.544 18.8987 25.3627 19.4533 25 19.944C24.6373 20.424 24.136 20.7973 23.496 21.064C22.856 21.3307 22.136 21.464 21.336 21.464H15ZM18.472 18.984H20.568C20.8667 18.984 21.128 18.9413 21.352 18.856C21.5867 18.76 21.7627 18.632 21.88 18.472C22.008 18.3013 22.072 18.1093 22.072 17.896C22.072 17.6613 22.008 17.4533 21.88 17.272C21.7627 17.0907 21.5867 16.952 21.352 16.856C21.128 16.7493 20.8667 16.696 20.568 16.696H18.472V18.984ZM18.472 14.632H20.456C20.7227 14.632 20.9627 14.584 21.176 14.488C21.4 14.392 21.5707 14.2587 21.688 14.088C21.816 13.9173 21.88 13.7307 21.88 13.528C21.88 13.3253 21.8213 13.144 21.704 12.984C21.5867 12.824 21.416 12.7013 21.192 12.616C20.9787 12.5307 20.7333 12.488 20.456 12.488H18.472V14.632Z" fill="black" fill-opacity="0.75"/>
<path d="M32.4158 19.848C32.2344 20.232 32.0104 20.5733 31.7437 20.872C31.4877 21.16 31.1944 21.384 30.8638 21.544C30.5438 21.704 30.2024 21.784 29.8398 21.784C29.3064 21.784 28.8264 21.6453 28.3997 21.368C27.9731 21.08 27.6424 20.6853 27.4078 20.184C27.1731 19.6827 27.0557 19.1173 27.0557 18.488V13.208H30.1278V17.784C30.1278 18.04 30.1704 18.2693 30.2557 18.472C30.3517 18.664 30.4798 18.8187 30.6398 18.936C30.7998 19.0427 30.9971 19.096 31.2318 19.096C31.4451 19.096 31.6424 19.0373 31.8237 18.92C32.0051 18.8027 32.1491 18.6427 32.2558 18.44C32.3624 18.2373 32.4158 18.0027 32.4158 17.736V13.208H35.4878V21.464H32.4158V19.848Z" fill="black" fill-opacity="0.75"/>
<path d="M37.7786 21.464V13.208H40.8506V21.464H37.7786ZM41.0586 10.664C41.0586 11.1653 40.8933 11.5707 40.5626 11.88C40.2426 12.1893 39.8266 12.344 39.3146 12.344C38.8133 12.344 38.3973 12.1893 38.0666 11.88C37.7466 11.56 37.5866 11.1547 37.5866 10.664C37.5866 10.184 37.7466 9.78933 38.0666 9.48C38.3973 9.16 38.8133 9 39.3146 9C39.8266 9 40.2426 9.15467 40.5626 9.464C40.8933 9.77333 41.0586 10.1733 41.0586 10.664Z" fill="black" fill-opacity="0.75"/>
<path d="M43.151 21.464V9.528H46.223V21.464H43.151Z" fill="black" fill-opacity="0.75"/>
<path d="M56.289 18.648C56.2143 19.256 55.9957 19.8 55.633 20.28C55.2703 20.7493 54.8063 21.1173 54.241 21.384C53.6863 21.6507 53.0783 21.784 52.417 21.784C51.7343 21.784 51.1263 21.6507 50.593 21.384C50.0703 21.1067 49.6597 20.7333 49.361 20.264C49.0623 19.784 48.913 19.24 48.913 18.632V15.496H47.489V13.224H48.513C48.6943 13.224 48.8543 13.1653 48.993 13.048C49.1317 12.92 49.217 12.7653 49.249 12.584L49.457 10.728H51.985V13.208H55.777V15.496H51.985L52.001 18.472C51.9903 18.76 52.049 19 52.177 19.192C52.3157 19.3733 52.497 19.464 52.721 19.464C52.945 19.464 53.153 19.3253 53.345 19.048C53.5477 18.7707 53.681 18.408 53.745 17.96L56.289 18.648Z" fill="black" fill-opacity="0.75"/>
<path d="M63.3926 21.464L61.7446 13.208H64.8166L65.9846 19.864L67.2006 13.208H71.2646L72.5126 19.944L73.6646 13.208H76.7366L75.1046 21.464H70.3366L69.2486 14.872L68.1766 21.464H63.3926Z" fill="black" fill-opacity="0.75"/>
<path d="M78.3255 21.464V13.208H81.3975V21.464H78.3255ZM81.6055 10.664C81.6055 11.1653 81.4402 11.5707 81.1095 11.88C80.7895 12.1893 80.3735 12.344 79.8615 12.344C79.3602 12.344 78.9442 12.1893 78.6135 11.88C78.2935 11.56 78.1335 11.1547 78.1335 10.664C78.1335 10.184 78.2935 9.78933 78.6135 9.48C78.9442 9.16 79.3602 9 79.8615 9C80.3735 9 80.7895 9.15467 81.1095 9.464C81.4402 9.77333 81.6055 10.1733 81.6055 10.664Z" fill="black" fill-opacity="0.75"/>
<path d="M91.5859 18.648C91.5112 19.256 91.2925 19.8 90.9299 20.28C90.5672 20.7493 90.1032 21.1173 89.5379 21.384C88.9832 21.6507 88.3752 21.784 87.7139 21.784C87.0312 21.784 86.4232 21.6507 85.8899 21.384C85.3672 21.1067 84.9565 20.7333 84.6579 20.264C84.3592 19.784 84.2099 19.24 84.2099 18.632V15.496H82.7859V13.224H83.8099C83.9912 13.224 84.1512 13.1653 84.2899 13.048C84.4285 12.92 84.5139 12.7653 84.5459 12.584L84.7539 10.728H87.2819V13.208H91.0739V15.496H87.2819L87.2979 18.472C87.2872 18.76 87.3459 19 87.4739 19.192C87.6125 19.3733 87.7939 19.464 88.0179 19.464C88.2419 19.464 88.4499 19.3253 88.6419 19.048C88.8445 18.7707 88.9779 18.408 89.0419 17.96L91.5859 18.648Z" fill="black" fill-opacity="0.75"/>
<path d="M92.9326 21.464V9.528H96.0046V14.824C96.1326 14.44 96.33 14.104 96.5966 13.816C96.874 13.528 97.1833 13.304 97.5246 13.144C97.8766 12.9733 98.2393 12.888 98.6126 12.888C99.114 12.888 99.5726 13.0267 99.9886 13.304C100.415 13.5707 100.751 13.944 100.997 14.424C101.242 14.904 101.365 15.448 101.365 16.056V21.464H98.2766V16.872C98.2766 16.616 98.2286 16.392 98.1326 16.2C98.0473 15.9973 97.9193 15.8427 97.7486 15.736C97.578 15.6293 97.386 15.576 97.1726 15.576C96.9593 15.576 96.762 15.6347 96.5806 15.752C96.3993 15.8587 96.2553 16.0187 96.1486 16.232C96.0526 16.4347 96.0046 16.664 96.0046 16.92V21.464H92.9326Z" fill="black" fill-opacity="0.75"/>
<path d="M126.796 12.6033C127.082 12.6033 127.361 12.4801 127.568 12.2627L129.183 11.0018C129.296 10.9149 129.365 10.7736 129.365 10.6286V9.76268L111.365 9.70834V10.4728C111.365 10.6105 111.423 10.7373 111.52 10.8279L113.133 12.2736C113.343 12.5091 113.633 12.6431 113.933 12.6431H115.212V15.5417L114.546 14.8605C114.339 14.6467 114.049 14.5236 113.749 14.5236L111.694 14.5127V17.1286L115.209 17.1685V22.2917L115.825 21.6793C115.825 21.6793 117.625 19.8859 117.818 19.6938L117.923 19.5888V14.683C117.908 14.5054 117.894 14.3279 117.872 14.1504C117.85 13.9583 117.814 13.7627 117.789 13.5707C117.745 13.2772 117.68 12.9909 117.615 12.7047C117.615 12.6902 117.607 12.683 117.615 12.6685C117.647 12.6214 117.861 12.5707 117.915 12.596C118.238 12.7518 118.578 12.8424 118.941 12.8569C119.046 12.8605 119.151 12.8641 119.256 12.8641L121.995 12.8569C122.354 12.8388 122.691 12.7518 123.013 12.596C123.068 12.5707 123.281 12.6214 123.314 12.6685C123.321 12.6794 123.314 12.6902 123.314 12.7047C123.249 12.9909 123.183 13.2808 123.14 13.5707C123.111 13.7627 123.078 13.9547 123.057 14.1504C123.031 14.3533 123.017 14.5598 122.999 14.7627V19.5489L125.618 22.288V17.1649L129.318 17.125V14.5091L126.883 14.5199C126.586 14.5199 126.296 14.6431 126.086 14.8569L125.618 15.3351V12.6069H126.796V12.6033Z" fill="black" fill-opacity="0.75"/>
<path d="M120.365 17.604C121.285 17.604 122.031 16.858 122.031 15.9378C122.031 15.0173 121.285 14.2713 120.365 14.2713C119.444 14.2713 118.698 15.0173 118.698 15.9378C118.698 16.858 119.444 17.604 120.365 17.604Z" fill="black" fill-opacity="0.75"/>
</svg>
