<svg width="93" height="52" viewBox="0 0 93 52" fill="none" xmlns="http://www.w3.org/2000/svg">
<g clip-path="url(#clip0_4_171)">
<path fill-rule="evenodd" clip-rule="evenodd" d="M80.3392 6.81103L74.4263 12.7672H72.7371L65.135 4.25865H63.4456L56.688 11.9158L47.3968 2.5576H45.7073L36.4158 11.9158L29.6586 4.25865H27.9691L20.367 12.7672H18.6777L12.7649 6.81103L1.78412 17.872V21.2757L11.0756 48.5022L14.4543 50.2032L16.9883 51.0546H76.1157L78.6497 50.2032L82.0284 48.5022L91.3199 21.2757V17.872L80.3392 6.81103Z" fill="#101010"/>
<path fill-rule="evenodd" clip-rule="evenodd" d="M92.7403 17.8071C92.4237 17.0904 89.9276 14.543 86.6361 11.3222C81.4856 6.2806 80.59 5.12993 80.0372 5.16983C79.483 5.20975 78.851 6.30055 77.2326 7.9966C75.6289 9.67767 74.6211 10.7136 74.2564 11.0645C73.3342 11.9507 73.331 11.8693 72.5672 11.0645C72.3494 10.835 70.076 8.38901 68.3239 6.50009C66.331 4.35008 64.8313 2.7272 64.5295 2.50937C63.9637 2.10199 63.6121 2.14688 63.2757 2.55759C62.6322 3.34243 61.606 4.5812 59.7452 6.66634C58.4813 8.08139 56.647 10.0701 56.5181 10.2148C56.2015 10.5739 56.0563 10.5972 55.6208 10.1582C55.1852 9.71924 48.0169 1.65137 47.2269 0.85489C46.4365 0.0584102 46.4975 0.0584102 45.7074 0.85489C44.917 1.65137 37.749 9.71924 37.3135 10.1582C36.8779 10.5955 36.7328 10.5723 36.4159 10.2148C36.2887 10.0701 34.4527 8.08139 33.1888 6.66634C31.328 4.5812 30.3018 3.34243 29.6583 2.55759C29.3219 2.14688 28.9722 2.10199 28.4047 2.50937C28.1028 2.7272 26.6031 4.35008 24.6102 6.50009C22.8582 8.39069 20.5848 10.835 20.3671 11.0645C19.6032 11.8693 19.5999 11.9507 18.6777 11.0645C18.3131 10.7136 17.3051 9.67767 15.7015 7.9966C14.0831 6.30055 13.4496 5.20975 12.8969 5.16983C12.3442 5.12993 11.4484 6.2806 6.29787 11.3222C3.00661 14.543 0.510528 17.0904 0.193773 17.8071C-0.121331 18.5221 0.0353958 19.8124 0.111285 20.3528C0.426388 21.0229 2.35827 26.3788 4.34622 31.7796C7.01718 39.0344 9.99828 47.1619 10.2309 47.6526C10.6665 48.5689 11.5029 50.2032 12.237 50.732C13.0668 51.329 14.3108 51.8678 15.299 51.906C15.6256 51.9192 22.5332 51.9741 31.6463 51.9242C45.7817 51.8446 47.1525 51.8446 61.2877 51.9242C70.4011 51.9759 77.3084 51.9192 77.6353 51.906C78.6233 51.866 79.8673 51.329 80.697 50.732C81.4314 50.2032 82.2678 48.5689 82.7033 47.6526C82.9357 47.1619 85.9169 39.0344 88.588 31.7796C90.576 26.3788 92.5077 21.0229 92.8228 20.3528C92.8986 19.8124 93.0555 18.5221 92.7403 17.8071ZM84.8216 35.1003C83.1371 39.844 80.3687 47.32 80.1693 47.6508C79.6165 48.5671 78.7026 49.3122 77.6353 49.3521C77.2822 49.3653 66.4053 49.4003 57.2706 49.4003H35.6637C26.5289 49.4003 15.652 49.3653 15.299 49.3521C14.2316 49.3122 13.3176 48.5671 12.7649 47.6508C12.5653 47.32 9.79704 39.844 8.11263 35.1003C3.36957 21.7363 2.61067 20.0568 2.66841 19.1373C2.72945 18.1629 4.33467 16.7329 8.27761 12.8187C10.6104 10.5024 12.5076 8.51205 12.7649 8.51205C12.9827 8.51205 13.2929 8.86956 14.3817 9.99193C16.0562 11.7146 18.2818 14.0309 18.6777 14.4682C19.0736 14.9055 19.8127 14.9853 20.3671 14.4682C20.6558 14.1988 21.936 12.8403 24.4452 9.99193C27.2119 6.8526 28.083 5.97298 28.4047 5.66868C29.0761 5.03184 28.8485 5.1582 29.5595 5.83496C29.886 6.1459 31.2423 7.66072 32.6941 9.32683C34.4016 11.2856 35.9622 13.128 36.1584 13.3175C36.6156 13.7582 37.2077 13.7549 37.6432 13.3175C38.0788 12.8802 45.1447 4.61613 45.7272 4.00588C46.222 3.48876 46.717 3.48876 47.212 4.00588C47.7942 4.61613 54.8552 12.8802 55.2908 13.3175C55.7263 13.7549 56.3187 13.7582 56.7756 13.3175C56.9718 13.128 58.5327 11.2856 60.2402 9.32683C61.6917 7.66072 63.048 6.1459 63.3748 5.83496C64.0855 5.1582 63.8581 5.03184 64.5295 5.66868C64.8511 5.97298 65.7222 6.8526 68.4889 9.99193C70.9982 12.8403 72.2783 14.1988 72.5672 14.4682C73.1197 14.9853 73.8605 14.9055 74.2564 14.4682C74.6523 14.0309 76.8779 11.7146 78.5524 9.99193C79.6413 8.87123 79.9515 8.51205 80.1693 8.51205C80.4264 8.51205 82.3237 10.5024 84.6566 12.8187C88.5994 16.7329 90.2046 18.1629 90.2658 19.1373C90.3235 20.0568 89.5646 21.7363 84.8216 35.1003ZM0.0947913 20.4243C0.16903 20.707 0.150879 20.6255 0.111285 20.3512C0.0601422 20.2414 0.0518976 20.2581 0.0947913 20.4243ZM92.8228 20.3528C92.7849 20.6255 92.7669 20.707 92.8395 20.426C92.8823 20.2581 92.8739 20.2414 92.8228 20.3528Z" fill="white"/>
<path fill-rule="evenodd" clip-rule="evenodd" d="M35.5925 36.5951H34.7479V37.4447H35.5925V36.5951ZM77.8066 35.7437H68.5185V36.5933H76.962V37.4429H77.8066V38.2929H78.6515V44.2455H77.8066V45.0952H76.962V45.9448H68.5185V36.5901H61.7642V35.7405H57.5425V36.5901H60.9197V43.3942H66.8291V45.9448H57.541V36.5901H55.0085V35.7405H45.7222V36.5901H54.1656V37.4397H55.0102V38.2893H55.8548V40.84H55.0102V41.6899H54.1656V42.5395H55.0102V43.3892H55.8548C55.8548 43.3892 55.8105 45.797 55.8548 45.9398C55.8994 46.0829 52.4779 45.9398 52.4779 45.9398V44.2388H51.6331V43.3892H49.1008V45.9398H45.7236V36.5851H44.8791V37.4347H44.0345V36.5851H43.1896V35.7355H35.591V36.5851H42.345V37.4347H43.1896V38.2843H44.0345V44.2373H43.1896V45.0869H42.345V45.9366H35.591V45.0869H34.7461V44.2373H33.9016V38.2843H34.7461V37.4347H33.9016V36.5851H33.057V35.7355H27.9905V36.5851H25.4581V35.7355H21.2364V36.5851H24.6134V39.9871H25.4581V39.1375H26.3028V38.2879H27.1474V39.1375H27.9921V39.9871H28.8368V36.5851H32.2139V45.9398H28.8368V45.0902H27.9921V44.2405H27.1474V43.3909H26.3028V44.2405H25.4581V45.0902H24.6134V45.9398H21.2364V36.5851H10.2605V38.2861H11.1052V40.8367H11.9499V43.3874H12.7945V45.9383H13.6392V46.788H14.4839V47.6376H19.5503V46.788H21.2396V47.6376H26.3061V46.788H27.1507V45.9383H27.9954V46.788H28.8401V47.6376H33.9065V45.9366H34.7511V46.7862H35.596V47.6358H44.0394V46.7862H45.7286V47.6358H50.7952V45.9348H51.6398V46.7847H52.4844V47.6344H57.551V46.7847H58.3955V47.6344H68.5267V46.7847H69.3713V47.6344H78.6579V46.7847H79.5025V45.9348H80.3473V43.3842H81.1919V40.8335H82.0365V38.2829H82.8814V36.5816H77.8148V35.7437H77.8066ZM18.7056 45.0984H17.8609V45.9483H15.3286V45.0984H14.4839V42.5478H15.3286V41.6981H17.8609V42.5478H18.7056V45.0984ZM38.125 43.3991H39.8142V42.5495H40.6591V39.9989H39.8142V39.149H38.125V39.9989H37.2802V42.5495H38.125V43.3991ZM51.6331 40.8467H52.4779V39.1457H51.6331V38.2961H49.1008V41.6981H51.6331V40.8467ZM74.4294 42.5478H75.2743V39.9971H74.4294V39.1475H71.8972V43.3991H74.4294V42.5478ZM21.4079 33.8165C21.4112 33.9578 21.497 34.0491 21.5762 34.0427C22.3005 33.991 24.2224 33.9795 26.3044 33.986C28.9572 33.9945 31.8197 34.1273 32.0456 33.8732C32.5453 33.3076 32.524 29.159 32.2139 28.9411C31.9054 28.7233 31.7372 29.6394 31.0888 29.7625C30.4387 29.8874 27.1937 29.568 26.6987 29.8474C26.2038 30.1283 25.4597 30.6406 25.4597 30.6406C25.4597 30.6406 25.4597 24.1756 25.4597 23.5537C26.0537 23.5337 26.4314 23.567 26.895 23.4124C27.3586 23.256 28.4854 21.264 28.9506 20.9115C29.3069 20.6422 29.9157 20.4526 28.8087 20.5208C28.0878 20.5656 26.2516 20.5989 25.4317 20.5773C25.4168 19.3934 25.4053 18.966 25.3756 18.3375C25.3377 17.5494 25.275 16.5101 25.2354 16.0695C25.661 16.0528 26.0091 16.0512 26.3044 16.0695C26.7185 16.0944 26.8241 16.4785 27.1491 17.0056C27.3834 17.3847 27.6622 17.8087 27.8816 17.9418C28.1158 18.0831 28.982 17.9867 30.0495 17.9983C31.1597 18.0116 32.4136 18.0083 32.6955 17.8004C33.2946 17.3581 32.864 17.4712 32.6115 17.5743C32.4168 17.6524 31.4699 16.9774 30.7259 15.9581C30.0824 15.0784 29.6486 14.0458 28.8682 13.7465C28.6042 13.6451 27.8173 13.7066 27.0947 13.69C26.085 13.6667 25.7435 13.5969 25.2931 13.6335C24.8757 13.6667 24.8262 14.0026 23.4355 15.3345C22.6222 16.1127 22.1041 16.6082 21.7989 17.0089C21.563 17.3182 21.4079 17.571 21.4096 17.857C21.4129 18.5038 21.4525 21.1659 21.4937 25.2847C21.5333 29.4399 21.403 33.5638 21.4079 33.8165ZM33.0584 33.193C33.0453 33.6102 33.5403 34.0427 33.9033 34.0427C34.0928 34.0427 34.8931 34.0409 35.7327 34.0427C36.5263 34.0441 37.3248 34.0577 37.5064 34.0145C38.0688 33.8796 37.9385 33.7433 37.5064 33.7316C37.0708 33.7201 37.135 32.9751 37.1399 32.5693C37.1697 30.0119 37.1484 25.5125 37.1399 24.7177C38.0277 24.6096 40.2136 24.3951 41.5019 24.5481C41.5019 25.0669 41.4095 32.6143 41.5019 33.1945C41.578 33.6719 41.5695 34.0441 42.3468 34.0441C42.6007 34.0441 43.2424 34.0491 43.9321 34.0509C44.9584 34.0541 46.0851 34.0491 46.1741 34.0159C46.3341 33.956 46.3093 33.8214 46.1461 33.7615C45.9216 33.6801 45.826 33.3626 45.7236 32.8255C45.5869 32.1054 45.9761 20.4343 45.7236 19.5863C45.6892 19.4682 45.5919 19.267 45.3741 19.0841C44.0065 17.9384 40.5054 15.0053 39.42 14.0575C39.0373 13.7232 38.8655 13.7266 38.4186 14.1872C36.9668 15.6787 35.8796 17.1203 33.5931 19.1041C32.9033 19.7027 33.0371 20.0751 33.0584 20.7486C33.1608 23.9062 33.0917 32.1372 33.0584 33.193ZM37.6466 17.8287C37.7901 17.7988 38.6148 18.6252 39.3358 19.2737C40.1789 20.0336 40.6078 20.4094 41.3057 20.9747C41.5118 21.141 41.5794 21.3505 41.5596 21.7396C41.5185 22.5327 41.5036 23.838 41.5036 23.838C41.5036 23.838 38.6775 23.73 37.1417 23.8098C37.1399 22.8121 37.1268 19.6694 37.0015 18.5088C37.2968 18.143 37.5312 17.852 37.6466 17.8287ZM44.7948 17.403C44.9764 17.3332 45.1216 17.3565 45.3575 17.6009C45.6744 17.9285 46.1181 18.3159 46.4545 18.6501C46.7102 18.9029 46.7729 19.0991 46.7647 19.3585C46.6953 21.6165 46.9032 30.3795 46.4825 33.1363C46.372 33.8582 46.3242 34.0059 46.849 34.0159C49.5133 34.0626 50.8413 33.9328 53.0403 33.9313C54.4758 33.9313 56.5396 34.0441 57.1218 34.0159C57.409 34.0027 57.4883 33.9795 57.5443 33.8182C57.6647 33.4721 57.5839 31.1841 57.6565 29.6512C57.6926 28.878 57.518 28.9794 57.3463 29.2538C57.1763 29.5281 57.1236 29.6562 56.3895 29.7643C55.8697 29.8407 52.887 29.6394 51.9995 29.9338C51.2818 30.1718 50.8165 30.5507 50.2541 31.096C50.6515 30.2032 50.7077 27.8088 50.6929 24.9704C50.6762 22.0971 50.7042 18.996 50.8165 17.5161C50.8381 17.2451 50.7867 17.0256 50.5923 16.8643C49.7658 16.1809 48.1507 14.7775 47.6935 14.4831C47.5285 14.3767 47.3026 14.4582 47.1376 14.6145C46.4711 15.2397 45.4467 16.5583 44.8231 17.1486C44.3989 17.5494 44.4237 17.546 44.7948 17.403ZM56.193 17.6009C56.444 17.5494 56.8463 17.8254 57.3743 18.3092C57.7224 18.6285 58.0244 18.9461 58.2472 19.2454C58.374 19.4167 58.4104 19.5347 58.4154 19.8689C58.4352 21.0978 58.2684 32.6842 58.3874 33.193C58.506 33.7001 58.8162 33.9545 59.232 34.0427C59.4331 34.0859 60.3456 34.0277 61.2858 34.0427C62.2908 34.0577 63.0694 34.0427 63.2278 33.9296C63.4455 33.7733 63.447 33.7665 63.1155 33.7883C62.7625 33.8115 62.6173 33.557 62.6091 33.193C62.5231 29.7575 62.7741 21.3887 62.8053 20.0668C62.8318 19.0093 62.8004 18.5071 62.6651 18.2527C62.8202 18.1214 62.9342 18.0116 63.1435 17.8553C63.4041 18.1845 63.8347 18.6551 64.0443 18.9893C64.3 19.3951 64.6895 20.13 64.691 20.2647C64.709 21.3621 64.6746 21.7113 64.719 22.5045C64.7373 22.8187 65.1974 23.1696 66.3227 23.9794C67.0784 24.5214 67.697 24.9704 67.8422 25.2547C68.0664 25.6921 68.0879 25.6887 68.0961 25.1134C68.1258 23.0316 68.1769 20.3678 68.1521 18.9611C68.1457 18.5919 68.0731 18.3824 67.8702 18.0814C68.0582 17.9518 68.1605 17.8354 68.4046 17.684C68.69 17.9019 69.1124 18.4024 69.4456 18.8181C69.8054 19.2687 70.2555 20.0203 70.2541 20.2165C70.2441 21.0844 70.0281 32.5044 70.2045 33.1913C70.3826 33.8779 70.696 34.0344 70.9371 34.0409C71.1779 34.0477 72.1266 34.0409 73.019 34.0409C73.9117 34.0409 74.6769 34.0691 74.8767 33.9278C75.1801 33.7133 75.1638 33.6969 74.8487 33.7583C74.5516 33.8165 74.4493 33.4557 74.4262 33.1913C74.3915 32.8038 74.428 19.9105 74.3982 19.3568C74.3816 19.0492 73.5023 17.3814 72.4283 16.2956C71.6843 15.544 70.8677 14.691 70.1765 14.1124C69.9272 13.9045 69.7377 13.7682 69.3036 14.1689C68.7774 14.6544 67.6705 15.6205 66.8273 16.2391C66.2122 15.3013 65.9845 15.0169 65.1679 14.0841C64.7933 13.6568 64.4831 13.7532 64.2111 14.0275C63.4802 14.7625 63.0213 15.3262 61.8467 16.3521C61.3949 15.8051 60.5882 14.7841 59.7649 14.0841C59.5057 13.8646 59.2436 13.7266 58.9763 14.0558C58.8293 14.2354 58.3162 14.8623 57.625 15.6721C56.9833 16.4236 56.4274 16.994 56.1058 17.3166C55.7641 17.6624 55.8105 17.679 56.193 17.6009ZM84.1402 20.9182C84.381 20.7685 84.9483 19.9554 85.7437 19.1606C86.3673 18.5387 87.0535 18.0848 87.0946 17.8852C87.1442 17.6425 86.0093 16.7179 84.8428 15.6172C83.8233 14.6544 82.868 13.4456 82.563 13.2361C82.0811 12.9035 81.5152 12.9301 80.8173 13.5769C80.2812 14.0724 79.4911 15.1715 78.285 16.3837C77.0906 17.5843 76.0084 18.4872 75.5268 19.0492C75.0597 19.5946 74.5633 20.5723 75.2726 21.289C75.4723 21.4902 76.9142 23.5138 79.6625 25.5407C81.4047 26.8261 84.1335 28.6934 84.3067 29.3685C84.3761 29.6379 84.2507 29.8856 84.1944 30.19C82.8021 29.6544 78.1943 29.7143 76.962 29.7925C76.2279 29.8392 75.9011 29.7161 75.865 29.3103C75.8005 28.6036 76.0792 28.5138 76.1752 27.9501C76.297 27.2168 76.241 27.5045 75.9209 28.0067C75.7641 28.2544 75.69 28.276 75.4425 28.7433C75.1093 29.3718 75.2743 30.3645 75.3023 31.2091C75.3385 32.3681 75.2347 33.188 75.4425 33.5902C75.5548 33.8065 75.7626 33.9313 76.0332 33.9313C77.7028 33.9296 81.3389 33.8132 83.4058 34.0159C83.6353 34.0391 84.051 33.9895 84.2787 33.5902C84.6317 32.9733 84.8825 31.1577 85.1793 30.0751C85.9399 27.295 86.6824 26.0845 86.2915 25.5091C85.9399 24.9937 83.6467 23.3159 81.8024 21.8543C80.4462 20.7785 78.399 18.5886 78.087 18.1413C78.2191 17.9201 78.7585 17.3365 79.0159 17.0638C79.4019 16.6547 79.7401 16.3139 80.029 16.1277C80.4742 16.4968 81.5103 17.3947 81.8024 17.6873C82.2528 18.138 82.8368 18.7565 83.716 19.6711C84.1318 20.1051 84.1399 20.3096 83.9982 20.692C83.8251 21.1526 83.8017 21.1293 84.1402 20.9182ZM10.3479 33.8165C10.1863 33.7733 10.1384 33.3226 10.1219 32.423C10.0312 27.6874 10.3084 24.0575 10.1797 21.146C10.1252 19.9188 9.93219 17.5377 9.89755 17.1486C10.2984 16.6099 10.8924 16.0512 11.1646 15.845C11.9515 16.1509 12.9447 17.0721 13.7811 17.9151C14.6984 18.8363 15.4506 19.7975 15.6107 20.0136C15.9027 20.4077 15.9522 20.6089 15.6107 20.9498C15.416 21.1443 14.799 21.6132 14.2876 21.999C13.6029 22.5161 13.0717 22.9318 12.5421 23.3592C12.0769 23.7349 11.8443 24.0259 12.26 24.4649C12.6543 24.8806 13.3439 25.4676 14.1737 26.1377C15.0712 26.8627 15.7872 27.5494 16.1155 27.8953C16.2904 28.0798 16.2887 28.1413 16.3019 28.3442C16.3828 29.6394 16.2244 32.3948 16.2838 32.8837C16.3844 33.6934 16.9453 34.0509 17.1846 34.0459C17.4699 34.0409 20.1558 34.0791 20.4494 34.0177C20.819 33.9396 20.8041 33.8447 20.5336 33.7915C20.3075 33.7465 20.2251 32.9369 20.3092 30.0786C20.3373 29.1174 20.4214 27.2484 20.1409 26.4503C20.0502 26.1942 18.5275 24.9006 17.7207 24.2388C16.5989 23.3176 15.5546 22.5011 15.3566 22.1969C16.0264 21.6548 18.2569 19.9271 18.7056 19.5031C19.057 19.1722 19.2286 18.6069 18.8739 18.0582C18.6809 17.7589 17.5607 16.1559 16.4817 15.1383C14.4278 13.2011 13.3769 13.0049 12.8506 13.0398C12.3409 13.0748 10.9913 14.6428 9.98003 15.677C7.93103 17.7688 6.74485 18.7665 5.84243 19.6744C5.01756 20.5041 5.11324 20.3661 5.39207 21.2624C6.71847 25.5158 8.88295 33.4789 9.16341 33.7633C9.43561 34.0391 9.84312 34.0477 10.1764 34.0177C10.5971 33.9795 10.6053 33.8846 10.3479 33.8165Z" fill="white"/>
</g>
<defs>
<clipPath id="clip0_4_171">
<rect width="93" height="52" fill="white"/>
</clipPath>
</defs>
</svg>
