<svg width="24" height="24" viewBox="0 0 24 24" fill="none" xmlns="http://www.w3.org/2000/svg">
<path fill-rule="evenodd" clip-rule="evenodd" d="M19.4999 4.5125L18.2983 8.14076L13.9534 12.0925L15.9641 14.2879L17.7669 12.9474L18.6452 13.7793L17.0042 15.5124L18.4372 17.2225C19.0383 17.2688 19.5 17.7539 19.5 18.355C19.5 18.979 18.9915 19.4875 18.3675 19.4875C17.7435 19.4875 17.2584 18.979 17.235 18.3784L15.4557 16.9454L13.8148 18.6555L13.0057 17.8236L14.2999 15.9746L11.9886 13.8713L9.70077 15.9746L10.995 17.8236L10.163 18.6555L8.52204 16.9454L6.76558 18.3784C6.74273 18.9795 6.23419 19.4875 5.63308 19.4875C5.00912 19.4875 4.50058 18.979 4.50058 18.355C4.50058 17.7539 4.96284 17.2688 5.54051 17.2225L6.99641 15.5124L5.35543 13.7793L6.21022 12.9474L8.03583 14.2879L10.0465 12.0925L5.70163 8.14076L4.5 4.5125L8.22095 5.80669L11.9881 9.94355L15.7782 5.80669L19.4991 4.5125H19.4999Z" fill="#B7BB85"/>
</svg>
