<svg width="24" height="24" viewBox="0 0 24 24" fill="none" xmlns="http://www.w3.org/2000/svg">
<path d="M13.5374 20L15.6616 19.1718C16.3746 18.8941 16.9873 18.4047 17.4199 17.7666C17.8516 17.1285 18.0828 16.3728 18.0828 15.5991V10.1667C18.0828 7.96346 16.9233 5.92766 15.0414 4.82657C13.1595 3.72448 10.8403 3.72448 8.95845 4.82657C7.07658 5.92773 5.91699 7.96358 5.91699 10.1667V15.6141C5.91699 16.3877 6.14816 17.1435 6.57988 17.7816C7.01251 18.4197 7.62524 18.9091 8.33825 19.1867L10.4624 19.9999V13.6979C9.25178 13.4513 8.27698 12.5431 7.93338 11.3413L7.80712 10.8933L8.24533 10.7653C9.6825 10.3436 11.221 10.9497 11.9998 12.2448C12.7713 10.9394 14.3106 10.322 15.7543 10.7389L16.1925 10.8669L16.0848 11.3413C15.745 12.5478 14.7692 13.4617 13.5557 13.7092L13.5374 20Z" fill="#EFBD93"/>
</svg>
