<svg width="16" height="16" viewBox="0 0 16 16" fill="none" xmlns="http://www.w3.org/2000/svg">
<path d="M6.33398 5.66675V6.66675H9.66732V5.66675C9.66732 4.74591 8.92148 4.00008 8.00065 4.00008C7.07982 4.00008 6.33398 4.74591 6.33398 5.66675ZM5.00065 6.66675V5.66675C5.00065 4.0105 6.3444 2.66675 8.00065 2.66675C9.6569 2.66675 11.0007 4.0105 11.0007 5.66675V6.66675H11.334C12.0694 6.66675 12.6673 7.26466 12.6673 8.00008V12.0001C12.6673 12.7355 12.0694 13.3334 11.334 13.3334H4.66732C3.9319 13.3334 3.33398 12.7355 3.33398 12.0001V8.00008C3.33398 7.26466 3.9319 6.66675 4.66732 6.66675H5.00065Z" fill="current"/>
</svg>
