<svg width="20" height="20" viewBox="0 0 20 20" fill="none" xmlns="http://www.w3.org/2000/svg">
    <circle cx="10" cy="10" r="10" fill="#48413C" />
    <g clip-path="url(#clip0_1777_32153)">
        <path
            d="M5.03027 14.2137V11.2624C5.03027 9.08753 6.34576 7.14741 8.31418 6.42111L11.5827 5.21531C11.9949 5.06283 12.4263 5.38183 12.4263 5.83527C12.4263 6.05596 12.3204 6.26061 12.1451 6.38299L11.5018 6.83041C12.4282 6.83041 13.2583 7.42829 13.5838 8.33315L14.5199 10.9314C14.7472 11.5613 14.5989 12.2716 14.1424 12.7471C13.8342 13.0681 13.4144 13.2507 12.9771 13.2507H12.9117C12.409 13.2507 11.9313 13.0179 11.6096 12.6147L10.9875 11.8382C10.7622 11.9205 10.5214 11.9666 10.2691 11.9666H10.2672C10.1459 11.9666 10.0264 11.9566 9.90895 11.9365C9.83961 11.9245 9.77027 11.9084 9.70286 11.8904C9.14623 11.7339 8.68013 11.3527 8.397 10.8431C8.31226 10.6906 8.1235 10.6364 7.9752 10.7267C7.82689 10.817 7.77682 11.0116 7.86349 11.1661C8.32574 11.9987 9.17898 12.5705 10.1613 12.6086L11.0704 14.0291C11.1474 14.1515 11.1898 14.294 11.1898 14.4384C11.1898 14.8457 10.872 15.1768 10.481 15.1768H5.95478C5.44437 15.1768 5.03027 14.7454 5.03027 14.2137ZM11.3477 9.39851C11.4084 9.39851 11.4685 9.38606 11.5246 9.36186C11.5807 9.33766 11.6316 9.30219 11.6746 9.25748C11.7175 9.21277 11.7515 9.15969 11.7748 9.10126C11.798 9.04284 11.81 8.98023 11.81 8.91699C11.81 8.85376 11.798 8.79115 11.7748 8.73272C11.7515 8.6743 11.7175 8.62122 11.6746 8.57651C11.6316 8.5318 11.5807 8.49633 11.5246 8.47213C11.4685 8.44793 11.4084 8.43547 11.3477 8.43547C11.287 8.43547 11.2269 8.44793 11.1708 8.47213C11.1147 8.49633 11.0638 8.5318 11.0208 8.57651C10.9779 8.62122 10.9439 8.6743 10.9206 8.73272C10.8974 8.79115 10.8855 8.85376 10.8855 8.91699C10.8855 8.98023 10.8974 9.04284 10.9206 9.10126C10.9439 9.15969 10.9779 9.21277 11.0208 9.25748C11.0638 9.30219 11.1147 9.33766 11.1708 9.36186C11.2269 9.38606 11.287 9.39851 11.3477 9.39851Z"
            fill="#E0AF65" />
    </g>
    <defs>
        <clipPath id="clip0_1777_32153">
            <rect width="10" height="10" fill="white" transform="translate(5 5)" />
        </clipPath>
    </defs>
</svg>