<svg width="20" height="20" viewBox="0 0 20 20" fill="none" xmlns="http://www.w3.org/2000/svg">
    <circle cx="10" cy="10" r="10" fill="#E0AF65" />
    <g clip-path="url(#clip0_1367_28964)">
        <path
            d="M10.4375 6.07031C10.675 5.93359 10.8333 5.68555 10.8333 5.40625C10.8333 4.97461 10.4604 4.625 10 4.625C9.53958 4.625 9.16667 4.97461 9.16667 5.40625C9.16667 5.6875 9.325 5.93359 9.5625 6.07031L8 9L5.5 7.125C5.60417 6.99414 5.66667 6.83203 5.66667 6.65625C5.66667 6.22461 5.29375 5.875 4.83333 5.875C4.37292 5.875 4 6.22461 4 6.65625C4 7.08789 4.37292 7.4375 4.83333 7.4375C4.8375 7.4375 4.84375 7.4375 4.84792 7.4375L6 13.375H14L15.1521 7.4375C15.1562 7.4375 15.1625 7.4375 15.1667 7.4375C15.6271 7.4375 16 7.08789 16 6.65625C16 6.22461 15.6271 5.875 15.1667 5.875C14.7063 5.875 14.3333 6.22461 14.3333 6.65625C14.3333 6.83203 14.3958 6.99414 14.5 7.125L12 9L10.4375 6.07031Z"
            fill="#24130A" />
    </g>
    <defs>
        <clipPath id="clip0_1367_28964">
            <rect width="12" height="10" fill="white" transform="translate(4 4)" />
        </clipPath>
    </defs>
</svg>