<svg viewBox="0 0 108 101" fill="none" xmlns="http://www.w3.org/2000/svg">
<path d="M104.586 2.06779C53.7963 -1.60256 51.1488 25.2337 3.34166 28.9252C34.8317 26.6496 47.8154 31.6029 64.5299 36.5758C74.6087 32.4662 86.5746 29.6233 104.586 30.4218C106.61 19.5472 106.738 13.353 104.586 2.06779Z" fill="#F3D899"/>
<path d="M50.2109 61.7251C65.1292 65.7257 77.7548 71.0514 104.586 72.4356C105.035 66.8647 105.349 62.5043 105.404 58.2586C105.349 54.013 105.035 49.6526 104.586 44.0816C77.7548 45.4658 65.1292 54.4871 50.2109 61.7251Z" fill="#D9C189"/>
<path d="M104.586 44.0816C86.4196 42.6789 74.774 39.6237 64.5299 36.5758C46.2181 44.0424 34.1355 55.6905 3.34166 57.2792C25.5643 56.2941 38.5839 58.6071 50.2109 61.7251C65.1292 54.4871 77.7548 45.4658 104.586 44.0816Z" fill="#F3D899"/>
<path d="M3.34166 28.9252C2.07105 39.5596 2.42337 45.8893 3.34166 57.2792C34.1355 55.6905 46.2181 44.0424 64.5299 36.5758C47.8154 31.6029 34.8317 26.6496 3.34166 28.9252Z" fill="#D9C189"/>
<path d="M3.34175 99.293C54.1317 102.963 56.7789 76.1271 104.586 72.4356C77.7548 71.0514 65.1292 65.7257 50.2109 61.7251C38.5839 67.3662 25.5644 71.9241 3.34175 70.939C1.31847 81.8135 1.18963 88.0078 3.34175 99.293Z" fill="#F3D899"/>
<path fill-rule="evenodd" clip-rule="evenodd" d="M105.995 24.2569C87.9126 23.4585 74.8957 26.3121 64.7771 30.4218C61.9437 31.5725 59.248 32.8249 56.6016 34.1261C58.0056 34.5405 59.4098 34.964 60.8288 35.392C62.1287 35.7841 63.441 36.1799 64.7771 36.5758C74.8957 32.4662 86.9087 29.6233 104.991 30.4218C105.407 28.1991 105.742 26.1719 105.995 24.2569Z" fill="#967E67"/>
<path fill-rule="evenodd" clip-rule="evenodd" d="M50.6534 37.1343C52.6334 36.119 54.6034 35.1086 56.6016 34.1261C58.0056 34.5405 59.4098 34.964 60.8288 35.392C62.1287 35.7841 63.441 36.1799 64.7771 36.5758C59.7627 38.6124 55.2136 40.9601 50.6216 43.3299C44.7165 46.3773 38.7406 49.4613 31.6133 51.9674C23.7717 51.0661 14.5238 50.7093 2.88783 51.2231C25.4407 50.0642 38.2414 43.4996 50.6534 37.1343ZM2.89609 51.3444C2.89333 51.3039 2.89057 51.2635 2.88783 51.2231L2.89609 51.3444Z" fill="#856E59"/>
<path d="M3.34774 57.2792C14.9868 56.6811 23.9633 54.6572 31.6133 51.9674C23.7717 51.0661 14.5238 50.7093 2.88783 51.2231L2.89609 51.3444C3.022 53.1859 3.17489 55.1436 3.34774 57.2792Z" fill="#766350"/>
<path d="M3.34774 57.2792C25.658 56.2941 38.7289 58.6071 50.4017 61.7251C52.8782 60.5283 55.2918 59.2827 57.7174 58.0309L58.2208 57.7712C55.6143 57.0175 53.0363 56.2748 50.4017 55.571C44.8169 54.0793 38.8068 52.7942 31.6133 51.9674C23.9633 54.6572 14.9868 56.6811 3.34774 57.2792Z" fill="#967E67"/>
<path d="M58.2208 57.7712L57.7174 58.0309C55.2918 59.2827 52.8782 60.5283 50.4017 61.7251C53.3602 62.5154 56.2289 63.3574 59.1355 64.2104L59.1381 64.2112C59.8752 64.4275 60.6147 64.6446 61.3588 64.8617C67.8709 66.7618 74.7292 68.6659 83.3295 70.1301C89.644 68.2858 96.8467 66.8771 105.462 66.2145C83.5146 65.0866 70.722 61.3868 58.6349 57.8909L58.2208 57.7712Z" fill="#856E59"/>
<path fill-rule="evenodd" clip-rule="evenodd" d="M105.435 66.6114C105.435 66.6147 105.435 66.6179 105.435 66.6212C105.434 66.6229 105.434 66.6246 105.434 66.6262C105.435 66.6213 105.435 66.6164 105.435 66.6114Z" fill="#C4C4C4"/>
<path d="M83.3295 70.1301C89.4865 71.1784 96.5363 72.0011 104.991 72.4356C105.15 70.4698 105.292 68.6547 105.412 66.9422L105.434 66.6262C105.435 66.6213 105.435 66.6164 105.435 66.6114L105.446 66.459L105.462 66.2166L105.462 66.2145C96.8467 66.8771 89.644 68.2858 83.3295 70.1301Z" fill="#766350"/>
<path d="M2.37146 93.4176C2.61811 95.24 2.94272 97.177 3.34783 99.293C31.0615 101.288 44.4976 94.271 58.6953 86.8563C70.6199 80.6288 83.0817 74.1207 104.991 72.4356C96.5363 72.0011 89.4865 71.1784 83.3295 70.1301C73.6222 72.9655 66.0142 76.8303 58.5997 80.5969C43.9693 88.0292 30.0923 95.0787 2.32649 93.08C2.34118 93.1921 2.35617 93.3046 2.37146 93.4176Z" fill="#967E67"/>
<path fill-rule="evenodd" clip-rule="evenodd" d="M105.995 24.2569C87.9126 23.4585 74.8957 26.3121 64.7771 30.4218C61.9437 31.5725 59.248 32.8249 56.6016 34.1261C58.0056 34.5405 59.4098 34.964 60.8288 35.392C62.1287 35.7841 63.441 36.1799 64.7771 36.5758C74.8957 32.4662 86.9087 29.6233 104.991 30.4218C105.407 28.1991 105.742 26.1719 105.995 24.2569Z" fill="#967E67"/>
<path fill-rule="evenodd" clip-rule="evenodd" d="M50.6534 37.1343C52.6334 36.119 54.6034 35.1086 56.6016 34.1261C58.0056 34.5405 59.4098 34.964 60.8288 35.392C62.1287 35.7841 63.441 36.1799 64.7771 36.5758C59.7627 38.6124 55.2136 40.9601 50.6216 43.3299C44.7165 46.3773 38.7406 49.4613 31.6133 51.9674C23.7717 51.0661 14.5238 50.7093 2.88783 51.2231C25.4407 50.0642 38.2414 43.4996 50.6534 37.1343ZM2.89609 51.3444C2.89333 51.3039 2.89057 51.2635 2.88783 51.2231L2.89609 51.3444Z" fill="#695745"/>
<path d="M3.34774 57.2792C14.9868 56.6811 23.9633 54.6572 31.6133 51.9674C23.7717 51.0661 14.5238 50.7093 2.88783 51.2231L2.89609 51.3444C3.022 53.1859 3.17489 55.1436 3.34774 57.2792Z" fill="#493D31"/>
<path d="M3.34774 57.2792C25.658 56.2941 38.7289 58.6071 50.4017 61.7251C52.8782 60.5283 55.2918 59.2827 57.7174 58.0309L58.2208 57.7712C55.6143 57.0175 53.0363 56.2748 50.4017 55.571C44.8169 54.0793 38.8068 52.7942 31.6133 51.9674C23.9633 54.6572 14.9868 56.6811 3.34774 57.2792Z" fill="#967E67"/>
<path d="M58.2208 57.7712L57.7174 58.0309C55.2918 59.2827 52.8782 60.5283 50.4017 61.7251C53.3602 62.5154 56.2289 63.3574 59.1355 64.2104L59.1381 64.2112C59.8752 64.4275 60.6147 64.6446 61.3588 64.8617C67.8709 66.7618 74.7292 68.6659 83.3295 70.1301C89.644 68.2858 96.8467 66.8771 105.462 66.2145C83.5146 65.0866 70.722 61.3868 58.6349 57.8909L58.2208 57.7712Z" fill="#695745"/>
<path fill-rule="evenodd" clip-rule="evenodd" d="M105.435 66.6114C105.435 66.6147 105.435 66.6179 105.435 66.6212C105.434 66.6229 105.434 66.6246 105.434 66.6262C105.435 66.6213 105.435 66.6164 105.435 66.6114Z" fill="#C4C4C4"/>
<path d="M83.3295 70.1301C89.4865 71.1784 96.5363 72.0011 104.991 72.4356C105.15 70.4698 105.292 68.6547 105.412 66.9422L105.434 66.6262C105.435 66.6213 105.435 66.6164 105.435 66.6114L105.446 66.459L105.462 66.2166L105.462 66.2145C96.8467 66.8771 89.644 68.2858 83.3295 70.1301Z" fill="#493D31"/>
<path d="M2.37146 93.4176C2.61811 95.24 2.94272 97.177 3.34783 99.293C31.0615 101.288 44.4976 94.271 58.6953 86.8563C70.6199 80.6288 83.0817 74.1207 104.991 72.4356C96.5363 72.0011 89.4865 71.1784 83.3295 70.1301C73.6222 72.9655 66.0142 76.8303 58.5997 80.5969C43.9693 88.0292 30.0923 95.0787 2.32649 93.08C2.34118 93.1921 2.35617 93.3046 2.37146 93.4176Z" fill="#967E67"/>
<path fill-rule="evenodd" clip-rule="evenodd" d="M4.68528 56.0004C3.86614 45.7262 3.57795 39.6283 4.65894 30.0703C26.2012 28.245 38.6519 21.7416 50.4148 15.5976C51.5523 15.0035 52.6834 14.4127 53.8157 13.8298C66.5637 7.26721 79.5779 1.62471 104.164 3.23017C106.044 13.4111 105.945 19.3536 104.18 29.1492C86.5132 28.5 74.6005 31.3418 64.52 35.4359C64.0357 35.6326 63.7286 36.1139 63.7541 36.636C63.7796 37.1581 64.1323 37.607 64.6334 37.7556C74.7716 40.76 86.2996 43.7789 104.055 45.2255C104.46 50.2931 104.736 54.3305 104.787 58.2587C104.736 62.1873 104.46 66.2252 104.055 71.2937C82.5353 73.1234 70.0921 79.6228 58.3361 85.7632C57.1986 86.3574 56.0675 86.9482 54.9352 87.5311C42.1873 94.0936 29.1732 99.7361 4.5871 98.1307C2.70705 87.9497 2.80566 82.0072 4.57111 72.2116C26.472 73.0164 39.5105 68.4546 51.143 62.833C51.6061 62.6092 51.8811 62.121 51.8325 61.609C51.784 61.0969 51.422 60.6692 50.9252 60.5364C39.3461 57.4435 26.4085 55.142 4.68528 56.0004ZM107.248 58.2587C107.306 62.7474 107.075 67.1074 106.419 72.5822C106.349 73.1651 105.877 73.6174 105.291 73.6624C83.6385 75.3278 71.3699 81.734 59.4664 87.9495C58.3307 88.5425 57.1984 89.1337 56.0616 89.719C42.8966 96.4962 29.256 102.377 3.46545 100.52C2.90965 100.48 2.45012 100.072 2.34534 99.5244C0.153968 88.0785 0.286682 81.7288 2.34431 70.7131C2.45685 70.1106 2.99571 69.6828 3.60806 69.7098C23.7297 70.5983 36.2028 66.9385 46.9819 62.0649C36.213 59.4231 23.6988 57.6213 3.60797 58.5084C2.99562 58.5355 2.45676 58.1077 2.34422 57.5051C0.286592 46.4894 0.153878 40.1398 2.34525 28.6939C2.44961 28.1488 2.90598 27.741 3.45934 27.6985C25.1123 26.0331 37.381 19.6269 49.2845 13.4114C50.4202 12.8184 51.5525 12.2271 52.6894 11.6419C65.8544 4.86464 79.4951 -1.01584 105.286 0.840603C105.841 0.880611 106.301 1.28916 106.406 1.83646C108.597 13.2823 108.464 19.632 106.407 30.6477C106.294 31.2503 105.755 31.678 105.143 31.651C89.2277 30.9483 78.1073 33.0921 68.8418 36.4163C78.2555 39.0895 89.2042 41.6176 105.291 42.8549C105.877 42.8999 106.349 43.3522 106.419 43.9351C107.075 49.4099 107.306 53.77 107.248 58.2587Z" fill="white"/>
</svg>
