<svg viewBox="0 0 129 129" fill="none" xmlns="http://www.w3.org/2000/svg">
<path d="M3.86749 67.3792C2.3054 65.8171 2.30539 63.2845 3.86749 61.7224L39.3832 26.2066L44.501 21.0888L61.6895 3.90037C63.2516 2.33827 65.7842 2.33827 67.3463 3.90037L83.8474 20.4014L89.6526 26.2066L125.168 61.7223C126.73 63.2844 126.73 65.8171 125.168 67.3792L89.6526 102.895L83.8474 108.7L67.3463 125.201C65.7842 126.763 63.2516 126.763 61.6895 125.201L45.1884 108.7L39.3832 102.895L3.86749 67.3792Z" fill="#004951"/>
<path d="M1.03906 64.5508L39.3832 102.895L45.1884 108.7L64.5179 128.03L83.8474 108.7L86.75 105.798L89.6526 102.895L127.997 64.5508L108.825 45.3787L89.6526 62.7874L83.8474 68.0587L64.5179 85.6103L45.1884 68.0587L39.3832 62.7874L20.2112 45.3787L1.03906 64.5508Z" fill="#6E0277"/>
<path d="M57.2148 118.681V8.41097L64.4252 3.04126L71.8305 8.41097V118.681L64.4252 126.352L57.2148 118.681Z" fill="black"/>
<path d="M45.0755 108.447V20.5115L38.2773 27.4077V101.792L45.0755 108.447Z" fill="white"/>
<path d="M84.0818 108.447V20.5115L90.7371 27.4077V101.792L84.0818 108.447Z" fill="white"/>
<path fill-rule="evenodd" clip-rule="evenodd" d="M59.9267 2.06071L23.3297 38.658L26.8653 42.1935L63.4623 5.59623C64.0481 5.01044 64.9978 5.01044 65.5836 5.59622L123.406 63.4182C123.991 64.004 123.991 64.9537 123.406 65.5395L88.6018 100.343L92.1374 103.879L126.941 69.075C129.479 66.5366 129.479 62.4211 126.941 59.8827L69.1191 2.06069C66.5807 -0.477724 62.4651 -0.477718 59.9267 2.06071Z" fill="white"/>
<path fill-rule="evenodd" clip-rule="evenodd" d="M69.1188 126.897L116.218 79.7982L112.682 76.2627L65.5833 123.361C64.9975 123.947 64.0478 123.947 63.462 123.361L5.63999 65.5395C5.0542 64.9537 5.0542 64.0039 5.63999 63.4182L20.8333 48.2248L17.2978 44.6893L2.10445 59.8826C-0.433955 62.421 -0.433955 66.5366 2.10445 69.075L59.9264 126.897C62.4649 129.435 66.5804 129.435 69.1188 126.897Z" fill="white"/>
<path d="M21.5273 46.4979C21.5273 47.8786 20.4081 48.9979 19.0273 48.9979C17.6466 48.9979 16.5273 47.8786 16.5273 46.4979C16.5273 45.1172 17.6466 43.9979 19.0273 43.9979C20.4081 43.9979 21.5273 45.1172 21.5273 46.4979Z" fill="white"/>
<path d="M27.5679 40.4545C27.5679 41.8352 26.4486 42.9545 25.0679 42.9545C23.6872 42.9545 22.5679 41.8352 22.5679 40.4545C22.5679 39.0738 23.6872 37.9545 25.0679 37.9545C26.4486 37.9545 27.5679 39.0738 27.5679 40.4545Z" fill="white"/>
</svg>
