<svg viewBox="0 0 129 131" fill="none" xmlns="http://www.w3.org/2000/svg">
<path d="M4.18066 1.93018V47.0662L33.9467 77.6618L36.9534 101.29L65.5165 126.736L93.4784 101.29L97.6877 77.6618L123.846 54.3365L127.454 1.93018H4.18066Z" fill="#F17DFB"/>
<path fill-rule="evenodd" clip-rule="evenodd" d="M3.09229 38.3741L9.47928 59.3634L25.4456 73.6116L33.0488 78.5142L34.8735 95.5201L40.6519 110.075L51.2963 119.573L62.7009 128L75.6263 121.565L91.4408 105.785L96.4588 90.1579V78.5142L119.42 59.3634L125.351 46.0345L126.871 28.7222L114.706 51.8563L96.4588 63.6532L91.4408 62.4275L64.0695 34.8504L40.6519 60.4358L31.8323 63.6532L13.5848 48.4857L3.09229 38.3741ZM53.8813 63.6532L36.3941 77.2885L42.0204 97.8182L64.0695 114.364L75.6263 106.704L86.7268 97.8182L92.9614 78.5142L72.585 60.4358L64.0695 47.1069L53.8813 63.6532Z" fill="#4D01AE"/>
<path fill-rule="evenodd" clip-rule="evenodd" d="M89.7537 91.4121C91.1099 91.1532 92.4192 92.0428 92.6781 93.399C93.0792 95.5008 92.4403 97.3413 91.7576 98.7318C91.4143 99.4311 91.022 100.09 90.684 100.652C90.6511 100.707 90.6188 100.76 90.5871 100.813C90.2744 101.332 90.0196 101.755 89.8075 102.163C88.8472 104.01 87.4974 105.671 86.3665 107.063C86.0286 107.479 85.7103 107.871 85.4277 108.236C84.9612 108.858 84.3951 109.378 83.9683 109.756C83.8117 109.894 83.6749 110.013 83.5523 110.12C83.2784 110.358 83.0755 110.535 82.8828 110.729C82.5405 111.074 82.203 111.386 81.9081 111.658L81.8932 111.672C81.584 111.957 81.3195 112.202 81.06 112.464C80.022 113.509 78.8574 114.585 77.4066 115.454C76.9205 115.792 76.4378 116.046 76.0557 116.238C75.9194 116.307 75.8011 116.366 75.6951 116.418C75.4488 116.54 75.2687 116.629 75.0818 116.736C74.8598 116.868 74.6449 116.974 74.4909 117.048C74.4154 117.085 74.3564 117.113 74.305 117.137C74.2226 117.176 74.16 117.206 74.0811 117.246C73.9277 117.323 73.8706 117.363 73.86 117.371C73.0723 118.159 72.0464 118.558 71.5413 118.754C71.5059 118.768 71.4731 118.781 71.443 118.793C70.8449 119.029 70.7246 119.107 70.7227 119.104C70.7226 119.104 70.7228 119.103 70.7234 119.103C70.1238 119.703 69.41 119.985 69.1069 120.104L69.1011 120.106C68.9795 120.154 68.9143 120.179 68.8626 120.198C68.8081 120.219 68.7685 120.234 68.6936 120.265C68.6768 120.271 68.6629 120.277 68.6516 120.282C68.1274 120.639 67.5039 120.929 67.247 121.049C67.2258 121.059 67.2071 121.067 67.1912 121.075C66.621 121.403 65.999 121.761 65.4214 122.064C65.3618 122.123 65.2866 122.197 65.2285 122.251C65.0876 122.382 64.8368 122.603 64.4989 122.794C64.1452 122.994 63.6268 123.201 62.9816 123.201C62.1519 123.201 61.5165 122.865 61.1735 122.648C60.8062 122.414 60.5073 122.143 60.3084 121.951C60.1453 121.794 59.9803 121.62 59.8713 121.506C59.848 121.481 59.8272 121.459 59.8096 121.441C59.744 121.372 59.7085 121.337 59.6956 121.325L59.6913 121.321C59.6117 121.257 59.5273 121.204 59.3147 121.071C59.2466 121.029 59.1655 120.978 59.0672 120.916C58.7463 120.714 58.2327 120.383 57.7643 119.912C57.5646 119.71 57.3593 119.524 57.0999 119.288L57.0834 119.273C56.8732 119.083 56.6251 118.858 56.3684 118.606C56.1685 118.454 55.9857 118.33 55.762 118.177C55.5954 118.064 55.4061 117.935 55.17 117.768C54.6575 117.405 54.0424 116.935 53.4644 116.294C52.1566 114.976 50.8589 113.675 49.4932 112.571C49.1122 112.283 48.7526 112.018 48.3819 111.744L48.3776 111.741C48.0005 111.462 47.6118 111.175 47.196 110.86L47.1448 110.822L47.0957 110.781C46.9852 110.688 46.8696 110.613 46.6399 110.464C46.5419 110.4 46.4232 110.323 46.2753 110.225C45.9006 109.978 45.264 109.548 44.7515 108.929L44.6665 108.826L44.652 108.804C44.6465 108.799 44.6404 108.794 44.6335 108.788L44.6248 108.781C44.598 108.757 44.5613 108.725 44.5231 108.692C44.4657 108.641 44.3993 108.581 44.326 108.511C44.0999 108.325 43.9331 108.138 43.821 108.001C43.6693 107.815 43.5477 107.633 43.4787 107.529C43.4465 107.48 43.423 107.444 43.4045 107.416C43.3735 107.368 43.3562 107.342 43.3354 107.312C42.7173 106.684 42.1022 105.948 41.5951 105.342C41.3915 105.099 41.2053 104.876 41.0433 104.69L40.9916 104.63L40.9438 104.567C40.0161 103.352 39.3599 102.167 38.7533 101.07C38.609 100.81 38.4676 100.554 38.326 100.305L38.2919 100.244L38.2612 100.183C38.2008 100.061 38.1285 99.9075 38.0719 99.7874C38.0487 99.738 38.028 99.6943 38.012 99.6606C37.94 99.5098 37.8859 99.4035 37.8374 99.3186C37.8163 99.2818 37.7994 99.2548 37.7869 99.2358C36.7274 98.4438 36.4642 96.9512 37.2101 95.8407C37.98 94.6946 39.5332 94.3895 40.6794 95.1594C41.4479 95.6756 41.9077 96.3649 42.1764 96.8342C42.3603 97.1553 42.5698 97.5999 42.6778 97.8292C42.6923 97.86 42.705 97.887 42.7156 97.9092C42.8922 98.2215 43.0529 98.511 43.2043 98.7836C43.7748 99.8111 44.2126 100.6 44.873 101.474C45.1419 101.785 45.3798 102.07 45.6039 102.339C46.0554 102.88 46.4512 103.354 46.9333 103.84C47.1478 104.056 47.3084 104.271 47.4129 104.418C47.4914 104.53 47.5761 104.659 47.6235 104.731C47.6294 104.74 47.6347 104.748 47.6393 104.755L47.7432 104.86C47.7897 104.907 47.8052 104.92 47.8468 104.956C47.8804 104.985 47.9311 105.028 48.0288 105.116C48.1959 105.265 48.409 105.471 48.626 105.761C48.6681 105.798 48.7791 105.887 49.0298 106.053C49.064 106.075 49.128 106.117 49.2029 106.165C49.3324 106.249 49.4945 106.355 49.5913 106.419C49.7837 106.548 50.0188 106.712 50.2543 106.904C50.6308 107.189 50.9868 107.452 51.3534 107.723L51.3577 107.726C51.7348 108.004 52.1236 108.292 52.5393 108.606L52.5706 108.629L52.601 108.654C54.2294 109.966 55.7297 111.478 57.0205 112.779L57.1116 112.87L57.1602 112.925C57.377 113.171 57.651 113.398 58.0593 113.687C58.1506 113.752 58.2684 113.832 58.4017 113.924C58.7455 114.159 59.1933 114.466 59.5617 114.754L59.6843 114.85L59.7941 114.961C59.9937 115.162 60.199 115.349 60.4585 115.584L60.4748 115.599C60.7186 115.82 61.0131 116.087 61.313 116.389C61.351 116.427 61.4449 116.505 61.7316 116.685C61.7634 116.705 61.8058 116.732 61.8538 116.762C61.9614 116.829 62.0973 116.913 62.2056 116.983C62.377 117.094 62.5883 117.237 62.8036 117.408C62.9112 117.491 63.0056 117.575 63.0817 117.645C63.5698 117.39 64.1393 117.062 64.7723 116.698L64.8326 116.663L64.8949 116.632C65.02 116.569 65.1481 116.508 65.2493 116.46L65.2667 116.452C65.3799 116.398 65.4688 116.356 65.5531 116.313C65.7269 116.226 65.8016 116.177 65.8289 116.156L65.9321 116.078L66.0428 116.011C66.3287 115.838 66.6027 115.718 66.7983 115.638C66.8987 115.597 66.9946 115.56 67.0706 115.531C67.0893 115.523 67.1066 115.517 67.1228 115.511C67.1792 115.489 67.2226 115.472 67.2674 115.455C67.2935 115.444 67.3152 115.436 67.333 115.428C68.0983 114.729 69.0353 114.364 69.5108 114.18C69.5462 114.166 69.579 114.153 69.609 114.141C70.2072 113.905 70.3275 113.827 70.3294 113.83C70.3295 113.83 70.3293 113.83 70.3288 113.831C70.8645 113.294 71.4495 112.973 71.8316 112.78C72.1052 112.643 72.2395 112.581 72.3261 112.541C72.409 112.504 72.4481 112.486 72.5237 112.44L72.5466 112.426L72.5697 112.413C72.9109 112.216 73.2952 112.026 73.5883 111.881C73.6688 111.841 73.7425 111.805 73.8065 111.773C74.1581 111.596 74.395 111.463 74.5848 111.326L74.6787 111.258L74.7784 111.2C75.7138 110.65 76.5464 109.913 77.5112 108.941C77.8535 108.596 78.1911 108.285 78.486 108.012L78.5009 107.999C78.8101 107.713 79.0745 107.468 79.3341 107.207C79.666 106.872 80.0757 106.516 80.3967 106.237C80.4914 106.154 80.5785 106.079 80.6535 106.012C81.0574 105.655 81.2937 105.416 81.432 105.23L81.4451 105.213L81.4584 105.196C81.9058 104.616 82.3315 104.091 82.7341 103.595C83.7781 102.308 84.6663 101.212 85.3713 99.8565C85.6608 99.2997 86.0001 98.7369 86.2975 98.2438C86.3322 98.1862 86.3664 98.1295 86.3998 98.074C86.7391 97.5101 87.0304 97.0151 87.2694 96.5283C87.7513 95.5466 87.8719 94.8874 87.7667 94.3365C87.5079 92.9803 88.3975 91.671 89.7537 91.4121ZM65.5462 121.94C65.546 121.94 65.5428 121.943 65.537 121.948C65.5436 121.942 65.5465 121.939 65.5462 121.94Z" fill="#4D01AE"/>
<path fill-rule="evenodd" clip-rule="evenodd" d="M91.5708 72.3398C91.5708 70.9591 92.6901 69.8398 94.0708 69.8398C94.5037 69.8398 94.9717 69.9396 95.4152 70.1862C95.8507 70.4283 96.1533 70.7509 96.3543 71.0449C96.7137 71.5703 96.8147 72.1037 96.8498 72.3035C96.8824 72.4898 96.9028 72.6971 96.9108 72.7834C97.076 73.3409 97.3334 73.6558 97.6933 73.8734C98.8749 74.5877 99.2537 76.1246 98.5394 77.3062C97.8251 78.4877 96.2882 78.8666 95.1066 78.1523C93.4719 77.1641 92.5233 75.6789 92.0747 74.0566C92.0389 73.9359 92.0144 73.8261 91.9974 73.737C91.728 73.3381 91.5708 72.8574 91.5708 72.3398ZM96.9211 72.8768C96.921 72.8774 96.9197 72.8692 96.9175 72.8504C96.9201 72.8669 96.9212 72.8763 96.9211 72.8768Z" fill="#4D01AE"/>
<path fill-rule="evenodd" clip-rule="evenodd" d="M68.6208 43.0651C69.9691 42.7677 71.3032 43.6196 71.6005 44.9679C72.0502 47.0064 72.354 48.2372 73.1614 49.0507C73.6889 49.5822 74.1746 50.1579 74.5867 50.6464L74.6143 50.6792C75.0572 51.2041 75.4224 51.6347 75.7944 52.0096C76.6787 52.9005 77.4522 53.7913 78.2161 54.7799C78.6444 55.3191 78.8814 55.6003 79.1332 55.8033L79.2411 55.8903L79.3388 55.9886C79.6545 56.3067 79.9772 56.6972 80.1978 56.964C80.255 57.0333 80.3054 57.0942 80.3469 57.1433C80.6148 57.4603 80.7553 57.593 80.8473 57.6591L80.8709 57.6762L80.8942 57.6937C81.6277 58.248 82.3244 58.8963 82.9328 59.4832C83.1583 59.7007 83.3664 59.9044 83.5639 60.0978C83.9381 60.4641 84.2745 60.7934 84.6199 61.1097L84.632 61.1207L84.6439 61.132C86.0868 62.4888 87.7023 63.8264 89.3886 64.959L89.4068 64.9713L89.4248 64.9839C89.5139 65.046 89.6023 65.1077 89.6901 65.169C90.9628 66.0581 92.1108 66.86 93.3117 67.4246L93.3424 67.4391L93.3727 67.4543C93.8939 67.7169 94.3987 67.9692 94.8919 68.1619C95.4188 68.3677 95.7044 68.4114 95.7923 68.4114C97.2342 68.4114 98.2484 68.0508 99.0812 67.2117C99.4225 66.8679 99.7218 66.4639 100.111 65.9077C100.149 65.8534 100.188 65.7969 100.229 65.7384C100.567 65.2526 100.999 64.6316 101.51 64.0571C101.709 63.8276 101.866 63.6266 102.056 63.3833C102.16 63.2501 102.274 63.1042 102.41 62.9342C102.748 62.5125 103.163 62.0211 103.698 61.5402C104.056 61.1885 104.432 60.8875 104.689 60.6822C104.726 60.6523 104.761 60.6244 104.793 60.5987C105.106 60.3462 105.232 60.2283 105.309 60.1355L105.381 60.0482L105.461 59.9677C106.253 59.1691 107.11 58.4197 108.131 57.7769C108.303 57.6684 108.463 57.5694 108.611 57.4773C109.274 57.0654 109.711 56.7933 110.073 56.4424C110.546 55.9105 111.051 55.4738 111.48 55.1193C111.669 54.9635 111.832 54.8331 111.98 54.714C112.229 54.513 112.439 54.3442 112.671 54.14C112.96 53.8846 113.259 53.5679 113.617 53.17C113.682 53.0977 113.751 53.0202 113.824 52.9393C114.101 52.6283 114.425 52.2659 114.742 51.9431C115.247 51.3937 115.718 50.8299 116.235 50.212C116.329 50.0994 116.425 49.9851 116.522 49.8688C117.148 49.1223 117.838 48.314 118.625 47.5203C119.002 47.1408 119.404 46.7115 119.732 46.29C119.895 46.0812 120.022 45.8978 120.112 45.7445C120.156 45.6694 120.187 45.6099 120.207 45.5658C120.226 45.5258 120.232 45.5063 120.232 45.5064L120.232 45.5072M120.232 45.5064C120.626 44.1835 122.018 43.4306 123.341 43.8246C124.665 44.2186 125.418 45.6107 125.024 46.934C124.736 47.9001 124.148 48.7588 123.675 49.365C123.168 50.0149 122.608 50.6058 122.174 51.0426C121.544 51.6773 120.968 52.3484 120.354 53.0813C120.266 53.1862 120.176 53.2931 120.086 53.4015C119.562 54.0285 118.995 54.707 118.39 55.3629L118.359 55.3969L118.326 55.4298C118.1 55.6581 117.88 55.9036 117.607 56.2094C117.522 56.3046 117.432 56.4057 117.334 56.514C116.958 56.9323 116.497 57.4319 115.977 57.8906C115.666 58.165 115.302 58.4586 115 58.7025C114.873 58.8045 114.757 58.8978 114.661 58.9774C114.276 59.2948 113.998 59.5474 113.781 59.7972L113.727 59.86L113.668 59.919C112.84 60.7534 111.797 61.3924 111.11 61.8136C110.994 61.8846 110.888 61.9494 110.795 62.0079C110.217 62.372 109.674 62.8268 109.076 63.4238C108.669 63.893 108.229 64.2509 107.931 64.4914C107.888 64.5262 107.847 64.559 107.808 64.59C107.516 64.825 107.347 64.961 107.187 65.1224L107.128 65.1815L107.066 65.2366C106.821 65.4527 106.596 65.7053 106.314 66.0586C106.248 66.1407 106.171 66.239 106.086 66.3478C105.855 66.6427 105.564 67.0143 105.275 67.3472L105.263 67.3604L105.252 67.3735C104.948 67.7132 104.687 68.0868 104.318 68.6153C104.283 68.6664 104.246 68.719 104.208 68.7731C103.812 69.3392 103.301 70.0575 102.63 70.734C100.627 72.7516 98.1986 73.4114 95.7923 73.4114C94.7663 73.4114 93.7861 73.0979 93.0724 72.8191C92.3415 72.5336 91.646 72.1831 91.1559 71.9362L91.1521 71.9343C89.5564 71.1795 88.0793 70.1453 86.8852 69.3092C86.782 69.2369 86.6809 69.1661 86.582 69.0971C84.6346 67.7872 82.8177 66.2771 81.2305 64.7856C80.8286 64.4169 80.3939 63.9917 79.9879 63.5945C79.8047 63.4153 79.6273 63.2418 79.4614 63.0818C78.8873 62.5279 78.3746 62.0589 77.898 61.6967C77.2953 61.2571 76.8379 60.7372 76.5285 60.3712C76.4061 60.2265 76.3078 60.1077 76.2237 60.0062C76.0778 59.8299 75.9747 59.7055 75.8634 59.587C75.2013 59.0253 74.6909 58.3815 74.3387 57.9374C74.3221 57.9165 74.3059 57.896 74.29 57.876L74.2794 57.8626L74.2689 57.8491C73.6186 57.0066 72.9776 56.2692 72.2457 55.5318C71.7182 55.0004 71.2325 54.4246 70.8204 53.9361L70.7928 53.9034C70.3499 53.3785 69.9847 52.9479 69.6127 52.573C67.7154 50.6614 67.15 48.0434 66.7898 46.3755C66.765 46.2606 66.7411 46.1502 66.7179 46.0449C66.4205 44.6966 67.2725 43.3625 68.6208 43.0651" fill="#4D01AE"/>
<path fill-rule="evenodd" clip-rule="evenodd" d="M59.9049 48.5802C61.0899 48.0174 61.646 46.6213 61.1491 45.3883C60.633 44.1077 59.1765 43.4879 57.8958 44.004C57.1807 44.2922 56.6431 44.7772 56.3575 45.0498C56.1708 45.228 55.8514 45.5626 55.7085 45.7125C55.6711 45.7516 55.6458 45.7782 55.6381 45.786L55.5582 45.8664L55.486 45.9537C55.4088 46.0471 55.3038 46.1674 55.182 46.307C54.8113 46.732 54.2846 47.3357 53.9099 47.902C53.8277 48.0262 53.7467 48.1219 53.5687 48.3318C53.5302 48.3773 53.487 48.4281 53.4384 48.4858C53.2162 48.7492 52.8671 49.1703 52.5796 49.7252C52.2685 50.2627 51.8072 50.8702 51.4863 51.1935C50.8925 51.7917 50.5054 52.4401 50.2588 52.8586L50.2169 52.9297C49.9899 53.3149 49.8859 53.4914 49.7807 53.6266C49.1304 54.2907 48.5892 54.9451 48.1161 55.5171L48.0528 55.5936L48.0146 55.6449C47.8256 55.8988 47.5623 56.2822 47.3592 56.5779C47.2544 56.7305 47.1656 56.8598 47.1113 56.9359C46.8546 57.2958 46.6887 57.484 46.5634 57.5923L46.4907 57.6551L46.423 57.7232C45.4925 58.6607 44.494 59.3065 43.1401 60.1822C43.0577 60.2356 42.9739 60.2897 42.8888 60.3449L42.8782 60.3518C40.7665 61.7347 38.9782 63.2131 37.2027 64.7029C37.1688 64.7232 37.1289 64.7466 37.0843 64.7722C37.0824 64.7733 37.0806 64.7744 37.0787 64.7755C36.9588 64.8103 36.8181 64.8573 36.6694 64.9205C36.4004 65.035 36.0328 65.2327 35.6887 65.5794C35.688 65.5801 35.6868 65.5812 35.6852 65.5828C35.6467 65.6205 35.3457 65.915 35.1461 66.3755C35.0797 66.5287 34.9074 66.9632 34.9425 67.5326C34.756 67.5033 34.5713 67.4709 34.3899 67.436L34.3626 67.4308C34.2312 67.3473 34.0878 67.2676 33.9345 67.1974C33.6974 67.0888 32.0599 66.3787 30.7267 67.722C30.5888 67.861 30.4483 68.0362 30.3279 68.2462C28.6797 67.0237 27.1751 65.667 25.5435 64.196C25.1271 63.8205 24.7025 63.4376 24.265 63.0475C23.8626 62.6697 23.4549 62.2999 23.0496 61.9384C23.0039 61.8668 22.9578 61.7946 22.9112 61.7216C22.4317 60.9715 21.9004 60.1512 21.3235 59.3957L21.3091 59.3768L21.2943 59.3582C20.4627 58.3108 19.2732 56.9535 17.8388 56.0098C17.8367 56.005 17.7619 55.943 17.5456 55.7582C17.3337 55.5772 17.0181 55.3091 16.7233 55.0907C16.5853 54.9885 16.3705 54.8356 16.1273 54.7058C16.012 54.6442 15.7931 54.5346 15.5112 54.4568C15.3222 54.4046 14.5772 54.2084 13.7394 54.5903C13.5354 54.6833 13.3578 54.7937 13.2035 54.916C13.088 54.7655 12.9727 54.6105 12.857 54.4502L12.7987 54.3694L12.7341 54.2935C12.0296 53.4653 11.518 52.8605 11.2944 52.3537L11.2716 52.302L11.2465 52.2514C11.1264 52.0094 10.9956 51.8051 10.8989 51.6611C10.8322 51.5618 10.7497 51.445 10.6933 51.3652C10.6759 51.3407 10.661 51.3196 10.6498 51.3036C10.5713 51.1914 10.5355 51.1336 10.5217 51.1108C10.3295 50.5669 10.1531 50.1079 9.99742 49.7028C9.55494 48.5514 9.2793 47.8341 9.2793 46.8329C9.2793 45.4522 8.16001 44.3329 6.7793 44.3329C5.39858 44.3329 4.2793 45.4522 4.2793 46.8329C4.2793 48.859 5.00093 50.7008 5.51852 52.0218C5.64022 52.3324 5.75065 52.6142 5.83775 52.8629L5.85469 52.9112L5.8736 52.9588C6.09127 53.5071 6.39311 53.9416 6.55444 54.172C6.59413 54.2287 6.62417 54.2711 6.64903 54.3063C6.68941 54.3633 6.71611 54.4011 6.7483 54.449C6.75705 54.462 6.76381 54.4723 6.76888 54.4802C7.31443 55.6562 8.24792 56.7434 8.7842 57.368C8.81197 57.4003 8.83868 57.4314 8.86421 57.4612C9.74987 58.6779 10.6591 59.7046 11.7836 60.7242L11.8061 60.7446L11.829 60.7643C12.0682 60.9709 12.3128 61.1853 12.5629 61.4044C13.6895 62.3917 14.9287 63.4775 16.2977 64.4C17.3104 65.1142 18.2515 65.7797 19.1852 66.5322L19.1986 66.543L19.2121 66.5536C19.5158 66.7915 19.9679 67.11 20.3502 67.3793C20.5497 67.5199 20.7303 67.647 20.8606 67.7423C20.9242 67.84 20.9906 67.9399 21.0589 68.0396C21.2695 68.3469 21.5606 68.7451 21.9009 69.0909C22.0712 69.2639 22.3169 69.4892 22.6312 69.6849C22.9257 69.8682 23.4731 70.1466 24.197 70.1466C24.3021 70.1466 24.4668 70.1407 24.6671 70.1037C26.1024 71.335 27.6325 72.5458 29.3335 73.6312L29.3815 73.6618L29.4309 73.6903C30.1766 74.1196 30.6868 74.4212 31.096 74.7647L31.1456 74.8063C31.1655 74.8286 31.1876 74.8534 31.2018 74.8691L31.2041 74.8717C31.2715 74.9464 31.4419 75.1353 31.6572 75.3122C31.771 75.4058 31.9579 75.5472 32.2073 75.6728C32.4505 75.7953 32.87 75.9622 33.4124 75.9622C34.6249 75.9622 35.3221 75.1841 35.5634 74.8565C35.8274 74.4981 35.9634 74.1379 36.0301 73.9411C36.1738 73.5172 36.2497 73.0652 36.2938 72.7467C36.2968 72.7254 36.2996 72.7041 36.3025 72.6828C36.7383 72.698 37.1838 72.6949 37.6312 72.667C39.1247 72.5739 40.8831 72.1899 42.3469 71.0428L42.3604 71.0322L42.3737 71.0215C42.7131 70.748 43.0203 70.4923 43.309 70.2519C43.9994 69.6773 44.584 69.1908 45.2479 68.7602C45.997 68.325 47.206 67.5437 47.9971 66.5873L48.082 66.4846L48.0867 66.4775L48.2667 66.4322L48.6279 66.0682C48.7035 66.0146 48.8374 65.9183 48.9644 65.8136C49.0407 65.7507 49.1715 65.6388 49.3072 65.4906L49.3118 65.4856C49.3953 65.3947 49.7487 65.0097 49.9175 64.4031C50.0191 64.038 50.0878 63.465 49.8506 62.8306C49.7073 62.4473 49.4919 62.1467 49.2598 61.9172C49.4784 61.7238 49.6953 61.521 49.9097 61.3077C50.4546 60.8206 50.8712 60.2749 51.1819 59.8393C51.378 59.5645 51.5045 59.3774 51.6158 59.2128C51.7353 59.0361 51.8373 58.8853 51.9888 58.6799C52.4844 58.0808 52.9127 57.5682 53.4147 57.0624L53.4823 56.9943L53.5445 56.9212C53.9699 56.4211 54.2963 55.8605 54.4975 55.515C54.5223 55.4723 54.5453 55.4329 54.5663 55.3973C54.8007 54.9996 54.9199 54.8317 55.035 54.7158C55.7179 54.0277 56.455 53.0277 56.9543 52.1474L56.9883 52.0873L57.0191 52.0254C57.0284 52.0065 57.0622 51.9445 57.2602 51.7098C57.2815 51.6845 57.3065 51.6552 57.3346 51.6224C57.5134 51.4134 57.8161 51.0596 58.0797 50.6611C58.2675 50.3773 58.4315 50.1911 58.6847 49.9037C58.8385 49.7291 59.0252 49.5172 59.2701 49.2233C59.3446 49.1466 59.4194 49.0677 59.4824 49.0013C59.5046 48.978 59.5252 48.9562 59.5439 48.9365C59.651 48.8241 59.7343 48.7387 59.8094 48.667C59.8517 48.6267 59.8831 48.5987 59.9049 48.5802ZM22.2468 69.0911C22.2461 69.0906 22.2378 69.0813 22.2241 69.0644C22.2408 69.0831 22.2476 69.0916 22.2468 69.0911Z" fill="#4D01AE"/>
<path fill-rule="evenodd" clip-rule="evenodd" d="M6.60193 44.2913C1.78053 37.2456 0.0785768 30.0116 0.0258789 20.9325L5.02579 20.9034C5.07436 29.2711 6.61293 35.4537 10.7283 41.4676C14.928 47.6048 21.9273 53.743 33.3266 61.7215L30.4595 65.8179C18.9727 57.778 11.339 51.2138 6.60193 44.2913Z" fill="#4D01AE"/>
<path fill-rule="evenodd" clip-rule="evenodd" d="M6.60193 44.2913C1.78053 37.2456 0.0785768 30.0116 0.0258789 20.9325L5.02579 20.9034C5.07436 29.2711 6.61293 35.4537 10.7283 41.4676C14.928 47.6048 21.9273 53.743 33.3266 61.7215L30.4595 65.8179C18.9727 57.778 11.339 51.2138 6.60193 44.2913Z" fill="#4D01AE"/>
<path fill-rule="evenodd" clip-rule="evenodd" d="M56.0959 41.4676C60.2112 35.4537 61.7498 29.2711 61.7984 20.9034L66.7983 20.9325C66.7456 30.0116 65.0436 37.2456 60.2222 44.2913C55.4851 51.2138 47.8515 57.778 36.3646 65.8179L33.4976 61.7215C44.8969 53.743 51.8962 47.6048 56.0959 41.4676Z" fill="#4D01AE"/>
<path fill-rule="evenodd" clip-rule="evenodd" d="M56.0959 41.4676C60.2112 35.4537 61.7498 29.2711 61.7984 20.9034L66.7983 20.9325C66.7456 30.0116 65.0436 37.2456 60.2222 44.2913C55.4851 51.2138 47.8515 57.778 36.3646 65.8179L33.4976 61.7215C44.8969 53.743 51.8962 47.6048 56.0959 41.4676Z" fill="#4D01AE"/>
<path fill-rule="evenodd" clip-rule="evenodd" d="M6.60193 44.2913C1.78053 37.2456 0.0785768 30.0116 0.0258789 20.9325L5.02579 20.9034C5.07436 29.2711 6.61293 35.4537 10.7283 41.4676C14.928 47.6048 21.9273 53.743 33.3266 61.7215L30.4595 65.8179C18.9727 57.778 11.339 51.2138 6.60193 44.2913Z" fill="#4D01AE"/>
<path fill-rule="evenodd" clip-rule="evenodd" d="M6.60193 44.2913C1.78053 37.2456 0.0785768 30.0116 0.0258789 20.9325L5.02579 20.9034C5.07436 29.2711 6.61293 35.4537 10.7283 41.4676C14.928 47.6048 21.9273 53.743 33.3266 61.7215L30.4595 65.8179C18.9727 57.778 11.339 51.2138 6.60193 44.2913Z" fill="#4D01AE"/>
<path fill-rule="evenodd" clip-rule="evenodd" d="M56.0959 41.4676C60.2112 35.4537 61.7498 29.2711 61.7984 20.9034L66.7983 20.9325C66.7456 30.0116 65.0436 37.2456 60.2222 44.2913C55.4851 51.2138 47.8515 57.778 36.3646 65.8179L33.4976 61.7215C44.8969 53.743 51.8962 47.6048 56.0959 41.4676Z" fill="#4D01AE"/>
<path fill-rule="evenodd" clip-rule="evenodd" d="M56.0959 41.4676C60.2112 35.4537 61.7498 29.2711 61.7984 20.9034L66.7983 20.9325C66.7456 30.0116 65.0436 37.2456 60.2222 44.2913C55.4851 51.2138 47.8515 57.778 36.3646 65.8179L33.4976 61.7215C44.8969 53.743 51.8962 47.6048 56.0959 41.4676Z" fill="#4D01AE"/>
<path fill-rule="evenodd" clip-rule="evenodd" d="M33.5084 61.786C33.5226 61.7762 33.5381 61.7652 33.555 61.7529L33.6144 61.8339C33.63 61.8398 33.6374 61.8418 33.6374 61.8418C33.6374 61.8418 33.6305 61.84 33.6173 61.838L36.5102 65.7861C35.6392 66.4243 34.5796 66.8891 33.3276 66.8276C32.1514 66.7698 31.1684 66.2602 30.3979 65.7428L33.1858 61.5922C33.327 61.687 33.4328 61.7477 33.5084 61.786Z" fill="#4D01AE"/>
<path fill-rule="evenodd" clip-rule="evenodd" d="M33.5084 61.786C33.5226 61.7762 33.5381 61.7652 33.555 61.7529L33.6144 61.8339C33.63 61.8398 33.6374 61.8418 33.6374 61.8418C33.6374 61.8418 33.6305 61.84 33.6173 61.838L36.5102 65.7861C35.6392 66.4243 34.5796 66.8891 33.3276 66.8276C32.1514 66.7698 31.1684 66.2602 30.3979 65.7428L33.1858 61.5922C33.327 61.687 33.4328 61.7477 33.5084 61.786Z" fill="#4D01AE"/>
<path fill-rule="evenodd" clip-rule="evenodd" d="M68.3744 44.2913C63.553 37.2456 61.851 30.0116 61.7983 20.9325L66.7983 20.9034C66.8468 29.2711 68.3854 35.4537 72.5007 41.4676C76.7004 47.6048 83.6997 53.743 95.0991 61.7215L92.232 65.8179C80.7451 57.778 73.1115 51.2138 68.3744 44.2913Z" fill="#4D01AE"/>
<path fill-rule="evenodd" clip-rule="evenodd" d="M68.3744 44.2913C63.553 37.2456 61.851 30.0116 61.7983 20.9325L66.7983 20.9034C66.8468 29.2711 68.3854 35.4537 72.5007 41.4676C76.7004 47.6048 83.6997 53.743 95.0991 61.7215L92.232 65.8179C80.7451 57.778 73.1115 51.2138 68.3744 44.2913Z" fill="#4D01AE"/>
<path fill-rule="evenodd" clip-rule="evenodd" d="M117.868 41.4676C121.984 35.4537 123.522 29.2711 123.571 20.9034L128.571 20.9325C128.518 30.0116 126.816 37.2456 121.995 44.2913C117.258 51.2138 109.624 57.778 98.1371 65.8179L95.27 61.7215C106.669 53.743 113.669 47.6048 117.868 41.4676Z" fill="#4D01AE"/>
<path fill-rule="evenodd" clip-rule="evenodd" d="M117.868 41.4676C121.984 35.4537 123.522 29.2711 123.571 20.9034L128.571 20.9325C128.518 30.0116 126.816 37.2456 121.995 44.2913C117.258 51.2138 109.624 57.778 98.1371 65.8179L95.27 61.7215C106.669 53.743 113.669 47.6048 117.868 41.4676Z" fill="#4D01AE"/>
<path fill-rule="evenodd" clip-rule="evenodd" d="M95.2808 61.786C95.2951 61.7762 95.3106 61.7652 95.3274 61.7529L95.3868 61.8339C95.4024 61.8398 95.4098 61.8418 95.4098 61.8418C95.4098 61.8418 95.4029 61.84 95.3898 61.838L98.2827 65.7861C97.4117 66.4243 96.352 66.8891 95.1 66.8276C93.9238 66.7698 92.9408 66.2602 92.1704 65.7428L94.9583 61.5922C95.0995 61.687 95.2053 61.7477 95.2808 61.786Z" fill="#4D01AE"/>
<path fill-rule="evenodd" clip-rule="evenodd" d="M95.2808 61.786C95.2951 61.7762 95.3106 61.7652 95.3274 61.7529L95.3868 61.8339C95.4024 61.8398 95.4098 61.8418 95.4098 61.8418C95.4098 61.8418 95.4029 61.84 95.3898 61.838L98.2827 65.7861C97.4117 66.4243 96.352 66.8891 95.1 66.8276C93.9238 66.7698 92.9408 66.2602 92.1704 65.7428L94.9583 61.5922C95.0995 61.687 95.2053 61.7477 95.2808 61.786Z" fill="#4D01AE"/>
<path fill-rule="evenodd" clip-rule="evenodd" d="M38.6404 96.8514C34.0981 90.578 32.4843 84.1149 32.4312 76.0291L37.431 75.9962C37.4792 83.3166 38.9033 88.6888 42.6902 93.9191C46.5742 99.2833 53.0584 104.664 63.6531 111.678L60.8929 115.848C50.2217 108.782 43.0855 102.991 38.6404 96.8514Z" fill="#4D01AE"/>
<path fill-rule="evenodd" clip-rule="evenodd" d="M38.6404 96.8514C34.0981 90.578 32.4843 84.1149 32.4312 76.0291L37.431 75.9962C37.4792 83.3166 38.9033 88.6888 42.6902 93.9191C46.5742 99.2833 53.0584 104.664 63.6531 111.678L60.8929 115.848C50.2217 108.782 43.0855 102.991 38.6404 96.8514Z" fill="#4D01AE"/>
<path fill-rule="evenodd" clip-rule="evenodd" d="M85.7289 93.8846C89.651 88.6583 91.1172 83.2996 91.1652 75.9962L96.1651 76.0291C96.1119 84.132 94.4389 90.6085 89.728 96.8858C85.1231 103.022 77.7279 108.809 66.655 115.871L63.9663 111.655C74.9694 104.638 81.7008 99.2521 85.7289 93.8846Z" fill="#4D01AE"/>
<path fill-rule="evenodd" clip-rule="evenodd" d="M85.7289 93.8846C89.651 88.6583 91.1172 83.2996 91.1652 75.9962L96.1651 76.0291C96.1119 84.132 94.4389 90.6085 89.728 96.8858C85.1231 103.022 77.7279 108.809 66.655 115.871L63.9663 111.655C74.9694 104.638 81.7008 99.2521 85.7289 93.8846Z" fill="#4D01AE"/>
<path fill-rule="evenodd" clip-rule="evenodd" d="M63.8882 111.78C63.9025 111.77 63.918 111.759 63.9349 111.746L63.9942 111.827C64.0098 111.833 64.0173 111.835 64.0173 111.835C64.0173 111.835 64.0103 111.834 63.9972 111.831L66.8901 115.78C66.0191 116.418 64.9594 116.883 63.7074 116.821C62.5313 116.763 61.5482 116.254 60.7778 115.736L63.5657 111.586C63.7069 111.68 63.8127 111.741 63.8882 111.78Z" fill="#4D01AE"/>
<path fill-rule="evenodd" clip-rule="evenodd" d="M63.7393 111.595C63.8423 111.599 64.0286 111.59 64.4184 111.371L66.8646 115.732C65.8492 116.302 64.7579 116.637 63.5514 116.592C62.3897 116.548 61.3472 116.158 60.4102 115.676L62.6966 111.23C63.2926 111.536 63.5915 111.59 63.7393 111.595Z" fill="#4D01AE"/>
<path fill-rule="evenodd" clip-rule="evenodd" d="M13.4144 5.05273L8.84776e-06 5.05276L0 0.0527582L13.4144 0.0527344L13.4144 5.05273Z" fill="white"/>
<path fill-rule="evenodd" clip-rule="evenodd" d="M0.0253906 35.7114V1.01758H5.02539V35.7114H0.0253906Z" fill="white"/>
<path fill-rule="evenodd" clip-rule="evenodd" d="M61.7979 35.7122V0.0151367H66.7979V35.7122H61.7979Z" fill="white"/>
<path fill-rule="evenodd" clip-rule="evenodd" d="M6.60193 58.575C1.78053 51.5293 0.0785768 44.2953 0.0258789 35.2162L5.02579 35.1871C5.07436 43.5548 6.61293 49.7374 10.7283 55.7513C14.928 61.8884 21.9273 68.0267 33.3266 76.0052L30.4595 80.1016C18.9727 72.0617 11.339 65.4975 6.60193 58.575Z" fill="white"/>
<path fill-rule="evenodd" clip-rule="evenodd" d="M56.0959 55.7513C60.2112 49.7374 61.7498 43.5548 61.7984 35.1871L66.7983 35.2162C66.7456 44.2953 65.0436 51.5293 60.2222 58.575C55.4851 65.4975 47.8515 72.0617 36.3646 80.1016L33.4976 76.0052C44.8969 68.0267 51.8962 61.8884 56.0959 55.7513Z" fill="white"/>
<path fill-rule="evenodd" clip-rule="evenodd" d="M33.5084 76.0698C33.5226 76.0601 33.5381 76.0491 33.555 76.0367L33.6144 76.1177C33.63 76.1236 33.6374 76.1256 33.6374 76.1256C33.6374 76.1256 33.6305 76.1238 33.6173 76.1218L36.5102 80.0699C35.6392 80.7081 34.5796 81.173 33.3276 81.1114C32.1514 81.0537 31.1684 80.5441 30.3979 80.0266L33.1858 75.876C33.327 75.9708 33.4328 76.0315 33.5084 76.0698Z" fill="white"/>
<path fill-rule="evenodd" clip-rule="evenodd" d="M72.4912 5.06537L24.2546 5.05273L24.2559 0.0527344L72.4925 0.0653736L72.4912 5.06537Z" fill="white"/>
<path fill-rule="evenodd" clip-rule="evenodd" d="M61.7983 35.7116L61.7979 3.54492L66.7979 3.54484L66.7983 35.7115L61.7983 35.7116Z" fill="white"/>
<path fill-rule="evenodd" clip-rule="evenodd" d="M123.571 35.7118V0H128.571V35.7118H123.571Z" fill="white"/>
<path fill-rule="evenodd" clip-rule="evenodd" d="M117.868 55.7513C121.984 49.7374 123.522 43.5548 123.571 35.1871L128.571 35.2162C128.518 44.2953 126.816 51.5293 121.995 58.575C117.258 65.4975 109.624 72.0617 98.1371 80.1016L95.27 76.0052C106.669 68.0267 113.669 61.8884 117.868 55.7513Z" fill="white"/>
<path fill-rule="evenodd" clip-rule="evenodd" d="M95.2798 76.0971C95.2941 76.0874 95.3097 76.0765 95.3267 76.0643L95.3855 76.1458C95.401 76.1518 95.4084 76.1538 95.4084 76.1538C95.4084 76.1538 95.4015 76.1519 95.3884 76.1498L98.2524 80.1193C97.3767 80.751 96.3137 81.208 95.0621 81.1372C93.8864 81.0707 92.9071 80.5538 92.1405 80.0306L94.9587 75.9008C95.0992 75.9967 95.2045 76.0582 95.2798 76.0971Z" fill="white"/>
<path fill-rule="evenodd" clip-rule="evenodd" d="M30.4053 85.1952V78.0532H35.4053V85.1952H30.4053Z" fill="white"/>
<path fill-rule="evenodd" clip-rule="evenodd" d="M93.1904 85.1953V77.0331H98.1904V85.1953H93.1904Z" fill="white"/>
<path fill-rule="evenodd" clip-rule="evenodd" d="M37.0943 107.871C32.1892 100.822 30.4585 93.5819 30.4058 84.4955L35.4057 84.4664C35.4542 92.8267 37.0147 99.003 41.1982 105.014C45.4699 111.152 52.5927 117.293 64.1959 125.273L61.3626 129.393C49.6746 121.354 41.9112 114.792 37.0943 107.871Z" fill="white"/>
<path fill-rule="evenodd" clip-rule="evenodd" d="M87.3981 105.014C91.5816 99.003 93.1421 92.8267 93.1907 84.4664L98.1906 84.4955C98.1378 93.5819 96.4072 100.822 91.5021 107.871C86.6851 114.792 78.9217 121.354 67.2337 129.393L64.4004 125.273C76.0037 117.293 83.1264 111.152 87.3981 105.014Z" fill="white"/>
<path fill-rule="evenodd" clip-rule="evenodd" d="M64.3833 125.347C64.4216 125.325 64.4686 125.295 64.5249 125.258L67.3128 129.408C66.4624 129.979 65.4211 130.454 64.1727 130.391C62.9855 130.331 62.0186 129.8 61.2842 129.306L64.0721 125.156C64.2081 125.247 64.3098 125.307 64.3833 125.347Z" fill="white"/>
<path d="M86.106 70.9116C86.106 92.3462 75.1363 99.9968 62.7793 105.907C75.1363 99.9968 81.0875 92.4097 81.0875 70.9116H86.106Z" fill="white"/>
<path fill-rule="evenodd" clip-rule="evenodd" d="M68.3744 58.575C63.553 51.5293 61.851 44.2953 61.7983 35.2162L66.7983 35.1871C66.8468 43.5548 68.3854 49.7374 72.5007 55.7513C76.7004 61.8884 83.6997 68.0267 95.0991 76.0052L92.232 80.1016C80.7451 72.0617 73.1115 65.4975 68.3744 58.575Z" fill="white"/>
<path d="M15.9461 2.56584C15.9461 3.97455 14.8127 5.11654 13.4145 5.11654C12.0163 5.11654 10.8828 3.97455 10.8828 2.56584C10.8828 1.15712 12.0163 0.0151367 13.4145 0.0151367C14.8127 0.0151367 15.9461 1.15712 15.9461 2.56584Z" fill="white"/>
<path fill-rule="evenodd" clip-rule="evenodd" d="M75.226 5.05273L61.8115 5.05276L61.8115 0.0527582L75.226 0.0527344L75.226 5.05273Z" fill="white"/>
<path d="M77.7577 2.56584C77.7577 3.97455 76.6242 5.11654 75.226 5.11654C73.8278 5.11654 72.6943 3.97455 72.6943 2.56584C72.6943 1.15712 73.8278 0.0151367 75.226 0.0151367C76.6242 0.0151367 77.7577 1.15712 77.7577 2.56584Z" fill="white"/>
<path fill-rule="evenodd" clip-rule="evenodd" d="M86.6531 0.0507246L128 0.0526609L128 5.05266L86.6529 5.05072L86.6531 0.0507246Z" fill="white"/>
<path d="M84.1213 2.5507C84.1213 3.95941 85.2547 5.1014 86.6529 5.1014C88.0511 5.1014 89.1846 3.95941 89.1846 2.5507C89.1846 1.14199 88.0511 0 86.6529 0C85.2547 0 84.1213 1.14199 84.1213 2.5507Z" fill="white"/>
<path d="M26.7869 2.5507C26.7869 3.95941 25.6535 5.1014 24.2553 5.1014C22.8571 5.1014 21.7236 3.95941 21.7236 2.5507C21.7236 1.14199 22.8571 0 24.2553 0C25.6535 0 26.7869 1.14199 26.7869 2.5507Z" fill="white"/>
<path d="M58.3594 5.11621C58.3594 35.8223 47.3897 46.7821 35.0327 55.2486C47.3897 46.7821 53.341 35.9133 53.341 5.11621H58.3594Z" fill="white"/>
<path d="M119.726 5.11621C119.726 35.8223 108.756 46.7821 96.3994 55.2486C108.756 46.7821 114.708 35.9133 114.708 5.11621H119.726Z" fill="white"/>
</svg>
