<svg width="24" height="25" viewBox="0 0 24 25" fill="none" xmlns="http://www.w3.org/2000/svg">
    <path fill-rule="evenodd" clip-rule="evenodd"
        d="M3.35938 16.8682V15.771L13.0141 21.3532L12.0667 21.9009C11.8341 22.0353 11.5476 22.0353 11.3151 21.9009L3.73517 17.5198C3.50263 17.3855 3.35938 17.1371 3.35938 16.8682Z"
        fill="#E0AF65" />
    <path d="M13.9616 20.8056L14.909 20.2579L3.35938 13.5825V14.6779L13.9616 20.8056Z" fill="#E0AF65" />
    <path
        d="M19.6477 7.45498L12.0679 3.07393C11.8354 2.93955 11.5488 2.93955 11.3163 3.07393L3.73638 7.45498C3.50383 7.58936 3.36058 7.83765 3.36058 8.10656L3.35156 10.9803L16.9711 19.0164L19.6477 17.5199C19.8802 17.3856 20.0235 17.1372 20.0235 16.8683V8.10656C20.0235 7.83765 19.8802 7.58936 19.6477 7.45498Z"
        fill="#E0AF65" />
    <path d="M16.9711 19.0162L3.35156 10.98L3.36058 13.5824L14.9102 20.2577L16.9711 19.0162Z" fill="#A8D5FF" />
    <path d="M16.9711 19.0162L3.35156 10.98L3.36058 13.5824L14.9102 20.2577L16.9711 19.0162Z" fill="#CF9A4A" />
    <path d="M13.9616 20.8055L3.35938 14.6777V15.7709L13.0141 21.3531L13.9616 20.8055Z" fill="#A8D5FF" />
    <path d="M13.9616 20.8055L3.35938 14.6777V15.7709L13.0141 21.3531L13.9616 20.8055Z" fill="#CF9A4A" />
    <path
        d="M16.4743 5.26097C16.4743 5.46878 16.306 5.63717 16.0985 5.63717C15.891 5.63717 15.7227 5.46878 15.7227 5.26097C15.7227 5.05315 15.891 4.88477 16.0985 4.88477C16.306 4.88477 16.4743 5.05315 16.4743 5.26097Z"
        fill="white" />
    <path
        d="M12.5033 2.7478C12.1545 2.54631 11.7248 2.54631 11.3759 2.7478L3.79611 7.12885C3.44723 7.33034 3.23242 7.70292 3.23242 8.10621V16.868C3.23242 17.2713 3.44723 17.6439 3.79611 17.8453L11.3759 22.2264C11.7248 22.4279 12.1545 22.4279 12.5033 22.2264L20.0832 17.8453C20.4321 17.6439 20.6469 17.2713 20.6469 16.868V8.10621C20.6469 7.70292 20.4321 7.33034 20.0832 7.12885L18.1883 6.03351L17.8125 6.68508L19.7074 7.78042C19.8238 7.84754 19.8953 7.97183 19.8953 8.10621V16.868C19.8953 17.0023 19.8238 17.1267 19.7074 17.1938L12.1275 21.5748C12.0113 21.642 11.868 21.642 11.7517 21.5748L4.17191 17.1938C4.05556 17.1267 3.98401 17.0023 3.98401 16.868V8.10621C3.98401 7.97183 4.05556 7.84754 4.17191 7.78042L11.7517 3.39937C11.868 3.33226 12.0113 3.33226 12.1275 3.39937L15.9174 5.5899L16.2933 4.93832L12.5033 2.7478Z"
        fill="white" />
    <path
        d="M18.3884 6.36595C18.3884 6.57375 18.2201 6.74215 18.0125 6.74215C17.805 6.74215 17.6367 6.57375 17.6367 6.36595C17.6367 6.15829 17.805 5.98975 18.0125 5.98975C18.2201 5.98975 18.3884 6.15829 18.3884 6.36595Z"
        fill="white" />
    <g clip-path="url(#clip0_1484_5492)">
        <path
            d="M11.8627 9.00267C12.1661 9.00267 12.4112 9.24782 12.4112 9.55124V16.1341C12.4112 16.4375 12.1661 16.6827 11.8627 16.6827H10.7655V15.5855C10.7655 14.9804 10.2735 14.4884 9.66838 14.4884C9.06324 14.4884 8.57124 14.9804 8.57124 15.5855V16.6827H7.4741C7.17067 16.6827 6.92552 16.4375 6.92552 16.1341V9.55124C6.92552 9.24782 7.17067 9.00267 7.4741 9.00267H11.8627ZM9.66838 15.037C9.97181 15.037 10.217 15.2821 10.217 15.5855V16.6827H9.11981V15.5855C9.11981 15.2821 9.36495 15.037 9.66838 15.037ZM7.4741 17.2312H8.57124H9.11981H10.217H10.7655H11.8627C12.4678 17.2312 12.9598 16.7392 12.9598 16.1341V9.55124C12.9598 8.9461 12.4678 8.4541 11.8627 8.4541H7.4741C6.86895 8.4541 6.37695 8.9461 6.37695 9.55124V16.1341C6.37695 16.7392 6.86895 17.2312 7.4741 17.2312ZM7.88552 10.0998C7.65752 10.0998 7.4741 10.2832 7.4741 10.5112V11.3341C7.4741 11.5621 7.65752 11.7455 7.88552 11.7455H8.70838C8.93638 11.7455 9.11981 11.5621 9.11981 11.3341V10.5112C9.11981 10.2832 8.93638 10.0998 8.70838 10.0998H7.88552ZM8.02267 11.197V10.6484H8.57124V11.197H8.02267ZM10.217 10.5112V11.3341C10.217 11.5621 10.4004 11.7455 10.6284 11.7455H11.4512C11.6792 11.7455 11.8627 11.5621 11.8627 11.3341V10.5112C11.8627 10.2832 11.6792 10.0998 11.4512 10.0998H10.6284C10.4004 10.0998 10.217 10.2832 10.217 10.5112ZM10.7655 10.6484H11.3141V11.197H10.7655V10.6484ZM7.88552 12.2941C7.65752 12.2941 7.4741 12.4775 7.4741 12.7055V13.5284C7.4741 13.7564 7.65752 13.9398 7.88552 13.9398H8.70838C8.93638 13.9398 9.11981 13.7564 9.11981 13.5284V12.7055C9.11981 12.4775 8.93638 12.2941 8.70838 12.2941H7.88552ZM8.02267 13.3912V12.8427H8.57124V13.3912H8.02267ZM10.217 12.7055V13.5284C10.217 13.7564 10.4004 13.9398 10.6284 13.9398H11.4512C11.6792 13.9398 11.8627 13.7564 11.8627 13.5284V12.7055C11.8627 12.4775 11.6792 12.2941 11.4512 12.2941H10.6284C10.4004 12.2941 10.217 12.4775 10.217 12.7055ZM10.7655 12.8427H11.3141V13.3912H10.7655V12.8427ZM17.0741 11.7455H16.7998C16.2272 11.7455 15.7232 12.037 15.4284 12.481C15.1335 12.037 14.6295 11.7455 14.057 11.7455H13.7827C13.6318 11.7455 13.5084 11.869 13.5084 12.0198V12.2941C13.5084 12.7158 13.6661 13.0998 13.9267 13.3912H13.7827C13.6318 13.3912 13.5084 13.5147 13.5084 13.6655V13.9398C13.5084 14.3615 13.6661 14.7455 13.9267 15.037H13.7827C13.6318 15.037 13.5084 15.1604 13.5084 15.3112V15.5855C13.5084 16.4941 14.2455 17.2312 15.1541 17.2312H15.4284H15.7027C16.6112 17.2312 17.3484 16.4941 17.3484 15.5855V15.3112C17.3484 15.1604 17.225 15.037 17.0741 15.037H16.9301C17.1907 14.7455 17.3484 14.3615 17.3484 13.9398V13.6655C17.3484 13.5147 17.225 13.3912 17.0741 13.3912H16.9301C17.1907 13.0998 17.3484 12.7158 17.3484 12.2941V12.0198C17.3484 11.869 17.225 11.7455 17.0741 11.7455ZM15.7027 13.3912C15.7027 12.7861 16.1947 12.2941 16.7998 12.2941C16.7998 12.8992 16.3078 13.3912 15.7027 13.3912ZM15.1541 13.3912C14.549 13.3912 14.057 12.8992 14.057 12.2941C14.6621 12.2941 15.1541 12.7861 15.1541 13.3912ZM15.4284 13.9398H15.5724C15.5192 13.9981 15.4712 14.0615 15.4284 14.1267C15.3838 14.0615 15.3358 13.9981 15.2844 13.9398H15.4284ZM15.4284 15.7724C15.3838 15.7072 15.3358 15.6438 15.2844 15.5855H15.4284H15.5724C15.5192 15.6438 15.4712 15.7072 15.4284 15.7724ZM15.7027 15.037C15.7027 14.4318 16.1947 13.9398 16.7998 13.9398C16.7998 14.545 16.3078 15.037 15.7027 15.037ZM15.1541 15.037C14.549 15.037 14.057 14.545 14.057 13.9398C14.6621 13.9398 15.1541 14.4318 15.1541 15.037ZM15.7027 16.6827C15.7027 16.0775 16.1947 15.5855 16.7998 15.5855C16.7998 16.1907 16.3078 16.6827 15.7027 16.6827ZM15.1541 16.6827C14.549 16.6827 14.057 16.1907 14.057 15.5855C14.6621 15.5855 15.1541 16.0775 15.1541 16.6827ZM15.4284 9.00267C15.2775 9.00267 15.1541 9.1261 15.1541 9.27696V11.197C15.1541 11.3478 15.2775 11.4712 15.4284 11.4712C15.5792 11.4712 15.7027 11.3478 15.7027 11.197V9.27696C15.7027 9.1261 15.5792 9.00267 15.4284 9.00267ZM16.5255 9.82553C16.3747 9.82553 16.2512 9.94896 16.2512 10.0998V10.9227C16.2512 11.0735 16.3747 11.197 16.5255 11.197C16.6764 11.197 16.7998 11.0735 16.7998 10.9227V10.0998C16.7998 9.94896 16.6764 9.82553 16.5255 9.82553ZM14.057 10.9227C14.057 11.0735 14.1804 11.197 14.3312 11.197C14.4821 11.197 14.6055 11.0735 14.6055 10.9227V10.0998C14.6055 9.94896 14.4821 9.82553 14.3312 9.82553C14.1804 9.82553 14.057 9.94896 14.057 10.0998V10.9227Z"
            fill="#24130A" />
    </g>
    <defs>
        <clipPath id="clip0_1484_5492">
            <rect width="10.9714" height="8.77714" fill="white" transform="translate(6.37695 8.4541)" />
        </clipPath>
    </defs>
</svg>