<svg viewBox="0 0 129 128" fill="none" xmlns="http://www.w3.org/2000/svg">
<path d="M122.419 125.641C125.405 125.641 127.339 122.487 125.983 119.825L94.5976 58.2112L19.4391 125.641H122.419Z" fill="#E69E00"/>
<path d="M68.5097 6.99705C67.0261 4.08448 62.8649 4.08448 61.3812 6.99705L3.90784 119.825C2.55223 122.487 4.48545 125.641 7.47207 125.641H19.4391L94.5976 58.2112L68.5097 6.99705Z" fill="#FFB000"/>
<path d="M70.4333 5.55298C68.1561 1.08259 61.7528 1.08261 59.4757 5.55298L8.01238 106.583L12.152 108.865L63.6901 7.68801C64.2156 6.65637 65.6933 6.65638 66.2188 7.688L70.4333 5.55298Z" fill="white"/>
<path d="M70.4333 5.55298L66.2188 7.688L71.6346 18.3199L75.7699 16.0295L70.4333 5.55298Z" fill="white"/>
<path d="M80.9205 26.1409L76.7852 28.4314L79.6184 33.9933L83.7996 31.793L80.9205 26.1409Z" fill="white"/>
<path d="M124.056 121.231L128.271 119.096L87.2181 38.5039L83.0598 40.7492L124.056 121.231Z" fill="white"/>
<path d="M122.792 128C127.377 128 130.347 123.173 128.271 119.096L124.056 121.231C124.535 122.172 123.85 123.286 122.792 123.286H7.11712C6.05897 123.286 5.37354 122.172 5.85278 121.231L8.36767 116.294L4.22865 114.011L1.63832 119.096C-0.438395 123.173 2.53177 128 7.11712 128H122.792Z" fill="white"/>
<ellipse cx="73.678" cy="17.1142" rx="2.36353" ry="2.35704" fill="white"/>
<ellipse cx="79.0247" cy="27.6102" rx="2.36354" ry="2.35704" fill="white"/>
<ellipse cx="81.8069" cy="33.0632" rx="2.36354" ry="2.35704" fill="white"/>
<ellipse cx="85.1995" cy="39.6986" rx="2.36353" ry="2.35704" fill="white"/>
<ellipse cx="10.1116" cy="107.666" rx="2.36353" ry="2.35704" fill="white"/>
<ellipse cx="6.17506" cy="115.352" rx="2.36353" ry="2.35704" fill="white"/>
</svg>
