<svg viewBox="0 0 129 128" fill="none" xmlns="http://www.w3.org/2000/svg">
<path fill-rule="evenodd" clip-rule="evenodd" d="M123.807 125.643C126.159 125.643 127.672 123.142 126.605 121.047L123.807 125.643ZM82.4965 34.4557V69.1989L94.6452 58.3055L82.4965 34.4557ZM3.90783 119.827C2.55224 122.489 4.48545 125.643 7.47206 125.643H19.5488L47.3945 100.674V34.4557L3.90783 119.827Z" fill="#636363"/>
<path d="M126.605 121.047L94.6452 58.3055L82.4965 69.1989V125.643H123.807L126.605 121.047Z" fill="#383838"/>
<path d="M19.5488 125.643H47.3945V100.674L19.5488 125.643Z" fill="#383838"/>
<path fill-rule="evenodd" clip-rule="evenodd" d="M47.3945 34.4557L61.3813 6.99719C62.8649 4.0846 67.0261 4.08459 68.5097 6.99719L82.4965 34.4557V69.1989L47.3945 100.674V34.4557Z" fill="#BB0010"/>
<path d="M47.3945 125.643H64.9455H82.4965V69.1989L47.3945 100.674V125.643Z" fill="#8F000C"/>
<path d="M70.4147 5.55156C68.1376 1.08111 61.7343 1.08113 59.4571 5.55157L7.99383 106.583L12.1334 108.865L63.6716 7.68662C64.1971 6.65497 65.6748 6.65498 66.2002 7.68661L70.4147 5.55156Z" fill="white"/>
<path d="M70.4147 5.55156L66.2002 7.68661L71.616 18.3187L75.7513 16.0282L70.4147 5.55156Z" fill="white"/>
<path d="M80.902 26.1398L76.7667 28.4303L79.5998 33.9922L83.781 31.7919L80.902 26.1398Z" fill="white"/>
<path d="M124.038 121.231L128.252 119.096L87.1995 38.5029L83.0413 40.7483L124.038 121.231Z" fill="white"/>
<path d="M122.773 128C127.359 128 130.329 123.173 128.252 119.096L124.038 121.231C124.517 122.172 123.831 123.286 122.773 123.286H7.09856C6.04041 123.286 5.35498 122.172 5.83423 121.231L8.34911 116.294L4.2101 114.011L1.61976 119.096C-0.45695 123.173 2.51321 128 7.09856 128H122.773Z" fill="white"/>
<ellipse cx="73.6589" cy="17.1131" rx="2.36353" ry="2.35708" fill="white"/>
<ellipse cx="79.0061" cy="27.6092" rx="2.36354" ry="2.35708" fill="white"/>
<ellipse cx="81.7888" cy="33.0622" rx="2.36354" ry="2.35708" fill="white"/>
<ellipse cx="85.1809" cy="39.6977" rx="2.36353" ry="2.35708" fill="white"/>
<ellipse cx="10.093" cy="107.666" rx="2.36353" ry="2.35707" fill="white"/>
<ellipse cx="6.1565" cy="115.353" rx="2.36353" ry="2.35708" fill="white"/>
</svg>
