<svg viewBox="0 0 134 133" fill="none" xmlns="http://www.w3.org/2000/svg">
<path fill-rule="evenodd" clip-rule="evenodd" d="M83.4383 2.5H126.448C129.208 2.5 131.445 4.73735 131.445 7.49725C131.445 29.2545 120.327 65.3499 83.4383 87.4366V2.5ZM51.2393 2.5H8.44531C5.68389 2.5 3.44531 4.73858 3.44531 7.5V106.543C21.7276 106.543 37.5618 104.438 51.2393 100.792V2.5Z" fill="#794200"/>
<path fill-rule="evenodd" clip-rule="evenodd" d="M51.2393 130.5H8.44532C5.68389 130.5 3.44531 128.261 3.44531 125.5V106.543C21.7276 106.543 37.5618 104.438 51.2393 100.792V130.5ZM83.4383 130.5H126.445C129.207 130.5 131.445 128.261 131.445 125.5V7.49725C131.445 29.2545 120.327 65.3499 83.4383 87.4366V130.5Z" fill="#623500"/>
<path d="M51.2393 130.5H83.4383V87.4366C74.3446 92.8812 63.6847 97.4746 51.2393 100.792V130.5Z" fill="#272727"/>
<path d="M83.4383 2.5H51.2393V100.792C63.6847 97.4746 74.3446 92.8812 83.4383 87.4366V2.5Z" fill="#494949"/>
<path d="M7.44531 0C3.85546 0 0.945312 2.91015 0.945312 6.5V126.5C0.945312 130.09 3.85546 133 7.44531 133V128C6.61689 128 5.94531 127.328 5.94531 126.5V6.5C5.94531 5.67157 6.61689 5 7.44531 5V0Z" fill="white"/>
<path d="M133.945 6.5C133.945 2.91015 131.035 0 127.445 0H27.3399V5H127.445C128.274 5 128.945 5.67157 128.945 6.5V126.5C128.945 127.328 128.274 128 127.445 128H27.3399V133H127.445C131.035 133 133.945 130.09 133.945 126.5V6.5Z" fill="white"/>
<path d="M7.44531 128V133H17.9297V128H7.44531Z" fill="white"/>
<path d="M7.44531 0V5H12.8125V0H7.44531Z" fill="white"/>
<circle cx="17.9248" cy="130.5" r="2.5" fill="white"/>
<circle cx="27.5508" cy="130.5" r="2.5" fill="white"/>
<circle cx="12.9248" cy="2.5" r="2.5" fill="white"/>
<circle cx="27.4023" cy="2.5" r="2.5" fill="white"/>
</svg>
