<svg viewBox="0 0 128 128" fill="none" xmlns="http://www.w3.org/2000/svg">
<path d="M94.7335 74.0059C94.7335 73.2904 94.3315 72.6772 93.7284 72.2683L64.9842 55.71H63.9792V61.8643L88.1117 75.68V104.819L63.9792 118.258V125.214H64.9842L93.7284 108.656C94.3315 108.349 94.7335 107.634 94.7335 106.918V74.0059Z" fill="#D0D0D0"/>
<path d="M33.2251 106.918C33.2251 107.634 33.6271 108.247 34.2301 108.656L62.9741 125.214H63.9792V118.258L39.8468 104.819V75.68L63.9792 61.8643V55.71H62.9741L34.2301 72.2683C33.6271 72.5749 33.2251 73.2904 33.2251 74.0059V106.918Z" fill="#D0D0D0"/>
<path d="M64.9842 55.71C64.3812 55.4033 63.5771 55.4033 62.9741 55.71H63.9792H64.9842Z" fill="#00CCFF"/>
<path d="M62.9741 125.214C63.5771 125.521 64.3812 125.521 64.9842 125.214H63.9792H62.9741Z" fill="#00CCFF"/>
<path fill-rule="evenodd" clip-rule="evenodd" d="M88.1117 104.819L63.9792 118.258L39.8468 104.819V75.68L63.9792 61.8643L88.1117 75.68V104.819ZM76.0454 77.8244V102.509L63.9792 108.656L51.913 102.509V77.8244L63.9792 71.3125L76.0454 77.8244Z" fill="#00CCFF"/>
<path d="M76.0454 77.8244L63.9792 83.8852V108.656L76.0454 102.509V77.8244Z" fill="#03A789"/>
<path d="M51.913 77.8244V102.509L63.9792 108.656V83.8852L51.913 77.8244Z" fill="#03B493"/>
<path d="M63.9792 71.3125L51.913 77.8244L63.9792 83.8852L76.0454 77.8244L63.9792 71.3125Z" fill="#06C2A0"/>
<path fill-rule="evenodd" clip-rule="evenodd" d="M72.9261 117.727L64.0209 122.856L35.7792 106.588V74.3368L64.0209 58.0679L92.2624 74.3368V106.588L84.4201 111.105L89.0464 114.314L94.9648 110.904C96.462 110.106 97.2876 108.473 97.2876 106.918V74.0061C97.2876 72.2334 96.2816 70.9003 95.1637 70.1423L95.0877 70.0908L66.2078 53.4542L66.1496 53.4246C64.8392 52.7583 63.2026 52.7583 61.8922 53.4246L61.8341 53.4542L33.0769 70.02C31.5796 70.8185 30.754 72.4514 30.754 74.0061V106.918C30.754 108.691 31.76 110.024 32.8779 110.782L32.9539 110.834L61.8341 127.47L61.8922 127.5C63.2026 128.166 64.8392 128.166 66.1496 127.5L66.2078 127.47L77.6271 120.892L72.9261 117.727Z" fill="white"/>
<path d="M84.4201 111.105L89.0464 114.314C87.0515 114.998 81.8238 114.314 84.4201 111.105Z" fill="white"/>
<path d="M77.6271 120.892L72.9261 117.727C77.0761 116.591 79.3854 119.115 77.6271 120.892Z" fill="white"/>
<path d="M64.023 21.0811C64.023 20.3656 63.621 19.7523 63.018 19.3435L34.2738 2.78515H33.2687V8.93946L57.4012 22.7552V51.8939L33.2687 65.3329V72.2893H34.2738L63.018 55.7309C63.621 55.4243 64.023 54.7088 64.023 53.9933V21.0811Z" fill="#D0D0D0"/>
<path d="M2.51465 53.9933C2.51465 54.7088 2.91666 55.3221 3.51969 55.7309L32.2637 72.2893H33.2687V65.3329L9.13638 51.8939V22.7552L33.2687 8.93946V2.78515H32.2637L3.51969 19.3435C2.91666 19.6501 2.51465 20.3656 2.51465 21.0811V53.9933Z" fill="#D0D0D0"/>
<path d="M34.2738 2.78515C33.6707 2.47852 32.8667 2.47852 32.2637 2.78515H33.2687H34.2738Z" fill="#00CCFF"/>
<path d="M32.2637 72.2893C32.8667 72.5959 33.6707 72.5959 34.2738 72.2893H33.2687H32.2637Z" fill="#00CCFF"/>
<path fill-rule="evenodd" clip-rule="evenodd" d="M57.4012 51.8939L33.2687 65.3329L9.13638 51.8939V22.7552L33.2687 8.93946L57.4012 22.7552V51.8939ZM45.335 24.8996V49.5838L33.2687 55.7309L21.2025 49.5838V24.8996L33.2687 18.3877L45.335 24.8996Z" fill="#00CCFF"/>
<path d="M45.335 24.8996L33.2687 30.9604V55.7309L45.335 49.5838V24.8996Z" fill="#03A789"/>
<path d="M21.2025 24.8996V49.5838L33.2687 55.7309V30.9604L21.2025 24.8996Z" fill="#03B493"/>
<path d="M33.2687 18.3877L21.2025 24.8996L33.2687 30.9604L45.335 24.8996L33.2687 18.3877Z" fill="#06C2A0"/>
<path d="M125.53 21.0811C125.53 20.3656 125.128 19.7523 124.525 19.3435L95.7806 2.78515H94.7756V8.93946L118.908 22.7552V51.8939L94.7756 65.3329V72.2893H95.7806L124.525 55.7309C125.128 55.4243 125.53 54.7088 125.53 53.9933V21.0811Z" fill="#D0D0D0"/>
<path d="M64.0215 53.9933C64.0215 54.7088 64.4235 55.3221 65.0265 55.7309L93.7705 72.2893H94.7756V65.3329L70.6432 51.8939V22.7552L94.7756 8.93946V2.78515H93.7705L65.0265 19.3435C64.4235 19.6501 64.0215 20.3656 64.0215 21.0811V53.9933Z" fill="#D0D0D0"/>
<path d="M95.7806 2.78515C95.1776 2.47852 94.3735 2.47852 93.7705 2.78515H94.7756H95.7806Z" fill="#00CCFF"/>
<path d="M93.7705 72.2893C94.3735 72.5959 95.1776 72.5959 95.7806 72.2893H94.7756H93.7705Z" fill="#00CCFF"/>
<path fill-rule="evenodd" clip-rule="evenodd" d="M118.908 51.8939L94.7756 65.3329L70.6432 51.8939V22.7552L94.7756 8.93946L118.908 22.7552V51.8939ZM106.842 24.8996V49.5838L94.7756 55.7309L82.7094 49.5838V24.8996L94.7756 18.3877L106.842 24.8996Z" fill="#00CCFF"/>
<path d="M106.842 24.8996L94.7756 30.9604V55.7309L106.842 49.5838V24.8996Z" fill="#03A789"/>
<path d="M82.7094 24.8996V49.5838L94.7756 55.7309V30.9604L82.7094 24.8996Z" fill="#03B493"/>
<path d="M94.7756 18.3877L82.7094 24.8996L94.7756 30.9604L106.842 24.8996L94.7756 18.3877Z" fill="#06C2A0"/>
<path fill-rule="evenodd" clip-rule="evenodd" d="M24.3615 10.273L33.2667 5.14307L61.5084 21.4119V53.6627L33.2667 69.9316L5.0252 53.6627V21.4119L12.8675 16.8943L8.24123 13.6858L2.32281 17.0952C0.825562 17.8937 0 19.5266 0 21.0812V53.9934C0 55.7661 1.00595 57.0992 2.1239 57.8572L2.19985 57.9087L31.0798 74.5454L31.138 74.5749C32.4483 75.2412 34.085 75.2412 35.3954 74.5749L35.4535 74.5454L64.2107 57.9795C65.708 57.181 66.5336 55.5481 66.5336 53.9934V21.0812C66.5336 19.3085 65.5276 17.9754 64.4097 17.2175L64.3337 17.166L35.4535 0.529308L35.3954 0.499747C34.085 -0.166582 32.4483 -0.166582 31.138 0.499747L31.0798 0.52931L19.6605 7.10754L24.3615 10.273Z" fill="white"/>
<path d="M12.8675 16.8943L8.24123 13.6858C10.2361 13.0012 15.4638 13.6858 12.8675 16.8943Z" fill="white"/>
<path d="M19.6605 7.10754L24.3615 10.273C20.2114 11.4084 17.9022 8.88431 19.6605 7.10754Z" fill="white"/>
<path fill-rule="evenodd" clip-rule="evenodd" d="M24.3615 10.273L33.2667 5.14307L61.5084 21.4119V53.6627L33.2667 69.9316L5.0252 53.6627V21.4119L12.8675 16.8943L8.24123 13.6858L2.32281 17.0952C0.825562 17.8937 0 19.5266 0 21.0812V53.9934C0 55.7661 1.00595 57.0992 2.1239 57.8572L2.19985 57.9087L31.0798 74.5454L31.138 74.5749C32.4483 75.2412 34.085 75.2412 35.3954 74.5749L35.4535 74.5454L64.2107 57.9795C65.708 57.181 66.5336 55.5481 66.5336 53.9934V21.0812C66.5336 19.3085 65.5276 17.9754 64.4097 17.2175L64.3337 17.166L35.4535 0.529308L35.3954 0.499747C34.085 -0.166582 32.4483 -0.166582 31.138 0.499747L31.0798 0.52931L19.6605 7.10754L24.3615 10.273Z" fill="white"/>
<path d="M12.8675 16.8943L8.24123 13.6858C10.2361 13.0012 15.4638 13.6858 12.8675 16.8943Z" fill="white"/>
<path d="M19.6605 7.10754L24.3615 10.273C20.2114 11.4084 17.9022 8.88431 19.6605 7.10754Z" fill="white"/>
<path fill-rule="evenodd" clip-rule="evenodd" d="M85.8278 10.273L94.733 5.14307L122.975 21.4119V53.6627L94.733 69.9316L66.4915 53.6627V21.4119L74.3338 16.8943L69.7075 13.6858L63.7891 17.0952C62.2919 17.8937 61.4663 19.5266 61.4663 21.0812V53.9934C61.4663 55.7661 62.4723 57.0992 63.5902 57.8572L63.6662 57.9087L92.5461 74.5454L92.6043 74.5749C93.9147 75.2412 95.5513 75.2412 96.8617 74.5749L96.9198 74.5454L125.677 57.9795C127.174 57.181 128 55.5481 128 53.9934V21.0812C128 19.3085 126.994 17.9754 125.876 17.2175L125.8 17.166L96.9198 0.529308L96.8617 0.499747C95.5513 -0.166582 93.9147 -0.166582 92.6043 0.499747L92.5461 0.52931L81.1268 7.10754L85.8278 10.273Z" fill="white"/>
<path d="M74.3338 16.8943L69.7075 13.6858C71.7024 13.0012 76.9301 13.6858 74.3338 16.8943Z" fill="white"/>
<path d="M81.1268 7.10754L85.8278 10.273C81.6778 11.4084 79.3685 8.88431 81.1268 7.10754Z" fill="white"/>
</svg>
