<svg viewBox="0 0 129 129" fill="none" xmlns="http://www.w3.org/2000/svg">
<path d="M4.49403 68.0145C2.54141 66.0619 2.54141 62.8961 4.49403 60.9435L39.3027 26.1348L44.4205 21.017L60.9018 4.53569C62.8544 2.58307 66.0202 2.58308 67.9729 4.5357L71.2176 7.7804L75.5206 12.0835L83.7668 20.3296L89.572 26.1348L124.381 60.9435C126.333 62.8961 126.333 66.0619 124.381 68.0145L89.572 102.823L83.7668 108.628L67.9729 124.422C66.0203 126.375 62.8544 126.375 60.9018 124.422L45.1079 108.628L39.3027 102.823L12.0418 75.5623L7.73874 71.2592L4.49403 68.0145Z" fill="#292929"/>
<path d="M64.5599 127.958L45.2304 108.628L39.4252 102.823L12.1634 75.5612L7.83503 71.2329L1.08105 64.4789L20.2531 45.3068L27.349 51.75L31.8833 55.8672L39.4252 62.7155L45.2304 67.9868L64.5599 85.5384L83.8894 67.9868L89.6946 62.7155L108.867 45.3068L128.039 64.4789L89.6946 102.823L86.792 105.726L83.8894 108.628L64.5599 127.958Z" fill="black"/>
<path fill-rule="evenodd" clip-rule="evenodd" d="M59.8408 2.18412L23.2438 38.7814L26.7793 42.3169L63.3763 5.71964C63.9621 5.13385 64.9119 5.13385 65.4976 5.71964L123.32 63.5416C123.905 64.1274 123.905 65.0771 123.32 65.6629L88.5159 100.467L92.0514 104.002L126.855 69.1985C129.394 66.6601 129.394 62.5445 126.855 60.0061L69.0332 2.1841C66.4948 -0.354311 62.3792 -0.354305 59.8408 2.18412Z" fill="black"/>
<path fill-rule="evenodd" clip-rule="evenodd" d="M69.0329 127.02L116.132 79.9216L112.596 76.3861L65.4974 123.485C64.9116 124.071 63.9618 124.071 63.376 123.485L5.55405 65.6629C4.96826 65.0771 4.96826 64.1274 5.55405 63.5416L20.7474 48.3482L17.2119 44.8127L2.01852 60.006C-0.519892 62.5445 -0.519892 66.66 2.01852 69.1984L59.8405 127.02C62.3789 129.559 66.4945 129.559 69.0329 127.02Z" fill="black"/>
<path d="M21.4414 46.6213C21.4414 48.002 20.3221 49.1213 18.9414 49.1213C17.5607 49.1213 16.4414 48.002 16.4414 46.6213C16.4414 45.2406 17.5607 44.1213 18.9414 44.1213C20.3221 44.1213 21.4414 45.2406 21.4414 46.6213Z" fill="black"/>
<path d="M27.4819 40.5779C27.4819 41.9586 26.3626 43.0779 24.9819 43.0779C23.6012 43.0779 22.4819 41.9586 22.4819 40.5779C22.4819 39.1972 23.6012 38.0779 24.9819 38.0779C26.3626 38.0779 27.4819 39.1972 27.4819 40.5779Z" fill="black"/>
<path d="M78.3434 14.6748L14.6455 78.7532L16.875 81.1501L80.4682 17.1396L78.3434 14.6748Z" fill="white"/>
<path fill-rule="evenodd" clip-rule="evenodd" d="M59.8408 2.18412L23.2438 38.7814L26.7793 42.3169L63.3763 5.71964C63.9621 5.13385 64.9119 5.13385 65.4976 5.71964L123.32 63.5416C123.905 64.1274 123.905 65.0771 123.32 65.6629L88.5159 100.467L92.0514 104.002L126.855 69.1985C129.394 66.6601 129.394 62.5445 126.855 60.0061L69.0332 2.1841C66.4948 -0.354311 62.3792 -0.354305 59.8408 2.18412Z" fill="white"/>
<path fill-rule="evenodd" clip-rule="evenodd" d="M69.0329 127.02L116.132 79.9216L112.596 76.3861L65.4974 123.485C64.9116 124.071 63.9618 124.071 63.376 123.485L5.55405 65.6629C4.96827 65.0771 4.96827 64.1274 5.55405 63.5416L20.7474 48.3482L17.2119 44.8127L2.01852 60.006C-0.519892 62.5445 -0.519892 66.66 2.01852 69.1984L59.8405 127.02C62.3789 129.559 66.4945 129.559 69.0329 127.02Z" fill="white"/>
<path d="M21.4414 46.6213C21.4414 48.002 20.3221 49.1213 18.9414 49.1213C17.5607 49.1213 16.4414 48.002 16.4414 46.6213C16.4414 45.2406 17.5607 44.1213 18.9414 44.1213C20.3221 44.1213 21.4414 45.2406 21.4414 46.6213Z" fill="white"/>
<path d="M27.4819 40.5779C27.4819 41.9586 26.3626 43.0779 24.9819 43.0779C23.6012 43.0779 22.4819 41.9586 22.4819 40.5779C22.4819 39.1972 23.6012 38.0779 24.9819 38.0779C26.3626 38.0779 27.4819 39.1972 27.4819 40.5779Z" fill="white"/>
<path d="M8.26855 71.6322L71.1787 8.59363L75.5616 12.9767L12.6519 76.0152L8.26855 71.6322Z" fill="white"/>
</svg>
