<svg viewBox="0 0 129 128" fill="none" xmlns="http://www.w3.org/2000/svg">
<path d="M96.0732 30.4375L73.7108 10.0965L68.9028 5.72321C66.9965 3.98927 64.0976 3.97465 62.1741 5.68926L58.7534 8.73857L55.7701 11.3979L46.7179 19.4672L40.7296 24.8052L37.7355 27.4743L34.7413 30.1433L32.0582 32.535L29.3751 34.9268L24.009 39.7103L19.3352 43.8766L6.18935 55.595C4.79783 56.8354 4.19874 58.7451 4.63066 60.5634L6.82014 69.7807L8.26767 75.8746L9.5704 81.3588L19.0882 121.427C19.6301 123.708 21.6588 125.318 23.9924 125.318H34.7413H37.7355H38.0303H40.7296H43.8762H45.7298H46.7179H50.5776H54.2848H55.7701H58.7534H107.043C109.41 125.318 111.458 123.664 111.967 121.341L120.881 80.6999L122.102 75.1335L125.315 60.4837C125.705 58.7067 125.117 56.8561 123.775 55.6351L96.0732 30.4375Z" fill="#8D28FF"/>
<path d="M80.5701 118.041V16.6845L64.9399 2.49463L58.7502 8.06862L55.7626 10.759L49.3057 16.5737L49.3058 118.041H55.7626H58.7502H80.5701Z" fill="#0006BD"/>
<path d="M107.265 125.318C109.502 125.318 111.438 123.754 111.92 121.558L115.384 105.762C115.749 104.102 115.244 102.37 114.045 101.165L81.0146 67.9653L80.5644 67.5128V125.318H81.0146H107.265Z" fill="#5C14AE"/>
<path d="M49.7494 125.318H55.8099H58.7552H65.5201H80.5644V67.5128L69.0646 55.9542C67.1099 53.9895 63.9302 53.9895 61.9755 55.9542L58.7552 59.191L55.8099 62.1514L49.7494 68.2429L49.2977 68.697V125.318H49.7494Z" fill="#0C088B"/>
<path d="M19.1391 121.639C19.6514 123.796 21.5691 125.318 23.775 125.318H34.7369H37.7267H40.7143H46.7195H49.2977V68.697L46.7195 71.2884L40.7143 77.3243L37.7267 80.3272L34.7369 83.3322L16.7632 101.398C15.5424 102.625 15.0431 104.396 15.4431 106.08L19.1391 121.639Z" fill="#5C14AE"/>
<path d="M125.336 74.797C125.336 76.4764 123.981 77.8377 122.31 77.8377C120.64 77.8377 119.285 76.4764 119.285 74.797C119.285 73.1177 120.64 71.7563 122.31 71.7563C123.981 71.7563 125.336 73.1177 125.336 74.797Z" fill="white"/>
<path d="M123.018 85.403C123.018 87.0823 121.664 88.4437 119.993 88.4437C118.322 88.4437 116.968 87.0823 116.968 85.403C116.968 83.7237 118.322 82.3623 119.993 82.3623C121.664 82.3623 123.018 83.7237 123.018 85.403Z" fill="white"/>
<path d="M121.161 93.8561C121.161 95.5355 119.806 96.8968 118.136 96.8968C116.465 96.8968 115.11 95.5355 115.11 93.8561C115.11 92.1768 116.465 90.8154 118.136 90.8154C119.806 90.8154 121.161 92.1768 121.161 93.8561Z" fill="white"/>
<path d="M118.314 106.789C118.314 108.468 116.96 109.829 115.289 109.829C113.618 109.829 112.264 108.468 112.264 106.789C112.264 105.109 113.618 103.748 115.289 103.748C116.96 103.748 118.314 105.109 118.314 106.789Z" fill="white"/>
<path d="M43.8025 125.238V22.048L37.7452 27.5271V125.238H43.8025Z" fill="white"/>
<path d="M31.8398 125.238V32.854L28.8115 35.2892V125.238H31.8398Z" fill="white"/>
<path d="M55.0076 125.238V12.0029L58.4903 8.95898V125.238H55.0076Z" fill="white"/>
<path d="M65.5305 6.42862L122.792 58.5142L119.316 74.3653L125.275 75.4424L128.827 59.2487C129.217 57.4717 128.629 55.6211 127.286 54.4001L68.9205 1.31024C67.0142 -0.423695 64.1153 -0.438315 62.1918 1.2763L2.64198 54.36C1.25047 55.6004 0.651373 57.51 1.0833 59.3284L16.4713 124.109C17.0132 126.39 19.0419 128 21.3755 128H109.695C112.062 128 114.11 126.346 114.619 124.023L118.096 108.17L118.171 107.83L112.362 106.068L108.885 121.919H22.1714L7.10862 58.5068L65.5305 6.42862Z" fill="white"/>
<path d="M115.839 90.2164L115.197 93.1413L121.066 94.6305L121.723 91.636L122.973 85.9398L117.079 84.5602L115.839 90.2164Z" fill="white"/>
</svg>
