<svg viewBox="0 0 127 127" fill="none" xmlns="http://www.w3.org/2000/svg">
<path d="M60.7384 6.09503C62.6458 4.40336 65.5206 4.41779 67.411 6.12853L72.1789 10.4433L94.3549 30.5121L121.826 55.3725C123.157 56.5771 123.74 58.403 123.354 60.1562L120.167 74.6099L118.956 80.1019L110.116 120.199C109.611 122.491 107.58 124.123 105.234 124.123H22.8748C20.5607 124.123 18.5489 122.535 18.0115 120.284L8.57301 80.7519L7.28114 75.3411L5.84567 69.3288L3.67443 60.2348C3.24611 58.4408 3.84021 56.5567 5.22013 55.3329L33.5342 30.2218L60.7384 6.09503Z" fill="#0072B1"/>
<path d="M22.6605 124.123C20.4729 124.123 18.5712 122.621 18.0631 120.494L14.4093 105.19C14.0058 103.5 14.5085 101.722 15.737 100.493L60.5221 55.708C62.4747 53.7554 65.6406 53.7554 67.5932 55.708L112.149 100.264C113.356 101.47 113.863 103.209 113.496 104.876L110.071 120.414C109.593 122.58 107.673 124.123 105.455 124.123H64.0576H22.6605Z" fill="#3509B4"/>
<path d="M73.4815 11.7476L64.4818 20.7474L68.4995 24.765L77.68 15.5845L73.4815 11.7476Z" fill="white"/>
<path fill-rule="evenodd" clip-rule="evenodd" d="M9.41488 83.8496L7.94141 77.2878L61.8727 23.3565L65.8903 27.3742L64.4818 28.7827L64.262 29.0025L9.41488 83.8496Z" fill="white"/>
<path d="M64.4818 20.7474L61.8727 23.3565L65.8903 27.3742L68.4995 24.765L64.4818 20.7474Z" fill="white"/>
<path d="M120.47 72.9284L121.46 68.7097L70.0539 17.304L67.4448 19.9131L120.47 72.9284Z" fill="white"/>
<path d="M70.0539 17.304L60.675 7.92529L57.885 10.3535L67.4448 19.9131L70.0539 17.304Z" fill="white"/>
<path d="M64.0587 6.82184L120.843 58.2104L117.396 73.8494L123.305 74.912L126.828 58.9351C127.214 57.1819 126.631 55.356 125.3 54.1513L67.4204 1.77196C65.5301 0.0612229 62.6553 0.0467991 60.7478 1.73847L1.69425 54.1117C0.314333 55.3355 -0.279771 57.2197 0.148555 59.0137L15.4083 122.927C15.9457 125.178 17.9575 126.766 20.2716 126.766H107.856C110.202 126.766 112.233 125.134 112.738 122.843L116.187 107.202L116.261 106.866L110.5 105.127L107.052 120.766H21.061L6.12367 58.2031L64.0587 6.82184Z" fill="white"/>
<path d="M113.948 89.4883L113.312 92.3741L119.132 93.8434L119.783 90.8889L121.022 85.269L115.178 83.9078L113.948 89.4883Z" fill="white"/>
<path d="M123.366 74.2751C123.366 75.932 122.023 77.2751 120.366 77.2751C118.709 77.2751 117.366 75.932 117.366 74.2751C117.366 72.6183 118.709 71.2751 120.366 71.2751C122.023 71.2751 123.366 72.6183 123.366 74.2751Z" fill="white"/>
<path d="M121.067 84.7397C121.067 86.3966 119.724 87.7397 118.067 87.7397C116.411 87.7397 115.067 86.3966 115.067 84.7397C115.067 83.0829 116.411 81.7397 118.067 81.7397C119.724 81.7397 121.067 83.0829 121.067 84.7397Z" fill="white"/>
<path d="M119.226 93.0793C119.226 94.7362 117.882 96.0793 116.226 96.0793C114.569 96.0793 113.226 94.7362 113.226 93.0793C113.226 91.4225 114.569 90.0793 116.226 90.0793C117.882 90.0793 119.226 91.4225 119.226 93.0793Z" fill="white"/>
<path d="M116.402 105.839C116.402 107.496 115.059 108.839 113.402 108.839C111.745 108.839 110.402 107.496 110.402 105.839C110.402 104.183 111.745 102.839 113.402 102.839C115.059 102.839 116.402 104.183 116.402 105.839Z" fill="white"/>
<path d="M60.7276 5.61578C62.6351 3.92411 65.5099 3.93855 67.4002 5.64928L72.1681 9.96409L94.3442 30.0328L121.815 54.8932C123.146 56.0979 123.729 57.9238 123.343 59.677L120.156 74.1307L118.946 79.6226L110.106 119.72C109.6 122.012 107.569 123.644 105.223 123.644H22.8641C20.5499 123.644 18.5382 122.056 18.0008 119.805L8.56227 80.2727L7.2704 74.8618L5.83492 68.8495L3.66369 59.7555C3.23537 57.9616 3.82947 56.0774 5.20939 54.8536L33.5234 29.7425L60.7276 5.61578Z" fill="#0072B1"/>
<path d="M22.6497 123.643C20.4622 123.643 18.5604 122.142 18.0524 120.015L14.3985 104.711C13.995 103.021 14.4977 101.242 15.7263 100.014L60.5114 55.2289C62.464 53.2763 65.6298 53.2762 67.5824 55.2289L112.138 99.7845C113.345 100.991 113.853 102.73 113.485 104.397L110.06 119.934C109.582 122.101 107.662 123.643 105.444 123.643H64.0469H22.6497Z" fill="#3509B4"/>
<path d="M9.40365 83.3705L7.93018 76.8088L61.4714 23.2674L52.7734 16.384L58.2079 11.715C60.5831 13.8237 63.2291 16.1738 66.0545 18.6843L68.9783 15.7606L73.4703 11.2686L81.6296 19.5222L74.2931 26.0077C95.4834 44.8514 121.151 67.7347 121.448 68.2306L120.953 70.34L69.8724 29.9157L9.40365 83.3705Z" fill="white"/>
<path d="M64.048 6.34259L120.833 57.7312L117.385 73.3701L123.295 74.4327L126.817 58.4558C127.203 56.7026 126.62 54.8767 125.289 53.6721L67.4097 1.29271C65.5193 -0.418025 62.6445 -0.432449 60.7371 1.25922L1.68351 53.6325C0.303591 54.8563 -0.290513 56.7404 0.137813 58.5344L15.3976 122.448C15.935 124.699 17.9467 126.287 20.2609 126.287H107.845C110.192 126.287 112.222 124.655 112.728 122.363L116.176 106.723L116.25 106.387L110.489 104.648L107.041 120.287H21.0502L6.11293 57.7238L64.048 6.34259Z" fill="white"/>
<path d="M113.937 89.0091L113.301 91.8949L119.121 93.3641L119.772 90.4097L121.011 84.7897L115.167 83.4286L113.937 89.0091Z" fill="white"/>
<path d="M123.355 73.7959C123.355 75.4528 122.012 76.7959 120.355 76.7959C118.698 76.7959 117.355 75.4528 117.355 73.7959C117.355 72.139 118.698 70.7959 120.355 70.7959C122.012 70.7959 123.355 72.139 123.355 73.7959Z" fill="white"/>
<path d="M121.057 84.2607C121.057 85.9176 119.713 87.2607 118.057 87.2607C116.4 87.2607 115.057 85.9176 115.057 84.2607C115.057 82.6039 116.4 81.2607 118.057 81.2607C119.713 81.2607 121.057 82.6039 121.057 84.2607Z" fill="white"/>
<path d="M119.215 92.6001C119.215 94.257 117.872 95.6001 116.215 95.6001C114.558 95.6001 113.215 94.257 113.215 92.6001C113.215 90.9432 114.558 89.6001 116.215 89.6001C117.872 89.6001 119.215 90.9432 119.215 92.6001Z" fill="white"/>
<path d="M116.391 105.36C116.391 107.017 115.048 108.36 113.391 108.36C111.734 108.36 110.391 107.017 110.391 105.36C110.391 103.703 111.734 102.36 113.391 102.36C115.048 102.36 116.391 103.703 116.391 105.36Z" fill="white"/>
</svg>
