<svg viewBox="0 0 80 80" fill="none" xmlns="http://www.w3.org/2000/svg">
    <path fill-rule="evenodd" clip-rule="evenodd"
        d="M36.2329 8.2194C21.5706 9.93886 9.93886 21.5706 8.2194 36.2329L36.2329 8.2194ZM8.29271 44.3465C10.2205 58.5423 21.4577 69.7795 35.6535 71.7073L8.29271 44.3465ZM43.3346 71.8283C58.3446 70.2742 70.2742 58.3446 71.8283 43.3346L43.3346 71.8283ZM71.8813 37.2244C70.5531 21.7656 58.2344 9.44687 42.7756 8.1187L71.8813 37.2244ZM40 0C17.9086 0 0 17.9086 0 40C0 62.0914 17.9086 80 40 80C62.0914 80 80 62.0914 80 40C80 17.9086 62.0914 0 40 0ZM15.5129 40.253L39.5546 16.2114L63.5962 40.253L39.5546 64.2947L15.5129 40.253Z" />
</svg>