<svg viewBox="0 0 61 86" fill="none" xmlns="http://www.w3.org/2000/svg">
    <path fill-rule="evenodd" clip-rule="evenodd"
        d="M30 0C32.2091 0 34 1.79086 34 4V36.3431L53.6716 16.6716C54.8156 15.5276 56.536 15.1854 58.0307 15.8045C59.5254 16.4236 60.5 17.8822 60.5 19.5V68.5C60.5 70.1178 59.5254 71.5764 58.0307 72.1955C56.536 72.8146 54.8156 72.4724 53.6716 71.3284L34 51.6569V82C34 84.2091 32.2091 86 30 86C27.7909 86 26 84.2091 26 82V52.1569L6.82843 71.3284C5.68443 72.4724 3.96396 72.8146 2.46927 72.1955C0.974569 71.5764 0 70.1178 0 68.5V19.5C0 17.8822 0.974569 16.4236 2.46927 15.8045C3.96396 15.1854 5.68443 15.5276 6.82843 16.6716L26 35.8431V4C26 1.79086 27.7909 0 30 0ZM37.6569 44L52.5 58.8431V29.1569L37.6569 44ZM8 58.8431L22.8431 44L8 29.1569V58.8431Z" />
</svg>