<svg width="192" height="50" viewBox="0 0 192 50" fill="none" xmlns="http://www.w3.org/2000/svg">
    <g clip-path="url(#clip0_1685_31949)">
        <path
            d="M14.026 49.2464H13.9026C13.8533 49.2464 13.7338 49.2672 13.5449 49.3081C13.3557 49.3492 13.22 49.3863 13.1379 49.419H7.43952C7.39985 49.3605 7.35872 49.3029 7.31617 49.2464C7.2175 49.115 7.15969 49.0244 7.14352 48.975V48.827C7.14352 48.6135 7.22984 48.449 7.40256 48.3337C7.57521 48.2189 7.77644 48.1364 8.0069 48.087C8.24269 48.037 8.48178 48.004 8.72232 47.9884C8.96895 47.9722 9.15784 47.9391 9.28963 47.8897C9.40454 47.8242 9.54016 47.7294 9.69671 47.606C9.85276 47.4827 9.96376 47.3717 10.0297 47.273C10.0459 47.2237 10.0667 47.1293 10.0914 46.9893C10.1161 46.8498 10.1365 46.7057 10.1531 46.5577C10.1693 46.4097 10.1816 46.2702 10.19 46.1384C10.1981 46.0069 10.2024 45.9163 10.2024 45.867C10.2351 45.5382 10.301 45.2052 10.3997 44.868C10.4984 44.5311 10.5477 44.1981 10.5477 43.8689V40.9335C10.5477 40.9174 10.5558 40.868 10.5724 40.7855C10.5886 40.7035 10.6009 40.6213 10.6094 40.5389C10.6175 40.4568 10.6298 40.3785 10.6464 40.3045C10.6626 40.2305 10.6711 40.1854 10.6711 40.1688V40.0209C10.6711 39.9387 10.6545 39.7989 10.6217 39.6015C10.5886 39.4042 10.564 39.2647 10.5477 39.1822L10.4491 33.3361L10.4244 32.892V29.0192C10.4244 28.9865 10.3751 28.8959 10.2764 28.7479C10.1777 28.5999 10.0953 28.485 10.0297 28.4025C9.89787 28.2052 9.67585 28.0533 9.36368 27.9462C9.04706 27.8384 8.72607 27.7437 8.40156 27.6626C8.07244 27.5804 7.7807 27.4818 7.52591 27.3666C7.27069 27.2517 7.14352 27.0871 7.14352 26.8732C7.14352 26.7252 7.18863 26.6103 7.27921 26.5279C7.36943 26.4457 7.47654 26.3841 7.59989 26.3428C7.72324 26.302 7.85894 26.2774 8.00697 26.2688C8.15493 26.2608 8.27829 26.2566 8.37695 26.2566H8.67295C8.73849 26.2566 8.87028 26.2608 9.06769 26.2688C9.26502 26.2774 9.46618 26.2897 9.67202 26.3059C9.87744 26.3225 10.0748 26.3347 10.264 26.3428C10.4529 26.3513 10.5886 26.3637 10.6711 26.3799L10.8191 26.5525H10.9918C11.0245 26.5197 11.1028 26.4828 11.2261 26.4415C11.3495 26.4006 11.4273 26.3799 11.4605 26.3799H14.3959C14.4615 26.3799 14.5933 26.3676 14.7907 26.3428C14.988 26.3182 15.1029 26.2897 15.136 26.2565H21.9691C22.0019 26.2897 22.0759 26.3182 22.1911 26.3428C22.306 26.3675 22.3885 26.3799 22.4378 26.3799H24.1399C24.4687 26.4131 24.7235 26.5278 24.9046 26.7252C25.0854 26.9225 25.2415 27.1777 25.3733 27.4899V29.3152C25.3733 29.3484 25.4019 29.4552 25.4597 29.6359C25.5171 29.8171 25.546 29.9157 25.546 29.932V30.1539C25.546 30.2199 25.5337 30.3432 25.509 30.524C25.4832 30.711 25.4461 30.8964 25.398 31.079C25.3487 31.2682 25.287 31.4366 25.213 31.5847C25.139 31.7326 25.0527 31.8066 24.954 31.8066H24.9293C24.6495 31.5931 24.436 31.3958 24.2879 31.2146C24.14 31.0339 23.9919 30.82 23.8439 30.5733C23.8107 30.5078 23.7576 30.4006 23.6835 30.2527C23.6096 30.1046 23.5478 29.9979 23.4985 29.932C23.416 29.7184 23.2928 29.4841 23.1286 29.229C22.9648 28.9753 22.7746 28.7396 22.5612 28.526C22.3503 28.3147 22.1092 28.1359 21.8458 27.9955C21.5825 27.856 21.3193 27.7859 21.0564 27.7859H15.7527C15.6702 27.7038 15.6004 27.6545 15.543 27.6379C15.4852 27.6217 15.4074 27.6132 15.3087 27.6132H15.136C15.0701 27.6464 14.9591 27.6995 14.803 27.7736C14.6465 27.8476 14.5521 27.9093 14.5194 27.9586C14.5028 27.9586 14.4904 27.9955 14.4823 28.0696C14.4738 28.1436 14.4657 28.2261 14.4576 28.3162C14.4492 28.4068 14.441 28.4889 14.433 28.5629C14.4245 28.6369 14.4122 28.6824 14.396 28.6986C14.396 28.7317 14.3752 28.7849 14.3343 28.8589C14.2931 28.9329 14.2561 28.9865 14.2233 29.0192C14.2233 29.1838 14.2148 29.4633 14.1986 29.8579C14.182 30.2527 14.1655 30.6681 14.1493 31.1037C14.1327 31.5396 14.1161 31.9547 14.0999 32.3493C14.0833 32.744 14.0668 33.0154 14.0506 33.1633V34.076C14.0668 34.1747 14.0834 34.3312 14.0999 34.5447C14.1162 34.7587 14.1327 34.9807 14.1493 35.2107C14.1655 35.4412 14.1821 35.6547 14.1986 35.8521C14.2148 36.0494 14.2233 36.1894 14.2233 36.2714C14.2888 36.3208 14.396 36.3743 14.544 36.4318C14.692 36.4895 14.8439 36.5427 15.0003 36.5921C15.1497 36.6398 15.3022 36.6769 15.4567 36.7031C15.6047 36.7278 15.7196 36.7401 15.8021 36.7401H16.0981C16.5128 36.7071 16.9282 36.6824 17.3439 36.6661C17.7632 36.6499 18.1494 36.584 18.5032 36.4688C18.8567 36.3539 19.1693 36.1647 19.4406 35.9014C19.712 35.6386 19.897 35.2439 19.9956 34.7174C19.9956 34.6681 20.0037 34.5694 20.0203 34.4214C20.0365 34.2734 20.0531 34.1173 20.0696 33.9527C20.0859 33.7885 20.1025 33.6321 20.119 33.484C20.1352 33.3361 20.1437 33.2292 20.1437 33.1633C20.2092 33.032 20.3491 32.8963 20.563 32.7563C20.7766 32.6168 20.9577 32.5467 21.1057 32.5467C21.3524 32.5467 21.5332 32.6415 21.6484 32.8303C21.7633 33.0196 21.8211 33.2211 21.8211 33.4347C21.8211 33.6159 21.8168 33.78 21.8088 33.9281C21.8003 34.076 21.7633 34.2406 21.6978 34.4214V39.3548C21.7633 39.4866 21.8003 39.6181 21.8088 39.7495C21.8169 39.8814 21.8211 40.0128 21.8211 40.1442V41.2542C21.8211 41.5009 21.7756 41.7148 21.6854 41.8956C21.5949 42.0768 21.3851 42.1669 21.0564 42.1669C20.7931 42.1669 20.5877 42.0725 20.4397 41.8833C20.2917 41.6944 20.1765 41.4516 20.0943 41.1556C20.0119 40.8596 19.9464 40.5473 19.897 40.2182C19.8477 39.8894 19.786 39.5768 19.712 39.2808C19.638 38.9848 19.5393 38.7424 19.416 38.5532C19.2926 38.3643 19.1076 38.2695 18.861 38.2695H18.5896C18.5564 38.2861 18.4701 38.3026 18.3306 38.3188C18.1906 38.3354 18.0384 38.352 17.8742 38.3682C17.7097 38.3848 17.5616 38.4013 17.4302 38.4175C17.2983 38.4341 17.2243 38.4422 17.2082 38.4422H15.4814C15.1688 38.508 14.9221 38.6271 14.7413 38.7999C14.5601 38.9725 14.4206 39.1783 14.322 39.4165C14.2233 39.6551 14.1617 39.9141 14.137 40.1935C14.1123 40.4734 14.0999 40.7608 14.0999 41.0569V41.9202C14.0999 42.0189 14.0915 42.1175 14.0753 42.2162C14.0587 42.3149 14.0506 42.4055 14.0506 42.4876C14.0506 42.5207 14.026 42.6194 13.9766 42.7835C13.9273 42.9482 13.9026 43.0468 13.9026 43.0796V45.1516C13.9026 45.5301 13.9188 45.8835 13.952 46.2124C13.9847 46.5415 14.0753 46.8949 14.2234 47.273C14.618 47.5035 15.0003 47.6268 15.3704 47.6431C15.7404 47.6597 16.1309 47.6843 16.5421 47.717C16.6077 47.717 16.7556 47.7336 16.9862 47.7664C17.2163 47.7995 17.463 47.8404 17.7262 47.8897C17.9891 47.9391 18.2358 47.9803 18.4662 48.0131C18.6963 48.0462 18.8444 48.0624 18.9103 48.0624H20.267C20.267 48.079 20.3121 48.124 20.4027 48.1981C20.4929 48.2721 20.563 48.3176 20.6124 48.3337H20.7358C20.7882 48.316 20.838 48.2911 20.8837 48.2597C20.9165 48.2435 20.9493 48.227 20.9824 48.2104C21.0151 48.1942 21.0398 48.1857 21.0564 48.1857C21.0891 48.1857 21.1385 48.2312 21.2044 48.3214C21.2699 48.412 21.3193 48.4737 21.3524 48.5064H21.5251C21.5251 48.4736 21.5412 48.412 21.5744 48.3214C21.6072 48.2312 21.6484 48.1857 21.6978 48.1857H21.8211C22.8078 47.6103 23.6381 46.8949 24.3126 46.0396C24.9928 45.1768 25.6508 44.2967 26.2861 43.4003L26.3601 43.3756C26.3762 43.3756 26.3886 43.3798 26.3971 43.3879C26.4052 43.3964 26.4175 43.4002 26.4341 43.4002H26.4587C26.4749 43.4002 26.5204 43.4415 26.5944 43.5236C26.6684 43.606 26.7135 43.6635 26.7301 43.6963V44.7816C26.7301 44.8803 26.7135 45.0614 26.6808 45.3244C26.6476 45.5875 26.6191 45.867 26.5944 46.1631C26.5714 46.4432 26.5426 46.7228 26.5081 47.0017C26.4749 47.2649 26.4587 47.4457 26.4587 47.5444C26.3601 47.6762 26.2984 47.8158 26.2738 47.9637C26.2498 48.1077 26.2251 48.2516 26.1997 48.3954C26.1764 48.5292 26.1435 48.6611 26.101 48.7901C26.0598 48.9134 25.9735 49.0244 25.8421 49.123C25.7434 49.123 25.5584 49.1274 25.287 49.1354C25.0156 49.1439 24.732 49.1562 24.436 49.1724C24.1399 49.189 23.8601 49.2056 23.5973 49.2217C23.334 49.2383 23.1532 49.2464 23.0545 49.2464C23.0379 49.2464 22.9844 49.263 22.8942 49.2958C22.7939 49.3328 22.6951 49.3739 22.5981 49.419C22.5012 49.4641 22.4024 49.5052 22.3022 49.5425C22.2116 49.5752 22.158 49.5918 22.1418 49.5918C22.1086 49.5918 22.0019 49.5629 21.8211 49.5054C21.64 49.4476 21.5412 49.419 21.5251 49.419H21.4264C21.0479 49.419 20.6617 49.4476 20.267 49.5054C19.8723 49.5628 19.461 49.5918 19.0336 49.5918C18.1949 49.5918 17.36 49.5339 16.5298 49.419C15.7001 49.3041 14.8635 49.2464 14.026 49.2464ZM34.6239 48.5804C34.6239 48.3996 34.7264 48.2104 34.9323 48.0131C35.1377 47.8157 35.3474 47.7009 35.5613 47.6677L38.0528 47.3471C38.1349 47.3471 38.2417 47.2568 38.3735 47.0757C38.5049 46.8949 38.6036 46.7388 38.6695 46.607V45.349C38.6695 44.6256 38.6487 43.9144 38.6079 43.2153C38.5666 42.5165 38.5462 41.7969 38.5462 41.0569V40.7115C38.6124 39.8909 38.6494 39.0681 38.6572 38.2448C38.6652 37.4061 38.6695 36.5593 38.6695 35.7041V32.7687C38.6363 32.5058 38.616 32.1809 38.6079 31.7943C38.5998 31.42 38.5874 31.0459 38.5708 30.6719C38.5542 30.2445 38.5376 29.8086 38.5215 29.3646L38.3488 29.2412C38.3322 29.2412 38.2294 29.2332 38.0405 29.2166C37.8145 29.1977 37.5884 29.1812 37.3621 29.1673C37.0989 29.1511 36.8317 29.1345 36.5603 29.1179C36.289 29.1017 36.0708 29.0852 35.9066 29.0686H35.1174C35.0349 29.0686 34.8992 29.0728 34.7103 29.0809C34.5211 29.0894 34.3237 29.1018 34.1183 29.1179C33.9125 29.1345 33.7112 29.1549 33.5139 29.1796C33.3166 29.2043 33.1848 29.2251 33.1192 29.2412C33.086 29.2412 33.0329 29.2536 32.9589 29.2783C32.8849 29.3029 32.8313 29.3318 32.7986 29.3646C32.7492 29.3978 32.6586 29.4633 32.5272 29.5619C32.4652 29.6088 32.3992 29.6501 32.3298 29.6853C32.3132 29.7185 32.2763 29.7839 32.2188 29.8826C32.1536 29.994 32.0879 30.105 32.0215 30.2156C31.953 30.3292 31.8872 30.4444 31.8242 30.561C31.7663 30.6681 31.7293 30.7378 31.7132 30.7707C31.6966 30.7873 31.6677 30.8242 31.6268 30.8816C31.5855 30.9394 31.5404 31.005 31.4911 31.0789C31.4418 31.153 31.3678 31.2559 31.2691 31.3873C31.2198 31.4366 31.1539 31.5272 31.0718 31.6587C30.9834 31.7997 30.8929 31.9395 30.8004 32.078C30.7079 32.2165 30.6174 32.3563 30.529 32.4974C30.4725 32.5885 30.415 32.6789 30.3564 32.7687C30.2411 32.8512 30.1383 32.8963 30.048 32.9044C29.9537 32.9129 29.8591 32.917 29.7644 32.9166C29.6325 32.9166 29.5258 32.9044 29.4437 32.8797C29.3612 32.855 29.3037 32.7772 29.271 32.6453V31.4366C29.271 30.6804 29.3574 29.9528 29.53 29.2536C29.7027 28.5548 29.8218 27.8271 29.8877 27.0705C29.9204 26.9391 29.9945 26.8528 30.1097 26.8115C30.2246 26.7707 30.3317 26.7499 30.4304 26.7499H30.9731C30.9893 26.7499 31.0348 26.8035 31.1088 26.9101C31.1828 27.0173 31.236 27.0705 31.2691 27.0705C31.3347 27.1037 31.458 27.1364 31.6392 27.1692C31.8199 27.2024 31.9513 27.2185 32.0338 27.2185H35.4381C35.6516 27.301 35.7957 27.3462 35.8697 27.3542C35.9437 27.3627 36.0628 27.3665 36.2274 27.3665H36.5235C36.6055 27.3665 36.8195 27.3584 37.1648 27.3419C37.5102 27.3257 37.8802 27.3091 38.2749 27.2925C38.6491 27.2772 39.0232 27.2608 39.3973 27.2432C39.7507 27.227 39.9685 27.2185 40.051 27.2185H48.9562C48.989 27.2185 49.0549 27.2063 49.1536 27.1815C49.261 27.1546 49.3679 27.1259 49.4743 27.0952C49.5856 27.0635 49.6966 27.0306 49.8073 26.9965C49.9141 26.9638 49.9923 26.9391 50.0416 26.9226C50.1072 26.8732 50.1731 26.8077 50.239 26.7252C50.3102 26.6365 50.3842 26.5501 50.461 26.4662C50.5416 26.3773 50.6327 26.2986 50.7324 26.2319C50.831 26.1664 50.9459 26.1332 51.0777 26.1332C51.2419 26.1332 51.3818 26.1825 51.497 26.2812C51.6119 26.3798 51.7068 26.4993 51.7807 26.6389C51.8547 26.7788 51.9122 26.931 51.9534 27.0952C51.9943 27.2598 52.0151 27.4077 52.0151 27.5392C52.0313 27.6217 52.0479 27.7327 52.0644 27.8723C52.0806 28.0121 52.0972 28.1559 52.1138 28.3039C52.1299 28.4519 52.1465 28.5837 52.1631 28.6986C52.1793 28.8138 52.1878 28.8798 52.1878 28.8959V32.4727C52.1219 32.6206 52.056 32.7316 51.9904 32.8057C51.9245 32.8797 51.7931 32.9167 51.5958 32.9167H51.3984C51.3652 32.9005 51.2708 32.8099 51.1147 32.6453C50.9582 32.4811 50.8472 32.3659 50.7817 32.3C50.7485 32.2507 50.683 32.1439 50.5843 31.9793C50.4778 31.8023 50.3709 31.6255 50.2637 31.449C50.1551 31.2707 50.0441 31.0939 49.9306 30.9186C49.8235 30.7544 49.7456 30.6472 49.6963 30.5979C49.6631 30.5487 49.5934 30.4666 49.4866 30.3513C49.3694 30.226 49.2502 30.1026 49.1289 29.9813C49.0035 29.8559 48.876 29.7325 48.7466 29.6113C48.6232 29.4964 48.5369 29.414 48.4875 29.3646C48.3064 29.3318 48.109 29.2744 47.8955 29.1919C47.6816 29.1098 47.4677 29.0686 47.2541 29.0686H47.0815C47.0648 29.0686 46.9662 29.0975 46.7855 29.1549C46.6043 29.2127 46.4975 29.2412 46.4648 29.2412H46.292C46.2589 29.2251 46.1441 29.1962 45.9467 29.1549C45.7374 29.1116 45.5278 29.0705 45.3177 29.0316C45.109 28.9927 44.8992 28.9598 44.6886 28.9329C44.4913 28.9083 44.368 28.8959 44.3186 28.8959H44.0227C43.5454 28.8959 43.2332 29.0562 43.0852 29.3769C42.9372 29.6976 42.8632 30.0638 42.8632 30.4746C42.8632 30.7707 42.8755 31.0628 42.9002 31.3503C42.9248 31.6382 42.9372 31.8972 42.9372 32.1273C42.9372 32.1605 42.9287 32.2221 42.9125 32.3123C42.8959 32.4029 42.8794 32.5015 42.8632 32.6084C42.8479 32.7072 42.8315 32.8059 42.8138 32.9043C42.7972 32.9949 42.7892 33.0566 42.7892 33.0894C42.7892 33.1719 42.7973 33.3649 42.8138 33.669C42.83 33.9735 42.8466 34.3065 42.8632 34.6681C42.8794 35.03 42.896 35.3711 42.9125 35.6918C42.9287 36.0125 42.9372 36.2221 42.9372 36.3208V40.8842C42.9534 41.0981 42.9742 41.4681 42.9989 41.9943C43.0235 42.5207 43.052 43.0796 43.0852 43.6717C43.118 44.2636 43.1469 44.8186 43.1715 45.3366C43.1962 45.8547 43.2167 46.2208 43.2332 46.4343C43.3481 46.6482 43.525 46.8128 43.7636 46.9277C44.0018 47.0429 44.265 47.1374 44.5529 47.2114C44.8428 47.2859 45.1348 47.3517 45.4287 47.4087C45.7247 47.4665 45.996 47.5405 46.2428 47.6307C46.4894 47.7213 46.6906 47.8404 46.8471 47.9884C47.0032 48.1363 47.0815 48.3337 47.0815 48.5804C47.0815 48.8109 47.0075 48.9959 46.8594 49.1355C46.7115 49.2753 46.5345 49.3821 46.3291 49.4561C46.1232 49.5301 45.9055 49.5832 45.6754 49.6165C45.4449 49.6492 45.256 49.6657 45.1081 49.6657C45.0586 49.6657 44.9515 49.6369 44.7873 49.5794C44.6227 49.5216 44.5159 49.4931 44.4666 49.4931C44.368 49.4765 44.2034 49.4518 43.9732 49.419C43.7428 49.3863 43.6032 49.3697 43.5539 49.3697H41.0871C41.0539 49.3536 40.9842 49.3246 40.8774 49.2834C40.7702 49.2426 40.7005 49.2217 40.6677 49.2217C40.6511 49.2217 40.5937 49.2302 40.495 49.2464C40.3963 49.263 40.2892 49.2796 40.1743 49.2958C40.0591 49.3124 39.9439 49.3289 39.829 49.3451C39.7138 49.3617 39.6316 49.3697 39.5823 49.3697C39.0889 49.4846 38.6364 49.5547 38.2255 49.5794C37.8143 49.6041 37.3456 49.6326 36.8195 49.6657C36.7702 49.6657 36.6838 49.6738 36.5604 49.6904C36.4284 49.7081 36.2968 49.7286 36.1658 49.7521C36.0259 49.7768 35.8983 49.7972 35.7834 49.8138C35.6682 49.83 35.5942 49.8384 35.5614 49.8384C35.4296 49.8384 35.3105 49.7929 35.2037 49.7027C35.0965 49.6122 34.9979 49.497 34.9077 49.3574C34.8171 49.2179 34.7473 49.078 34.698 48.9381C34.6487 48.7985 34.624 48.6791 34.624 48.5804H34.6239ZM61.8083 49.2464H61.685C61.6357 49.2464 61.5161 49.2672 61.3273 49.3081C61.138 49.3492 61.0024 49.3863 60.9202 49.419H55.2219C55.1822 49.3605 55.1411 49.3029 55.0985 49.2464C54.9999 49.115 54.9421 49.0244 54.9259 48.975V48.827C54.9259 48.6135 55.0122 48.449 55.1849 48.3337C55.3576 48.2189 55.5588 48.1364 55.7892 48.087C56.025 48.037 56.2641 48.004 56.5047 47.9884C56.7513 47.9722 56.9402 47.9391 57.072 47.8897C57.1869 47.8242 57.3226 47.7294 57.4791 47.606C57.6352 47.4827 57.7461 47.3717 57.8121 47.273C57.8283 47.2237 57.849 47.1293 57.8737 46.9893C57.8984 46.8498 57.9188 46.7057 57.9354 46.5577C57.9516 46.4097 57.9639 46.2702 57.9724 46.1384C57.9805 46.0069 57.9847 45.9163 57.9847 45.867C58.0175 45.5382 58.0834 45.2052 58.1821 44.868C58.2807 44.5311 58.3301 44.1981 58.3301 43.8689V40.9335C58.3301 40.9174 58.3382 40.868 58.3548 40.7855C58.3709 40.7035 58.3833 40.6213 58.3917 40.5389C58.3999 40.4568 58.4122 40.3785 58.4288 40.3045C58.4449 40.2305 58.4534 40.1854 58.4534 40.1688V40.0209C58.4534 39.9387 58.4368 39.7989 58.4041 39.6015C58.3709 39.4042 58.3463 39.2647 58.3301 39.1822L58.2314 33.3361L58.2067 32.892V29.0192C58.2067 28.9865 58.1574 28.8959 58.0588 28.7479C57.96 28.5999 57.8776 28.485 57.8121 28.4025C57.6802 28.2052 57.4582 28.0533 57.146 27.9462C56.8294 27.8384 56.5084 27.7437 56.1839 27.6626C55.8548 27.5804 55.563 27.4818 55.3083 27.3666C55.053 27.2517 54.9259 27.0871 54.9259 26.8732C54.9259 26.7252 54.971 26.6103 55.0616 26.5279C55.1518 26.4457 55.2589 26.3841 55.3822 26.3428C55.5056 26.302 55.6413 26.2774 55.7893 26.2688C55.9373 26.2608 56.0606 26.2566 56.1593 26.2566H56.4553C56.5208 26.2566 56.6526 26.2608 56.85 26.2688C57.0474 26.2774 57.2485 26.2897 57.4544 26.3059C57.6598 26.3225 57.8571 26.3347 58.0464 26.3428C58.2353 26.3513 58.3709 26.3637 58.4534 26.3799L58.6014 26.5525H58.7741C58.8069 26.5197 58.8851 26.4828 59.0085 26.4415C59.1318 26.4006 59.2096 26.3799 59.2428 26.3799H62.1784C62.2439 26.3799 62.3757 26.3676 62.573 26.3428C62.7704 26.3182 62.8853 26.2897 62.9184 26.2565H69.7515C69.7842 26.2897 69.8583 26.3182 69.9735 26.3428C70.0884 26.3675 70.1708 26.3799 70.2202 26.3799H71.9223C72.2511 26.4131 72.5058 26.5278 72.687 26.7252C72.8678 26.9225 73.0239 27.1777 73.1557 27.4899V29.3152C73.1557 29.3484 73.1842 29.4552 73.242 29.6359C73.2995 29.8171 73.3283 29.9157 73.3283 29.932V30.1539C73.3283 30.2199 73.3161 30.3432 73.2914 30.524C73.2655 30.711 73.2285 30.8964 73.1804 31.079C73.131 31.2682 73.0694 31.4366 72.9954 31.5847C72.9213 31.7326 72.835 31.8066 72.7363 31.8066H72.7117C72.4318 31.5931 72.2183 31.3958 72.0703 31.2146C71.9223 31.0339 71.7743 30.82 71.6263 30.5733C71.5931 30.5078 71.5399 30.4006 71.4659 30.2527C71.3919 30.1046 71.3302 29.9979 71.2809 29.932C71.1984 29.7184 71.0751 29.4841 70.9109 29.229C70.7471 28.9753 70.5569 28.7396 70.3435 28.526C70.1327 28.3147 69.8916 28.1359 69.6281 27.9955C69.3649 27.856 69.1017 27.7859 68.8388 27.7859H63.5351C63.4526 27.7038 63.3828 27.6545 63.3254 27.6379C63.2677 27.6217 63.1897 27.6132 63.091 27.6132H62.9184C62.8525 27.6464 62.7415 27.6995 62.5854 27.7736C62.4289 27.8476 62.3344 27.9093 62.3017 27.9586C62.2851 27.9586 62.2728 27.9955 62.2647 28.0696C62.2562 28.1436 62.2481 28.2261 62.24 28.3162C62.2316 28.4068 62.2234 28.4889 62.2153 28.5629C62.2069 28.6369 62.1945 28.6824 62.1784 28.6986C62.1784 28.7317 62.1575 28.7849 62.1166 28.8589C62.0754 28.9329 62.0384 28.9865 62.0056 29.0192C62.0056 29.1838 61.9972 29.4633 61.981 29.8579C61.9644 30.2527 61.9478 30.6681 61.9317 31.1037C61.9151 31.5396 61.8985 31.9547 61.8823 32.3493C61.8657 32.744 61.8492 33.0154 61.833 33.1633V34.076C61.8492 34.1747 61.8658 34.3312 61.8823 34.5447C61.8985 34.7587 61.9151 34.9807 61.9317 35.2107C61.9478 35.4412 61.9644 35.6547 61.981 35.8521C61.9972 36.0494 62.0056 36.1894 62.0056 36.2714C62.0712 36.3208 62.1784 36.3743 62.3263 36.4318C62.4743 36.4895 62.6262 36.5427 62.7827 36.5921C62.932 36.6398 63.0845 36.6769 63.2391 36.7031C63.387 36.7278 63.5019 36.7401 63.5844 36.7401H63.8804C64.2952 36.7072 64.7105 36.6825 65.1262 36.6661C65.5456 36.6499 65.9317 36.584 66.2856 36.4688C66.639 36.3539 66.9516 36.1647 67.223 35.9014C67.4943 35.6386 67.6793 35.2439 67.778 34.7174C67.778 34.6681 67.7861 34.5694 67.8027 34.4214C67.8188 34.2734 67.8354 34.1173 67.8521 33.9527C67.8682 33.7885 67.8848 33.6321 67.9014 33.484C67.9175 33.3361 67.926 33.2292 67.926 33.1633C67.9916 33.032 68.1314 32.8963 68.3454 32.7563C68.559 32.6168 68.74 32.5467 68.8881 32.5467C69.1348 32.5467 69.3155 32.6415 69.4308 32.8303C69.5456 33.0196 69.6035 33.2211 69.6035 33.4347C69.6035 33.6159 69.5992 33.78 69.5912 33.9281C69.5826 34.076 69.5457 34.2406 69.4801 34.4214V39.3548C69.5456 39.4866 69.5826 39.6181 69.5912 39.7495C69.5992 39.8814 69.6034 40.0128 69.6034 40.1442V41.2542C69.6034 41.5009 69.558 41.7148 69.4677 41.8956C69.3772 42.0768 69.1675 42.1669 68.8388 42.1669C68.5755 42.1669 68.3701 42.0725 68.222 41.8833C68.0741 41.6944 67.9588 41.4516 67.8767 41.1556C67.7942 40.8596 67.7287 40.5473 67.6793 40.2182C67.63 39.8894 67.5683 39.5768 67.4943 39.2808C67.4204 38.9848 67.3216 38.7424 67.1983 38.5532C67.0749 38.3643 66.89 38.2695 66.6433 38.2695H66.3719C66.3387 38.2861 66.2525 38.3026 66.1129 38.3188C65.973 38.3354 65.8208 38.352 65.6566 38.3682C65.492 38.3848 65.344 38.4013 65.2125 38.4175C65.0807 38.4341 65.0067 38.4422 64.9905 38.4422H63.2638C62.9512 38.508 62.7045 38.6271 62.5237 38.7999C62.3425 38.9725 62.203 39.1783 62.1043 39.4165C62.0056 39.6551 61.944 39.9141 61.9193 40.1935C61.8946 40.4734 61.8823 40.7608 61.8823 41.0569V41.9202C61.8823 42.0189 61.8738 42.1175 61.8577 42.2162C61.8411 42.3149 61.833 42.4055 61.833 42.4876C61.833 42.5207 61.8083 42.6194 61.7589 42.7835C61.7096 42.9482 61.685 43.0468 61.685 43.0796V45.1516C61.685 45.5301 61.7011 45.8835 61.7343 46.2124C61.7671 46.5415 61.8577 46.8949 62.0057 47.273C62.4004 47.5035 62.7827 47.6268 63.1527 47.6431C63.5227 47.6597 63.9132 47.6843 64.3245 47.717C64.39 47.717 64.538 47.7336 64.7685 47.7664C64.9986 47.7995 65.2453 47.8404 65.5085 47.8897C65.7714 47.9391 66.0181 47.9803 66.2486 48.0131C66.4787 48.0462 66.6268 48.0624 66.6926 48.0624H68.0494C68.0494 48.079 68.0945 48.124 68.1851 48.1981C68.2753 48.2721 68.3454 48.3176 68.3948 48.3337H68.5181C68.5706 48.316 68.6204 48.2911 68.6661 48.2597C68.6988 48.2435 68.7316 48.227 68.7647 48.2104C68.7975 48.1942 68.8222 48.1857 68.8388 48.1857C68.8715 48.1857 68.9209 48.2312 68.9867 48.3214C69.0523 48.412 69.1017 48.4737 69.1347 48.5064H69.3074C69.3074 48.4736 69.3236 48.412 69.3568 48.3214C69.3896 48.2312 69.4308 48.1857 69.4801 48.1857H69.6034C70.5902 47.6103 71.4204 46.8949 72.095 46.0396C72.7751 45.1768 73.4332 44.2967 74.0684 43.4003L74.1424 43.3756C74.1586 43.3756 74.1709 43.3798 74.1795 43.3879C74.1875 43.3964 74.1999 43.4002 74.2164 43.4002H74.2411C74.2573 43.4002 74.3027 43.4415 74.3768 43.5236C74.4508 43.606 74.4959 43.6635 74.5125 43.6963V44.7816C74.5125 44.8803 74.4959 45.0614 74.4631 45.3244C74.4299 45.5875 74.4015 45.867 74.3768 46.1631C74.3537 46.4432 74.3249 46.7228 74.2905 47.0017C74.2573 47.2649 74.2411 47.4457 74.2411 47.5444C74.1424 47.6762 74.0808 47.8158 74.0561 47.9637C74.0314 48.1117 74.0067 48.2558 73.982 48.3954C73.9588 48.5292 73.9258 48.6611 73.8834 48.7901C73.8422 48.9134 73.7558 49.0244 73.6244 49.123C73.5257 49.123 73.3408 49.1274 73.0694 49.1354C72.798 49.1439 72.5143 49.1562 72.2183 49.1724C71.9223 49.189 71.6424 49.2056 71.3796 49.2217C71.1163 49.2383 70.9355 49.2464 70.8369 49.2464C70.8203 49.2464 70.7667 49.263 70.6766 49.2958C70.5762 49.3328 70.4775 49.3739 70.3805 49.419C70.2835 49.4641 70.1848 49.5052 70.0846 49.5425C69.9939 49.5752 69.9403 49.5918 69.9242 49.5918C69.891 49.5918 69.7842 49.5629 69.6035 49.5054C69.4223 49.4476 69.3236 49.419 69.3074 49.419H69.2088C68.8303 49.419 68.444 49.4476 68.0494 49.5054C67.6546 49.5628 67.2434 49.5918 66.8159 49.5918C65.9772 49.5918 65.1424 49.5339 64.3121 49.419C63.4825 49.3041 62.6459 49.2464 61.8083 49.2464ZM78.114 48.9257C78.114 48.5642 78.262 48.3299 78.5581 48.2227C78.854 48.1159 79.1871 48.0338 79.5571 47.976C79.9271 47.9186 80.2763 47.8323 80.6055 47.717C80.9343 47.6022 81.1317 47.3555 81.1975 46.977C81.1975 46.8622 81.2057 46.6648 81.2222 46.385C81.2384 46.1055 81.255 45.8095 81.2716 45.497C81.2877 45.1848 81.3043 44.8926 81.3209 44.6213C81.3371 44.3499 81.3456 44.1568 81.3456 44.0416C81.3456 43.9923 81.3494 43.7129 81.3578 43.2029C81.366 42.6934 81.3702 42.1095 81.3702 41.4516C81.3702 40.794 81.3741 40.1238 81.3825 39.4412C81.3907 38.759 81.3949 38.2201 81.3949 37.8255C81.3949 37.5954 81.3906 37.1841 81.3826 36.5921C81.3741 36.0001 81.3702 35.3673 81.3702 34.6927C81.3702 34.0186 81.366 33.3854 81.3579 32.7934C81.3494 32.2014 81.3456 31.7905 81.3456 31.56C81.3456 31.4945 81.3371 31.375 81.3209 31.2023C81.3043 31.0296 81.2877 30.8446 81.2716 30.6472C81.255 30.45 81.2384 30.2649 81.2222 30.0923C81.2056 29.9196 81.1975 29.8005 81.1975 29.7346C81.1482 29.4386 80.9959 29.2208 80.7412 29.0809C80.486 28.9414 80.19 28.8219 79.8531 28.7232C79.5099 28.6227 79.1686 28.5158 78.8294 28.4025C78.484 28.2878 78.2042 28.1066 77.9907 27.8599C77.9575 27.8437 77.9205 27.7982 77.8797 27.7242C77.8384 27.6502 77.818 27.6051 77.818 27.5885V27.4652C77.818 27.3172 77.8673 27.19 77.9659 27.0829C78.0647 26.9761 78.188 26.8898 78.3361 26.8239C78.4864 26.7576 78.6436 26.708 78.8047 26.6759C78.9689 26.6431 79.1169 26.6266 79.2487 26.6266H79.3721C79.8232 26.7075 80.2755 26.7815 80.7289 26.8486C81.1729 26.9145 81.6415 26.9472 82.1349 26.9472H82.4309C82.8256 26.931 83.3475 26.9145 83.9974 26.8979C84.6469 26.8817 85.2925 26.8651 85.9338 26.8486C86.497 26.834 87.0603 26.8217 87.6236 26.8115C88.1085 26.8035 88.3841 26.7992 88.45 26.7992C88.5321 26.7992 88.6635 26.7911 88.8447 26.7745C89.0255 26.7583 89.2147 26.7417 89.4121 26.7252C89.6094 26.709 89.7902 26.6924 89.9548 26.6758C90.1189 26.6597 90.2342 26.6431 90.3001 26.6266C90.3329 26.6103 90.3741 26.5857 90.4235 26.5525C90.5221 26.487 90.5961 26.4538 90.6455 26.4538C90.7521 26.4281 90.859 26.4035 90.9662 26.3799C91.1141 26.3471 91.2128 26.3306 91.2622 26.3306C91.2783 26.3637 91.369 26.4416 91.5335 26.5648C91.6978 26.6883 91.813 26.7664 91.8789 26.7992C92.1255 26.931 92.4216 27.0212 92.7669 27.0706C93.1123 27.1199 93.4083 27.2351 93.655 27.4159C93.9837 27.6298 94.2922 27.9092 94.5801 28.2546C94.8676 28.5999 95.1185 28.9784 95.3325 29.3892C95.5452 29.798 95.7147 30.228 95.8381 30.672C95.9615 31.116 96.0231 31.5353 96.0231 31.93C96.0231 32.3905 96.0065 32.8265 95.9738 33.2374C95.9406 33.6486 95.8998 34.1254 95.8505 34.6681C95.7352 34.734 95.6242 34.8615 95.5174 35.0504C95.4103 35.2397 95.3078 35.4451 95.2091 35.6671C95.112 35.8857 95.0134 36.1036 94.9131 36.3208C94.8144 36.5347 94.7157 36.6908 94.617 36.7894C94.5839 36.8226 94.5142 36.8843 94.4074 36.9744C94.2909 37.0724 94.1716 37.167 94.0497 37.2581C93.9201 37.3553 93.7885 37.4499 93.655 37.5417C93.5232 37.6324 93.4245 37.694 93.359 37.7268C93.3258 37.76 93.2314 37.8093 93.0753 37.8748C92.9092 37.9451 92.7447 38.0191 92.5819 38.0968C92.4241 38.1716 92.2678 38.2498 92.1132 38.3311C91.9733 38.4051 91.8951 38.4507 91.8789 38.4668C91.8457 38.5 91.7925 38.537 91.7185 38.5778C91.6446 38.619 91.5662 38.6642 91.4842 38.7135C91.4055 38.7601 91.3312 38.8138 91.2622 38.8738C91.1963 38.9317 91.1635 38.9933 91.1635 39.0588C91.1635 39.0754 91.1963 39.1043 91.2622 39.1452C91.3373 39.1928 91.4113 39.2421 91.4842 39.2931C91.5636 39.3489 91.6418 39.4065 91.7185 39.4658C91.7925 39.5236 91.8457 39.5688 91.8789 39.6015C91.8789 39.6181 91.8912 39.6551 91.9159 39.7125C91.9406 39.7703 91.9691 39.832 92.0022 39.8975C92.035 39.9634 92.0639 40.0293 92.0885 40.0949C92.1132 40.1608 92.1255 40.202 92.1255 40.2182L92.4216 40.5141C92.701 40.7281 92.9805 40.9829 93.2603 41.2789C93.5397 41.5749 93.7865 41.8709 94.0003 42.1669C94.0165 42.2001 94.062 42.3068 94.136 42.4876C94.21 42.6688 94.2551 42.7674 94.2717 42.7835C94.3044 42.8329 94.3538 42.9069 94.4197 43.0056C94.4852 43.1043 94.5511 43.2029 94.617 43.3015C94.6795 43.3956 94.7411 43.4902 94.8021 43.5853C94.8595 43.6758 94.8965 43.7294 94.9131 43.7456C94.9458 43.7788 95.0279 43.8608 95.1597 43.9923C95.2912 44.1241 95.4349 44.2678 95.5914 44.424C95.7371 44.5702 95.8851 44.7141 96.0355 44.8556C96.175 44.9874 96.2698 45.0695 96.3191 45.1023C96.3191 45.1355 96.3439 45.1887 96.3932 45.2627C96.446 45.3427 96.4954 45.425 96.5411 45.5093C96.5868 45.5937 96.6362 45.676 96.6892 45.756C96.7385 45.83 96.7632 45.8754 96.7632 45.8917C96.8946 46.0728 97.1537 46.3029 97.5403 46.5823C97.9339 46.8675 98.3286 47.1512 98.7243 47.4333C99.1271 47.7213 99.4891 47.9927 99.8097 48.2474C100.13 48.5025 100.291 48.6956 100.291 48.827C100.291 49.0082 100.241 49.1477 100.143 49.2464C100.045 49.3444 99.9272 49.4202 99.7974 49.4684C99.6656 49.5178 99.5176 49.5505 99.3534 49.5671C99.1888 49.5832 99.0488 49.5918 98.934 49.5918C98.7201 49.5918 98.5308 49.5832 98.3666 49.5671C98.2021 49.5505 98.0128 49.5012 97.7993 49.4191H94.617C94.173 49.4029 93.8277 49.3246 93.581 49.1848C93.3343 49.0452 93.1246 48.8602 92.952 48.6297C92.7793 48.3996 92.6228 48.1406 92.4833 47.8527C92.3433 47.5652 92.1664 47.273 91.9529 46.977C91.9363 46.9277 91.8623 46.8167 91.7309 46.644C91.5904 46.4604 91.4465 46.2795 91.2992 46.1014C91.1427 45.9125 90.9989 45.7397 90.8675 45.5833C90.7356 45.4272 90.6617 45.3243 90.6455 45.275C90.5961 45.2422 90.5345 45.127 90.4605 44.9296C90.3864 44.7323 90.3329 44.5843 90.3001 44.4856C90.2669 44.4528 90.23 44.3746 90.1891 44.2513C90.1479 44.1279 90.1274 44.0582 90.1274 44.0416C90.0615 43.9923 89.9628 43.9021 89.8315 43.7703C89.6936 43.6326 89.5579 43.4928 89.4244 43.3509C89.2844 43.2029 89.153 43.0634 89.0297 42.9316C88.9063 42.8002 88.8201 42.6934 88.7706 42.6109C88.7376 42.5947 88.6801 42.4999 88.598 42.3273C88.5155 42.1546 88.4662 42.0436 88.45 41.9943C88.4334 41.9943 88.3883 41.9534 88.3143 41.8708C88.2287 41.7751 88.1464 41.6764 88.0676 41.5749C87.9773 41.4603 87.8827 41.3492 87.784 41.2419C87.6853 41.1351 87.6028 41.0407 87.5372 40.9582C87.4234 40.8249 87.3124 40.6891 87.2042 40.5512C87.0813 40.3957 86.9495 40.2475 86.8096 40.1072C86.6696 39.9677 86.5259 39.8482 86.3779 39.7495C86.2299 39.6508 86.0734 39.6015 85.9092 39.6015H85.7118C85.6952 39.7495 85.6786 40.0209 85.6625 40.4155C85.6459 40.8102 85.6293 41.2296 85.6132 41.6736C85.5966 42.1175 85.58 42.5369 85.5638 42.9316C85.5472 43.3263 85.5392 43.5976 85.5392 43.7456V44.0416C85.5392 44.3049 85.543 44.6336 85.5514 45.0283C85.5591 45.4153 85.5797 45.802 85.6132 46.1877C85.6459 46.6155 85.6787 47.0676 85.7118 47.5444L85.9832 47.8897C86.0325 47.9063 86.1312 47.9229 86.2791 47.9391C86.4272 47.9557 86.5875 47.9679 86.7602 47.976C86.9329 47.9845 87.0932 47.9926 87.2413 48.0007C87.3892 48.0092 87.488 48.013 87.5372 48.013C87.6359 48.0462 87.7632 48.087 87.9196 48.1364C88.0746 48.1853 88.2236 48.2515 88.3637 48.3337C88.5032 48.4162 88.6265 48.5106 88.7337 48.6174C88.8405 48.7246 88.894 48.8436 88.894 48.9751C88.894 49.2055 88.7461 49.3536 88.45 49.419C88.3513 49.4353 88.1868 49.4561 87.9566 49.4808C87.7261 49.5054 87.4795 49.534 87.2166 49.5671C86.9696 49.5976 86.7229 49.6305 86.4765 49.6657C86.246 49.6985 86.0819 49.7232 85.9831 49.7397H85.8599C85.7494 49.6852 85.6383 49.6318 85.5268 49.5794C85.3703 49.5054 85.2759 49.4518 85.2432 49.419H82.4309C82.3977 49.419 82.3238 49.4395 82.2089 49.4808C82.0937 49.5216 82.0116 49.5586 81.9622 49.5918C81.9456 49.6079 81.8759 49.6573 81.7525 49.7397C81.6292 49.8219 81.551 49.8631 81.5182 49.8631C81.4851 49.8631 81.403 49.8176 81.2716 49.7275C81.1397 49.6369 81.0576 49.5918 81.0249 49.5918H80.9262C80.6795 49.5918 80.4614 49.645 80.2725 49.7521C80.0832 49.8589 79.8654 49.9124 79.6188 49.9124C79.5724 49.9129 79.5263 49.9045 79.4831 49.8878C79.4419 49.8712 79.4049 49.8631 79.3721 49.8631C79.2896 49.8631 79.1747 49.8342 79.0267 49.7768C78.8807 49.72 78.7403 49.6498 78.6074 49.5671C78.4756 49.4846 78.3607 49.3905 78.262 49.2834C78.1633 49.1766 78.114 49.0575 78.114 48.9257ZM85.5392 37.7761C85.6705 38.1052 85.8721 38.3189 86.1435 38.4175C86.4149 38.5161 86.7066 38.5654 87.0192 38.5654C87.6275 38.5654 88.191 38.397 88.709 38.0598C89.2271 37.723 89.6749 37.3036 90.0534 36.8018C90.4316 36.3004 90.7275 35.7496 90.9415 35.1491C91.1551 34.549 91.2622 33.9773 91.2622 33.4347C91.2622 32.9907 91.2251 32.5343 91.1512 32.0657C91.0772 31.5969 90.9084 31.1653 90.6455 30.7707C90.5961 30.7213 90.5013 30.6311 90.3618 30.4993C90.2157 30.3617 90.0718 30.222 89.9301 30.0799C89.7821 29.932 89.6379 29.7963 89.4984 29.6729C89.3584 29.5496 89.264 29.4718 89.2147 29.4386C89.2147 29.4224 89.1777 29.3977 89.1037 29.3646C89.0247 29.3295 88.9466 29.2925 88.8694 29.2536C88.79 29.2138 88.7075 29.1808 88.6227 29.1549C88.5402 29.1302 88.4828 29.1179 88.45 29.1179C88.4334 29.1017 88.3883 29.0686 88.3143 29.0192C88.2355 28.9668 88.1574 28.9134 88.0799 28.859C88.0013 28.8038 87.9189 28.7544 87.8333 28.711C87.7508 28.67 87.6934 28.6492 87.6606 28.6492H87.4139C86.8053 28.6492 86.3489 28.781 86.0448 29.0439C85.7403 29.3071 85.5719 29.7346 85.5392 30.3266C85.5226 30.3759 85.506 30.561 85.4898 30.8817C85.4732 31.2023 85.4566 31.5643 85.4404 31.967C85.4235 32.3781 85.407 32.7892 85.3911 33.2004C85.3745 33.6197 85.3665 33.9527 85.3665 34.1994V34.6681C85.3665 34.7667 85.3745 34.9683 85.3911 35.2724C85.4073 35.5769 85.4239 35.8934 85.4404 36.2221C85.4567 36.5513 85.4732 36.8677 85.4898 37.1718C85.506 37.4763 85.5226 37.6774 85.5392 37.7761ZM101.944 48.6297C101.944 48.3668 102.03 48.1487 102.203 47.976C102.375 47.8034 102.585 47.6638 102.832 47.5567C103.08 47.4492 103.336 47.3585 103.596 47.2854C103.859 47.2114 104.081 47.1335 104.262 47.051C104.608 46.8703 104.887 46.6934 105.101 46.5207C105.315 46.348 105.479 46.1591 105.594 45.9534C105.709 45.7479 105.792 45.5093 105.841 45.238C105.89 44.9666 105.915 44.6336 105.915 44.239V41.3282C105.915 41.2954 105.923 41.2172 105.94 41.0939C105.956 40.9705 105.977 40.8391 106.001 40.6992C106.026 40.5597 106.047 40.4321 106.063 40.3169C106.079 40.202 106.088 40.128 106.088 40.0949V39.9222C106.088 39.8894 106.079 39.7988 106.063 39.6508C106.047 39.5029 106.026 39.3425 106.001 39.1698C105.977 38.9972 105.956 38.8368 105.94 38.6888C105.923 38.5409 105.915 38.4421 105.915 38.3928V38.0722C105.915 38.0394 105.923 37.9487 105.94 37.8008C105.956 37.6528 105.977 37.4924 106.001 37.3198C106.026 37.1471 106.047 36.9829 106.063 36.8265C106.079 36.6703 106.088 36.5759 106.088 36.5428C106.104 36.4279 106.121 36.2098 106.137 35.8891C106.153 35.5684 106.17 35.2273 106.186 34.8654C106.203 34.5038 106.219 34.1624 106.236 33.8417C106.252 33.521 106.26 33.2952 106.26 33.1633C106.326 32.9991 106.363 32.8635 106.371 32.7563C106.38 32.6496 106.384 32.5305 106.384 32.3987C106.384 32.0206 106.281 31.6548 106.075 31.301C105.87 30.9476 105.619 30.6145 105.323 30.302C105.026 29.9892 104.709 29.6967 104.373 29.4263C104.073 29.1846 103.772 28.942 103.473 28.6986C103.456 28.6986 103.432 28.6824 103.399 28.6492C103.366 28.6165 103.35 28.5753 103.35 28.5259C103.3 28.4931 103.234 28.4272 103.152 28.3286C103.062 28.2211 102.972 28.1142 102.881 28.0079C102.786 27.8974 102.691 27.7864 102.597 27.6749C102.507 27.5681 102.445 27.4984 102.412 27.4652V27.2925C102.412 27.1446 102.453 27.0255 102.536 26.9349C102.618 26.8447 102.724 26.7171 102.856 26.5525C102.938 26.4704 102.992 26.4211 103.017 26.4045C103.041 26.3884 103.094 26.3799 103.177 26.3799H103.966C103.983 26.3965 104.036 26.4131 104.127 26.4292C104.217 26.4458 104.312 26.4623 104.41 26.4785C104.509 26.4951 104.603 26.5117 104.694 26.5279C104.784 26.5445 104.838 26.5525 104.854 26.5525H106.384C106.449 26.5691 106.585 26.6185 106.791 26.7005C106.996 26.783 107.124 26.8239 107.173 26.8239C107.255 26.8405 107.391 26.857 107.58 26.8732C107.769 26.8898 107.971 26.9064 108.185 26.9226C108.398 26.9391 108.6 26.9557 108.789 26.9718C108.978 26.9884 109.113 26.9965 109.196 26.9965L109.813 27.6132C109.829 27.6464 109.858 27.6995 109.899 27.7736C109.943 27.8542 109.984 27.9365 110.022 28.0202C110.06 28.1042 110.101 28.1865 110.146 28.2669C110.187 28.3409 110.215 28.3864 110.232 28.4026C110.248 28.4192 110.326 28.5055 110.466 28.6616C110.633 28.8481 110.802 29.0331 110.972 29.2166C111.175 29.4367 111.381 29.6546 111.589 29.8703C111.802 30.0923 111.975 30.2692 112.107 30.4006L112.132 30.4253C112.148 30.4419 112.156 30.4542 112.156 30.4623C112.156 30.4708 112.164 30.4831 112.181 30.4993C112.197 30.5325 112.222 30.5571 112.255 30.5733C112.288 30.5733 112.345 30.5941 112.428 30.635C112.51 30.6762 112.551 30.7051 112.551 30.7213C112.584 30.7213 112.612 30.7915 112.637 30.931C112.662 31.0709 112.69 31.1572 112.724 31.1899C112.74 31.2231 112.801 31.3052 112.909 31.4366C113.025 31.5798 113.14 31.7237 113.254 31.8683C113.368 32.0131 113.483 32.1571 113.599 32.3C113.706 32.4318 113.776 32.5139 113.809 32.5467C113.809 32.5799 113.846 32.6453 113.92 32.744C114.001 32.8529 114.079 32.9639 114.154 33.077C114.232 33.195 114.315 33.3102 114.401 33.4224C114.483 33.5295 114.54 33.5992 114.574 33.6321C114.623 33.6814 114.754 33.8089 114.968 34.0144C115.196 34.2344 115.423 34.4564 115.647 34.6804C115.871 34.9046 116.093 35.1307 116.313 35.3587C116.518 35.5727 116.646 35.7126 116.695 35.7781C116.744 35.8274 116.826 35.9384 116.942 36.1111C117.057 36.2838 117.184 36.4773 117.324 36.6908C117.464 36.9047 117.591 37.0979 117.707 37.2704C117.821 37.4431 117.904 37.5541 117.953 37.6034C117.986 37.6528 118.06 37.7391 118.175 37.8625C118.29 37.9858 118.413 38.1176 118.545 38.2572C118.671 38.3907 118.798 38.5223 118.928 38.6518C119.051 38.7752 119.137 38.8453 119.187 38.8615C119.219 38.8947 119.289 38.9725 119.396 39.0959C119.509 39.2261 119.62 39.3577 119.729 39.4905C119.844 39.6304 119.955 39.7619 120.062 39.8852C120.169 40.0085 120.239 40.0786 120.272 40.0949C120.288 40.1115 120.334 40.1484 120.408 40.2059C120.482 40.2636 120.564 40.3253 120.654 40.3909C120.745 40.4567 120.823 40.5226 120.889 40.5882C120.954 40.6541 120.995 40.6954 121.012 40.7115C121.16 40.8268 121.283 40.9501 121.382 41.0815C121.481 41.2134 121.62 41.2954 121.801 41.3282C121.867 41.1147 122.015 40.9089 122.245 40.7115V39.0095C122.245 38.9768 122.237 38.9027 122.221 38.7875C122.204 38.6726 122.188 38.5493 122.171 38.4175C122.155 38.2861 122.138 38.1585 122.122 38.0351C122.106 37.9118 122.097 37.8255 122.097 37.7762V34.8654C122.097 34.8326 122.089 34.7505 122.073 34.6187C122.056 34.4874 122.036 34.3517 122.011 34.2117C121.986 34.0722 121.966 33.9447 121.949 33.8294C121.933 33.7145 121.925 33.6486 121.925 33.6321V33.3854C121.925 33.0894 121.953 32.8057 122.011 32.5344C122.069 32.263 122.097 31.9959 122.097 31.7326C122.097 31.4039 122.085 31.0751 122.06 30.746C122.036 30.4227 121.991 30.1013 121.925 29.7839C121.892 29.6197 121.777 29.4347 121.579 29.2289C121.382 29.0235 121.25 28.9044 121.185 28.8713C121.02 28.7564 120.745 28.6658 120.358 28.5999C119.961 28.532 119.566 28.4497 119.174 28.3532C118.771 28.2546 118.418 28.1231 118.114 27.9586C117.809 27.7944 117.657 27.5558 117.657 27.2432C117.657 27.0624 117.719 26.9102 117.842 26.7869C117.966 26.6635 118.109 26.5857 118.274 26.5525C118.339 26.5363 118.438 26.5155 118.57 26.4909C118.709 26.4652 118.849 26.4446 118.989 26.4292C119.125 26.4141 119.26 26.4018 119.396 26.3922C119.52 26.3841 119.597 26.3799 119.631 26.3799C119.68 26.3799 119.762 26.3965 119.877 26.4292C119.992 26.4623 120.083 26.5032 120.149 26.5525H124.12L124.416 26.3799H127.919C127.969 26.3799 128.03 26.4457 128.104 26.5772C128.178 26.709 128.231 26.7911 128.265 26.8239V27.2925C128.182 27.4405 128.059 27.5681 127.894 27.6749C127.731 27.7815 127.557 27.8723 127.376 27.9462C127.199 28.0188 127.018 28.0806 126.834 28.1312C126.653 28.1806 126.505 28.2218 126.39 28.2546H125.65C125.616 28.2546 125.551 28.2916 125.452 28.3656C125.354 28.4396 125.271 28.4931 125.206 28.5259C125.156 28.5753 125.045 28.6616 124.873 28.7849C124.7 28.9083 124.597 28.9865 124.564 29.0192C124.383 29.1511 124.272 29.2949 124.231 29.4509C124.19 29.6074 124.153 29.8251 124.12 30.1046C124.12 30.2199 124.112 30.4296 124.096 30.7336C124.078 31.0586 124.057 31.3834 124.034 31.708C124.009 32.0533 123.988 32.374 123.972 32.67C123.956 32.966 123.948 33.1719 123.948 33.2867C123.948 33.3361 123.939 33.4266 123.923 33.5581C123.906 33.6899 123.886 33.8378 123.861 34.002C123.837 34.1666 123.816 34.3146 123.8 34.4461C123.783 34.5779 123.775 34.6681 123.775 34.7174V39.0095C123.775 39.0588 123.766 39.1494 123.75 39.2808C123.734 39.4126 123.721 39.5564 123.713 39.7125C123.705 39.8608 123.693 40.0089 123.676 40.1565C123.66 40.2964 123.652 40.3828 123.652 40.4155V43.943C123.684 43.9761 123.713 44.0254 123.738 44.0909C123.763 44.1568 123.775 44.2062 123.775 44.2389C123.775 44.2721 123.754 44.35 123.713 44.4733C123.672 44.5967 123.652 44.6668 123.652 44.6829V45.2009C123.652 45.5463 123.672 45.8878 123.713 46.2246C123.754 46.5619 123.775 46.9196 123.775 47.2977V48.2104C123.742 48.4571 123.627 48.6791 123.43 48.8764C123.232 49.0738 123.002 49.1723 122.739 49.1723C122.36 49.1723 122.019 49.0491 121.715 48.8024C121.422 48.5652 121.13 48.3268 120.839 48.0871C120.791 48.0064 120.733 47.9318 120.667 47.8651C120.617 47.7985 120.571 47.7284 120.531 47.6554C120.496 47.5923 120.459 47.5306 120.42 47.4703C119.896 46.7499 119.349 46.0465 118.78 45.3613C118.211 44.6776 117.631 44.0033 117.04 43.3386C116.447 42.6706 115.85 42.0046 115.252 41.3406C114.654 40.6778 114.074 39.9992 113.513 39.3055C113.464 39.2728 113.402 39.2234 113.328 39.1576C113.254 39.092 113.2 39.0427 113.168 39.0095C112.773 38.6973 112.448 38.3601 112.193 37.9981C111.938 37.6366 111.646 37.2419 111.317 36.8141C111.301 36.8141 111.247 36.7733 111.157 36.6908C111.058 36.6008 110.959 36.5103 110.861 36.4194C110.76 36.327 110.662 36.2324 110.565 36.1357C110.474 36.0455 110.421 35.9839 110.405 35.9507C110.405 35.918 110.355 35.8112 110.257 35.6301C110.158 35.4493 110.092 35.3507 110.059 35.3341C110.059 35.2848 110.01 35.2069 109.911 35.0998C109.803 34.9825 109.692 34.8673 109.578 34.7544C109.465 34.6412 109.35 34.5301 109.233 34.4214C109.126 34.3227 109.056 34.2653 109.023 34.2487C109.007 34.2325 108.982 34.1747 108.949 34.076C108.931 34.0237 108.906 33.9739 108.875 33.9281C108.826 33.8787 108.723 33.7801 108.567 33.6321C108.41 33.4841 108.299 33.3692 108.234 33.2867C108.217 33.2867 108.193 33.3114 108.16 33.3607C108.127 33.41 108.111 33.4432 108.111 33.4593C108.077 33.5253 108.024 33.6567 107.95 33.8541C107.876 34.0514 107.823 34.1832 107.79 34.2487V37.1842C107.79 37.6447 107.798 38.0844 107.815 38.5038C107.831 38.9231 107.88 39.3961 107.962 39.9222C107.979 40.2181 108.024 40.5265 108.098 40.8472C108.171 41.1592 108.216 41.477 108.234 41.7969V43.943C108.234 44.0089 108.242 44.128 108.259 44.3006C108.275 44.4733 108.291 44.6583 108.308 44.8557C108.324 45.053 108.341 45.2422 108.357 45.423C108.373 45.6041 108.39 45.7356 108.407 45.8176C108.439 46.1468 108.509 46.3935 108.616 46.5577C108.723 46.7222 108.916 46.9196 109.196 47.1497C109.311 47.2815 109.475 47.3471 109.689 47.3471C109.771 47.3471 109.862 47.339 109.961 47.3224C110.059 47.3062 110.15 47.2977 110.232 47.2977C110.38 47.3309 110.54 47.384 110.713 47.4581C110.886 47.5321 111.038 47.6307 111.169 47.754C111.298 47.8741 111.41 48.011 111.502 48.1611C111.593 48.309 111.638 48.4655 111.638 48.6297C111.638 48.9095 111.543 49.1192 111.354 49.2587C111.165 49.3987 110.931 49.4684 110.651 49.4684H110.405C110.372 49.4684 110.294 49.46 110.17 49.4437C110.039 49.4266 109.908 49.4143 109.776 49.4068C109.648 49.3998 109.52 49.3875 109.393 49.3697C109.278 49.3536 109.212 49.3451 109.196 49.3451C109.13 49.3451 108.99 49.3659 108.777 49.4068C108.563 49.4476 108.439 49.4684 108.407 49.4684H106.705C106.622 49.4684 106.433 49.4846 106.137 49.5178C105.817 49.553 105.496 49.5859 105.175 49.6165C104.854 49.6466 104.533 49.6795 104.213 49.7151C103.917 49.7479 103.728 49.7725 103.646 49.7891H103.448C103.316 49.7891 103.165 49.7559 102.992 49.6904C102.818 49.6238 102.652 49.5369 102.499 49.4314C102.342 49.3246 102.211 49.2013 102.104 49.0614C101.997 48.9219 101.944 48.7777 101.944 48.6298L101.944 48.6297ZM133.247 41.7229C133.247 40.2267 133.293 38.759 133.383 37.3198C133.473 35.881 133.519 34.4132 133.519 32.9167V31.8066C133.519 31.708 133.515 31.5315 133.507 31.2763C133.498 31.0216 133.486 30.7502 133.469 30.4623C133.453 30.1748 133.441 29.9072 133.433 29.6606C133.424 29.414 133.412 29.2412 133.396 29.1426C133.396 29.0277 133.354 28.9372 133.272 28.8712C133.186 28.8037 133.091 28.7496 132.989 28.711C132.885 28.671 132.777 28.642 132.668 28.6246C132.561 28.6084 132.491 28.5918 132.458 28.5753C132.326 28.5097 132.158 28.4562 131.952 28.4149C131.748 28.3743 131.546 28.3207 131.348 28.2546C131.151 28.189 130.982 28.1027 130.842 27.9955C130.702 27.8888 130.633 27.7204 130.633 27.4899C130.633 27.4078 130.637 27.3419 130.645 27.2925C130.653 27.2432 130.698 27.2023 130.781 27.1692H136.01C136.06 27.1692 136.171 27.1611 136.343 27.1446C136.537 27.126 136.73 27.1055 136.923 27.0829C137.124 27.0596 137.326 27.039 137.527 27.0212C137.716 27.005 137.836 26.9965 137.885 26.9965C137.918 26.9965 138.008 27.005 138.157 27.0212C138.304 27.0378 138.465 27.0582 138.638 27.0829C138.81 27.1075 138.971 27.1283 139.119 27.1446C139.267 27.1612 139.365 27.1692 139.414 27.1692H139.464C139.563 27.1692 139.657 27.1407 139.748 27.0829C139.838 27.0255 139.933 26.9965 140.031 26.9965H140.155C140.335 27.1118 140.483 27.227 140.599 27.3419C140.713 27.4571 140.771 27.6051 140.771 27.7859C140.771 28.0326 140.66 28.2137 140.438 28.3286C140.216 28.4438 139.961 28.5382 139.674 28.6123C139.398 28.6832 139.123 28.753 138.847 28.8219C138.584 28.8879 138.411 28.9946 138.329 29.1426C138.165 29.4224 138.054 29.6772 137.996 29.9073C137.938 30.1377 137.901 30.4091 137.885 30.7213C137.852 30.7872 137.819 30.9598 137.786 31.2393C137.753 31.5191 137.716 31.8232 137.675 32.152C137.636 32.4637 137.603 32.7763 137.577 33.0894C137.552 33.3854 137.54 33.5664 137.54 33.6321V36.7401C137.54 36.7894 137.523 36.917 137.49 37.1225C137.455 37.3446 137.418 37.5666 137.379 37.7884C137.34 38.0136 137.307 38.2398 137.281 38.4668C137.256 38.6807 137.244 38.8121 137.244 38.8615C137.244 39.0095 137.239 39.1329 137.231 39.2315C137.223 39.3299 137.219 39.4287 137.219 39.5275V39.7742C137.219 40.8927 137.445 41.8794 137.897 42.7342C138.35 43.5895 139.003 44.3955 139.859 45.1516C140.187 45.4315 140.611 45.6041 141.129 45.6697C141.647 45.7356 142.128 45.7683 142.572 45.7683H144.126C144.208 45.7356 144.344 45.6905 144.533 45.6326C144.722 45.5753 144.85 45.5216 144.916 45.4723C144.948 45.4396 145.027 45.3698 145.15 45.2627C145.282 45.1481 145.414 45.033 145.545 44.9173C145.684 44.7939 145.812 44.6791 145.927 44.572C146.042 44.4652 146.108 44.3955 146.124 44.3623C146.157 44.3623 146.235 44.35 146.359 44.3253C146.482 44.3006 146.552 44.2721 146.568 44.239C146.749 44.1734 146.914 44.0582 147.062 43.8936C147.21 43.7294 147.337 43.5402 147.444 43.3263C147.549 43.1164 147.636 42.8976 147.703 42.6726C147.769 42.4506 147.81 42.2575 147.826 42.0929V41.1308C147.826 41.1147 147.835 41.0692 147.851 40.9952C147.867 40.9212 147.888 40.8349 147.913 40.7362C147.937 40.6384 147.958 40.5397 147.974 40.4402C147.991 40.3416 147.999 40.2675 147.999 40.2182C148.015 40.1854 148.044 40.091 148.085 39.9346C148.126 39.7784 148.147 39.6674 148.147 39.6015V37.7762C148.163 37.7106 148.188 37.5418 148.221 37.2704C148.254 36.9991 148.287 36.7074 148.32 36.3948C148.353 36.0825 148.381 35.7946 148.406 35.5314C148.431 35.2685 148.443 35.104 148.443 35.0381V33.9527C148.443 33.8872 148.414 33.7472 148.357 33.5334C148.299 33.3198 148.27 33.1965 148.27 33.1633V29.7839C148.204 29.6691 148.102 29.5458 147.962 29.414C147.822 29.2825 147.678 29.1919 147.53 29.1426C147.274 29.0918 147.014 29.0547 146.753 29.0316C146.484 29.0073 146.216 28.9662 145.952 28.9083C145.69 28.8514 145.437 28.7601 145.199 28.6369C144.961 28.5135 144.759 28.3286 144.595 28.0819V27.9586C144.595 27.7778 144.665 27.6009 144.805 27.4282C144.944 27.2556 145.104 27.1692 145.286 27.1692H145.384C145.45 27.1692 145.61 27.1777 145.865 27.1939C146.12 27.2105 146.396 27.2309 146.692 27.2556C146.988 27.2802 147.263 27.301 147.518 27.3172C147.773 27.3338 147.933 27.3419 147.999 27.3419H153.204C153.253 27.3419 153.331 27.3542 153.438 27.3789C153.545 27.4035 153.656 27.4325 153.771 27.4652C153.886 27.4984 153.993 27.5311 154.092 27.5639C154.191 27.597 154.256 27.6132 154.289 27.6132C154.355 27.6464 154.425 27.6995 154.499 27.7736C154.573 27.8476 154.61 27.9093 154.61 27.9586C154.626 28.0904 154.569 28.2052 154.437 28.3039C154.306 28.4025 154.15 28.4931 153.969 28.5753C153.788 28.6578 153.611 28.7232 153.438 28.7726C153.266 28.8219 153.146 28.8551 153.081 28.8713C152.933 28.9045 152.731 28.9618 152.476 29.0439C152.221 29.1264 151.97 29.221 151.724 29.3276C151.477 29.4347 151.259 29.5662 151.07 29.7223C150.881 29.8788 150.778 30.0472 150.762 30.228C150.745 30.3104 150.729 30.4376 150.713 30.6103C150.695 30.7952 150.678 30.9802 150.663 31.1653C150.647 31.3627 150.63 31.5519 150.614 31.7326C150.597 31.9138 150.589 32.0372 150.589 32.1027V37.8994C150.523 38.0474 150.486 38.1874 150.478 38.3188C150.47 38.4584 150.466 38.5983 150.466 38.7381V39.3795C150.466 39.462 150.462 39.5522 150.454 39.6509C150.446 39.7411 150.441 39.8316 150.441 39.9222C150.441 39.9715 150.42 40.0744 150.38 40.2305C150.338 40.387 150.318 40.4814 150.318 40.5142C150.224 41.0598 150.138 41.6066 150.059 42.1546C149.986 42.665 149.888 43.1713 149.763 43.6716C149.638 44.1693 149.473 44.656 149.269 45.127C149.064 45.6041 148.788 46.0809 148.443 46.5577C148.377 46.6563 148.295 46.7673 148.196 46.8907C148.09 47.023 147.984 47.1545 147.876 47.2854C147.767 47.4183 147.652 47.5458 147.53 47.6677C147.415 47.7829 147.308 47.8735 147.21 47.9391C147.177 47.9391 147.103 47.9637 146.988 48.013C146.865 48.0651 146.742 48.1145 146.618 48.161C146.491 48.2087 146.364 48.2539 146.235 48.2967C146.112 48.338 146.034 48.3668 146.001 48.3831C145.89 48.4376 145.779 48.491 145.668 48.5433C145.511 48.6174 145.417 48.6709 145.384 48.7037C145.154 48.8356 144.895 48.93 144.607 48.9874C144.319 49.0452 144.052 49.1643 143.805 49.3451H139.242C139.193 49.3451 139.114 49.337 139.007 49.3204C138.897 49.3036 138.786 49.2871 138.675 49.2711C138.567 49.2561 138.46 49.2396 138.354 49.2217C138.255 49.2055 138.189 49.1889 138.156 49.1724C138.14 49.1562 138.099 49.1273 138.033 49.0861C137.963 49.0424 137.897 48.9929 137.836 48.9381C137.776 48.8859 137.715 48.8365 137.651 48.7901C137.593 48.7492 137.556 48.7203 137.54 48.7037C137.523 48.7037 137.478 48.6791 137.404 48.6297C137.33 48.5804 137.276 48.5557 137.244 48.5557C137.227 48.5557 137.157 48.5353 137.034 48.494C136.911 48.4532 136.833 48.4162 136.8 48.383C136.767 48.3503 136.684 48.2721 136.553 48.1487C136.421 48.0254 136.339 47.9556 136.306 47.9391C136.273 47.9228 136.22 47.902 136.146 47.8773C136.067 47.851 135.989 47.8222 135.912 47.791C135.829 47.7583 135.714 47.709 135.566 47.6431C135.533 47.6268 135.5 47.6022 135.468 47.569C135.418 47.5528 135.394 47.5197 135.394 47.4703C134.703 46.6316 134.173 45.7356 133.803 44.7816C133.433 43.8281 133.247 42.8083 133.247 41.7229ZM175.134 48.9751C175.134 48.7777 175.241 48.6259 175.455 48.5187L175.973 48.2597C176.269 48.1776 176.516 48.1036 176.713 48.0377C176.91 47.9722 177.132 47.9391 177.379 47.9391C177.543 47.9391 177.749 47.9637 177.996 48.013C178.144 47.9475 178.267 47.828 178.366 47.6554C178.465 47.4802 178.544 47.2939 178.6 47.1004C178.657 46.9058 178.702 46.7082 178.736 46.5084C178.768 46.311 178.785 46.1383 178.785 45.9903C178.867 44.9874 178.908 44.0008 178.908 43.0302C178.908 42.0602 178.925 41.0815 178.958 40.0949C178.958 40.0455 178.966 39.9346 178.982 39.7618C178.999 39.5892 179.011 39.4084 179.019 39.2191C179.027 39.0303 179.04 38.8534 179.056 38.6888C179.073 38.5246 179.081 38.426 179.081 38.3928C179.081 38.3435 179.073 38.2572 179.056 38.1338C179.04 38.0105 179.027 37.879 179.019 37.7391C179.012 37.6113 179 37.4837 178.982 37.3568C178.966 37.2419 178.958 37.176 178.958 37.1594V35.408C178.958 35.3094 178.924 35.1452 178.859 34.9147C178.793 34.6846 178.678 34.5447 178.514 34.4954C178.382 34.4461 178.221 34.4954 178.033 34.6433C177.843 34.7914 177.663 34.9683 177.49 35.1738C177.317 35.3795 177.165 35.585 177.034 35.7904C176.902 35.9962 176.812 36.1319 176.762 36.1974C176.729 36.2633 176.647 36.4071 176.516 36.6291C176.384 36.8511 176.24 37.0939 176.084 37.3568C175.939 37.6012 175.791 37.8437 175.64 38.0844C175.5 38.3064 175.405 38.4507 175.356 38.5161C175.323 38.5655 175.266 38.6726 175.183 38.8368C175.101 39.0014 175.06 39.1166 175.06 39.1822C175.044 39.1988 174.99 39.2728 174.9 39.4042C174.801 39.548 174.702 39.6918 174.604 39.8358C174.504 39.9819 174.401 40.1259 174.295 40.2675C174.197 40.3994 174.131 40.4814 174.098 40.5142C174.098 40.5801 174.081 40.7362 174.049 40.9828C174.016 41.2296 173.983 41.386 173.95 41.4516C173.835 41.8462 173.642 42.2162 173.37 42.5616C173.099 42.9069 172.873 43.2688 172.692 43.6469C172.692 43.6801 172.671 43.7456 172.63 43.8443C172.584 43.9549 172.539 44.0659 172.495 44.1773C172.448 44.2936 172.399 44.4088 172.347 44.5226C172.315 44.5929 172.282 44.6628 172.248 44.7323C172.231 44.7817 172.194 44.868 172.137 44.9913C172.079 45.1147 172.017 45.2465 171.952 45.386C171.892 45.5142 171.83 45.6416 171.767 45.7683C171.73 45.8423 171.693 45.9163 171.656 45.9903C171.639 46.0069 171.61 46.0767 171.57 46.2C171.528 46.3234 171.491 46.4016 171.459 46.4343C171.442 46.5662 171.393 46.7592 171.311 47.014C171.228 47.2692 171.126 47.5321 171.002 47.8034C170.879 48.0747 170.739 48.309 170.583 48.5064C170.426 48.7037 170.258 48.8024 170.077 48.8024C169.979 48.8024 169.863 48.7326 169.732 48.5927C169.6 48.4532 169.51 48.3422 169.46 48.2597C169.427 48.227 169.403 48.1942 169.386 48.1611C169.353 48.0955 169.337 48.0462 169.337 48.0131C169.056 47.3684 168.797 46.7144 168.56 46.0521C168.325 45.3938 168.057 44.7475 167.758 44.1156C167.742 44.0829 167.684 44.0046 167.586 43.8813C167.487 43.7579 167.438 43.6801 167.438 43.6469C167.406 43.5848 167.373 43.5232 167.339 43.4619C167.288 43.3683 167.239 43.2737 167.191 43.1783C167.142 43.0796 167.096 42.9894 167.055 42.9069C167.014 42.8248 166.985 42.7755 166.969 42.7589C166.721 42.1475 166.487 41.5306 166.266 40.9089C166.044 40.2841 165.76 39.7086 165.415 39.1822C165.152 38.7558 164.885 38.3323 164.613 37.9119C164.349 37.5048 164.098 37.0893 163.861 36.6661C163.844 36.6499 163.807 36.584 163.75 36.4688C163.685 36.3387 163.623 36.2071 163.565 36.0741C163.497 35.9227 163.431 35.7706 163.367 35.6177C163.301 35.4617 163.26 35.3341 163.244 35.2354C163.227 35.2192 163.203 35.1491 163.17 35.0257C163.137 34.9024 163.112 34.8246 163.096 34.7914C163.096 34.7587 163.075 34.7093 163.034 34.6434C162.993 34.5779 162.956 34.5286 162.923 34.4954C162.874 34.4133 162.816 34.3189 162.751 34.2117C162.687 34.1078 162.621 34.0051 162.553 33.9034C162.485 33.7847 162.411 33.6694 162.331 33.558H161.838C161.805 33.6713 161.781 33.7867 161.764 33.9034C161.731 34.0032 161.71 34.1068 161.702 34.2117C161.694 34.3189 161.681 34.4133 161.665 34.4954C161.533 35.6633 161.447 36.8358 161.406 38.0105C161.365 39.1899 161.344 40.37 161.345 41.5502V47.051C161.402 47.1459 161.459 47.2405 161.517 47.3346C161.585 47.4448 161.664 47.5481 161.752 47.6431C161.838 47.738 161.933 47.8247 162.035 47.902C162.134 47.976 162.233 48.013 162.331 48.013H164.033C164.247 48.013 164.453 48.1036 164.65 48.2844C164.848 48.4656 164.946 48.6628 164.946 48.8764V49.0491C164.913 49.115 164.839 49.1932 164.724 49.2834C164.609 49.374 164.535 49.4191 164.502 49.4191H161.345C161.197 49.5012 161.086 49.5505 161.012 49.5671C160.938 49.5832 160.81 49.5918 160.629 49.5918H160.259C160.127 49.5752 159.897 49.5547 159.568 49.5301C159.239 49.5054 158.886 49.4846 158.508 49.4684C158.129 49.4518 157.772 49.4395 157.435 49.4314C157.097 49.4229 156.871 49.4191 156.756 49.4191C156.674 49.3863 156.555 49.3123 156.399 49.1971C156.242 49.0822 156.148 49.0082 156.115 48.9751L155.967 48.8024C155.983 48.7531 156.024 48.6914 156.09 48.6174C156.156 48.5434 156.234 48.4655 156.325 48.3831C156.406 48.3086 156.489 48.2346 156.571 48.1611C156.645 48.0955 156.707 48.0462 156.756 48.0131C156.772 47.9803 156.81 47.9433 156.867 47.902C156.925 47.8612 156.97 47.8404 157.003 47.8404C157.036 47.8242 157.118 47.8119 157.25 47.8034C157.386 47.7949 157.521 47.7825 157.657 47.7663C157.788 47.7509 157.92 47.7386 158.051 47.7294C158.175 47.7213 158.253 47.717 158.286 47.717C158.384 47.6677 158.495 47.6145 158.619 47.5567C158.745 47.4974 158.869 47.4315 158.989 47.3593C159.112 47.2853 159.219 47.199 159.309 47.1004C159.4 47.0017 159.453 46.8869 159.47 46.755C159.519 46.6402 159.568 46.4713 159.618 46.2493C159.669 46.0186 159.723 45.7883 159.778 45.5586C159.836 45.3204 159.885 45.1065 159.926 44.9173C159.967 44.7285 159.996 44.609 160.013 44.5597C160.013 44.4941 160.008 44.3215 160 44.0416C159.992 43.7622 159.988 43.4989 159.988 43.2522V42.9192C159.988 42.829 159.996 42.7755 160.012 42.759C160.012 42.6934 160.025 42.5658 160.05 42.3766C160.074 42.1877 160.099 41.9943 160.124 41.7969C160.146 41.611 160.175 41.4259 160.21 41.2418C160.243 41.0692 160.259 40.9501 160.259 40.8842V35.112C160.341 34.9478 160.399 34.8161 160.432 34.7174C160.465 34.6187 160.481 34.52 160.481 34.4214C160.481 34.3393 160.473 34.2487 160.457 34.15C160.44 34.0514 160.432 33.9365 160.432 33.8047V33.558C160.432 33.5087 160.46 33.3815 160.518 33.1757C160.576 32.9703 160.613 32.8346 160.629 32.7687V31.1899C160.629 31.1572 160.65 31.0628 160.691 30.9063C160.732 30.7502 160.769 30.6392 160.802 30.5733V30.524C160.802 30.1458 160.703 29.8294 160.506 29.5743C160.309 29.3195 160.066 29.0975 159.778 28.9083C159.49 28.7194 159.178 28.5548 158.841 28.4149C158.526 28.2851 158.213 28.1494 157.903 28.0079C157.615 27.8765 157.373 27.7327 157.176 27.5763C156.978 27.4201 156.88 27.227 156.88 26.9965C156.88 26.8158 156.974 26.7005 157.163 26.6512C157.352 26.6019 157.513 26.5772 157.644 26.5772H162.627C163.055 26.5772 163.491 26.6512 163.935 26.7992C164.379 26.9472 164.716 27.2351 164.946 27.6626C164.962 27.6957 164.991 27.7778 165.033 27.9092C165.073 28.0411 165.123 28.1848 165.18 28.3409C165.238 28.4974 165.287 28.6454 165.329 28.7849C165.369 28.9248 165.398 29.0192 165.415 29.0686C165.596 29.595 165.859 30.1046 166.204 30.598C166.548 31.0882 166.861 31.5989 167.142 32.1273C167.47 32.8012 167.738 33.5029 167.943 34.224C168.15 34.9511 168.393 35.6674 168.671 36.3701C168.687 36.3867 168.728 36.4526 168.794 36.5674C168.86 36.6827 168.93 36.8102 169.004 36.9498C169.078 37.0897 169.148 37.2211 169.214 37.3445C169.279 37.4678 169.321 37.5541 169.337 37.6034C169.469 37.916 169.584 38.2695 169.682 38.6642C169.781 39.0588 169.913 39.4126 170.077 39.7249C170.077 39.7908 170.147 39.9099 170.287 40.0825C170.426 40.2552 170.513 40.3581 170.546 40.3909C170.611 40.4734 170.694 40.609 170.793 40.7979C170.895 40.9937 171.002 41.1869 171.113 41.3775C171.228 41.5749 171.348 41.7476 171.471 41.8956C171.594 42.0436 171.713 42.1095 171.829 42.0929C171.857 42.0486 171.89 42.0073 171.927 41.9695C171.96 41.9368 171.989 41.9121 172.014 41.8956C172.036 41.8813 172.056 41.8647 172.075 41.8462C172.305 41.5175 172.478 41.164 172.593 40.7855C172.708 40.4075 172.856 40.054 173.037 39.7249C173.206 39.488 173.367 39.2453 173.518 38.9972C173.674 38.7424 173.818 38.4753 173.95 38.1954C174.049 38.0147 174.127 37.7846 174.184 37.5048C174.242 37.2254 174.328 36.9952 174.443 36.814C174.46 36.798 174.505 36.7443 174.579 36.6538C174.657 36.5589 174.735 36.4644 174.813 36.3702C174.894 36.2738 174.976 36.1792 175.06 36.0864C175.142 35.9962 175.2 35.9346 175.233 35.9014C175.233 35.8687 175.245 35.799 175.27 35.6918C175.294 35.5849 175.323 35.4905 175.356 35.4081C175.504 34.8819 175.697 34.3805 175.936 33.9034C176.174 33.426 176.43 32.9571 176.701 32.4974C176.973 32.0351 177.249 31.5746 177.527 31.116C177.806 30.6558 178.061 30.1705 178.292 29.6606C178.423 29.3977 178.509 29.1468 178.551 28.9083C178.592 28.6701 178.641 28.4481 178.699 28.2422C178.756 28.0368 178.842 27.8314 178.958 27.6256C179.073 27.4201 179.278 27.2105 179.574 26.9965C180.132 26.9297 180.691 26.8844 181.252 26.8608C181.827 26.8362 182.403 26.8239 182.979 26.8239C183.258 26.8239 183.542 26.8323 183.83 26.8486C184.117 26.8652 184.401 26.8732 184.681 26.8732L185.001 26.7005L186.087 26.9965C186.105 27.049 186.129 27.0988 186.161 27.1445C186.177 27.1777 186.194 27.2147 186.21 27.2556C186.226 27.2968 186.243 27.3338 186.259 27.3666V27.4159C186.259 27.745 186.169 28.0079 185.988 28.2052C185.807 28.4025 185.585 28.5714 185.322 28.711C185.054 28.8532 184.778 28.9809 184.496 29.0933C184.208 29.2085 183.965 29.3399 183.768 29.4879C183.735 29.5045 183.714 29.5211 183.706 29.5372C183.698 29.5538 183.686 29.5704 183.669 29.5866C183.653 29.6198 183.645 29.6444 183.645 29.6606C183.628 29.6772 183.612 29.7223 183.595 29.7963C183.577 29.8782 183.561 29.9604 183.546 30.043C183.529 30.1335 183.513 30.2198 183.497 30.3019C183.48 30.3844 183.472 30.4337 183.472 30.4499C183.455 30.4993 183.431 30.5818 183.398 30.6966C183.365 30.8119 183.332 30.9352 183.299 31.0667C183.268 31.1917 183.231 31.3152 183.188 31.4366C183.159 31.5186 183.13 31.6008 183.102 31.6833C183.135 32.1438 183.151 32.5798 183.151 32.9907V34.1747C183.151 34.7667 183.139 35.3587 183.114 35.9507C183.09 36.5427 183.044 37.1926 182.979 37.8995C182.979 37.9326 182.97 38.0105 182.954 38.1338C182.937 38.2648 182.924 38.3965 182.917 38.5285C182.909 38.6604 182.897 38.7921 182.88 38.9231C182.863 39.0466 182.855 39.1328 182.855 39.1822V39.3055C182.855 39.3387 182.876 39.4373 182.917 39.6015C182.958 39.766 182.979 39.8648 182.979 39.8975V40.0209C182.979 40.8928 182.958 41.7646 182.917 42.6356C182.876 43.5148 182.855 44.3948 182.855 45.275V47.5197C182.905 47.7829 183.044 47.9475 183.275 48.013C183.373 48.0462 183.529 48.0994 183.743 48.1734C183.973 48.2529 184.203 48.331 184.434 48.4077C184.681 48.4902 184.915 48.5681 185.137 48.6421C185.359 48.716 185.519 48.7697 185.618 48.8024C185.7 48.819 185.758 48.856 185.791 48.9134C185.824 48.9712 185.84 49.0163 185.84 49.0491C185.84 49.2136 185.787 49.3412 185.68 49.4314C185.573 49.5216 185.445 49.5875 185.297 49.6287C185.148 49.6697 184.995 49.6946 184.841 49.7028C184.685 49.7109 184.557 49.715 184.459 49.715C184.031 49.715 183.587 49.6943 183.127 49.6534C182.667 49.6123 182.206 49.5917 181.745 49.5918H181.4C181.367 49.5918 181.243 49.6122 181.03 49.6534C180.816 49.6943 180.676 49.7151 180.61 49.7151C180.594 49.7151 180.528 49.7066 180.413 49.6904C180.298 49.6738 180.17 49.6616 180.031 49.6534C179.899 49.6457 179.767 49.6334 179.636 49.6165C179.513 49.5998 179.434 49.5918 179.402 49.5918H177.083C177.034 49.5918 176.943 49.5832 176.812 49.5671C176.68 49.5505 176.54 49.5301 176.392 49.5054C176.244 49.4808 176.1 49.46 175.961 49.4437C175.821 49.4271 175.726 49.419 175.677 49.419C175.544 49.3857 175.418 49.3271 175.307 49.2464C175.192 49.1643 175.134 49.0738 175.134 48.9751ZM44.4102 6.65163L50.473 6.72381L50.4009 7.80646L14.962 7.51776L4.1354 7.3734C3.353 7.32042 1.74828 7.55846 0.670898 7.22905L1.10396 6.94034H11.0644L32.2844 6.72381L44.4102 6.65163ZM142.066 6.72381L177.505 7.01252L188.331 7.15687C189.114 7.20985 190.718 6.97174 191.796 7.30123L191.363 7.58993L141.994 7.80646L142.066 6.72381ZM76.4647 15.48C73.6967 17.0324 71.8434 16.8198 71.8434 16.8198C71.8434 16.8198 68.6923 16.9802 65.7477 12.9628C62.9918 9.20208 62.3078 9.07173 61.9348 8.72874C61.0983 7.95854 59.8587 7.87027 59.8026 7.8803L59.7585 12.9808C59.7585 12.9808 59.7925 13.3459 59.8708 13.5064C59.9811 13.735 60.1636 14.0859 60.5748 14.2003C60.8315 14.2706 60.9018 14.2565 61.0201 14.2605C61.1284 14.2645 61.2126 14.2605 61.2126 14.2605V14.5032H56.7838V14.2685C57.3695 14.2866 57.7828 14.068 57.9893 13.9175C58.3243 13.6748 58.3744 13.1814 58.3744 13.1814V1.39585C58.3062 0.916445 58.206 0.904464 58.0054 0.747984C57.7546 0.551446 56.7838 0.400957 56.7838 0.400957V0.188396C56.7838 0.188396 61.1425 0.104165 62.1133 0.188396C63.0179 0.266636 64.2254 0.475227 65.0517 1.26744C65.9804 2.15803 66.3274 2.94628 66.2793 4.06141C66.2211 5.41329 65.1821 6.54055 64.4801 6.96365C63.3027 7.67373 61.7903 7.89041 61.7903 7.89041C63.397 8.25743 64.8472 9.51294 65.3807 10.1688C66.3796 11.3963 67.8458 13.2576 69.1636 14.3067C70.2287 15.155 72.5374 16.0035 73.9996 15.9694C75.4618 15.9353 76.4647 15.4779 76.4647 15.48ZM62.0009 7.25453C62.8714 7.05193 64.099 6.14942 64.4119 5.24483C64.7248 4.34024 64.6024 3.62619 64.4119 2.87807C64.2213 2.12996 63.4692 1.38184 62.9156 1.0709C62.2797 0.711896 61.2528 0.745963 60.2378 0.802189C60.2378 0.802189 59.8146 0.902443 59.8146 1.31558V7.25251C59.8146 7.25251 61.1303 7.45316 62.0009 7.25453ZM79.2094 14.4916H69.9929V14.317C70.4502 14.2911 70.8574 14.1486 71.1803 13.8718C71.4993 13.597 71.5313 13.0415 71.5313 13.0415L71.4751 1.31804C71.4491 0.957009 71.2605 0.622036 71.094 0.497674C70.9837 0.415393 70.9095 0.367323 70.6969 0.351299L69.9949 0.319181V0.118601H78.3591L78.3049 2.40113L78.1505 2.39911C78.1404 2.23461 78.1204 1.74922 77.8516 1.28592C77.5828 0.822616 77.1937 0.854734 77.1937 0.854734L72.7248 0.892844L72.7348 1.57874C72.7368 2.11227 72.7469 3.78909 72.7569 5.69449H76.5458C76.7103 5.69449 76.8608 5.62029 76.963 5.49189C77.1054 5.30943 77.2599 5.01459 77.2499 4.52717H77.3421V7.59398H77.2418C77.2418 7.59398 77.2579 7.2048 77.1315 6.85777C77.0292 6.57101 76.8467 6.39851 76.4375 6.38645L72.7649 6.4045C72.783 9.4412 72.801 12.905 72.809 12.9792L72.7909 13.9681H76.4756C76.5779 13.9681 77.0292 13.944 77.1295 13.922C77.4404 13.8597 77.9177 13.7494 78.3229 13.4687C78.8585 13.0976 79.0069 12.5641 79.0631 11.7879L79.2095 11.7818L79.2094 14.4916ZM96.0331 14.2265V14.4933L91.2031 14.5054V14.2587C91.2031 14.2587 91.9292 14.2828 92.3825 13.9999C93.1066 13.5487 92.172 11.8839 92.0135 11.4506C91.2332 9.30854 91.1009 8.92745 89.1332 7.92058C88.0621 7.37506 86.8987 7.25669 85.96 7.28686L83.5149 12.7123C83.4347 12.8988 83.2984 13.2579 83.3464 13.4544C83.3985 13.663 83.5029 13.8054 83.7095 13.9358C83.9041 14.0561 84.215 14.2025 84.9671 14.2527L84.9892 14.5053H80.404V14.1965C80.404 14.1965 81.3707 14.2225 81.8662 13.8435C82.3616 13.4643 83.4367 11.224 83.6012 10.8369C83.7537 10.4779 85.1096 7.39715 85.1096 7.39715L85.1296 7.355C84.7405 7.40509 84.4376 7.46933 84.2691 7.5114C83.6614 7.66384 82.6103 7.95472 82.2132 8.58648C82.2132 8.58648 82.2373 7.15846 83.9462 6.33607C84.4798 6.07934 85.1075 6.0312 85.7233 6.08937L87.7471 1.77304C87.7471 1.77304 87.4804 1.3158 87.2437 0.954772C86.9609 0.523514 86.644 0.38313 86.2628 0.290815L86.2689 0.102289H88.5816C88.6758 0.102289 88.7781 0.154473 88.8002 0.224629L94.3081 13.2518C94.3964 13.4604 94.5388 13.6429 94.7213 13.7753C95.0142 13.9839 95.3993 14.2085 96.0331 14.2265H96.0331ZM90.6736 8.48413L88.1122 2.37074L86.5597 5.957L86.4494 6.2037C87.5185 6.43236 88.4171 6.87163 88.5355 6.91371C88.7461 6.98993 90.0037 7.75608 90.6736 8.48413ZM101.596 14.6502C101.779 14.7525 102.952 15.1697 103.804 15.5487C104.587 15.8977 107.996 16.7401 109.515 16.8444C110.801 16.9327 112.768 16.8324 113.539 16.5516C114.417 16.2327 115.167 15.7353 115.167 15.7353C115.001 16.0422 113.894 17.2215 112.317 17.6728C110.6 18.1621 108.594 18.084 107.74 17.9295C106.386 17.6848 104.607 17.1172 102.31 15.8154C99.835 14.4135 97.8733 14.5077 97.8733 14.5077V14.1688C98.6295 14.0966 99.0086 13.8379 99.1871 13.6473C99.2954 13.533 99.3516 13.3765 99.3556 13.2181V13.204C99.3536 11.4551 99.4055 1.80754 99.3935 1.6712C99.3653 1.37838 99.3213 1.06347 99.1488 0.804715C98.8238 0.315355 97.9393 0.263171 97.9393 0.263171V0.0224609H102.392V0.289227C101.837 0.319325 101.636 0.349423 101.247 0.648236C100.858 0.949142 100.816 1.5127 100.816 1.5127L100.848 13.5992C100.88 13.9923 100.85 14.2309 101.596 14.6502ZM112.625 1.10259C113.471 2.84754 117.826 11.6887 117.826 11.6887L122.899 0.294207C122.899 0.294207 122.923 0.0957206 123.177 0.0996903C123.599 0.105681 124.704 0.107702 124.704 0.107702L124.706 0.358445C124.706 0.358445 124.261 0.242096 123.912 0.629181L123.835 0.777649L125.262 12.9403C125.268 12.9904 125.306 13.1409 125.326 13.189C125.42 13.4337 125.727 14.1718 126.321 14.1718H126.824L126.818 14.4747L122.556 14.4807V14.1778C122.556 14.1778 123.414 14.1337 123.583 13.7947C123.751 13.4537 123.789 13.4418 123.769 12.838C123.751 12.2343 122.548 2.88161 122.548 2.88161L117.639 14.3082L111.656 2.32C111.331 4.84519 110.234 12.6033 110.226 13.1549C110.21 14.3723 111.171 14.3142 111.171 14.3142V14.5248L107.428 14.5148V14.3042C107.923 14.3022 108.377 14.1176 108.746 13.7968C109.273 13.3374 109.46 12.6294 109.46 12.6294L110.908 1.59996C110.914 1.54982 110.904 1.49902 110.878 1.45554C110.73 1.20883 110.292 0.440727 109.372 0.540909V0.0916787C109.705 0.0896577 111.761 0.0615809 111.905 0.0856158C111.907 0.0896578 112.12 0.133758 112.328 0.514853C112.43 0.70143 112.531 0.911971 112.625 1.10252V1.10259ZM135.251 3.3076C135.251 3.3076 135.123 3.32564 134.918 3.3076C134.918 3.3076 134.872 2.30268 134.637 1.78322C134.459 1.39007 134.144 0.794394 132.575 0.796343C131.007 0.798364 130.453 2.12014 130.399 2.32274C130.343 2.52534 130.012 3.44798 131.579 4.70148C133.147 5.95505 134.511 6.4084 135.674 7.83844C136.836 9.26848 136.8 10.6284 136.523 11.5872C136.246 12.5459 135.297 13.5227 134.664 13.8837C133.981 14.2708 132.981 14.6117 131.847 14.5095C130.758 14.4091 129.858 14.0682 129.402 13.7292C128.979 13.4124 128.231 12.949 128.101 11.7877C127.972 10.6263 128.837 9.68169 129.2 9.35675C129.2 9.35675 130.042 8.63672 130.915 8.84134C130.915 8.84134 129.956 9.28458 129.569 10.113C129.182 10.9433 129.194 12.2651 130.176 13.1997C130.78 13.7733 131.422 14.1063 132.539 14.0181C133.707 13.9258 134.391 13.3522 134.798 12.949C135.177 12.572 135.438 11.7737 135.396 10.833C135.353 9.88228 134.615 8.60662 133.913 8.12729C133.213 7.64789 130.802 6.03329 130.401 5.69031C130.112 5.4436 129.049 4.90408 129.031 3.27743C129.013 1.65482 130.447 0.676024 131.087 0.477465C131.681 0.29298 132.457 0.150503 133.955 0.475444C133.955 0.475444 134.533 0.593814 134.706 0.517595C134.908 0.429323 134.976 0.4133 135 0.110445L135.261 0.106403L135.251 3.3076Z"
            fill="#FFF5EA" />
    </g>
    <defs>
        <clipPath id="clip0_1685_31949">
            <rect width="192" height="50" fill="white" />
        </clipPath>
    </defs>
</svg>