<svg viewBox="0 0 116 32" fill="none" xmlns="http://www.w3.org/2000/svg">
    <g clip-path="url(#clip0_1685_31966)">
        <path
            d="M22.0073 0H12.9989C12.6979 0 12.4567 0.249936 12.4501 0.560607C12.2682 9.29324 7.84208 17.5815 0.223905 23.4522C-0.0179596 23.6385 -0.0730618 23.9886 0.103764 24.2408L5.37443 31.7636C5.55374 32.0196 5.9031 32.0773 6.14903 31.8892C10.9124 28.2425 14.7439 23.8432 17.5031 18.9671C20.2623 23.8432 24.094 28.2425 28.8574 31.8892C29.1031 32.0773 29.4525 32.0196 29.6321 31.7636L34.9028 24.2408C35.0793 23.9886 35.0242 23.6385 34.7826 23.4522C27.1642 17.5815 22.7381 9.29324 22.5564 0.560607C22.5498 0.249936 22.3084 0 22.0073 0Z"
            fill="#FF875B" />
    </g>
    <g clip-path="url(#clip1_1685_31966)">
        <path
            d="M114.626 8.37443H112.206V5.45967C112.206 5.30524 112.137 5.16278 112.017 5.06863C111.901 4.97719 111.751 4.94468 111.609 4.98035L109.481 5.50415C109.263 5.55788 109.11 5.75499 109.11 5.9837V8.37443H107.897C107.63 8.37443 107.412 8.59659 107.412 8.86978V10.6337C107.412 10.9069 107.63 11.1293 107.898 11.1293H109.11V18.2459C109.138 21.2711 111.073 21.6879 113.161 21.6879C113.367 21.6879 113.574 21.682 113.783 21.6757C113.995 21.6694 114.209 21.6628 114.43 21.6628L114.455 21.6612C114.74 21.6247 114.916 21.4258 114.916 21.1422V19.252C114.916 18.9788 114.698 18.7569 114.43 18.7569H113.698C112.638 18.7569 112.206 18.2871 112.206 17.1354V11.1293H114.626C114.894 11.1293 115.111 10.9069 115.111 10.6337V8.86978C115.111 8.59659 114.894 8.37443 114.626 8.37443Z"
            fill="white" />
        <path
            d="M101.61 8.17175C100.343 8.17175 99.3503 8.56212 98.6536 9.33269V8.86872C98.6536 8.58628 98.4447 8.37337 98.1676 8.37337H95.9218C95.6444 8.37337 95.4355 8.58628 95.4355 8.86872V21.1412C95.4355 21.4236 95.6444 21.6367 95.9218 21.6367H98.1676C98.4447 21.6367 98.6536 21.4236 98.6536 21.1412V13.4551C98.6536 12.0332 99.5179 11.0777 100.804 11.0777C102.096 11.0777 102.931 12.0208 102.931 13.4802V21.1412C102.931 21.4236 103.139 21.6367 103.416 21.6367H105.662C105.94 21.6367 106.148 21.4236 106.148 21.1412V12.8755C106.148 10.0181 104.367 8.17175 101.61 8.17175Z"
            fill="white" />
        <path
            d="M90.2851 13.6903H85.5048C85.5328 13.2688 85.587 12.9744 85.6835 12.7164L85.6879 12.7031C85.9991 11.6397 86.7455 11.0777 87.8462 11.0777C89.0315 11.0777 89.871 11.7223 90.1526 12.8593C90.2124 13.0435 90.2592 13.3407 90.2851 13.6903ZM87.8462 8.17175C85.2374 8.17175 83.2607 9.64652 82.5593 12.1124C82.3294 12.8485 82.2307 13.7671 82.2578 14.9166C82.2578 16.3299 82.4464 17.4673 82.8323 18.3889C83.6867 20.5792 85.5527 21.8133 88.0881 21.8631C88.119 21.8636 88.1499 21.8639 88.1811 21.8639C90.2915 21.8639 92.1015 20.9912 93.1597 19.4564C93.3095 19.2243 93.2707 18.992 93.0493 18.8016L91.5365 17.5175C91.3958 17.3962 91.2648 17.3849 91.1792 17.3949C91.0889 17.4066 90.9561 17.4567 90.836 17.6302C90.2341 18.5109 89.4006 18.9573 88.3618 18.9573C86.9444 18.9344 86.0443 18.3607 85.6791 17.233C85.5716 16.9887 85.5244 16.6338 85.4829 16.2439H93.0464C93.3362 16.2439 93.531 16.0461 93.5323 15.7512C93.5579 14.8996 93.5543 14.2309 93.4579 13.5339C93.0475 9.97569 91.1595 8.17175 87.8462 8.17175Z"
            fill="white" />
        <path
            d="M77.134 14.892C77.134 16.2817 77.0814 16.6402 76.9692 17.0806C76.7136 18.1355 75.9401 18.7405 74.8466 18.7405C73.7657 18.7405 72.9257 18.1064 72.5946 17.0315C72.4898 16.7605 72.3648 16.1741 72.3648 14.9171C72.3648 13.9237 72.4528 13.245 72.6465 12.7688C73.0041 11.6885 73.7971 11.0687 74.8222 11.0687C75.9078 11.0687 76.7011 11.698 76.9471 12.7621C77.0798 13.2195 77.134 13.5401 77.134 14.892ZM79.8561 8.37344H77.6189C77.3425 8.37344 77.134 8.58589 77.134 8.86766V9.20069C76.3913 8.50936 75.4252 8.17273 74.1899 8.17273C72.0043 8.17273 70.2193 9.51293 69.5333 11.6655C69.1787 12.679 69.1333 13.9357 69.1333 14.9171C69.1333 16.2053 69.2359 17.1863 69.4577 18.01C70.2311 20.5915 72.4973 21.511 74.3601 21.511C75.5209 21.511 76.4534 21.1837 77.1336 20.5397C77.1209 21.6185 76.8382 22.3949 76.2705 22.9117C75.5268 23.5884 74.2682 23.8318 72.4045 23.6571C71.9228 23.6571 71.8708 23.9849 71.8708 24.1189L71.7979 26.1844C71.7979 26.4733 71.9607 26.6669 72.2385 26.7029C72.7001 26.7506 73.149 26.7745 73.5824 26.7745C75.6671 26.7745 77.403 26.2266 78.5565 25.1871C79.7406 24.1197 80.3409 22.5562 80.3409 20.54V8.86766C80.3409 8.58589 80.1324 8.37344 79.8561 8.37344Z"
            fill="white" />
        <path
            d="M68.0416 8.42587C67.7004 8.28927 67.3244 8.2229 66.8919 8.2229C65.7434 8.2229 64.8082 8.6898 64.1063 9.61186V8.86951C64.1063 8.59633 63.8884 8.37394 63.6204 8.37394H61.3742C61.1061 8.37394 60.8882 8.5961 60.8882 8.86929V21.1418C60.8882 21.4149 61.1064 21.6373 61.3744 21.6373H63.6204C63.8884 21.6373 64.1063 21.4149 64.1063 21.1418V14.0102C64.1063 12.4727 65.2164 11.7206 66.3328 11.656C66.7203 11.6016 66.9396 11.6195 67.1869 11.6684C67.4629 11.7231 67.7234 11.5538 67.7851 11.2826L68.3808 9.09327C68.4413 8.81465 68.2955 8.52769 68.0416 8.42587Z"
            fill="white" />
        <path
            d="M55.4051 15.891V17.0084C55.4051 18.3389 54.0262 19.1338 52.6929 19.1338C51.795 19.1338 50.8352 18.741 50.8352 17.6382C50.8352 16.5279 51.7792 15.891 53.4253 15.891H55.4051ZM53.2789 8.17175C50.7975 8.17175 48.8168 9.30876 48.2328 11.0687C48.1831 11.2184 48.2003 11.3809 48.2795 11.515C48.3538 11.6406 48.4767 11.7279 48.6176 11.7557L50.8314 12.3111C51.0633 12.3538 51.2941 12.2294 51.3833 12.0153C51.6365 11.4107 52.3354 11.0777 53.3521 11.0777C54.6951 11.0777 55.4051 11.7254 55.4051 12.9512V13.489H52.8639C49.5634 13.489 47.5928 15.1155 47.5928 17.8401C47.5928 20.7878 49.8619 21.8381 51.9852 21.8381C53.4093 21.8381 54.5863 21.4146 55.4051 20.6135V21.1412C55.4051 21.4143 55.6233 21.6365 55.8913 21.6365H58.137C58.405 21.6365 58.6232 21.4143 58.6232 21.1412V12.6489C58.6232 10.0127 56.4257 8.17175 53.2789 8.17175Z"
            fill="white" />
    </g>
    <defs>
        <clipPath id="clip0_1685_31966">
            <rect width="35.5556" height="32" fill="white" />
        </clipPath>
        <clipPath id="clip1_1685_31966">
            <rect width="67.5556" height="23.1111" fill="white" transform="translate(47.5557 4.44446)" />
        </clipPath>
    </defs>
</svg>