<svg width="20" height="20" viewBox="0 0 20 20" fill="none" xmlns="http://www.w3.org/2000/svg">
<path d="M16.6673 10.0002C16.6673 10.3934 16.3464 10.7127 15.9513 10.7127H5.83585L9.79327 14.4695C10.0803 14.7412 10.0906 15.1939 9.8175 15.4767C9.54445 15.7614 9.09162 15.7716 8.80533 15.5008L3.5566 10.5155C3.41412 10.383 3.33398 10.1961 3.33398 10.0002C3.33398 9.80439 3.41412 9.62041 3.55578 9.4839L8.80451 4.49856C9.08946 4.22882 9.54276 4.23891 9.81713 4.52378C10.0902 4.80569 10.0799 5.25823 9.7929 5.53094L5.83547 9.28775H15.978C16.3721 9.28805 16.6673 9.60854 16.6673 10.0002Z" />
</svg>
