<svg viewBox="0 0 43 45" fill="none" xmlns="http://www.w3.org/2000/svg">
<path fill-rule="evenodd" clip-rule="evenodd" d="M39.729 17.9921H42.2938C42.5618 17.9921 42.7784 18.2107 42.7784 18.4787L39.7784 43.8462C39.7784 44.1142 39.5596 44.333 39.2917 44.333H27.339L27.3418 43.1154L27.3391 34.4024C27.3391 31.7519 24.7272 29.5986 21.5182 29.5986C18.3092 29.5986 15.6973 31.7541 15.6973 34.4024V44.333H3.48673C3.21693 44.333 3 44.1142 3 43.8462L0 18.4768C0 18.2089 0.218764 17.9901 0.486733 17.9901L3.05158 17.9883C3.32139 17.9883 3.53831 18.2071 3.53831 18.475V20.6425L5.13156 20.6443V18.4768C5.13156 18.2089 5.35032 17.9901 5.61829 17.9901L8.1795 17.9883C8.44931 17.9883 8.66623 18.2071 8.66623 18.475V20.6425H10.2595V18.475C10.2595 18.207 10.4782 17.9883 10.7462 17.9883H13.3111C13.5809 17.9883 13.7978 18.2071 13.7978 18.475V24.7657H14.4923V11.2963C14.4923 11.0283 14.7111 10.8096 14.9791 10.8096H17.5439C17.8137 10.8096 18.0306 11.0283 18.0306 11.2963L18.0288 13.4637H19.6221V11.2963C19.6221 11.0283 19.8408 10.8096 20.1088 10.8096H20.9054V7.73245V7.7124V0.484667C20.9054 0.320606 20.9874 0.169303 21.126 0.0781584C21.2645 -0.0111667 21.4395 -0.0239254 21.5872 0.0398773L29.836 3.66018C30.0128 3.73675 30.1258 3.91175 30.1258 4.10497C30.1258 4.29638 30.0128 4.47138 29.836 4.54976L21.877 8.04066V10.8115H22.6736C22.9434 10.8115 23.1603 11.0303 23.1603 11.2982V13.4657H24.7517V11.2982C24.7517 11.0302 24.9705 10.8115 25.2385 10.8115H27.8033C28.0713 10.8115 28.29 11.0303 28.29 11.2982V24.7695H28.9828V18.4788C28.9828 18.2108 29.2015 17.9921 29.4695 17.9921H32.0325C32.3005 17.9921 32.5193 18.2109 32.5193 18.4788V20.6463H34.1125V18.4788C34.1125 18.2108 34.3294 17.9921 34.5992 17.9921H37.1623C37.4303 17.9921 37.649 18.2109 37.649 18.4788V20.6463H39.2422V18.4788C39.2422 18.2108 39.461 17.9921 39.729 17.9921Z" fill="#226545"/>
</svg>
