<svg width="20" height="20" viewBox="0 0 20 20" fill="none" xmlns="http://www.w3.org/2000/svg">
<path d="M5.23875 4.28563C4.71196 4.28563 4.28637 4.71123 4.28637 5.23801V14.7618C4.28637 15.2886 4.71196 15.7142 5.23875 15.7142H14.7626C15.2893 15.7142 15.7149 15.2886 15.7149 14.7618V5.23801C15.7149 4.71123 15.2893 4.28563 14.7626 4.28563H5.23875ZM3.33398 5.23801C3.33398 4.18742 4.18815 3.33325 5.23875 3.33325H14.7626C15.8132 3.33325 16.6673 4.18742 16.6673 5.23801V14.7618C16.6673 15.8124 15.8132 16.6666 14.7626 16.6666H5.23875C4.18815 16.6666 3.33398 15.8124 3.33398 14.7618V5.23801Z"/>
</svg>
