<svg width="24" height="24" viewBox="0 0 24 24" fill="none" xmlns="http://www.w3.org/2000/svg">
<path d="M4 9.33333V12H7.55556V5.77777C5.59167 5.77777 4 7.36944 4 9.33333ZM4 16.8889C4 17.625 4.59722 18.2222 5.33333 18.2222H7.55556V12.8889H4V16.8889ZM15.5556 12.8889H13.7778V13.7778C13.7778 14.2694 13.3806 14.6667 12.8889 14.6667H11.1111C10.6194 14.6667 10.2222 14.2694 10.2222 13.7778V12.8889H8.44444V18.2222H15.5556V12.8889ZM18.6667 18.2222C19.4028 18.2222 20 17.625 20 16.8889V12.8889H16.4444V18.2222H18.6667ZM20 9.33333C20 7.36944 18.4083 5.77777 16.4444 5.77777V12H20V9.33333ZM15.5556 12V5.77777H8.44444V12H10.2222V11.1111C10.2222 10.6194 10.6194 10.2222 11.1111 10.2222H12.8889C13.3806 10.2222 13.7778 10.6194 13.7778 11.1111V12H15.5556ZM12.4444 11.5555C12.4444 11.3111 12.2444 11.1111 12 11.1111C11.7556 11.1111 11.5556 11.3111 11.5556 11.5555V13.3333C11.5556 13.5778 11.7556 13.7778 12 13.7778C12.2444 13.7778 12.4444 13.5778 12.4444 13.3333V11.5555Z" fill="white"/>
</svg>
