<svg width="24" height="24" viewBox="0 0 24 24" fill="none" xmlns="http://www.w3.org/2000/svg">
<path d="M20 6.5C20 7.0625 19.5531 7.58125 18.8 8C17.8906 8.50313 16.5344 8.85938 14.9781 8.96562C14.8625 8.90937 14.7469 8.85625 14.625 8.80937C13.3938 8.29375 11.7562 8 10 8C9.74062 8 9.4875 8.00625 9.23438 8.01875L9.2 8C8.44687 7.58125 8 7.0625 8 6.5C8 5.11875 10.6875 4 14 4C17.3125 4 20 5.11875 20 6.5ZM9.02187 9.03438C9.34062 9.0125 9.66875 9 10 9C11.9437 9 13.6687 9.38437 14.7656 9.98125C15.5406 10.4031 16 10.9281 16 11.5C16 11.625 15.9781 11.7469 15.9344 11.8656C15.7906 12.2781 15.4031 12.6562 14.8406 12.975C14.8375 12.9781 14.8313 12.9781 14.8281 12.9812C14.8188 12.9875 14.8094 12.9906 14.8 12.9969C13.7063 13.6031 11.9625 13.9969 10 13.9969C8.1375 13.9969 6.47187 13.6437 5.36875 13.0875C5.30937 13.0594 5.25312 13.0281 5.19687 12.9969C4.44687 12.5813 4 12.0625 4 11.5C4 10.4125 5.66875 9.48438 8 9.14375C8.32812 9.09688 8.66875 9.05938 9.02187 9.03438ZM17 11.5C17 10.8156 16.6687 10.2531 16.2469 9.83125C17.1312 9.69375 17.9406 9.475 18.6281 9.19063C19.1375 8.97813 19.6125 8.71563 20 8.39375V9.5C20 10.1031 19.4844 10.6594 18.6313 11.0906C18.175 11.3219 17.6187 11.5187 16.9937 11.6687C16.9969 11.6125 17 11.5594 17 11.5031V11.5ZM16 14.5C16 15.0625 15.5531 15.5813 14.8 16C14.7438 16.0312 14.6875 16.0594 14.6281 16.0906C13.5281 16.6469 11.8625 17 10 17C8.0375 17 6.29375 16.6062 5.2 16C4.44688 15.5813 4 15.0625 4 14.5V13.3938C4.39062 13.7156 4.8625 13.9781 5.37188 14.1906C6.60625 14.7063 8.24375 15 10 15C11.7562 15 13.3938 14.7063 14.6281 14.1906C14.8719 14.0906 15.1062 13.975 15.3281 13.85C15.5188 13.7438 15.6969 13.625 15.8656 13.5C15.9125 13.4656 15.9563 13.4281 16 13.3938V13.5V13.6781V14.5ZM17 14.5V13.5V12.6906C17.5938 12.5594 18.1406 12.3938 18.6281 12.1906C19.1375 11.9781 19.6125 11.7156 20 11.3938V12.5C20 12.8281 19.8438 13.1562 19.5344 13.4656C19.025 13.975 18.1281 14.3937 16.9937 14.6656C16.9969 14.6125 17 14.5562 17 14.5ZM10 18C11.7562 18 13.3938 17.7063 14.6281 17.1906C15.1375 16.9781 15.6125 16.7156 16 16.3938V17.5C16 18.8813 13.3125 20 10 20C6.6875 20 4 18.8813 4 17.5V16.3938C4.39062 16.7156 4.8625 16.9781 5.37188 17.1906C6.60625 17.7063 8.24375 18 10 18Z" fill="white"/>
</svg>
