<svg viewBox="0 0 24 24" fill="none" xmlns="http://www.w3.org/2000/svg">
  <path d="M9.04078 15.0001L10.5205 10.4999L14.9596 8.99987L13.4799 13.5001L9.04078 15.0001Z" />
  <path fill-rule="evenodd" clip-rule="evenodd"
    d="M4.1084 12C4.1084 7.60014 7.65971 4 11.9999 4C16.3401 4 19.8914 7.60014 19.8914 12C19.8914 16.3999 16.3401 20 11.9999 20C7.65971 20 4.1084 16.3999 4.1084 12ZM17.9187 12C17.9187 8.69987 15.2553 5.99976 11.9999 5.99976C8.74452 5.99976 6.08103 8.69987 6.08103 12C6.08103 15.3001 8.74452 18.0002 11.9999 18.0002C15.2553 18.0002 17.9187 15.3001 17.9187 12Z" />
</svg>