<svg width="24" height="24" viewBox="0 0 24 24" fill="none" xmlns="http://www.w3.org/2000/svg">
<path d="M11.0872 5H12.9127V7.10112H11.0872V5Z" fill="#FBCB4A"/>
<path d="M8.43245 17.8793H5.02796C4.80357 17.8793 4.80357 17.6537 4.80357 17.6537V9.12099C4.80357 9.12099 4.80357 8.89749 5.02796 8.89749H11.0872L11.0872 7.10112H8.85949C8.85949 7.10112 8.4086 7.10112 7.95771 7.32463L3.67529 9.12099C3.2244 9.34449 3 9.79567 3 10.2427V17.4281C3 17.6537 3 17.8772 3.2244 18.1028L4.57707 19.4501C4.80147 19.6757 4.97134 19.6757 5.25236 19.6757H8.43296C8.43317 19.1297 8.43342 18.4846 8.43364 17.8918H15.4865V19.6757H18.7476C19.0287 19.6757 19.1985 19.6757 19.4229 19.4501L20.7756 18.1028C21 17.8793 21 17.6537 21 17.4281V10.2427C21 9.79358 20.7756 9.34449 20.3247 9.12099L16.0423 7.32463C15.5914 7.10112 15.1405 7.10112 15.1405 7.10112H12.9127L12.9127 8.89749H18.9741C19.1985 8.89749 19.1985 9.12099 19.1985 9.12099V17.6537C19.1985 17.6537 19.1985 17.8793 18.9741 17.8793H15.4933V16.1081H8.43421C8.43421 16.28 8.43263 17.729 8.43245 17.8793Z" fill="#FBCB4A"/>
<path d="M8.43243 13.3512H15.4933V11.5676H8.43421C8.43421 11.7498 8.43243 13.368 8.43243 13.3512Z" fill="#FBCB4A"/>
</svg>
