<svg width="24" height="24" viewBox="0 0 24 24" fill="none" xmlns="http://www.w3.org/2000/svg">
<path d="M11.9982 6.54685C11.7158 6.54622 11.4538 6.69685 11.3089 6.94248L8.64234 11.495L5.41722 8.81242C5.15273 8.59304 4.77973 8.56742 4.48873 8.74992C4.19773 8.93179 4.05285 9.28055 4.12806 9.61868L5.72973 16.8213C5.81296 17.1907 6.13663 17.4525 6.51025 17.4532H17.485C17.8599 17.4538 18.1854 17.1913 18.268 16.8213L19.871 9.61932V9.61869C19.948 9.27994 19.8025 8.92869 19.5103 8.74619C19.218 8.56369 18.8432 8.59056 18.5787 8.81244L15.3568 11.495L12.6872 6.9425C12.5423 6.69687 12.2803 6.54624 11.9979 6.54687L11.9982 6.54685Z" />
</svg>
