<svg width="40" height="40" viewBox="0 0 20 20" xmlns="http://www.w3.org/2000/svg">
<path d="M16.4837 10.4422C16.7285 10.1974 16.7285 9.80161 16.4837 9.55945L13.1507 6.22384C12.906 5.97907 12.5102 5.97907 12.268 6.22384C12.0258 6.46861 12.0232 6.8644 12.268 7.10656L14.5334 9.37197L8.12518 9.37457C7.77886 9.37457 7.50024 9.65319 7.50024 9.99951C7.50024 10.3458 7.77886 10.6245 8.12518 10.6245H14.5334L12.268 12.8899C12.0232 13.1346 12.0232 13.5304 12.268 13.7726C12.5128 14.0147 12.9086 14.0173 13.1507 13.7726L16.4837 10.4422ZM7.70856 5.41663C8.05488 5.41663 8.3335 5.13801 8.3335 4.79169C8.3335 4.44537 8.05488 4.16675 7.70856 4.16675H5.62543C4.35993 4.16675 3.33398 5.19269 3.33398 6.45819V13.5408C3.33398 14.8063 4.35993 15.8323 5.62543 15.8323H7.70856C8.05488 15.8323 8.3335 15.5537 8.3335 15.2073C8.3335 14.861 8.05488 14.5824 7.70856 14.5824H5.62543C5.04996 14.5824 4.58386 14.1163 4.58386 13.5408V6.45819C4.58386 5.88273 5.04996 5.41663 5.62543 5.41663H7.70856Z"/>
</svg>
