<svg viewBox="0 0 39 39" fill="none" xmlns="http://www.w3.org/2000/svg">
<path d="M23.6141 7.7801C22.4981 7.386 21.8288 6.37523 21.0525 5.2065C20.2371 3.97662 19.313 2.58192 17.6889 1.8515C14.2847 0.320951 10.3435 2.27279 7.46414 3.69634C7.12779 3.86282 6.80334 4.0225 6.49415 4.17201C4.63744 5.06047 3.80674 5.18445 3.51968 5.19467L2.34078 0.87816C2.1675 0.242847 1.51351 -0.130887 0.878157 0.0423685C0.242846 0.215641 -0.130886 0.869636 0.0423684 1.50499L10.0512 38.3914C10.1939 38.9197 11.0488 39.0333 11.5403 38.9163C12.0318 38.7992 12.5433 38.2691 12.37 37.6337L8.27438 22.6252C11.186 20.619 15.9373 17.8737 18.1609 17.8737C18.2101 17.8737 18.2594 17.8754 18.3069 17.8788C18.8539 17.9111 18.91 17.9773 19.1733 18.8947C19.863 21.3035 21.2203 22.53 25.8595 21.21C33.7317 18.9677 37.4481 8.47463 37.6029 8.02932L38.3945 5.74452L36.1013 6.50894C33.509 7.37361 26.7687 8.89278 23.6141 7.7801ZM7.29932 18.7421C7.27724 18.7625 7.26195 18.7862 7.24157 18.8083L4.66118 8.64479C6.58247 9.14251 8.25909 10.6595 8.88083 12.5417C9.58072 14.6651 8.9301 17.2148 7.29932 18.7421Z" fill="#33271F"/>
</svg>
