<svg width="20" height="20" viewBox="0 0 20 20" fill="none" xmlns="http://www.w3.org/2000/svg">
<path d="M2 7.33339V10.0001H5.55556V3.77783C3.59167 3.77783 2 5.3695 2 7.33339ZM2 14.8889C2 15.6251 2.59722 16.2223 3.33333 16.2223H5.55556V10.8889H2V14.8889ZM13.5556 10.8889H11.7778V11.7778C11.7778 12.2695 11.3806 12.6667 10.8889 12.6667H9.11111C8.61944 12.6667 8.22222 12.2695 8.22222 11.7778V10.8889H6.44444V16.2223H13.5556V10.8889ZM16.6667 16.2223C17.4028 16.2223 18 15.6251 18 14.8889V10.8889H14.4444V16.2223H16.6667ZM18 7.33339C18 5.3695 16.4083 3.77783 14.4444 3.77783V10.0001H18V7.33339ZM13.5556 10.0001V3.77783H6.44444V10.0001H8.22222V9.11117C8.22222 8.6195 8.61944 8.22228 9.11111 8.22228H10.8889C11.3806 8.22228 11.7778 8.6195 11.7778 9.11117V10.0001H13.5556ZM10.4444 9.55561C10.4444 9.31117 10.2444 9.11117 10 9.11117C9.75556 9.11117 9.55556 9.31117 9.55556 9.55561V11.3334C9.55556 11.5778 9.75556 11.7778 10 11.7778C10.2444 11.7778 10.4444 11.5778 10.4444 11.3334V9.55561Z"/>
</svg>
