<svg width="24" height="24" viewBox="0 0 24 24" fill="none" xmlns="http://www.w3.org/2000/svg">
<path d="M15 14C17.7625 14 20 11.7625 20 9C20 8.52187 19.9312 8.05938 19.8062 7.61875C19.7094 7.28125 19.2937 7.20625 19.0469 7.45312L16.6469 9.85313C16.5531 9.94688 16.425 10 16.2937 10H14.5C14.225 10 14 9.775 14 9.5V7.70625C14 7.575 14.0531 7.44688 14.1469 7.35313L16.5469 4.95312C16.7937 4.70625 16.7156 4.29062 16.3813 4.19375C15.9406 4.06875 15.4781 4 15 4C12.2375 4 10 6.2375 10 9C10 9.59688 10.1062 10.1719 10.2969 10.7031L4.62187 16.3781C4.225 16.775 4 17.3156 4 17.8781C4 19.05 4.95 20 6.12188 20C6.68438 20 7.225 19.775 7.62188 19.3781L13.2969 13.7031C13.8281 13.8969 14.4031 14 15 14ZM6.5 16.75C6.69891 16.75 6.88968 16.829 7.03033 16.9697C7.17098 17.1103 7.25 17.3011 7.25 17.5C7.25 17.6989 7.17098 17.8897 7.03033 18.0303C6.88968 18.171 6.69891 18.25 6.5 18.25C6.30109 18.25 6.11032 18.171 5.96967 18.0303C5.82902 17.8897 5.75 17.6989 5.75 17.5C5.75 17.3011 5.82902 17.1103 5.96967 16.9697C6.11032 16.829 6.30109 16.75 6.5 16.75Z" fill="white"/>
</svg>
