<svg  viewBox="0 0 42 41" fill="none" xmlns="http://www.w3.org/2000/svg">
<path fill-rule="evenodd" clip-rule="evenodd" d="M29.1497 30.8822L36.4557 37.2849L38.0384 40.1472L41.2773 39.5441L41.7288 36.3053L38.7915 34.8742L32.0873 27.8701L36.6074 23.1236L34.9496 21.6175L28.9235 25.986L27.1158 27.7936L23.0488 34.0461L24.63 35.5523L29.1497 30.8822Z" fill="#B51919"/>
<path fill-rule="evenodd" clip-rule="evenodd" d="M0 0.000108817L4.2184 9.34008L16.7977 20.186L12.3527 24.9326L13.1824 25.534L14.9901 27.4167L15.5916 28.2463L20.8649 23.7264L26.1382 28.2463L26.7397 27.4167L28.4724 25.534L29.3771 24.9326L24.9321 20.186L37.5114 9.34008L41.6549 0.000108817L32.24 3.842L20.8655 15.8926L9.49092 3.842L0 0.000108817Z" fill="#B51919"/>
<path fill-rule="evenodd" clip-rule="evenodd" d="M12.5789 30.8823L5.19657 37.2851L3.6904 40.1473L0.45151 39.5442L0 36.3054L2.93736 34.8743L9.56687 27.8703L5.12188 23.1237L6.70467 21.6176L12.8059 25.9861L14.537 27.7937L18.6806 34.0463L17.0228 35.5524L12.5789 30.8823Z" fill="#B51919"/>
</svg>
