<svg width="24" height="24" viewBox="0 0 24 24" fill="none" xmlns="http://www.w3.org/2000/svg">
<path d="M9.5008 5.50009C9.5008 5.10224 9.65885 4.72069 9.94017 4.43937C10.2215 4.15804 10.603 4 11.0009 4C11.3987 4 11.7803 4.15804 12.0616 4.43937C12.3429 4.72069 12.501 5.10224 12.501 5.50009C12.501 5.89793 12.3429 6.27949 12.0616 6.56081C11.7803 6.84213 11.3987 7.00017 11.0009 7.00017C10.603 7.00017 10.2215 6.84213 9.94017 6.56081C9.65885 6.27949 9.5008 5.89793 9.5008 5.50009ZM3.30669 10.2129C3.46608 9.83159 3.9036 9.65033 4.288 9.80971L4.89741 10.0629L5.61308 8.87216C6.12248 8.01898 7.04129 7.5002 8.03197 7.5002C9.63831 7.5002 11.0634 8.52839 11.5728 10.0535L12.6541 13.2943L15.1324 14.3287L16.2012 12.9036C16.4012 12.638 16.72 12.488 17.0512 12.5036C17.3825 12.5192 17.6857 12.7036 17.8575 12.988L20.8577 17.9883C21.0421 18.2977 21.0483 18.6821 20.8702 18.9946C20.6921 19.3071 20.3608 19.5009 20.0014 19.5009H12.0009C11.6541 19.5009 11.3322 19.3228 11.1509 19.0259C10.9696 18.729 10.9509 18.3633 11.1071 18.0539L11.6072 17.0539C11.7759 16.7164 12.1228 16.5007 12.501 16.5007H13.501L14.2042 15.5632L3.71297 11.1942C3.3317 11.0348 3.15044 10.5973 3.30982 10.2129H3.30669ZM5.89434 13.0818L9.39455 14.5819C9.76332 14.7381 10.0008 15.1006 10.0008 15.5007V18.5008C10.0008 19.054 9.55393 19.5009 9.00078 19.5009C8.44762 19.5009 8.00072 19.054 8.00072 18.5008V16.1601L6.10686 15.3475L4.95054 18.8165C4.77553 19.3415 4.20987 19.6228 3.68484 19.4478C3.15981 19.2728 2.87854 18.7071 3.05043 18.1852L4.55052 13.6849L4.89429 12.6536L5.89434 13.0818Z" fill="white"/>
</svg>
