<svg viewBox="0 0 20 20" fill="none" xmlns="http://www.w3.org/2000/svg">
<path fill-rule="evenodd" clip-rule="evenodd" d="M16.25 3.7605L15.2486 6.78405L11.6279 10.0772L13.3034 11.9066L14.8058 10.7896L15.5376 11.4828L14.1701 12.9271L15.3644 14.3522C15.8653 14.3907 16.25 14.795 16.25 15.2959C16.25 15.8159 15.8262 16.2397 15.3063 16.2397C14.7863 16.2397 14.382 15.8159 14.3625 15.3154L12.8798 14.1212L11.5123 15.5463L10.8381 14.853L11.9166 13.3122L9.99052 11.5595L8.08397 13.3122L9.16247 14.853L8.46918 15.5463L7.1017 14.1212L5.63799 15.3154C5.61895 15.8164 5.19516 16.2397 4.69424 16.2397C4.17427 16.2397 3.75049 15.8159 3.75049 15.2959C3.75049 14.795 4.1357 14.3907 4.61709 14.3522L5.83034 12.9271L4.46286 11.4828L5.17518 10.7896L6.69652 11.9066L8.37209 10.0772L4.75136 6.78405L3.75 3.7605L6.85079 4.839L9.99008 8.28638L13.1485 4.839L16.2493 3.7605H16.25Z"/>
</svg>
