<svg width="24" height="24" viewBox="0 0 24 24" fill="none" xmlns="http://www.w3.org/2000/svg">
<path d="M11.9997 13.0782L16.8824 17.9611C17.1801 18.2588 17.6627 18.2588 17.9604 17.9612C18.2581 17.6635 18.2581 17.1808 17.9604 16.8832L13.0777 12.0002L17.9607 7.11697C18.2584 6.81929 18.2584 6.33666 17.9607 6.03898C17.663 5.74131 17.1804 5.74132 16.8827 6.039L11.9997 10.9222L7.11669 6.039C6.81902 5.74132 6.33638 5.74131 6.0387 6.03898C5.74101 6.33666 5.74101 6.81929 6.03868 7.11697L10.9217 12.0002L6.03897 16.8832C5.7413 17.1808 5.74131 17.6635 6.03899 17.9612C6.33668 18.2588 6.81931 18.2588 7.11698 17.9611L11.9997 13.0782Z" fill="#F6C297"/>
</svg>
