<svg viewBox="0 0 6 6" fill="none" xmlns="http://www.w3.org/2000/svg">
    <g clip-path="url(#clip0_1749_12720)">
        <path
            d="M0.0175781 5.52813V3.75734C0.0175781 2.45242 0.806872 1.28835 1.98792 0.852571L3.94902 0.129087C4.19633 0.0375983 4.45519 0.229003 4.45519 0.501061C4.45519 0.63348 4.39163 0.756267 4.28647 0.829699L3.90049 1.09815C4.45634 1.09815 4.95442 1.45688 5.14972 1.99979L5.71136 3.55871C5.84772 3.93671 5.75874 4.36285 5.48485 4.64815C5.29995 4.84076 5.04803 4.95031 4.7857 4.95031H4.74641C4.44479 4.95031 4.15819 4.81067 3.9652 4.5687L3.59193 4.10283C3.45673 4.15219 3.31227 4.17988 3.16089 4.17988H3.15973C3.08693 4.17988 3.01528 4.17386 2.94478 4.16182C2.90318 4.1546 2.86158 4.14497 2.82113 4.13413C2.48715 4.04024 2.20749 3.81151 2.03762 3.50575C1.98677 3.41426 1.87352 3.38176 1.78453 3.43593C1.69555 3.4901 1.6655 3.60687 1.71751 3.69956C1.99486 4.19914 2.5068 4.54222 3.09617 4.56509L3.64163 5.41738C3.68785 5.49081 3.71328 5.57628 3.71328 5.66296C3.71328 5.90733 3.5226 6.10596 3.288 6.10596H0.572279C0.266038 6.10596 0.0175781 5.84714 0.0175781 5.52813ZM3.80804 2.63901C3.84446 2.63901 3.88052 2.63154 3.91417 2.61702C3.94782 2.6025 3.9784 2.58122 4.00415 2.55439C4.02991 2.52756 4.05034 2.49571 4.06428 2.46066C4.07821 2.42561 4.08539 2.38804 4.08539 2.3501C4.08539 2.31216 4.07821 2.27459 4.06428 2.23954C4.05034 2.20448 4.02991 2.17264 4.00415 2.14581C3.9784 2.11898 3.94782 2.0977 3.91417 2.08318C3.88052 2.06866 3.84446 2.06119 3.80804 2.06119C3.77161 2.06119 3.73555 2.06866 3.7019 2.08318C3.66825 2.0977 3.63767 2.11898 3.61192 2.14581C3.58617 2.17264 3.56574 2.20448 3.5518 2.23954C3.53786 2.27459 3.53069 2.31216 3.53069 2.3501C3.53069 2.38804 3.53786 2.42561 3.5518 2.46066C3.56574 2.49571 3.58617 2.52756 3.61192 2.55439C3.63767 2.58122 3.66825 2.6025 3.7019 2.61702C3.73555 2.63154 3.77161 2.63901 3.80804 2.63901Z"
            fill="#24130A" />
    </g>
    <defs>
        <clipPath id="clip0_1749_12720">
            <rect width="6" height="6" fill="white" />
        </clipPath>
    </defs>
</svg>