<svg viewBox="0 0 128 128" fill="none" xmlns="http://www.w3.org/2000/svg">
<path fill-rule="evenodd" clip-rule="evenodd" d="M64.0022 125.384C64.16 125.383 64.4598 125.512 64.6176 125.384H64.0022ZM110.227 102.267L64.6176 125.384C64.6455 125.361 64.6734 125.338 64.7013 125.314C64.8178 125.217 64.9344 125.121 65.0509 125.062L110.227 102.267ZM110.227 102.267L125.378 94.5881C125.247 94.8345 125.065 94.8856 124.838 94.9493C124.739 94.9773 124.631 95.0076 124.515 95.0577L110.227 102.267Z" fill="#04AA15"/>
<path d="M124.515 32.6088L65.0509 2.60482C64.7338 2.44484 64.4168 2.36874 64.0998 2.37652C63.8122 2.38358 63.5246 2.45968 63.2369 2.60482L3.77233 32.6088C3.39318 32.7728 3.10132 33.0542 2.91244 33.4059L33.5046 48.7718L63.2369 63.1041H63.6906H64.1443L94.7613 48.2577L125.378 33.4112C125.189 33.0571 124.897 32.7736 124.515 32.6088Z" fill="#03A413"/>
<path d="M125.624 34.4395C125.624 34.0654 125.539 33.7127 125.378 33.4112L94.7613 48.2577L64.1443 63.1041H63.6906L64.0022 125.384H64.6176C64.6455 125.361 64.6734 125.338 64.7013 125.314C64.8178 125.217 64.9344 125.121 65.0509 125.062L110.227 102.267L125.378 94.5881C125.539 94.2867 125.624 93.6012 125.624 93.227V63.8333V34.4395Z" fill="#087213"/>
<path d="M3.77233 95.0577L63.2369 125.062C63.3535 125.121 63.47 125.217 63.5866 125.314C63.7725 125.469 63.8163 125.384 64.0022 125.384L63.6906 63.1041H63.2369L33.5046 48.7718L2.91244 33.4059C2.90362 33.4223 2.89503 33.4388 2.88667 33.4555C2.74076 33.747 2.66357 34.0835 2.66357 34.4395V93.227C2.66357 94.0407 3.06682 94.7526 3.77233 95.0577Z" fill="#039311"/>
<path d="M8.29102 98.0202V37.4247L58.7185 12.7152L51.6313 9.17667L57.0002 6.49902L64.148 10.0548L71.4047 6.49902L76.838 9.17667L69.5441 12.7392L119.167 37.4247V98.0202L113.434 100.601V40.0341L64.096 15.4002L13.6602 40.0341V100.601L8.29102 98.0202Z" fill="white"/>
<path d="M64.0609 63.1036L63.8632 93.3934L94.8335 78.6966L94.7108 48.4241L64.0609 63.1036Z" fill="#C5B100"/>
<path d="M64.0609 63.1036L33.4541 48.9383V78.9867L63.8632 93.3934L64.0609 63.1036Z" fill="#E3CD07"/>
<path d="M33.4541 48.9383L64.0609 63.1036L94.7108 48.4241L64.0609 34.606L33.4541 48.9383Z" fill="#F9E108"/>
<path d="M36.9881 18.7861L31.1011 16.0708C29.3482 18.574 33.1955 19.6164 36.9881 18.7861Z" fill="white"/>
<path d="M5.03937 93.0936V34.9064L22.1133 26.2915L16.2264 23.5762L2.5544 30.4746C0.825992 31.2634 0 32.9788 0 34.6063V93.3937C0 95.0212 0.825966 96.7365 2.55432 97.5254L61.9662 127.503C63.2803 128.166 64.7197 128.166 66.0338 127.503L106.348 107.161L99.8445 110.443V104.757L64 122.843L5.03937 93.0936Z" fill="white"/>
<path d="M122.961 34.9064V93.0936L109.452 99.9096V105.595L122.244 99.139L122.25 99.1376L125.446 97.5253C127.174 96.7365 128 95.0212 128 93.3937V34.6063C128 32.9788 127.174 31.2635 125.446 30.4746L66.0338 0.497285C64.7197 -0.165762 63.2803 -0.165762 61.9662 0.497285L31.1011 16.0708L36.9881 18.7861L64 5.15675L122.961 34.9064Z" fill="white"/>
<path d="M99.8445 104.757V110.443C102.16 109.047 101.381 105.093 99.8445 104.757Z" fill="white"/>
<path d="M109.452 99.9096V105.595C107.626 104.988 107.34 101.51 109.452 99.9096Z" fill="white"/>
<path d="M16.2264 23.5762L22.1133 26.2915C22.3219 24.779 21.7983 23.8927 20.7485 23.4882C19.6987 23.0837 18.1226 23.161 16.2264 23.5762Z" fill="white"/>
</svg>
