<svg viewBox="0 0 133 134" fill="none" xmlns="http://www.w3.org/2000/svg">
<path d="M2.28271 22.8496H130.541V115.875H2.28271V22.8496Z" fill="#A8FFF6"/>
<path fill-rule="evenodd" clip-rule="evenodd" d="M127.262 21.402C127.36 20.9945 127.409 20.5831 127.409 20.1683C117.535 10.7061 100.034 2.54102 66.2659 2.54102C32.4974 2.54102 16.3259 11.0859 5.12256 20.1683C5.12256 29.9036 32.4974 37.7956 66.2659 37.7956C89.6195 37.7956 109.915 34.021 120.213 28.4725C120.036 20.385 117.659 16.566 115.846 15.1545L127.262 21.402Z" fill="#C4C4C4"/>
<path d="M115.846 15.1545C117.659 16.566 120.036 20.385 120.213 28.4725C124.171 26.3399 126.652 23.9452 127.262 21.402L115.846 15.1545Z" fill="#9B9595"/>
<path fill-rule="evenodd" clip-rule="evenodd" d="M35.809 37.5353C46.0211 39.4363 56.8864 40.3753 67.6246 40.3753C92.2042 40.3753 116.796 35.4548 131.9 25.2466L129.1 21.104C115.204 30.4959 91.7951 35.3753 67.6246 35.3753C57.2141 35.3753 46.7882 34.47 37.0573 32.6815L35.809 37.5353ZM21.757 34.1651L23.6313 29.5062C16.1514 27.2969 9.40233 24.4716 3.80541 21.0435L1.19385 25.3072C7.08453 28.9153 14.08 31.8637 21.757 34.1651Z" fill="white"/>
<path d="M39.0095 35.1229C39.0095 36.5036 37.8902 37.6229 36.5095 37.6229C35.1288 37.6229 34.0095 36.5036 34.0095 35.1229C34.0095 33.7422 35.1288 32.6229 36.5095 32.6229C37.8902 32.6229 39.0095 33.7422 39.0095 35.1229Z" fill="white"/>
<path d="M25.145 31.8142C25.145 33.1949 24.0257 34.3142 22.645 34.3142C21.2643 34.3142 20.145 33.1949 20.145 31.8142C20.145 30.4335 21.2643 29.3142 22.645 29.3142C24.0257 29.3142 25.145 30.4335 25.145 31.8142Z" fill="white"/>
<path fill-rule="evenodd" clip-rule="evenodd" d="M5.83533 23.148C21.2621 11.1441 44.4829 5 67.6125 5C81.1318 5 94.425 7.09827 105.941 11.2204L107.88 6.60374C95.618 2.17598 81.6174 0 67.6125 0C43.7747 0 19.3534 6.30193 2.78051 19.1897C0.87437 20.6297 0 22.8155 0 24.975V111.254L5 115.875V24.975C5 24.1419 5.31975 23.5352 5.80005 23.175L5.81781 23.1617L5.83533 23.148ZM116.934 10.4517L114.513 14.8335C119.264 17.1734 123.568 19.9246 127.281 23.08L127.299 23.0951L127.317 23.1099C127.733 23.4506 128 23.9805 128 24.775V115.775L133 109.574V24.775C133 22.777 132.272 20.7147 130.503 19.2564C126.513 15.8681 121.939 12.9354 116.934 10.4517Z" fill="white"/>
<path d="M109.529 8.95785C109.529 10.3386 108.409 11.4579 107.029 11.4579C105.648 11.4579 104.529 10.3386 104.529 8.95785C104.529 7.57714 105.648 6.45785 107.029 6.45785C108.409 6.45785 109.529 7.57714 109.529 8.95785Z" fill="white"/>
<path d="M118.171 12.6192C118.171 13.9999 117.052 15.1192 115.671 15.1192C114.29 15.1192 113.171 13.9999 113.171 12.6192C113.171 11.2385 114.29 10.1192 115.671 10.1192C117.052 10.1192 118.171 11.2385 118.171 12.6192Z" fill="white"/>
<path d="M128.378 26.9868L120.462 31.2872C122.249 49.6995 112.755 81.369 71.3181 97.9618C56.8395 103.76 38.4611 107.717 15.3013 108.624C11.9508 108.756 8.50014 108.823 4.94678 108.823V114.986H5.93528C16.0201 127.24 89.4967 143.235 127.18 114.937H128.378V26.9868Z" fill="#7DC1BA"/>
<path fill-rule="evenodd" clip-rule="evenodd" d="M0 113.076V47.8755H5V113.076C5 113.974 5.49291 114.758 6.0765 115.07L6.09335 115.079L6.11007 115.088C21.6036 123.658 44.6344 128.051 67.575 128.051C90.5153 128.051 112.825 123.658 126.974 115.156C127.618 114.73 128 114.044 128 113.175L128.402 47.8755H133V113.175C133 115.696 131.793 118.002 129.652 119.378L129.621 119.398L129.59 119.417C114.336 128.6 90.9651 133.051 67.575 133.051C44.1726 133.051 20.2108 128.596 3.7048 119.471C1.30038 118.179 0 115.571 0 113.076Z" fill="white"/>
<path d="M19.5451 33.4621L13.63 31.3569L13.4541 118.578C17.7751 120.448 19.1456 120.754 19.5451 120.899V33.4621Z" fill="white"/>
<path d="M128.349 40.021C105.853 54.3771 47.9106 60.7411 5.06445 40.5391V44.979C47.9106 65.1811 105.853 58.817 128.349 44.4609V40.021Z" fill="white"/>
</svg>
