<svg viewBox="0 0 128 128" fill="none" xmlns="http://www.w3.org/2000/svg">
<path d="M110.402 124.067C109.898 126.361 107.866 127.996 105.518 127.996H22.409C20.0928 127.996 18.0797 126.405 17.5444 124.151L8.01555 84.0364L6.71283 78.5522L5.26529 72.4583L3.06372 63.1901C2.63899 61.402 3.22941 59.5251 4.60128 58.3022L26.9774 38.3557L28.0731 37.379L33.1865 32.8209L37.2393 29.2082L39.9736 26.7708L60.6379 8.35028C62.5483 6.64733 65.4362 6.66183 67.3294 8.38389L72.1559 12.7741L87.5435 26.7708L90.2231 29.2082L94.1949 32.8209L94.5183 33.1151L99.206 37.379L100.28 38.3557L122.252 58.3418C123.575 59.5455 124.155 61.3644 123.772 63.1118L120.547 77.8111L119.326 83.3775L110.402 124.067Z" fill="#F5F4FF"/>
<path d="M103.664 41.4115H23.6274L30.2017 35.1232H96.6602L103.664 41.4115Z" fill="white"/>
<path d="M92.0868 30.6924H35.4898L37.9276 28.4958H89.4479L92.0868 30.6924Z" fill="white"/>
<path d="M22.1959 127.995C19.99 127.995 18.0722 126.474 17.56 124.317L13.864 108.758C13.464 107.074 13.9633 105.303 15.1841 104.076L60.3964 58.6321C62.3511 56.6674 65.5308 56.6674 67.4855 58.6321L112.466 103.843C113.665 105.048 114.169 106.78 113.805 108.44L110.34 124.236C109.859 126.432 107.923 127.995 105.686 127.995H63.941H22.1959Z" fill="#ECECFF"/>
<path d="M64.5862 6.42862L121.848 58.5142L118.371 74.3653L124.331 75.4424L127.883 59.2487C128.272 57.4717 127.684 55.6211 126.342 54.4001L67.9762 1.31024C66.0699 -0.423695 63.1709 -0.438315 61.2475 1.2763L1.69765 54.36C0.306134 55.6004 -0.292963 57.51 0.138963 59.3284L15.527 124.109C16.0689 126.39 18.0975 128 20.4311 128H108.751C111.118 128 113.165 126.346 113.675 124.023L117.152 108.17L117.227 107.83L111.418 106.068L107.941 121.919H21.2271L6.16429 58.5068L64.5862 6.42862Z" fill="white"/>
<path d="M114.894 90.2164L114.253 93.1413L120.122 94.6305L120.779 91.636L122.028 85.9398L116.135 84.5602L114.894 90.2164Z" fill="white"/>
<path d="M124.391 74.797C124.391 76.4764 123.037 77.8377 121.366 77.8377C119.695 77.8377 118.341 76.4764 118.341 74.797C118.341 73.1177 119.695 71.7563 121.366 71.7563C123.037 71.7563 124.391 73.1177 124.391 74.797Z" fill="white"/>
<path d="M122.074 85.4035C122.074 87.0828 120.719 88.4442 119.049 88.4442C117.378 88.4442 116.023 87.0828 116.023 85.4035C116.023 83.7242 117.378 82.3628 119.049 82.3628C120.719 82.3628 122.074 83.7242 122.074 85.4035Z" fill="white"/>
<path d="M120.216 93.8561C120.216 95.5355 118.862 96.8968 117.191 96.8968C115.52 96.8968 114.166 95.5355 114.166 93.8561C114.166 92.1768 115.52 90.8154 117.191 90.8154C118.862 90.8154 120.216 92.1768 120.216 93.8561Z" fill="white"/>
<path d="M117.37 106.79C117.37 108.469 116.015 109.83 114.345 109.83C112.674 109.83 111.319 108.469 111.319 106.79C111.319 105.11 112.674 103.749 114.345 103.749C116.015 103.749 117.37 105.11 117.37 106.79Z" fill="white"/>
</svg>
