<svg width="24" height="24" viewBox="0 0 24 24" fill="none" xmlns="http://www.w3.org/2000/svg">
    <path fill-rule="evenodd" clip-rule="evenodd"
        d="M3.35938 16.3682V15.271L13.0141 20.8532L12.0667 21.4009C11.8341 21.5353 11.5476 21.5353 11.3151 21.4009L3.73517 17.0198C3.50263 16.8855 3.35938 16.6371 3.35938 16.3682Z"
        fill="#E0AF65" />
    <path d="M13.9616 20.3056L14.909 19.7579L3.35938 13.0825V14.1779L13.9616 20.3056Z" fill="#E0AF65" />
    <path
        d="M19.6477 6.95498L12.0679 2.57393C11.8354 2.43955 11.5488 2.43955 11.3163 2.57393L3.73638 6.95498C3.50383 7.08936 3.36058 7.33765 3.36058 7.60656L3.35156 10.4803L16.9711 18.5164L19.6477 17.0199C19.8802 16.8856 20.0235 16.6372 20.0235 16.3683V7.60656C20.0235 7.33765 19.8802 7.08936 19.6477 6.95498Z"
        fill="#E0AF65" />
    <path d="M16.9711 18.5162L3.35156 10.48L3.36058 13.0824L14.9102 19.7577L16.9711 18.5162Z" fill="#A8D5FF" />
    <path d="M16.9711 18.5162L3.35156 10.48L3.36058 13.0824L14.9102 19.7577L16.9711 18.5162Z" fill="#CF9A4A" />
    <path d="M13.9616 20.3055L3.35938 14.1777V15.2709L13.0141 20.8531L13.9616 20.3055Z" fill="#A8D5FF" />
    <path d="M13.9616 20.3055L3.35938 14.1777V15.2709L13.0141 20.8531L13.9616 20.3055Z" fill="#CF9A4A" />
    <path
        d="M16.4743 4.76097C16.4743 4.96878 16.306 5.13717 16.0985 5.13717C15.891 5.13717 15.7227 4.96878 15.7227 4.76097C15.7227 4.55315 15.891 4.38477 16.0985 4.38477C16.306 4.38477 16.4743 4.55315 16.4743 4.76097Z"
        fill="white" />
    <path
        d="M12.5033 2.2478C12.1545 2.04631 11.7248 2.04631 11.3759 2.2478L3.79611 6.62885C3.44723 6.83034 3.23242 7.20292 3.23242 7.60621V16.368C3.23242 16.7713 3.44723 17.1439 3.79611 17.3453L11.3759 21.7264C11.7248 21.9279 12.1545 21.9279 12.5033 21.7264L20.0832 17.3453C20.4321 17.1439 20.6469 16.7713 20.6469 16.368V7.60621C20.6469 7.20292 20.4321 6.83034 20.0832 6.62885L18.1883 5.53351L17.8125 6.18508L19.7074 7.28042C19.8238 7.34754 19.8953 7.47183 19.8953 7.60621V16.368C19.8953 16.5023 19.8238 16.6267 19.7074 16.6938L12.1275 21.0748C12.0113 21.142 11.868 21.142 11.7517 21.0748L4.17191 16.6938C4.05556 16.6267 3.98401 16.5023 3.98401 16.368V7.60621C3.98401 7.47183 4.05556 7.34754 4.17191 7.28042L11.7517 2.89937C11.868 2.83226 12.0113 2.83226 12.1275 2.89937L15.9174 5.0899L16.2933 4.43832L12.5033 2.2478Z"
        fill="white" />
    <path
        d="M18.3884 5.86595C18.3884 6.07375 18.2201 6.24215 18.0125 6.24215C17.805 6.24215 17.6367 6.07375 17.6367 5.86595C17.6367 5.65829 17.805 5.48975 18.0125 5.48975C18.2201 5.48975 18.3884 5.65829 18.3884 5.86595Z"
        fill="white" />
    <g clip-path="url(#clip0_1484_5521)">
        <path
            d="M13.3267 8.12012C13.4381 7.99651 13.6296 7.99651 13.7411 8.12012L15.6667 10.2599H14.6482C14.5402 10.2599 14.4427 10.3226 14.3957 10.4183C14.3487 10.5141 14.3644 10.6307 14.4323 10.7143L16.3161 13.0212C16.3178 13.0247 16.3196 13.0265 16.3196 13.0299C16.3196 13.0386 16.3126 13.0456 16.3039 13.0456H14.9267C14.817 13.0456 14.7161 13.11 14.6725 13.211C14.629 13.312 14.6482 13.4304 14.7213 13.5105L16.8419 15.8313H13.506C13.4642 16.0368 13.3772 16.2266 13.2553 16.3885H16.9046C17.1971 16.3885 17.4339 16.1517 17.4339 15.8592C17.4339 15.7269 17.3851 15.5998 17.2946 15.5023L15.5587 13.6028H16.3039C16.6191 13.6028 16.8767 13.3468 16.8767 13.0299C16.8767 12.8976 16.8315 12.7705 16.7479 12.6678L15.2349 10.817H15.8391C16.1037 10.817 16.3196 10.6029 16.3196 10.3365C16.3196 10.2181 16.2761 10.1032 16.196 10.0161L14.1554 7.74753C13.8229 7.37843 13.2449 7.37843 12.9123 7.74753L11.2513 9.59307L11.6622 9.96914L13.3267 8.12012ZM6.84816 12.4223C6.84816 12.2656 6.91432 12.1176 7.02923 12.0114L9.2578 9.96914C9.47021 9.77414 9.79753 9.77414 10.0099 9.96914L12.2385 12.0114C12.3534 12.1176 12.4196 12.2656 12.4196 12.4223V15.2742C12.4196 15.5824 12.1706 15.8313 11.8624 15.8313H7.4053C7.09713 15.8313 6.84816 15.5824 6.84816 15.2742V12.4223ZM6.29102 15.2742C6.29102 15.8888 6.7907 16.3885 7.4053 16.3885H11.8624C12.477 16.3885 12.9767 15.8888 12.9767 15.2742V12.4223C12.9767 12.1107 12.8461 11.8112 12.6146 11.6005L10.386 9.55825C9.95945 9.16825 9.30655 9.16825 8.87999 9.55825L6.65316 11.6005C6.4216 11.8112 6.29102 12.1089 6.29102 12.4223V15.2742ZM10.191 12.4885V13.6028H9.07673V12.4885H10.191ZM9.07673 11.9313C8.76856 11.9313 8.51959 12.1803 8.51959 12.4885V13.6028C8.51959 13.9109 8.76856 14.1599 9.07673 14.1599H10.191C10.4992 14.1599 10.7482 13.9109 10.7482 13.6028V12.4885C10.7482 12.1803 10.4992 11.9313 10.191 11.9313H9.07673Z"
            fill="#24130A" />
    </g>
    <defs>
        <clipPath id="clip0_1484_5521">
            <rect width="11.1429" height="8.91429" fill="white" transform="translate(6.29102 7.47412)" />
        </clipPath>
    </defs>
</svg>