<svg viewBox="0 0 30 26" fill="currentColor" xmlns="http://www.w3.org/2000/svg">
    <path
        d="M19.5441 4.75772C18.9153 4.3809 18.2506 4.09379 17.5319 3.87847C17.4421 3.86053 17.3703 3.82465 17.2804 3.80671C16.5259 3.59135 15.7174 3.48371 14.891 3.48371C14.1544 3.48371 13.4538 3.57341 12.7531 3.73491C12.6274 3.77079 12.5016 3.78877 12.3938 3.82465C11.7111 4.02203 11.0644 4.29117 10.4536 4.6321C7.61506 6.19323 5.69276 9.22574 5.69276 12.6889C5.69276 16.2059 7.66895 19.2743 10.5793 20.8175C11.2081 21.1584 11.8908 21.4276 12.6094 21.607V21.2122L12.6274 19.7588C11.8908 19.5255 11.2081 19.1846 10.5973 18.736C8.71095 17.3902 7.4893 15.1831 7.4893 12.7069C7.4893 10.1767 8.76483 7.93379 10.7051 6.60592C11.3159 6.17529 12.0166 5.83435 12.7531 5.61903C13.4358 5.40371 14.1544 5.29603 14.891 5.29603C15.7174 5.29603 16.5079 5.43959 17.2625 5.69079C17.9991 5.94203 18.6818 6.3009 19.2926 6.74948C21.1071 8.09529 22.2928 10.2665 22.2928 12.7069C22.2928 15.1831 21.0711 17.3902 19.2028 18.736C18.5919 19.1846 17.8913 19.5255 17.1547 19.7767L17.1367 21.3558V21.6429C17.8553 21.4635 18.538 21.1943 19.1848 20.8533C22.0952 19.3102 24.0893 16.2418 24.0893 12.7248C24.0893 9.31547 22.2569 6.35472 19.5441 4.75772Z" />
    <path
        d="M29.1735 20.4586C29.1196 20.315 29.0298 20.2612 28.922 20.2612C28.7962 20.2612 28.6705 20.3868 28.5447 20.6559C28.419 20.9251 28.3471 21.1225 28.3111 21.2661C28.0776 21.8761 27.862 22.3247 27.6824 22.6298C27.5027 22.9348 27.2332 23.2758 26.856 23.6526C26.6763 23.85 26.3889 24.0473 26.0116 24.2268C25.6343 24.4062 25.2032 24.5139 24.7001 24.4959L21.2867 24.4601C20.3884 24.4601 19.8135 24.2806 19.562 23.9397C19.3105 23.5988 19.1847 23.0784 19.1847 22.3786V21.4455L19.2027 19.5793V19.3461L19.2925 7.62873V6.51622C19.2925 6.15734 19.3644 5.87023 19.5081 5.65491L19.5261 5.63697C19.6518 5.45753 19.8135 5.33191 20.0291 5.24221C20.5142 5.02685 21.0891 4.84742 21.7718 4.7039C22.0771 4.6321 22.3107 4.5424 22.4544 4.43472C22.5981 4.32708 22.67 4.18352 22.688 4.03996C22.688 3.89641 22.6161 3.80671 22.4724 3.75285C22.3287 3.69903 22.1311 3.66315 21.8975 3.66315C21.5202 3.66315 21.1789 3.66315 20.8735 3.68109L20.9094 0.146146L19.58 0.128202L19.562 2.11997C19.562 2.96334 18.7176 3.62727 17.6756 3.62727C16.6336 3.62727 15.7893 2.92746 15.8072 2.10203V0.110258L14.6395 0.0923145L14.6215 2.08409C14.6215 2.92746 13.7592 3.59135 12.7351 3.59135C11.6931 3.57341 10.8667 2.89154 10.8667 2.06615L10.9027 0.056427H9.57322L9.5373 3.59135C9.50138 3.59135 9.48341 3.59135 9.44745 3.59135C9.10614 3.57341 8.67495 3.55547 8.17191 3.53753C7.93837 3.53753 7.74076 3.55547 7.59703 3.60929C7.4533 3.66315 7.38145 3.75285 7.38145 3.89641C7.38145 4.0579 7.4533 4.18352 7.59703 4.3091C7.74076 4.41678 7.9743 4.52446 8.27972 4.57828C8.96241 4.73978 9.5373 4.93715 10.0224 5.15247C10.22 5.24221 10.3637 5.36779 10.4715 5.51135C10.5254 5.58315 10.5613 5.65491 10.5973 5.72667C10.6871 5.92404 10.723 6.15734 10.723 6.44442L10.7051 7.46723V7.8261L10.6152 19.041V19.6152L10.5973 21.2302V22.3247C10.5973 23.0246 10.4535 23.5449 10.202 23.8679C9.95049 24.1909 9.35764 24.3703 8.45937 24.3524L5.04595 24.3165C4.54291 24.3165 4.11176 24.2088 3.73445 24.0294C3.35718 23.832 3.08772 23.6346 2.8901 23.4373C2.53078 23.0604 2.2613 22.7016 2.08164 22.3965C1.91996 22.0915 1.70437 21.6429 1.47082 21.0328C1.43489 20.9072 1.36303 20.6919 1.23727 20.4227C1.11151 20.1535 1.00372 20.01 0.877964 20.01C0.770171 20.01 0.680344 20.0818 0.626448 20.2074C0.572552 20.333 0.536621 20.4765 0.536621 20.6021C0.536621 20.6201 0.536621 20.6559 0.554586 20.6919C0.572552 20.7277 0.572552 20.7636 0.572552 20.7816C0.69831 21.3737 0.806102 21.8941 0.895929 22.3786C0.985756 22.8451 1.07558 23.2937 1.12948 23.7244C1.20134 24.155 1.23727 24.6036 1.2732 25.0701C1.29117 25.2316 1.3271 25.3573 1.36303 25.4828C1.41693 25.5905 1.50675 25.6443 1.65048 25.6443C2.56671 25.6443 3.44703 25.6443 4.29141 25.6264C5.13576 25.6085 5.94422 25.6085 6.73468 25.5905C7.52518 25.5905 8.26176 25.5726 8.98037 25.5546C9.69899 25.5367 10.3996 25.5367 11.1003 25.5367C11.5315 25.5367 12.0345 25.5546 12.5914 25.5726V25.5546L12.6094 22.4683V22.0735L12.6273 20.6201V20.1894L12.7531 6.7136V5.87023H17.2624V6.64184L17.1546 20.3689V20.638L17.1367 22.2171V22.5042L17.1187 25.6264V25.6443C17.6756 25.6264 18.1607 25.6264 18.6098 25.6264C19.3105 25.6264 20.0111 25.6443 20.7298 25.6803C21.4484 25.7161 22.2029 25.7341 22.9754 25.752C23.748 25.77 24.5743 25.7879 25.4187 25.8238C26.2631 25.8597 27.1434 25.8776 28.0597 25.8776C28.2034 25.8776 28.2932 25.8238 28.3471 25.7161C28.401 25.6085 28.419 25.4649 28.4549 25.3214C28.4908 24.8548 28.5447 24.4062 28.6166 23.9756C28.6884 23.5449 28.7783 23.0963 28.8681 22.6298C28.9759 22.1633 29.0837 21.6429 29.2274 21.0507C29.2274 21.0328 29.2274 20.9969 29.2454 20.961C29.2454 20.9251 29.2633 20.9072 29.2633 20.8713C29.2454 20.7277 29.2274 20.6021 29.1735 20.4586ZM17.2804 4.77566V4.50652H17.3702V4.77566H17.2804Z" />
</svg>