<svg viewBox="0 0 128 115" fill="none" xmlns="http://www.w3.org/2000/svg">
<path d="M70.1561 1.74451L11.8909 23.0686L39.9356 49.3517H126.245L70.1561 1.74451Z" fill="#A07967"/>
<path d="M103.761 90.7601L126.245 49.3517H39.9356L47.268 112.648L103.761 90.7601Z" fill="#36230F"/>
<path d="M11.8909 23.0686L1.75488 53.9999L47.268 112.648L39.9356 49.3517L11.8909 23.0686Z" fill="#744936"/>
<path fill-rule="evenodd" clip-rule="evenodd" d="M125.725 47.0156L70.3328 0L10.6157 21.8554L0 54.2504L44.7925 111.97L46.6725 114.393L104.664 91.9243L126.62 51.4878L128 48.9465L125.725 47.0156ZM45.0937 107.541L3.27965 53.6591L12.4469 25.6843L12.919 24.1196L14.5572 23.5982L69.7493 3.39884L122.069 47.8066L124.321 49.628C123.953 50.3005 123.667 50.8066 123.642 50.8066L102.629 89.5057L48.3848 110.522L47.6869 110.803C46.4572 109.293 45.0937 107.603 45.0937 107.541Z" fill="white"/>
<path d="M54.2176 90.79L61.8353 105.272L63.0525 104.8C63.0525 103.837 63.0525 96.0025 63.0525 91.9215L69.5492 78.228L60.1331 74.4334L84.6029 49.3817H69.5492L56.6087 74.4334L61.8434 79.0382L54.2176 90.79Z" fill="#C88400"/>
<path d="M54.2176 38.6572L69.5492 49.3817H84.6029L63.6325 39.5825C64.056 39.8212 80.6814 34.0689 89.6897 30.6514L72.081 21.3462L89.8204 20.4315L88.5064 19.3221L68.2833 19.7593L81.6457 28.4149L54.2176 38.6572Z" fill="#FFA800"/>
<path fill-rule="evenodd" clip-rule="evenodd" d="M65.1765 49.3817L69.5492 49.3817L54.2176 38.6572L81.6457 28.4149L68.2833 19.7593L88.5064 19.3221L88.255 19.1112L66.7053 19.3145L76.7227 28.4149L42.5321 38.2772L65.1765 49.3817Z" fill="#802F1A"/>
<path d="M61.8434 105.272L54.2257 90.7901L61.8434 79.0382L56.6168 74.4334L69.5573 49.3817H65.1765L54.2257 74.4334L60.1331 79.5522L48.4389 90.3977L61.3464 105.492L61.8434 105.272Z" fill="#582012"/>
</svg>
