<svg viewBox="0 0 129 128" fill="none" xmlns="http://www.w3.org/2000/svg">
<path d="M6.82486 69.7216L4.62329 60.4534C4.19856 58.6653 4.78898 56.7884 6.16085 55.5655L19.3399 43.8175L24.0137 39.6512L29.3799 34.8677L32.063 32.4759L34.7461 30.0842L62.1974 5.61359C64.1078 3.91063 66.9957 3.92514 68.8889 5.64719L73.7155 10.0374L96.0779 30.3784L123.812 55.6051C125.135 56.8088 125.714 58.6277 125.331 60.3751L122.107 75.0744L120.886 80.6408L111.961 121.33C111.458 123.624 109.426 125.259 107.077 125.259H54.2895H50.5823H45.7345H43.8809H38.035H23.9686C21.6523 125.259 19.6393 123.668 19.104 121.414L9.57512 81.2997L8.2724 75.8155L6.82486 69.7216Z" fill="#CD0024"/>
<path d="M23.7863 125.238C21.5803 125.238 19.6626 123.717 19.1503 121.56L15.4543 106.001C15.0543 104.317 15.5536 102.545 16.7744 101.318L29.5233 88.5043L34.223 83.7806L39.5426 78.4338L42.3489 75.6132L61.9868 55.8747C63.9414 53.9101 67.1212 53.9101 69.0758 55.8747L114.056 101.085C115.255 102.29 115.76 104.022 115.396 105.683L111.931 121.479C111.449 123.674 109.513 125.238 107.276 125.238H65.5313H54.2558H50.5591H43.8421H38.0041H23.7863Z" fill="#BB0122"/>
<path d="M42.855 125.382L17.0356 46.1142L26.0805 37.7267L48.2822 125.382H42.855Z" fill="white"/>
<path d="M34.6323 30.1619L52.5581 125.382H55.5183L41.8684 23.7477L34.6323 30.1619Z" fill="white"/>
<path d="M65.5305 6.42862L122.792 58.5142L119.316 74.3653L125.275 75.4424L128.827 59.2487C129.217 57.4717 128.629 55.6211 127.286 54.4001L68.9205 1.31024C67.0142 -0.423695 64.1153 -0.438315 62.1918 1.2763L2.64198 54.36C1.25047 55.6004 0.651373 57.51 1.0833 59.3284L16.4713 124.109C17.0132 126.39 19.0419 128 21.3755 128H109.695C112.062 128 114.11 126.346 114.619 124.023L118.096 108.17L118.171 107.83L112.362 106.068L108.885 121.919H22.1714L7.10862 58.5068L65.5305 6.42862Z" fill="white"/>
<path d="M115.839 90.2164L115.197 93.1413L121.066 94.6305L121.723 91.636L122.973 85.9398L117.079 84.5602L115.839 90.2164Z" fill="white"/>
<path d="M125.336 74.797C125.336 76.4764 123.981 77.8377 122.31 77.8377C120.64 77.8377 119.285 76.4764 119.285 74.797C119.285 73.1177 120.64 71.7563 122.31 71.7563C123.981 71.7563 125.336 73.1177 125.336 74.797Z" fill="white"/>
<path d="M123.018 85.403C123.018 87.0823 121.664 88.4437 119.993 88.4437C118.322 88.4437 116.968 87.0823 116.968 85.403C116.968 83.7237 118.322 82.3623 119.993 82.3623C121.664 82.3623 123.018 83.7237 123.018 85.403Z" fill="white"/>
<path d="M121.161 93.8561C121.161 95.5355 119.806 96.8968 118.136 96.8968C116.465 96.8968 115.11 95.5355 115.11 93.8561C115.11 92.1768 116.465 90.8154 118.136 90.8154C119.806 90.8154 121.161 92.1768 121.161 93.8561Z" fill="white"/>
<path d="M118.314 106.789C118.314 108.469 116.96 109.83 115.289 109.83C113.618 109.83 112.264 108.469 112.264 106.789C112.264 105.11 113.618 103.749 115.289 103.749C116.96 103.749 118.314 105.11 118.314 106.789Z" fill="white"/>
</svg>
