<svg  viewBox="0 0 130 102" fill="none" xmlns="http://www.w3.org/2000/svg">
<mask id="path-1-outside-1_16_83" maskUnits="userSpaceOnUse" x="5.1698" y="0" width="76" height="14" fill="black">
<rect fill="white" x="5.1698" width="76" height="14"/>
<path d="M13.8636 2V11.9156H18.365V2H13.8636Z"/>
<path d="M21.6498 2V11.9156H23.5964V2H21.6498Z"/>
<path fill-rule="evenodd" clip-rule="evenodd" d="M13.8636 2H7.1698V11.9156H13.8636V2ZM18.365 11.9156H21.6498V2H18.365V11.9156ZM25.4213 11.9156H23.5964V2H25.4213V11.9156ZM26.7596 11.9156H79.1242V2H26.7596V11.9156Z"/>
<path d="M25.4213 2V11.9156H26.7596V2H25.4213Z"/>
</mask>
<path d="M13.8636 2V11.9156H18.365V2H13.8636Z" fill="#FFD9AF"/>
<path d="M21.6498 2V11.9156H23.5964V2H21.6498Z" fill="#FFE3C3"/>
<path fill-rule="evenodd" clip-rule="evenodd" d="M13.8636 2H7.1698V11.9156H13.8636V2ZM18.365 11.9156H21.6498V2H18.365V11.9156ZM25.4213 11.9156H23.5964V2H25.4213V11.9156ZM26.7596 11.9156H79.1242V2H26.7596V11.9156Z" fill="#FFA43F"/>
<path d="M25.4213 2V11.9156H26.7596V2H25.4213Z" fill="#FFA43F"/>
<path d="M12.8636 2V11.9156H14.8636V2H12.8636ZM17.365 2V11.9156H19.365V2H17.365ZM20.6498 2V11.9156H22.6498V2H20.6498ZM22.5964 2V11.9156H24.5964V2H22.5964ZM24.4213 2V11.9156H26.4213V2H24.4213ZM25.7596 2V11.9156H27.7596V2H25.7596ZM7.1698 2V0C6.06523 0 5.1698 0.895431 5.1698 2L7.1698 2ZM79.1242 2H81.1242C81.1242 0.895431 80.2288 0 79.1242 0V2ZM79.1242 11.9156V13.9156C80.2288 13.9156 81.1242 13.0202 81.1242 11.9156H79.1242ZM7.1698 11.9156H5.1698C5.1698 13.0202 6.06523 13.9156 7.1698 13.9156V11.9156ZM77.1242 2V11.9156H81.1242V2H77.1242ZM9.1698 11.9156V2H5.1698V11.9156H9.1698ZM7.1698 4H13.8636V0H7.1698V4ZM13.8636 9.91562H7.1698V13.9156H13.8636V9.91562ZM13.8636 4H18.365V0H13.8636V4ZM18.365 9.91562H13.8636V13.9156H18.365V9.91562ZM18.365 4H21.6498V0H18.365V4ZM21.6498 9.91562H18.365V13.9156H21.6498V9.91562ZM21.6498 4H23.5964V0H21.6498V4ZM23.5964 9.91562H21.6498V13.9156H23.5964V9.91562ZM23.5964 4H25.4213V0H23.5964V4ZM25.4213 9.91562H23.5964V13.9156H25.4213V9.91562ZM25.4213 4H26.7596V0H25.4213V4ZM26.7596 4H79.1242V0H26.7596V4ZM79.1242 9.91562H26.7596V13.9156H79.1242V9.91562ZM26.7596 9.91562H25.4213V13.9156H26.7596V9.91562Z" fill="white" mask="url(#path-1-outside-1_16_83)"/>
<path d="M19.6509 2V11.9156H20.9891V2H19.6509Z" fill="#FFE2C3"/>
<path d="M79.1226 10.1206V11.9252H7.17017V10.1206H76.6463C76.8515 10.0767 76.9083 9.99607 76.9471 9.81982V2H79.1226V10.1206Z" fill="#CC781B" fill-opacity="0.5"/>
<mask id="path-5-outside-2_16_83" maskUnits="userSpaceOnUse" x="14.7051" y="11.7297" width="76" height="14" fill="black">
<rect fill="white" x="14.7051" y="11.7297" width="76" height="14"/>
<path d="M23.3989 13.7297V23.6454H27.9003V13.7297H23.3989Z"/>
<path d="M31.1851 13.7297V23.6454H33.1317V13.7297H31.1851Z"/>
<path fill-rule="evenodd" clip-rule="evenodd" d="M23.3989 13.7297H16.7051V23.6454H23.3989V13.7297ZM27.9003 23.6454H31.1851V13.7297H27.9003V23.6454ZM34.9566 23.6454H33.1317V13.7297H34.9566V23.6454ZM36.2948 23.6454H88.6595V13.7297H36.2948V23.6454Z"/>
<path d="M34.9566 13.7297V23.6454H36.2948V13.7297H34.9566Z"/>
</mask>
<path d="M23.3989 13.7297V23.6454H27.9003V13.7297H23.3989Z" fill="#FFD9AF"/>
<path d="M31.1851 13.7297V23.6454H33.1317V13.7297H31.1851Z" fill="#FFE3C3"/>
<path fill-rule="evenodd" clip-rule="evenodd" d="M23.3989 13.7297H16.7051V23.6454H23.3989V13.7297ZM27.9003 23.6454H31.1851V13.7297H27.9003V23.6454ZM34.9566 23.6454H33.1317V13.7297H34.9566V23.6454ZM36.2948 23.6454H88.6595V13.7297H36.2948V23.6454Z" fill="#FFA43F"/>
<path d="M34.9566 13.7297V23.6454H36.2948V13.7297H34.9566Z" fill="#FFA43F"/>
<path d="M22.3989 13.7297V23.6454H24.3989V13.7297H22.3989ZM26.9003 13.7297V23.6454H28.9003V13.7297H26.9003ZM30.1851 13.7297V23.6454H32.1851V13.7297H30.1851ZM32.1317 13.7297V23.6454H34.1317V13.7297H32.1317ZM33.9566 13.7297V23.6454H35.9566V13.7297H33.9566ZM35.2948 13.7297V23.6454H37.2948V13.7297H35.2948ZM16.7051 13.7297V11.7297C15.6005 11.7297 14.7051 12.6252 14.7051 13.7297H16.7051ZM88.6595 13.7297H90.6595C90.6595 12.6252 89.764 11.7297 88.6595 11.7297V13.7297ZM88.6595 23.6454V25.6454C89.764 25.6454 90.6595 24.7499 90.6595 23.6454H88.6595ZM16.7051 23.6454H14.7051C14.7051 24.7499 15.6005 25.6454 16.7051 25.6454V23.6454ZM86.6595 13.7297V23.6454H90.6595V13.7297H86.6595ZM18.7051 23.6454V13.7297H14.7051V23.6454H18.7051ZM16.7051 15.7297H23.3989V11.7297H16.7051V15.7297ZM23.3989 21.6454H16.7051V25.6454H23.3989V21.6454ZM23.3989 15.7297H27.9003V11.7297H23.3989V15.7297ZM27.9003 21.6454H23.3989V25.6454H27.9003V21.6454ZM27.9003 15.7297H31.1851V11.7297H27.9003V15.7297ZM31.1851 21.6454H27.9003V25.6454H31.1851V21.6454ZM31.1851 15.7297H33.1317V11.7297H31.1851V15.7297ZM33.1317 21.6454H31.1851V25.6454H33.1317V21.6454ZM33.1317 15.7297H34.9566V11.7297H33.1317V15.7297ZM34.9566 21.6454H33.1317V25.6454H34.9566V21.6454ZM34.9566 15.7297H36.2948V11.7297H34.9566V15.7297ZM36.2948 15.7297H88.6595V11.7297H36.2948V15.7297ZM88.6595 21.6454H36.2948V25.6454H88.6595V21.6454ZM36.2948 21.6454H34.9566V25.6454H36.2948V21.6454Z" fill="white" mask="url(#path-5-outside-2_16_83)"/>
<path d="M29.1861 13.7297V23.6454H30.5244V13.7297H29.1861Z" fill="#FFE2C3"/>
<path d="M88.6575 21.8503V23.6549H16.7051V21.8503H86.1812C86.3864 21.8065 86.4432 21.7258 86.482 21.5496V13.7297H88.6575V21.8503Z" fill="#CC781B" fill-opacity="0.5"/>
<mask id="path-9-outside-3_16_83" maskUnits="userSpaceOnUse" x="8.70227" y="23.4595" width="76" height="14" fill="black">
<rect fill="white" x="8.70227" y="23.4595" width="76" height="14"/>
<path d="M17.3961 25.4595V35.3751H21.8975V25.4595H17.3961Z"/>
<path d="M25.1823 25.4595V35.3751H27.1289V25.4595H25.1823Z"/>
<path fill-rule="evenodd" clip-rule="evenodd" d="M17.3961 25.4595H10.7023V35.3751H17.3961V25.4595ZM21.8975 35.3751H25.1823V25.4595H21.8975V35.3751ZM28.9538 35.3751H27.1289V25.4595H28.9538V35.3751ZM30.292 35.3751H82.6567V25.4595H30.292V35.3751Z"/>
<path d="M28.9538 25.4595V35.3751H30.292V25.4595H28.9538Z"/>
</mask>
<path d="M17.3961 25.4595V35.3751H21.8975V25.4595H17.3961Z" fill="#FFD9AF"/>
<path d="M25.1823 25.4595V35.3751H27.1289V25.4595H25.1823Z" fill="#FFE3C3"/>
<path fill-rule="evenodd" clip-rule="evenodd" d="M17.3961 25.4595H10.7023V35.3751H17.3961V25.4595ZM21.8975 35.3751H25.1823V25.4595H21.8975V35.3751ZM28.9538 35.3751H27.1289V25.4595H28.9538V35.3751ZM30.292 35.3751H82.6567V25.4595H30.292V35.3751Z" fill="#FFA43F"/>
<path d="M28.9538 25.4595V35.3751H30.292V25.4595H28.9538Z" fill="#FFA43F"/>
<path d="M16.3961 25.4595V35.3751H18.3961V25.4595H16.3961ZM20.8975 25.4595V35.3751H22.8975V25.4595H20.8975ZM24.1823 25.4595V35.3751H26.1823V25.4595H24.1823ZM26.1289 25.4595V35.3751H28.1289V25.4595H26.1289ZM27.9538 25.4595V35.3751H29.9538V25.4595H27.9538ZM29.292 25.4595V35.3751H31.292V25.4595H29.292ZM10.7023 25.4595V23.4595C9.5977 23.4595 8.70227 24.3549 8.70227 25.4595H10.7023ZM82.6567 25.4595H84.6567C84.6567 24.3549 83.7612 23.4595 82.6567 23.4595V25.4595ZM82.6567 35.3751V37.3751C83.7612 37.3751 84.6567 36.4797 84.6567 35.3751H82.6567ZM10.7023 35.3751H8.70227C8.70227 36.4797 9.5977 37.3751 10.7023 37.3751V35.3751ZM80.6567 25.4595V35.3751H84.6567V25.4595H80.6567ZM12.7023 35.3751V25.4595H8.70227V35.3751H12.7023ZM10.7023 27.4595H17.3961V23.4595H10.7023V27.4595ZM17.3961 33.3751H10.7023V37.3751H17.3961V33.3751ZM17.3961 27.4595H21.8975V23.4595H17.3961V27.4595ZM21.8975 33.3751H17.3961V37.3751H21.8975V33.3751ZM21.8975 27.4595H25.1823V23.4595H21.8975V27.4595ZM25.1823 33.3751H21.8975V37.3751H25.1823V33.3751ZM25.1823 27.4595H27.1289V23.4595H25.1823V27.4595ZM27.1289 33.3751H25.1823V37.3751H27.1289V33.3751ZM27.1289 27.4595H28.9538V23.4595H27.1289V27.4595ZM28.9538 33.3751H27.1289V37.3751H28.9538V33.3751ZM28.9538 27.4595H30.292V23.4595H28.9538V27.4595ZM30.292 27.4595H82.6567V23.4595H30.292V27.4595ZM82.6567 33.3751H30.292V37.3751H82.6567V33.3751ZM30.292 33.3751H28.9538V37.3751H30.292V33.3751Z" fill="white" mask="url(#path-9-outside-3_16_83)"/>
<path d="M23.1833 25.4595V35.3751H24.5216V25.4595H23.1833Z" fill="#FFE2C3"/>
<path d="M82.6543 33.5801V35.3846H10.7019V33.5801H80.178C80.3832 33.5362 80.44 33.4555 80.4788 33.2793V25.4595H82.6543V33.5801Z" fill="#CC781B" fill-opacity="0.5"/>
<mask id="path-13-outside-4_16_83" maskUnits="userSpaceOnUse" x="0" y="35.1892" width="76" height="14" fill="black">
<rect fill="white" y="35.1892" width="76" height="14"/>
<path d="M8.6938 37.1892V47.1048H13.1952V37.1892H8.6938Z"/>
<path d="M16.48 37.1892V47.1048H18.4266V37.1892H16.48Z"/>
<path fill-rule="evenodd" clip-rule="evenodd" d="M8.6938 37.1892H2V47.1048H8.6938V37.1892ZM13.1952 47.1048H16.48V37.1892H13.1952V47.1048ZM20.2515 47.1048H18.4266V37.1892H20.2515V47.1048ZM21.5898 47.1048H73.9544V37.1892H21.5898V47.1048Z"/>
<path d="M20.2515 37.1892V47.1048H21.5898V37.1892H20.2515Z"/>
</mask>
<path d="M8.6938 37.1892V47.1048H13.1952V37.1892H8.6938Z" fill="#FFD9AF"/>
<path d="M16.48 37.1892V47.1048H18.4266V37.1892H16.48Z" fill="#FFE3C3"/>
<path fill-rule="evenodd" clip-rule="evenodd" d="M8.6938 37.1892H2V47.1048H8.6938V37.1892ZM13.1952 47.1048H16.48V37.1892H13.1952V47.1048ZM20.2515 47.1048H18.4266V37.1892H20.2515V47.1048ZM21.5898 47.1048H73.9544V37.1892H21.5898V47.1048Z" fill="#FFA43F"/>
<path d="M20.2515 37.1892V47.1048H21.5898V37.1892H20.2515Z" fill="#FFA43F"/>
<path d="M7.6938 37.1892V47.1048H9.6938V37.1892H7.6938ZM12.1952 37.1892V47.1048H14.1952V37.1892H12.1952ZM15.48 37.1892V47.1048H17.48V37.1892H15.48ZM17.4266 37.1892V47.1048H19.4266V37.1892H17.4266ZM19.2515 37.1892V47.1048H21.2515V37.1892H19.2515ZM20.5898 37.1892V47.1048H22.5898V37.1892H20.5898ZM2 37.1892V35.1892C0.895431 35.1892 0 36.0846 0 37.1892H2ZM73.9544 37.1892H75.9544C75.9544 36.0846 75.059 35.1892 73.9544 35.1892V37.1892ZM73.9544 47.1048V49.1048C75.059 49.1048 75.9544 48.2094 75.9544 47.1048H73.9544ZM2 47.1048H0C0 48.2094 0.895431 49.1048 2 49.1048L2 47.1048ZM71.9544 37.1892V47.1048H75.9544V37.1892H71.9544ZM4 47.1048V37.1892H0V47.1048H4ZM2 39.1892H8.6938V35.1892H2V39.1892ZM8.6938 45.1048H2V49.1048H8.6938V45.1048ZM8.6938 39.1892H13.1952V35.1892H8.6938V39.1892ZM13.1952 45.1048H8.6938V49.1048H13.1952V45.1048ZM13.1952 39.1892H16.48V35.1892H13.1952V39.1892ZM16.48 45.1048H13.1952V49.1048H16.48V45.1048ZM16.48 39.1892H18.4266V35.1892H16.48V39.1892ZM18.4266 45.1048H16.48V49.1048H18.4266V45.1048ZM18.4266 39.1892H20.2515V35.1892H18.4266V39.1892ZM20.2515 45.1048H18.4266V49.1048H20.2515V45.1048ZM20.2515 39.1892H21.5898V35.1892H20.2515V39.1892ZM21.5898 39.1892H73.9544V35.1892H21.5898V39.1892ZM73.9544 45.1048H21.5898V49.1048H73.9544V45.1048ZM21.5898 45.1048H20.2515V49.1048H21.5898V45.1048Z" fill="white" mask="url(#path-13-outside-4_16_83)"/>
<path d="M14.4811 37.1892V47.1048H15.8193V37.1892H14.4811Z" fill="#FFE2C3"/>
<path d="M73.9524 45.3098V47.1144H2V45.3098H71.4761C71.6813 45.2659 71.7381 45.1853 71.7769 45.009V37.1892H73.9524V45.3098Z" fill="#CC781B" fill-opacity="0.5"/>
<mask id="path-17-outside-5_16_83" maskUnits="userSpaceOnUse" x="14.7051" y="46.9189" width="76" height="14" fill="black">
<rect fill="white" x="14.7051" y="46.9189" width="76" height="14"/>
<path d="M23.3989 48.9189V58.8346H27.9003V48.9189H23.3989Z"/>
<path d="M31.1851 48.9189V58.8346H33.1317V48.9189H31.1851Z"/>
<path fill-rule="evenodd" clip-rule="evenodd" d="M23.3989 48.9189H16.7051V58.8346H23.3989V48.9189ZM27.9003 58.8346H31.1851V48.9189H27.9003V58.8346ZM34.9566 58.8346H33.1317V48.9189H34.9566V58.8346ZM36.2948 58.8346H88.6595V48.9189H36.2948V58.8346Z"/>
<path d="M34.9566 48.9189V58.8346H36.2948V48.9189H34.9566Z"/>
</mask>
<path d="M23.3989 48.9189V58.8346H27.9003V48.9189H23.3989Z" fill="#FFD9AF"/>
<path d="M31.1851 48.9189V58.8346H33.1317V48.9189H31.1851Z" fill="#FFE3C3"/>
<path fill-rule="evenodd" clip-rule="evenodd" d="M23.3989 48.9189H16.7051V58.8346H23.3989V48.9189ZM27.9003 58.8346H31.1851V48.9189H27.9003V58.8346ZM34.9566 58.8346H33.1317V48.9189H34.9566V58.8346ZM36.2948 58.8346H88.6595V48.9189H36.2948V58.8346Z" fill="#FFA43F"/>
<path d="M34.9566 48.9189V58.8346H36.2948V48.9189H34.9566Z" fill="#FFA43F"/>
<path d="M22.3989 48.9189V58.8346H24.3989V48.9189H22.3989ZM26.9003 48.9189V58.8346H28.9003V48.9189H26.9003ZM30.1851 48.9189V58.8346H32.1851V48.9189H30.1851ZM32.1317 48.9189V58.8346H34.1317V48.9189H32.1317ZM33.9566 48.9189V58.8346H35.9566V48.9189H33.9566ZM35.2948 48.9189V58.8346H37.2948V48.9189H35.2948ZM16.7051 48.9189V46.9189C15.6005 46.9189 14.7051 47.8144 14.7051 48.9189H16.7051ZM88.6595 48.9189H90.6595C90.6595 47.8144 89.764 46.9189 88.6595 46.9189V48.9189ZM88.6595 58.8346V60.8346C89.764 60.8346 90.6595 59.9391 90.6595 58.8346H88.6595ZM16.7051 58.8346H14.7051C14.7051 59.9391 15.6005 60.8346 16.7051 60.8346V58.8346ZM86.6595 48.9189V58.8346H90.6595V48.9189H86.6595ZM18.7051 58.8346V48.9189H14.7051V58.8346H18.7051ZM16.7051 50.9189H23.3989V46.9189H16.7051V50.9189ZM23.3989 56.8346H16.7051V60.8346H23.3989V56.8346ZM23.3989 50.9189H27.9003V46.9189H23.3989V50.9189ZM27.9003 56.8346H23.3989V60.8346H27.9003V56.8346ZM27.9003 50.9189H31.1851V46.9189H27.9003V50.9189ZM31.1851 56.8346H27.9003V60.8346H31.1851V56.8346ZM31.1851 50.9189H33.1317V46.9189H31.1851V50.9189ZM33.1317 56.8346H31.1851V60.8346H33.1317V56.8346ZM33.1317 50.9189H34.9566V46.9189H33.1317V50.9189ZM34.9566 56.8346H33.1317V60.8346H34.9566V56.8346ZM34.9566 50.9189H36.2948V46.9189H34.9566V50.9189ZM36.2948 50.9189H88.6595V46.9189H36.2948V50.9189ZM88.6595 56.8346H36.2948V60.8346H88.6595V56.8346ZM36.2948 56.8346H34.9566V60.8346H36.2948V56.8346Z" fill="white" mask="url(#path-17-outside-5_16_83)"/>
<path d="M29.1861 48.9189V58.8346H30.5244V48.9189H29.1861Z" fill="#FFE2C3"/>
<path d="M88.6575 57.0395V58.8441H16.7051V57.0395H86.1812C86.3864 56.9957 86.4432 56.915 86.482 56.7388V48.9189H88.6575V57.0395Z" fill="#CC781B" fill-opacity="0.5"/>
<mask id="path-21-outside-6_16_83" maskUnits="userSpaceOnUse" x="23.4973" y="58.6487" width="76" height="14" fill="black">
<rect fill="white" x="23.4973" y="58.6487" width="76" height="14"/>
<path d="M32.1911 60.6487V70.5643H36.6925V60.6487H32.1911Z"/>
<path d="M39.9773 60.6487V70.5643H41.9239V60.6487H39.9773Z"/>
<path fill-rule="evenodd" clip-rule="evenodd" d="M32.1911 60.6487H25.4973V70.5643H32.1911V60.6487ZM36.6925 70.5643H39.9773V60.6487H36.6925V70.5643ZM43.7488 70.5643H41.9239V60.6487H43.7488V70.5643ZM45.087 70.5643H97.4516V60.6487H45.087V70.5643Z"/>
<path d="M43.7488 60.6487V70.5643H45.087V60.6487H43.7488Z"/>
</mask>
<path d="M32.1911 60.6487V70.5643H36.6925V60.6487H32.1911Z" fill="#FFD9AF"/>
<path d="M39.9773 60.6487V70.5643H41.9239V60.6487H39.9773Z" fill="#FFE3C3"/>
<path fill-rule="evenodd" clip-rule="evenodd" d="M32.1911 60.6487H25.4973V70.5643H32.1911V60.6487ZM36.6925 70.5643H39.9773V60.6487H36.6925V70.5643ZM43.7488 70.5643H41.9239V60.6487H43.7488V70.5643ZM45.087 70.5643H97.4516V60.6487H45.087V70.5643Z" fill="#FFA43F"/>
<path d="M43.7488 60.6487V70.5643H45.087V60.6487H43.7488Z" fill="#FFA43F"/>
<path d="M31.1911 60.6487V70.5643H33.1911V60.6487H31.1911ZM35.6925 60.6487V70.5643H37.6925V60.6487H35.6925ZM38.9773 60.6487V70.5643H40.9773V60.6487H38.9773ZM40.9239 60.6487V70.5643H42.9239V60.6487H40.9239ZM42.7488 60.6487V70.5643H44.7488V60.6487H42.7488ZM44.087 60.6487V70.5643H46.087V60.6487H44.087ZM25.4973 60.6487V58.6487C24.3927 58.6487 23.4973 59.5441 23.4973 60.6487H25.4973ZM97.4516 60.6487H99.4516C99.4516 59.5441 98.5562 58.6487 97.4516 58.6487V60.6487ZM97.4516 70.5643V72.5643C98.5562 72.5643 99.4516 71.6689 99.4516 70.5643H97.4516ZM25.4973 70.5643H23.4973C23.4973 71.6689 24.3927 72.5643 25.4973 72.5643V70.5643ZM95.4516 60.6487V70.5643H99.4516V60.6487H95.4516ZM27.4973 70.5643V60.6487H23.4973V70.5643H27.4973ZM25.4973 62.6487H32.1911V58.6487H25.4973V62.6487ZM32.1911 68.5643H25.4973V72.5643H32.1911V68.5643ZM32.1911 62.6487H36.6925V58.6487H32.1911V62.6487ZM36.6925 68.5643H32.1911V72.5643H36.6925V68.5643ZM36.6925 62.6487H39.9773V58.6487H36.6925V62.6487ZM39.9773 68.5643H36.6925V72.5643H39.9773V68.5643ZM39.9773 62.6487H41.9239V58.6487H39.9773V62.6487ZM41.9239 68.5643H39.9773V72.5643H41.9239V68.5643ZM41.9239 62.6487H43.7488V58.6487H41.9239V62.6487ZM43.7488 68.5643H41.9239V72.5643H43.7488V68.5643ZM43.7488 62.6487H45.087V58.6487H43.7488V62.6487ZM45.087 62.6487H97.4516V58.6487H45.087V62.6487ZM97.4516 68.5643H45.087V72.5643H97.4516V68.5643ZM45.087 68.5643H43.7488V72.5643H45.087V68.5643Z" fill="white" mask="url(#path-21-outside-6_16_83)"/>
<path d="M37.9783 60.6487V70.5643H39.3166V60.6487H37.9783Z" fill="#FFE2C3"/>
<path d="M97.4493 68.7693V70.5738H25.4969V68.7693H94.973C95.1782 68.7254 95.235 68.6448 95.2738 68.4685V60.6487H97.4493V68.7693Z" fill="#CC781B" fill-opacity="0.5"/>
<mask id="path-25-outside-7_16_83" maskUnits="userSpaceOnUse" x="14.7051" y="70.3784" width="76" height="14" fill="black">
<rect fill="white" x="14.7051" y="70.3784" width="76" height="14"/>
<path d="M23.3989 72.3784V82.294H27.9003V72.3784H23.3989Z"/>
<path d="M31.1851 72.3784V82.294H33.1317V72.3784H31.1851Z"/>
<path fill-rule="evenodd" clip-rule="evenodd" d="M23.3989 72.3784H16.7051V82.294H23.3989V72.3784ZM27.9003 82.294H31.1851V72.3784H27.9003V82.294ZM34.9566 82.294H33.1317V72.3784H34.9566V82.294ZM36.2948 82.294H88.6595V72.3784H36.2948V82.294Z"/>
<path d="M34.9566 72.3784V82.294H36.2948V72.3784H34.9566Z"/>
</mask>
<path d="M23.3989 72.3784V82.294H27.9003V72.3784H23.3989Z" fill="#FFD9AF"/>
<path d="M31.1851 72.3784V82.294H33.1317V72.3784H31.1851Z" fill="#FFE3C3"/>
<path fill-rule="evenodd" clip-rule="evenodd" d="M23.3989 72.3784H16.7051V82.294H23.3989V72.3784ZM27.9003 82.294H31.1851V72.3784H27.9003V82.294ZM34.9566 82.294H33.1317V72.3784H34.9566V82.294ZM36.2948 82.294H88.6595V72.3784H36.2948V82.294Z" fill="#FFA43F"/>
<path d="M34.9566 72.3784V82.294H36.2948V72.3784H34.9566Z" fill="#FFA43F"/>
<path d="M22.3989 72.3784V82.294H24.3989V72.3784H22.3989ZM26.9003 72.3784V82.294H28.9003V72.3784H26.9003ZM30.1851 72.3784V82.294H32.1851V72.3784H30.1851ZM32.1317 72.3784V82.294H34.1317V72.3784H32.1317ZM33.9566 72.3784V82.294H35.9566V72.3784H33.9566ZM35.2948 72.3784V82.294H37.2948V72.3784H35.2948ZM16.7051 72.3784V70.3784C15.6005 70.3784 14.7051 71.2738 14.7051 72.3784H16.7051ZM88.6595 72.3784H90.6595C90.6595 71.2738 89.764 70.3784 88.6595 70.3784V72.3784ZM88.6595 82.294V84.294C89.764 84.294 90.6595 83.3986 90.6595 82.294H88.6595ZM16.7051 82.294H14.7051C14.7051 83.3986 15.6005 84.294 16.7051 84.294V82.294ZM86.6595 72.3784V82.294H90.6595V72.3784H86.6595ZM18.7051 82.294V72.3784H14.7051V82.294H18.7051ZM16.7051 74.3784H23.3989V70.3784H16.7051V74.3784ZM23.3989 80.294H16.7051V84.294H23.3989V80.294ZM23.3989 74.3784H27.9003V70.3784H23.3989V74.3784ZM27.9003 80.294H23.3989V84.294H27.9003V80.294ZM27.9003 74.3784H31.1851V70.3784H27.9003V74.3784ZM31.1851 80.294H27.9003V84.294H31.1851V80.294ZM31.1851 74.3784H33.1317V70.3784H31.1851V74.3784ZM33.1317 80.294H31.1851V84.294H33.1317V80.294ZM33.1317 74.3784H34.9566V70.3784H33.1317V74.3784ZM34.9566 80.294H33.1317V84.294H34.9566V80.294ZM34.9566 74.3784H36.2948V70.3784H34.9566V74.3784ZM36.2948 74.3784H88.6595V70.3784H36.2948V74.3784ZM88.6595 80.294H36.2948V84.294H88.6595V80.294ZM36.2948 80.294H34.9566V84.294H36.2948V80.294Z" fill="white" mask="url(#path-25-outside-7_16_83)"/>
<path d="M29.1861 72.3784V82.294H30.5244V72.3784H29.1861Z" fill="#FFE2C3"/>
<path d="M88.6575 80.499V82.3036H16.7051V80.499H86.1812C86.3864 80.4551 86.4432 80.3745 86.482 80.1982V72.3784H88.6575V80.499Z" fill="#CC781B" fill-opacity="0.5"/>
<mask id="path-29-outside-8_16_83" maskUnits="userSpaceOnUse" x="11.0152" y="82.1082" width="76" height="14" fill="black">
<rect fill="white" x="11.0152" y="82.1082" width="76" height="14"/>
<path d="M19.709 84.1082V94.0238H24.2104V84.1082H19.709Z"/>
<path d="M27.4952 84.1082V94.0238H29.4418V84.1082H27.4952Z"/>
<path fill-rule="evenodd" clip-rule="evenodd" d="M19.709 84.1082H13.0152V94.0238H19.709V84.1082ZM24.2104 94.0238H27.4952V84.1082H24.2104V94.0238ZM31.2667 94.0238H29.4418V84.1082H31.2667V94.0238ZM32.605 94.0238H84.9696V84.1082H32.605V94.0238Z"/>
<path d="M31.2667 84.1082V94.0238H32.605V84.1082H31.2667Z"/>
</mask>
<path d="M19.709 84.1082V94.0238H24.2104V84.1082H19.709Z" fill="#FFD9AF"/>
<path d="M27.4952 84.1082V94.0238H29.4418V84.1082H27.4952Z" fill="#FFE3C3"/>
<path fill-rule="evenodd" clip-rule="evenodd" d="M19.709 84.1082H13.0152V94.0238H19.709V84.1082ZM24.2104 94.0238H27.4952V84.1082H24.2104V94.0238ZM31.2667 94.0238H29.4418V84.1082H31.2667V94.0238ZM32.605 94.0238H84.9696V84.1082H32.605V94.0238Z" fill="#FFA43F"/>
<path d="M31.2667 84.1082V94.0238H32.605V84.1082H31.2667Z" fill="#FFA43F"/>
<path d="M18.709 84.1082V94.0238H20.709V84.1082H18.709ZM23.2104 84.1082V94.0238H25.2104V84.1082H23.2104ZM26.4952 84.1082V94.0238H28.4952V84.1082H26.4952ZM28.4418 84.1082V94.0238H30.4418V84.1082H28.4418ZM30.2667 84.1082V94.0238H32.2667V84.1082H30.2667ZM31.605 84.1082V94.0238H33.605V84.1082H31.605ZM13.0152 84.1082V82.1082C11.9106 82.1082 11.0152 83.0036 11.0152 84.1082H13.0152ZM84.9696 84.1082H86.9696C86.9696 83.0036 86.0742 82.1082 84.9696 82.1082V84.1082ZM84.9696 94.0238V96.0238C86.0742 96.0238 86.9696 95.1283 86.9696 94.0238H84.9696ZM13.0152 94.0238H11.0152C11.0152 95.1283 11.9106 96.0238 13.0152 96.0238V94.0238ZM82.9696 84.1082V94.0238H86.9696V84.1082H82.9696ZM15.0152 94.0238V84.1082H11.0152V94.0238H15.0152ZM13.0152 86.1082H19.709V82.1082H13.0152V86.1082ZM19.709 92.0238H13.0152V96.0238H19.709V92.0238ZM19.709 86.1082H24.2104V82.1082H19.709V86.1082ZM24.2104 92.0238H19.709V96.0238H24.2104V92.0238ZM24.2104 86.1082H27.4952V82.1082H24.2104V86.1082ZM27.4952 92.0238H24.2104V96.0238H27.4952V92.0238ZM27.4952 86.1082H29.4418V82.1082H27.4952V86.1082ZM29.4418 92.0238H27.4952V96.0238H29.4418V92.0238ZM29.4418 86.1082H31.2667V82.1082H29.4418V86.1082ZM31.2667 92.0238H29.4418V96.0238H31.2667V92.0238ZM31.2667 86.1082H32.605V82.1082H31.2667V86.1082ZM32.605 86.1082H84.9696V82.1082H32.605V86.1082ZM84.9696 92.0238H32.605V96.0238H84.9696V92.0238ZM32.605 92.0238H31.2667V96.0238H32.605V92.0238Z" fill="white" mask="url(#path-29-outside-8_16_83)"/>
<path d="M25.4963 84.1082V94.0238H26.8345V84.1082H25.4963Z" fill="#FFE2C3"/>
<path d="M84.9674 92.2287V94.0333H13.015V92.2287H82.4911C82.6963 92.1849 82.7531 92.1042 82.7919 91.928V84.1082H84.9674V92.2287Z" fill="#CC781B" fill-opacity="0.5"/>
<path d="M84.9716 93.95C105.75 93.95 122.594 77.8639 122.594 58.0208C122.594 38.1776 105.75 22.0916 84.9716 22.0916C82.6741 22.0916 80.4246 22.2882 78.2407 22.6649C77.2086 22.843 76.1911 23.0612 75.1901 23.3179C73.9371 23.6392 72.71 24.0207 71.5123 24.459C69.3108 25.2647 67.2088 26.2623 65.2287 27.4303C54.4991 33.7592 47.3492 45.0926 47.3492 58.0208C47.3492 70.9489 54.4991 82.2823 65.2287 88.6112C67.2088 89.7792 69.3108 90.7768 71.5123 91.5825C72.71 92.0208 73.9371 92.4023 75.1901 92.7236C76.1911 92.9803 77.2086 93.1986 78.2407 93.3766C80.4246 93.7533 82.6741 93.95 84.9716 93.95Z" fill="#E68E2D"/>
<path d="M85.4574 87.9813C102.85 87.9813 116.949 74.5167 116.949 57.9072C116.949 41.2977 102.85 27.833 85.4574 27.833C83.5343 27.833 81.6514 27.9976 79.8234 28.3129C78.9595 28.462 78.1078 28.6446 77.2699 28.8595C76.2211 29.1284 75.1939 29.4478 74.1914 29.8147C72.3487 30.4891 70.5892 31.3241 68.9318 32.3017C59.9508 37.5993 53.966 47.0858 53.966 57.9072C53.966 68.7286 59.9508 78.215 68.9318 83.5126C70.5892 84.4903 72.3487 85.3253 74.1914 85.9997C75.1939 86.3665 76.2211 86.6859 77.2699 86.9548C78.1078 87.1697 78.9595 87.3524 79.8234 87.5014C81.6514 87.8167 83.5343 87.9813 85.4574 87.9813Z" fill="#FFA43F"/>
<path d="M73.0852 92.1185C74.7186 92.7976 78.9293 93.6999 80.8495 93.729V87.6357C79.1139 87.3989 74.888 86.2576 73.0852 85.5811V92.1185Z" fill="#FFC587"/>
<path d="M80.8495 28.1587C79.4833 28.3524 75.0338 29.3497 73.0852 30.2407V85.5811C74.888 86.2576 79.1139 87.3989 80.8495 87.6357V28.1587Z" fill="#FFE2C2"/>
<path d="M80.8495 22.2889C77.8188 22.5726 74.9451 23.3443 73.0852 23.9253V30.2407C75.0338 29.3497 79.4833 28.3524 80.8495 28.1587V22.2889Z" fill="#FFC587"/>
<path d="M71.3386 24.5074C70.6145 24.7714 69.116 25.3983 68.4026 25.7531V32.6304C69.1113 32.2452 70.6126 31.3277 71.3386 31.0203V24.5074Z" fill="#FFC587"/>
<path d="M71.3386 31.0203C70.6126 31.3277 69.1113 32.2452 68.4026 32.6304V83.2014C69.1124 83.5725 70.6024 84.4483 71.3386 84.7951V31.0203Z" fill="#FFE2C2"/>
<path d="M68.4026 90.2834C69.0887 90.6194 70.6349 91.2841 71.3386 91.5147V84.7951C70.6024 84.4483 69.1124 83.5725 68.4026 83.2014V90.2834Z" fill="#FFC587"/>
<path d="M85.0535 92.7967C82.9059 92.7634 80.7273 92.547 78.5371 92.1342C58.7193 88.3992 45.6368 70.06 49.1793 51.2638C52.7217 32.4675 71.5822 20.1485 91.4 23.8834C93.5902 24.2962 95.6982 24.8876 97.7105 25.6384C98.6616 25.9932 99.5914 26.3837 100.499 26.8077L101.517 24.6281C100.552 24.1768 99.5631 23.7615 98.5516 23.3841C96.4112 22.5855 94.171 21.9572 91.8456 21.5189C70.8258 17.5574 50.6224 30.6146 46.8148 50.8181C43.0071 71.0217 57.0716 90.5372 78.0914 94.4987C80.4168 94.9369 82.7321 95.1671 85.0163 95.2025C86.0958 95.2192 87.1683 95.1924 88.2315 95.1234C89.5624 95.0372 90.8788 94.8849 92.1763 94.6694C94.5612 94.2734 96.8825 93.6639 99.1131 92.8581C111.196 88.4934 120.643 78.3568 123.122 65.1995C125.602 52.0421 120.493 39.1622 110.828 30.6989L109.243 32.5091C118.322 40.4591 123.067 52.5022 120.758 64.7539C118.449 77.0055 109.645 86.4951 98.2957 90.5951C96.202 91.3514 94.0224 91.9238 91.7821 92.2958C90.5634 92.4982 89.3266 92.6413 88.0759 92.7224C87.0767 92.7872 86.0685 92.8124 85.0535 92.7967Z" fill="white"/>
<path d="M108.891 31.4193C109.014 30.7664 109.643 30.3368 110.296 30.4599C110.949 30.583 111.378 31.212 111.255 31.8649C111.132 32.5179 110.503 32.9474 109.85 32.8244C109.197 32.7013 108.768 32.0723 108.891 31.4193Z" fill="white"/>
<path d="M99.7981 25.4801C99.9212 24.8271 100.55 24.3976 101.203 24.5206C101.856 24.6437 102.286 25.2728 102.163 25.9257C102.04 26.5786 101.41 27.0082 100.758 26.8851C100.105 26.7621 99.675 26.133 99.7981 25.4801Z" fill="white"/>
</svg>
