<svg viewBox="0 0 129 128" fill="none" xmlns="http://www.w3.org/2000/svg">
<path d="M122.412 125.317C125.4 125.317 127.333 122.16 125.975 119.498L94.6058 58.0613L19.465 125.317H122.412Z" fill="#AAA9A9"/>
<path d="M68.5231 6.9773C67.0383 4.06924 62.8829 4.06926 61.3981 6.97732L3.94669 119.498C2.5878 122.16 4.5209 125.317 7.50919 125.317H19.465L94.6058 58.0613L68.5231 6.9773Z" fill="#CDCDCD"/>
<path d="M70.3985 5.86905C68.1218 1.41018 61.72 1.41019 59.4434 5.86905L7.99218 106.638L12.1308 108.915L63.6569 7.99857C64.1823 6.9696 65.6596 6.96961 66.185 7.99857L70.3985 5.86905Z" fill="white"/>
<path d="M70.3985 5.86905L66.185 7.99857L71.5995 18.6031L75.7338 16.3185L70.3985 5.86905Z" fill="white"/>
<path d="M80.8832 26.4039L76.7489 28.6885L79.5814 34.2361L83.7617 32.0414L80.8832 26.4039Z" fill="white"/>
<path d="M124.009 121.249L128.222 119.119L87.1793 38.735L83.022 40.9746L124.009 121.249Z" fill="white"/>
<path d="M122.745 128C127.329 128 130.298 123.186 128.222 119.119L124.009 121.249C124.488 122.187 123.803 123.298 122.745 123.298H7.09712C6.03922 123.298 5.35395 122.187 5.83308 121.249L8.34738 116.325L4.20934 114.047L1.61961 119.119C-0.456622 123.186 2.51285 128 7.09712 128H122.745Z" fill="white"/>
<ellipse cx="73.6423" cy="17.4005" rx="2.36298" ry="2.35097" fill="white"/>
<ellipse cx="78.988" cy="27.8695" rx="2.36298" ry="2.35097" fill="white"/>
<ellipse cx="81.7702" cy="33.3084" rx="2.36298" ry="2.35097" fill="white"/>
<ellipse cx="85.1608" cy="39.9267" rx="2.36298" ry="2.35097" fill="white"/>
<ellipse cx="10.0905" cy="107.719" rx="2.36298" ry="2.35097" fill="white"/>
<ellipse cx="6.15497" cy="115.386" rx="2.36298" ry="2.35097" fill="white"/>
</svg>
