<svg viewBox="0 0 129 128" fill="none" xmlns="http://www.w3.org/2000/svg">
<path fill-rule="evenodd" clip-rule="evenodd" d="M2.94531 64C2.94531 79.6958 8.77774 94.0293 18.3935 104.952C92.8764 104.952 109.404 48.1403 108.357 19.7347C97.1728 8.76473 81.8491 2 64.9453 2C30.7037 2 2.94531 29.7583 2.94531 64Z" fill="#C4C4C4"/>
<path d="M64.9453 126C99.187 126 126.945 98.2417 126.945 64C126.945 46.6621 119.829 30.9864 108.357 19.7347C109.404 48.1403 92.8764 104.952 18.3935 104.952C29.7554 117.857 46.3994 126 64.9453 126Z" fill="#ADADAD"/>
<path d="M64.9453 128C100.292 128 128.945 99.3462 128.945 64C128.945 46.1038 121.594 29.9162 109.758 18.307C98.2174 6.98781 82.3928 0 64.9453 0C43.2816 0 24.1319 10.7637 12.5524 27.2348L16.2344 30.0626C26.9628 14.6927 44.7798 4.63768 64.9453 4.63768C81.1299 4.63768 95.8018 11.1146 106.51 21.6179C117.494 32.3909 124.308 47.3997 124.308 64C124.308 96.7849 97.7302 123.362 64.9453 123.362C47.1884 123.362 31.2525 115.566 20.374 103.209C11.1673 92.7518 5.58299 79.028 5.58299 64C5.58299 55.9035 7.20391 48.1856 10.1389 41.153L5.8479 39.3904C2.68944 46.9664 0.945312 55.2795 0.945312 64C0.945312 80.1989 6.96954 95.0021 16.8931 106.274C28.6147 119.588 45.8005 128 64.9453 128Z" fill="white"/>
<path d="M16.7539 28.5816C16.7539 29.8623 15.7157 30.9004 14.435 30.9004C13.1544 30.9004 12.1162 29.8623 12.1162 28.5816C12.1162 27.3009 13.1544 26.2628 14.435 26.2628C15.7157 26.2628 16.7539 27.3009 16.7539 28.5816Z" fill="white"/>
<path d="M10.2637 40.3772C10.2637 41.6579 9.22549 42.696 7.94483 42.696C6.66417 42.696 5.62599 41.6579 5.62599 40.3772C5.62599 39.0965 6.66417 38.0584 7.94483 38.0584C9.22549 38.0584 10.2637 39.0965 10.2637 40.3772Z" fill="white"/>
</svg>
