<svg viewBox="0 0 129 130" fill="none" xmlns="http://www.w3.org/2000/svg">
<path d="M64.5591 4.19519L125.059 64.6952L64.5591 125.195L4.05908 64.6952L64.5591 4.19519Z" fill="white"/>
<path fill-rule="evenodd" clip-rule="evenodd" d="M39.3447 26.1347L3.82892 61.6505C2.26682 63.2126 2.26682 65.7452 3.82892 67.3073L39.3447 102.823L39.3447 39.0604C39.3447 37.9996 39.7661 36.9821 40.5162 36.232L61.8562 14.8921C63.3049 13.4433 65.6538 13.4433 67.1025 14.8921L88.4424 36.232C89.1926 36.9821 89.614 37.9996 89.614 39.0604L89.614 102.823L125.13 67.3073C126.692 65.7452 126.692 63.2126 125.13 61.6504L89.614 26.1347L83.8088 20.3295L70.1138 6.63448L67.3078 3.82847C65.7457 2.26637 63.213 2.26637 61.6509 3.82847L44.4624 21.0169L39.3447 26.1347ZM45.1498 108.628L61.6509 125.129C63.213 126.691 65.7457 126.691 67.3078 125.129L83.8088 108.628L83.8088 39.0604C83.8088 37.9996 83.3874 36.9821 82.6372 36.232L67.0283 20.6231C65.4662 19.061 62.9336 19.061 61.3715 20.6231L45.7756 36.219C45.0178 36.9768 44.5958 38.0071 44.6042 39.0788L45.1498 108.628Z" fill="#CCDEFF"/>
<path d="M1.00049 65.9945L39.3447 104.339V64.2311L20.1726 46.8224L1.00049 65.9945Z" fill="#B1CDFF"/>
<path d="M45.1498 110.144L64.4793 129.473L83.8088 110.144V69.5024L64.4793 87.054L45.1498 69.5024V110.144Z" fill="#B1CDFF"/>
<path d="M89.614 104.339L127.958 65.9945L108.786 46.8224L89.614 64.2311V104.339Z" fill="#B1CDFF"/>
<path fill-rule="evenodd" clip-rule="evenodd" d="M59.8823 2.06083L23.2853 38.6581L26.8208 42.1936L63.4178 5.59635C64.0036 5.01056 64.9534 5.01056 65.5392 5.59635L123.361 63.4183C123.947 64.0041 123.947 64.9539 123.361 65.5396L88.5574 100.343L92.0929 103.879L126.897 69.0752C129.435 66.5368 129.435 62.4212 126.897 59.8828L69.0747 2.06081C66.5363 -0.477602 62.4207 -0.477596 59.8823 2.06083Z" fill="white"/>
<path fill-rule="evenodd" clip-rule="evenodd" d="M69.0749 126.897L116.174 79.7983L112.638 76.2628L65.5394 123.362C64.9536 123.947 64.0038 123.947 63.418 123.362L5.59604 65.5396C5.01025 64.9538 5.01025 64.0041 5.59604 63.4183L20.7894 48.2249L17.2539 44.6894L2.06051 59.8828C-0.4779 62.4212 -0.4779 66.5367 2.06051 69.0751L59.8825 126.897C62.4209 129.436 66.5365 129.436 69.0749 126.897Z" fill="white"/>
<path d="M21.4839 46.4979C21.4839 47.8786 20.3646 48.9979 18.9839 48.9979C17.6032 48.9979 16.4839 47.8786 16.4839 46.4979C16.4839 45.1172 17.6032 43.9979 18.9839 43.9979C20.3646 43.9979 21.4839 45.1172 21.4839 46.4979Z" fill="white"/>
<path d="M27.5239 40.4545C27.5239 41.8352 26.4046 42.9545 25.0239 42.9545C23.6432 42.9545 22.5239 41.8352 22.5239 40.4545C22.5239 39.0738 23.6432 37.9545 25.0239 37.9545C26.4046 37.9545 27.5239 39.0738 27.5239 40.4545Z" fill="white"/>
</svg>
