<svg  viewBox="0 0 176 199" fill="none" xmlns="http://www.w3.org/2000/svg">
<path fill-rule="evenodd" clip-rule="evenodd" d="M4.31274 143.483V132.482L101.112 188.449L91.6121 193.941C89.2806 195.288 86.4081 195.288 84.0766 193.941L8.08047 150.016C5.74899 148.669 4.31274 146.179 4.31274 143.483Z" fill="#EDDC9E"/>
<path d="M110.611 182.959L120.111 177.468L4.31274 110.54V121.522L110.611 182.959Z" fill="#EDDC9E"/>
<path d="M167.609 49.1043L91.6121 5.17965C89.2806 3.83237 86.4081 3.83237 84.0766 5.17965L8.08046 49.1043C5.74899 50.4516 4.31273 52.9409 4.31273 55.637L4.22241 84.4488L140.773 165.02L167.609 150.016C169.94 148.669 171.376 146.179 171.376 143.483V55.637C171.376 52.9409 169.94 50.4516 167.609 49.1043Z" fill="#EDDC9E"/>
<path d="M140.773 165.02L4.22241 84.4489L4.31273 110.541L120.111 177.468L140.773 165.02Z" fill="#EDDC9E"/>
<path d="M140.773 165.02L4.22241 84.4489L4.31273 110.541L120.111 177.468L140.773 165.02Z" fill="white" fill-opacity="0.66"/>
<path d="M110.611 182.959L4.31274 121.522V132.482L101.112 188.449L110.611 182.959Z" fill="#EDDC9E"/>
<path d="M110.611 182.959L4.31274 121.522V132.482L101.112 188.449L110.611 182.959Z" fill="white" fill-opacity="0.66"/>
<path d="M133.254 27.1103C133.254 29.1938 131.568 30.8821 129.487 30.8821C127.406 30.8821 125.719 29.1938 125.719 27.1103C125.719 25.0267 127.406 23.3385 129.487 23.3385C131.568 23.3385 133.254 25.0267 133.254 27.1103Z" fill="white"/>
<path d="M93.4526 1.91332C89.9554 -0.106848 85.6466 -0.106848 82.1494 1.91332L6.1533 45.8379C2.65608 47.8581 0.501709 51.5936 0.501709 55.637V143.483C0.501709 147.527 2.65608 151.262 6.1533 153.282L82.1494 197.207C85.6466 199.227 89.9554 199.227 93.4526 197.207L169.449 153.282C172.947 151.262 175.1 147.527 175.1 143.483V55.637C175.1 51.5936 172.947 47.8581 169.449 45.8379L150.45 34.856L146.682 41.3887L165.681 52.3706C166.847 53.0435 167.565 54.2897 167.565 55.637V143.483C167.565 144.83 166.847 146.077 165.681 146.75L89.6849 190.674C88.5191 191.347 87.0829 191.347 85.9171 190.674L9.92103 146.75C8.7553 146.077 8.03717 144.83 8.03717 143.483V55.637C8.03717 54.2897 8.7553 53.0435 9.92103 52.3706L85.9171 8.44604C87.0829 7.77315 88.5191 7.77315 89.6849 8.44604L127.683 30.4083L131.451 23.8756L93.4526 1.91332Z" fill="white"/>
<path d="M152.447 38.1872C152.447 40.2707 150.759 41.959 148.679 41.959C146.598 41.959 144.911 40.2707 144.911 38.1872C144.911 36.1052 146.598 34.4154 148.679 34.4154C150.759 34.4154 152.447 36.1052 152.447 38.1872Z" fill="white"/>
<path fill-rule="evenodd" clip-rule="evenodd" d="M113.208 77.5269L113.877 67.1786C113.988 64.392 112.798 62.218 109.964 62.7807C109.964 62.7807 102.165 63.6362 99.8393 64.5006C97.5139 65.3636 96.2875 64.7586 95.1226 69.3753C93.9576 73.9904 93.4792 77.8467 93.943 79.9106C94.4069 81.9745 94.4543 83.1906 95.2413 83.6145C96.9951 84.0867 99.3188 83.7111 101.154 83.3475L110.205 81.095C113.62 80.0992 113.128 79.5138 113.208 77.5269ZM118.547 66.8904C118.742 62.0143 119.212 57.206 114.251 58.1897L97.9125 61.4862C94.3757 62.1863 92.0369 64.8462 91.0154 68.5078C91.0154 68.5078 88.6228 76.0091 89.2193 85.7554C89.4876 90.1382 88.8709 89.9315 89.929 90.1186C91.1416 90.2423 91.0818 88.7064 93.8088 87.7861C98.7654 86.1114 111.838 85.0946 111.838 85.0946C115.375 84.393 117.964 81.451 118.103 77.9749L118.547 66.8904Z" fill="black"/>
<path d="M99.0283 46.799L92.5666 37.6879C91.2112 35.8593 89.3187 34.6206 87.6642 34.8077V29.0309C91.5965 29.5227 93.5239 31.7616 96.3634 35.5923L103.518 45.245C105.762 48.2715 105.548 51.8124 103.001 53.8115C103.001 53.8115 92.5148 59.8569 89.4156 63.2515C87.7105 65.1193 88.8051 66.4077 87.6846 66.7833L87.6641 59.1176C89.4842 58.8279 91.3573 57.5863 92.6792 56.5483L98.8859 51.0385C101.128 48.8357 100.31 48.5295 99.0283 46.799Z" fill="black"/>
<path d="M76.3204 46.8035L82.7819 37.6924C84.1374 35.8638 86.0095 34.6206 87.6642 34.8077V29.0309C83.9573 29.574 81.8248 31.7662 78.9853 35.5968L71.8305 45.2495C69.587 48.276 69.8009 51.8169 72.3482 53.816C72.3482 53.816 82.8339 59.8614 85.9331 63.256C87.6382 65.1238 86.5436 66.4122 87.664 66.7879V59.1176C85.844 58.8279 83.9914 57.5908 82.6695 56.5528L76.4629 51.043C74.2203 48.8403 75.0383 48.534 76.3204 46.8035Z" fill="black"/>
<path fill-rule="evenodd" clip-rule="evenodd" d="M113.208 106.067L113.877 95.7189C113.988 92.9323 112.798 90.7583 109.964 91.321C109.964 91.321 102.165 92.1764 99.8393 93.0409C97.5139 93.9039 96.2875 93.2989 95.1226 97.9156C93.9576 102.531 93.4792 106.387 93.943 108.451C94.4069 110.515 94.4543 111.731 95.2413 112.155C96.9951 112.627 99.3188 112.251 101.154 111.888L110.205 109.635C113.62 108.639 113.128 108.054 113.208 106.067ZM118.547 95.4307C118.742 90.5546 119.212 85.7463 114.251 86.73L97.9125 90.0265C94.3757 90.7266 92.0369 93.3864 91.0154 97.0481C91.0154 97.0481 88.6228 104.549 89.2193 114.296C89.4876 118.678 88.8709 118.472 89.929 118.659C91.1416 118.783 91.0818 117.247 93.8088 116.326C98.7654 114.652 111.838 113.635 111.838 113.635C115.375 112.933 117.964 109.991 118.103 106.515L118.547 95.4307Z" fill="black"/>
<path fill-rule="evenodd" clip-rule="evenodd" d="M113.208 134.782L113.877 124.434C113.988 121.648 112.798 119.474 109.964 120.036C109.964 120.036 102.165 120.892 99.8393 121.756C97.5139 122.621 96.2875 122.014 95.1226 126.631C93.9576 131.246 93.4792 135.102 93.943 137.166C94.4069 139.23 94.4543 140.446 95.2413 140.87C96.9951 141.342 99.3188 140.967 101.154 140.603L110.205 138.351C113.62 137.355 113.128 136.769 113.208 134.782ZM118.547 124.146C118.742 119.27 119.212 114.462 114.251 115.445L97.9125 118.742C94.3757 119.443 92.0369 122.102 91.0154 125.763C91.0154 125.763 88.6228 133.266 89.2193 143.011C89.4876 147.394 88.8709 147.187 89.929 147.376C91.1416 147.498 91.0818 145.964 93.8088 145.042C98.7654 143.367 111.838 142.35 111.838 142.35C115.375 141.65 117.964 138.708 118.103 135.232L118.547 124.146Z" fill="black"/>
<path fill-rule="evenodd" clip-rule="evenodd" d="M62.3946 77.5269L61.7261 67.1786C61.6145 64.392 62.8042 62.218 65.6391 62.7807C65.6391 62.7807 73.4377 63.6362 75.7633 64.5006C78.0887 65.3636 79.315 64.7586 80.48 69.3753C81.645 73.9904 82.1234 77.8467 81.6595 79.9106C81.1957 81.9745 81.1483 83.1906 80.3611 83.6145C78.6075 84.0867 76.2837 83.7111 74.4482 83.3475L65.397 81.095C61.983 80.0992 62.474 79.5138 62.3946 77.5269ZM57.0559 66.8904C56.8609 62.0143 56.3905 57.206 61.3514 58.1897L77.6899 61.4862C81.2269 62.1863 83.5656 64.8462 84.5871 68.5078C84.5871 68.5078 86.9798 76.0091 86.3833 85.7554C86.115 90.1382 86.7316 89.9315 85.6735 90.1186C84.4609 90.2423 84.5207 88.7064 81.7936 87.7861C76.8372 86.1114 63.7643 85.0946 63.7643 85.0946C60.2274 84.393 57.6384 81.451 57.4994 77.9749L57.0559 66.8904Z" fill="black"/>
<path fill-rule="evenodd" clip-rule="evenodd" d="M62.3946 106.067L61.7261 95.7189C61.6145 92.9323 62.8042 90.7583 65.6391 91.321C65.6391 91.321 73.4377 92.1764 75.7633 93.0409C78.0887 93.9039 79.315 93.2989 80.48 97.9156C81.645 102.531 82.1234 106.387 81.6595 108.451C81.1957 110.515 81.1483 111.731 80.3611 112.155C78.6075 112.627 76.2837 112.251 74.4482 111.888L65.397 109.635C61.983 108.639 62.474 108.054 62.3946 106.067ZM57.0559 95.4307C56.8609 90.5546 56.3905 85.7463 61.3514 86.73L77.6899 90.0265C81.2269 90.7266 83.5656 93.3864 84.5871 97.0481C84.5871 97.0481 86.9798 104.549 86.3833 114.296C86.115 118.678 86.7316 118.472 85.6735 118.659C84.4609 118.783 84.5207 117.247 81.7936 116.326C76.8372 114.652 63.7643 113.635 63.7643 113.635C60.2274 112.933 57.6384 109.991 57.4994 106.515L57.0559 95.4307Z" fill="black"/>
<path fill-rule="evenodd" clip-rule="evenodd" d="M62.3946 134.782L61.7261 124.434C61.6145 121.648 62.8042 119.474 65.6391 120.036C65.6391 120.036 73.4377 120.892 75.7633 121.756C78.0887 122.621 79.315 122.014 80.48 126.631C81.645 131.246 82.1234 135.102 81.6595 137.166C81.1957 139.23 81.1483 140.446 80.3611 140.87C78.6075 141.342 76.2837 140.967 74.4482 140.603L65.397 138.351C61.983 137.355 62.474 136.769 62.3946 134.782ZM57.0559 124.146C56.8609 119.27 56.3905 114.462 61.3514 115.445L77.6899 118.742C81.2269 119.443 83.5656 122.102 84.5871 125.763C84.5871 125.763 86.9798 133.266 86.3833 143.011C86.115 147.394 86.7316 147.187 85.6735 147.376C84.4609 147.498 84.5207 145.964 81.7936 145.042C76.8372 143.367 63.7643 142.35 63.7643 142.35C60.2274 141.65 57.6384 138.708 57.4994 135.232L57.0559 124.146Z" fill="black"/>
<path fill-rule="evenodd" clip-rule="evenodd" d="M88.075 149.843C89.1795 149.843 90.075 150.738 90.075 151.843V171.183C90.075 172.288 89.1795 173.183 88.075 173.183C86.9704 173.183 86.075 172.288 86.075 171.183V151.843C86.075 150.738 86.9704 149.843 88.075 149.843Z" fill="black"/>
</svg>
