<svg viewBox="0 0 81 81" fill="none" xmlns="http://www.w3.org/2000/svg">
    <path fill-rule="evenodd" clip-rule="evenodd"
        d="M40.2121 0.0010016C40.308 0.000334234 40.404 0 40.5 0C62.8675 0 81 18.1325 81 40.5C81 62.8675 62.8675 81 40.5 81C18.1325 81 0 62.8675 0 40.5C0 18.7684 17.1161 1.03449 38.6028 0.0436527C39.0648 0.0146959 39.5307 0 40 0C40.0708 0 40.1415 0.000334365 40.2121 0.0010016ZM18.7266 16.3715C12.1396 22.3193 8 30.9262 8 40.5C8 58.4493 22.5507 73 40.5 73C58.4493 73 73 58.4493 73 40.5C73 30.2947 68.2963 21.1881 60.9386 15.2298C61.6277 17.3626 62 19.6378 62 22C62 34.1503 52.1503 44 40 44C27.8497 44 18 34.1503 18 22C18 20.0545 18.2525 18.168 18.7266 16.3715ZM39.0481 8.03185C39.4298 8.01507 39.8131 8.00488 40.1981 8.00137C47.8388 8.10735 54 14.3342 54 22C54 29.732 47.732 36 40 36C32.268 36 26 29.732 26 22C26 14.5879 31.7601 8.52119 39.0481 8.03185Z" />
</svg>