<svg viewBox="0 0 65 79" fill="none" xmlns="http://www.w3.org/2000/svg">
    <path fill-rule="evenodd" clip-rule="evenodd"
        d="M35.8284 1.17157C34.2663 -0.390524 31.7337 -0.390524 30.1716 1.17157L18.8579 12.4853C17.2958 14.0474 17.2958 16.58 18.8579 18.1421L26.7794 26.0637L1.17157 51.6716C0.421427 52.4217 0 53.4391 0 54.5V74.5C0 76.7091 1.79086 78.5 4 78.5C6.20914 78.5 8 76.7091 8 74.5V56.1569L32.5 31.6569L57 56.1569V74.5C57 76.7091 58.7909 78.5 61 78.5C63.2091 78.5 65 76.7091 65 74.5V54.5C65 53.4391 64.5786 52.4217 63.8284 51.6716L38.7206 26.5637L47.1421 18.1421C48.7042 16.58 48.7042 14.0474 47.1421 12.4853L35.8284 1.17157ZM27.3431 15.3137L33 9.65685L38.6569 15.3137L33 20.9706L27.3431 15.3137Z" />
</svg>