<svg xmlns="http://www.w3.org/2000/svg" width="14" height="14" viewBox="0 0 14 14" version="1.1">
	<path d="M4.374132 1.35646C4.244184 1.389598 4.108902 1.5037260000000001 4.043984 1.6349760000000002C4.016194 1.691158 4.011406 1.7218740000000001 4.011854 1.841L4.012386 1.981 4.260648 2.777376C4.39719 3.2153799999999997 4.507132 3.5755160000000004 4.504948 3.577672C4.502778 3.579814 4.39705 3.6266439999999998 4.2700000000000005 3.681734C3.5467880000000003 3.9952780000000003 2.8035419999999998 4.48777 2.2644859999999998 5.0106L2.169972 5.102272 1.536486 4.469892000000001C0.844494 3.7791180000000004 0.840504 3.77587 0.662032 3.7572080000000003C0.56952 3.747548 0.459102 3.7676800000000004 0.37618 3.8093300000000005C0.300062 3.847564 0.19590200000000002 3.959074 0.155134 4.045972C0.12423600000000001 4.111856 0.11900000000000001 4.14225 0.11900000000000001 4.256C0.11900000000000001 4.481470000000001 0.09882600000000001 4.455080000000001 0.84196 5.201406L1.483594 5.8458120000000005 1.3567120000000001 6.013168C1.10187 6.349238 0.8427439999999999 6.7550419999999995 0.6997340000000001 7.042C0.5126940000000001 7.417298000000001 0.513212 7.524146 0.703864 7.903896C0.993286 8.480388 1.509144 9.175683999999999 2.05289 9.722146C3.186456 10.861382 4.553248000000001 11.553416 6.062 11.752048C6.639752 11.828096 7.3602479999999995 11.828096 7.938 11.752048C9.450042000000002 11.552982 10.817296 10.859254 11.95537 9.713690000000001C12.49339 9.172113999999999 13.008519999999999 8.476790000000001 13.296136 7.903896C13.44679 7.60382 13.470338 7.472122 13.406778 7.285208C13.313132 7.009898 12.986792000000001 6.466166 12.643288 6.013168L12.516406 5.8458120000000005 13.15804 5.201406C13.901174000000001 4.455080000000001 13.881 4.481470000000001 13.881 4.256C13.881 4.14225 13.875764 4.111856 13.844866 4.045972C13.804098 3.959074 13.699938 3.847564 13.62382 3.8093300000000005C13.540898 3.7676800000000004 13.430480000000001 3.747548 13.337968 3.7572080000000003C13.159496 3.77587 13.155505999999999 3.7791180000000004 12.463514 4.469892000000001L11.830028 5.102272 11.735514 5.0106C11.361252 4.647594 10.830652 4.258884 10.317426 3.9717160000000002C10.092684 3.8459540000000003 9.985178 3.792992 9.724932 3.6798300000000004C9.600667999999999 3.6257900000000003 9.497222 3.579814 9.495052 3.577672C9.492868 3.5755160000000004 9.60281 3.2153799999999997 9.739352 2.777376L9.987613999999999 1.981 9.988146 1.841C9.988594 1.7218740000000001 9.983806000000001 1.691158 9.956016 1.6349760000000002C9.906918 1.535702 9.826166 1.452444 9.727494 1.399328C9.64474 1.354794 9.630334 1.3516860000000002 9.505426 1.35135C9.380798 1.351028 9.365552 1.354206 9.27745 1.398838C9.168698000000001 1.4539419999999998 9.096528 1.5272180000000002 9.050412 1.6293199999999999C9.032618000000001 1.668744 8.909488000000001 2.0538 8.776796 2.485C8.644104 2.9162000000000003 8.531824 3.2729619999999997 8.527274 3.277792C8.522724 3.282636 8.4434 3.2716600000000002 8.351 3.253404C7.9096079999999995 3.166226 7.519442 3.13082 7 3.13082C6.480558 3.13082 6.0903920000000005 3.166226 5.649 3.253404C5.5565999999999995 3.2716600000000002 5.477206 3.282636 5.472572 3.277792C5.467938 3.2729619999999997 5.355672 2.9162000000000003 5.2231060000000005 2.485C5.090540000000001 2.0538 4.96748 1.668744 4.949644 1.6293199999999999C4.903472 1.527246 4.831316 1.453956 4.7227179999999995 1.398838C4.642974000000001 1.358364 4.612202 1.3505800000000001 4.522742 1.3482560000000001C4.464586 1.3467580000000001 4.397708000000001 1.3504399999999999 4.374132 1.35646M6.468 4.1509860000000005C5.884087999999999 4.205348 5.3578280000000005 4.327708 4.844 4.528580000000001C4.650226 4.604334 4.176242 4.839632 3.99 4.952542C3.1856020000000003 5.4402040000000005 2.468466 6.13592 1.9083400000000001 6.972C1.7298540000000002 7.23842 1.605114 7.457058000000001 1.6157540000000001 7.484806000000001C1.6338139999999999 7.531846000000001 1.7868760000000001 7.783370000000001 1.908592 7.966C2.4088819999999997 8.716666 3.050012 9.36411 3.759 9.834636000000001C4.252178 10.161942 4.699380000000001 10.37659 5.2482500000000005 10.549406C6.342504 10.89396 7.63042 10.8948 8.743 10.551674C9.282112000000001 10.38541 9.744895999999999 10.163888 10.241 9.834636000000001C10.947370000000001 9.365846000000001 11.591692 8.715224 12.091534000000001 7.966C12.272428 7.6948620000000005 12.394746000000001 7.480564 12.384246000000001 7.453194C12.347244 7.356762 12.03993 6.882218 11.860926 6.645072000000001C10.806656 5.248404000000001 9.380644 4.384632 7.791 4.17977C7.381457999999999 4.12699 6.849990000000001 4.115426 6.468 4.1509860000000005M6.839 5.23866C6.308456 5.271966 5.815628 5.497814 5.424286 5.8870000000000005C5.008962 6.300042 4.79052 6.798778 4.76511 7.392C4.73893 8.003254 4.971148 8.595076 5.4110000000000005 9.038120000000001C5.588114 9.216508000000001 5.7012480000000005 9.303532 5.908 9.420418C6.242558 9.609558000000002 6.597906 9.702812 6.9859860000000005 9.703358C7.213682 9.703666 7.352814 9.686684 7.5684000000000005 9.632223999999999C8.167376 9.480954 8.714132 9.04176 8.993096000000001 8.487794C9.431379999999999 7.617442 9.270142 6.58385 8.589392 5.8998800000000005C8.411634000000001 5.721296 8.29843 5.634286 8.092 5.517582C7.708876 5.3010019999999995 7.299137999999999 5.209792 6.839 5.23866M6.86 6.238918C6.431796 6.301442000000001 6.0748240000000004 6.550754 5.900566 6.909C5.797036 7.121828 5.775014 7.222502 5.775014 7.4830000000000005C5.775 7.704634 5.775532 7.708512 5.82568 7.850668C5.897654 8.054704000000001 5.9885139999999994 8.199548 6.13921 8.350538C6.285006 8.496614 6.409886 8.573712 6.601 8.635648C7.029008 8.77436 7.4408460000000005 8.699082 7.788074000000001 8.418648C7.978418 8.264914000000001 8.11979 8.04573 8.192855999999999 7.791C8.220352 7.695142000000001 8.224986000000001 7.646702 8.224986000000001 7.455C8.225 7.233366 8.224468 7.229488000000001 8.17432 7.087332C8.102346 6.883296 8.011486 6.738452 7.860790000000001 6.587462C7.718984 6.44539 7.592928 6.366206 7.413 6.306202C7.230356 6.2452879999999995 7.004564 6.21782 6.86 6.238918" fill="currentColor" fill-rule="evenodd"></path>
</svg>