<svg  viewBox="0 0 73 73" xmlns="http://www.w3.org/2000/svg">
<path fill-rule="evenodd" clip-rule="evenodd" d="M71.9468 4.19662C71.585 2.67706 70.3718 1.50712 68.8401 1.20078C64.8654 0.405851 59.9158 1.25895 55.3169 2.98752C50.6201 4.75288 45.7496 7.63011 41.8927 11.4871C39.5535 13.8262 37.6193 16.4933 36.0789 19.2628C34.3975 16.592 32.3321 13.9473 29.8718 11.4871C25.5233 7.13854 20.8005 4.22633 16.3772 2.56336C12.037 0.931685 7.69206 0.399632 4.19663 1.23188C2.67706 1.59368 1.50713 2.80693 1.20079 4.33864C0.405855 8.31328 1.25895 13.2629 2.98753 17.8618C4.75288 22.5586 7.63011 27.4291 11.4871 31.2861C13.8262 33.6252 16.4933 35.5594 19.2628 37.0998C16.592 38.7812 13.9473 40.8467 11.4871 43.3069C7.13853 47.6554 4.22633 52.3782 2.56336 56.8015C0.931682 61.1417 0.399628 65.4867 1.23188 68.9821C1.59368 70.5017 2.80693 71.6716 4.33864 71.9779C8.31328 72.7729 13.2629 71.9198 17.8618 70.1912C22.5586 68.4258 27.4291 65.5486 31.2861 61.6916C33.6252 59.3525 35.5594 56.6854 37.0998 53.9159C38.7812 56.5867 40.8467 59.2314 43.3069 61.6916C47.6554 66.0402 52.3782 68.9524 56.8015 70.6153C61.1417 72.247 65.4867 72.7791 68.9821 71.9468C70.5017 71.585 71.6716 70.3718 71.9779 68.8401C72.7729 64.8654 71.9198 59.9158 70.1912 55.3169C68.4258 50.6201 65.5486 45.7496 61.6916 41.8927C59.3525 39.5535 56.6854 37.6193 53.9159 36.0789C56.5867 34.3975 59.2314 32.332 61.6916 29.8718C66.0402 25.5233 68.9524 20.8005 70.6153 16.3772C72.247 12.037 72.7791 7.69206 71.9468 4.19662ZM32.217 29.2693C32.0132 30.1592 31.8474 31.0435 31.7215 31.9151C30.8235 32.0967 29.9085 32.3281 28.9852 32.6055C28.5028 32.4559 28.0139 32.2908 27.5203 32.1096C23.7835 30.7379 20.0636 28.5489 17.1439 25.6292C14.2127 22.6979 11.9044 18.8475 10.476 15.0471C9.61052 12.7445 9.1345 10.6423 8.9689 8.91191C10.2614 9.04699 11.813 9.39411 13.562 10.0517C16.8814 11.2996 20.6439 13.5729 24.215 17.1439C27.7913 20.7202 30.3352 24.7585 31.8939 28.4689C32.0075 28.7393 32.1151 29.0061 32.217 29.2693ZM29.2693 40.9617C29.0061 41.0636 28.7393 41.1712 28.4689 41.2848C24.7585 42.8435 20.7202 45.3874 17.1439 48.9637C13.5729 52.5348 11.2996 56.2973 10.0517 59.6168C9.39411 61.3658 9.04698 62.9173 8.91191 64.2098C10.6423 64.0442 12.7445 63.5682 15.0471 62.7027C18.8474 61.2743 22.6979 58.9661 25.6292 56.0348C28.5489 53.1151 30.7379 49.3952 32.1096 45.6584C32.2908 45.1648 32.4559 44.6759 32.6055 44.1936C32.3281 43.2702 32.0967 42.3552 31.9151 41.4572C31.0435 41.3313 30.1592 41.1655 29.2693 40.9617ZM41.2637 31.7215C42.1352 31.8474 43.0195 32.0132 43.9094 32.217C44.1726 32.1151 44.4395 32.0075 44.7098 31.8939C48.4202 30.3352 52.4585 27.7913 56.0348 24.215C59.6059 20.6439 61.8791 16.8814 63.1271 13.5619C63.7846 11.813 64.1317 10.2614 64.2668 8.9689C62.5364 9.1345 60.4342 9.61051 58.1316 10.476C54.3313 11.9044 50.4808 14.2127 47.5495 17.1439C44.6298 20.0636 42.4408 23.7835 41.0691 27.5203C40.8879 28.0139 40.7228 28.5028 40.5732 28.9851C40.8507 29.9085 41.082 30.8235 41.2637 31.7215ZM41.4572 41.2637C41.3313 42.1352 41.1655 43.0195 40.9617 43.9094C41.0636 44.1726 41.1712 44.4395 41.2848 44.7098C42.8435 48.4202 45.3874 52.4585 48.9637 56.0348C52.5348 59.6059 56.2973 61.8791 59.6168 63.1271C61.3658 63.7846 62.9173 64.1317 64.2098 64.2668C64.0442 62.5364 63.5682 60.4343 62.7027 58.1316C61.2743 54.3313 58.9661 50.4808 56.0348 47.5495C53.1151 44.6298 49.3952 42.4408 45.6584 41.0691C45.1648 40.8879 44.6759 40.7228 44.1936 40.5732C43.2702 40.8507 42.3552 41.082 41.4572 41.2637Z" />
</svg>
