<svg viewBox="0 0 73 88" fill="none" xmlns="http://www.w3.org/2000/svg">
    <path fill-rule="evenodd" clip-rule="evenodd"
        d="M62.3424 5.11268C62.9564 2.99057 61.7338 0.772554 59.6116 0.158609C57.4895 -0.455336 55.2715 0.767277 54.6576 2.88939L41.7511 47.501H31.6712L21.9065 3.14112C21.4316 0.983634 19.2976 -0.380357 17.1401 0.0945614C14.9826 0.56948 13.6186 2.70347 14.0935 4.86095L23.4797 47.501H4C1.79086 47.501 0 49.2919 0 51.501C0 53.7102 1.79086 55.501 4 55.501H25.2407L31.5935 84.361C31.9868 86.1474 33.5418 87.4395 35.3701 87.4989C37.1984 87.5583 38.8341 86.3699 39.3424 84.6127L47.7647 55.501H69C71.2091 55.501 73 53.7102 73 51.501C73 49.2919 71.2091 47.501 69 47.501H50.0791L62.3424 5.11268ZM39.4366 55.501H33.4322L36.0267 67.2874L39.4366 55.501Z" />
</svg>