<svg width="16" height="30" viewBox="0 0 16 30" fill="none" xmlns="http://www.w3.org/2000/svg">
    <path
        d="M6.7048 14.9997L9.49746 12.7657V17.2313L6.7048 14.9997ZM5.29285 14.435C4.90238 14.7473 4.90238 15.2546 5.29285 15.567L9.29129 18.7657C9.57868 18.9956 10.0066 19.063 10.3815 18.9381C10.7563 18.8131 11 18.5233 11 18.1984V11.8011C11 11.4787 10.7563 11.1863 10.3815 11.0614C10.0066 10.9364 9.57868 11.0064 9.29129 11.2338L5.29285 14.4325V14.435Z"
        fill="#E0AF65" />
    <path d="M15.5 1V0.5H15H5C2.51472 0.5 0.5 2.51472 0.5 5V25C0.5 27.4853 2.51472 29.5 5 29.5H15H15.5V29V1Z"
        stroke="#E0AF65" />
</svg>