<svg width="13" height="11" viewBox="0 0 13 11" fill="none" xmlns="http://www.w3.org/2000/svg">
    <path
        d="M1.83691 9.83375V3.83375H4.239L4.7265 2.78792C4.8765 2.465 5.139 2.20667 5.46191 2.05875C5.25566 0.981667 4.30775 0.167084 3.17025 0.167084C1.88066 0.167084 0.836914 1.21083 0.836914 2.50042V9.83375C0.836914 10.3858 1.28483 10.8338 1.83691 10.8338H3.92233C3.69316 10.5567 3.54525 10.2129 3.50983 9.83375H1.83691ZM4.50358 2.83375H1.83691V2.50042C1.83691 1.765 2.43483 1.16708 3.17025 1.16708C3.90566 1.16708 4.50358 1.765 4.50358 2.50042V2.83375ZM6.20983 3.55042L8.50358 2.54625L10.7973 3.55042L11.8369 5.77958V9.66708C11.8369 9.75875 11.7619 9.83375 11.6702 9.83375H9.83691V8.66708C9.83691 8.20667 9.464 7.83375 9.00358 7.83375H8.00358C7.54316 7.83375 7.17025 8.20667 7.17025 8.66708V9.83375H5.33691C5.24525 9.83375 5.17025 9.75875 5.17025 9.66708V5.7775L6.20983 3.54833V3.55042ZM8.83691 1.60042C8.62441 1.50667 8.38275 1.50667 8.16816 1.60042L5.7515 2.65875C5.56608 2.74 5.41608 2.88583 5.33066 3.06917L4.24941 5.38792C4.19733 5.49833 4.17025 5.61917 4.17025 5.74V9.66708C4.17025 10.3108 4.69316 10.8338 5.33691 10.8338H11.6702C12.314 10.8338 12.8369 10.3108 12.8369 9.66708V5.74C12.8369 5.61917 12.8098 5.49833 12.7577 5.38792L11.6765 3.06917C11.5911 2.88583 11.4411 2.74 11.2557 2.65875L8.83691 1.60042ZM7.50358 5.33375V6.33375C7.50358 6.61083 7.7265 6.83375 8.00358 6.83375H9.00358C9.28066 6.83375 9.50358 6.61083 9.50358 6.33375V5.33375C9.50358 5.05667 9.28066 4.83375 9.00358 4.83375H8.00358C7.7265 4.83375 7.50358 5.05667 7.50358 5.33375Z" />
</svg>