<svg width="48" height="48" viewBox="0 0 48 48" fill="none" xmlns="http://www.w3.org/2000/svg">
<g id="System / x-circle">
<path id="Shape" fill-rule="evenodd" clip-rule="evenodd" d="M23.9998 43.2001C34.6037 43.2001 43.1998 34.6039 43.1998 24C43.1998 13.3962 34.6037 4.80005 23.9998 4.80005C13.3959 4.80005 4.7998 13.3962 4.7998 24C4.7998 34.6039 13.3959 43.2001 23.9998 43.2001ZM20.8969 17.503C19.9596 16.5657 18.44 16.5657 17.5027 17.503C16.5655 18.4403 16.5655 19.9598 17.5027 20.8971L20.6057 24L17.5027 27.103C16.5655 28.0403 16.5655 29.5598 17.5027 30.4971C18.44 31.4344 19.9596 31.4344 20.8969 30.4971L23.9998 27.3942L27.1027 30.4971C28.04 31.4344 29.5596 31.4344 30.4969 30.4971C31.4341 29.5598 31.4341 28.0403 30.4969 27.103L27.3939 24L30.4969 20.8971C31.4341 19.9598 31.4341 18.4403 30.4969 17.503C29.5596 16.5657 28.04 16.5657 27.1027 17.503L23.9998 20.6059L20.8969 17.503Z" fill="#FE993C"/>
</g>
</svg>
