<svg width="13" height="9" viewBox="0 0 13 9" fill="none" xmlns="http://www.w3.org/2000/svg">
    <path
        d="M6.83691 6.75043C3.52285 6.75043 0.836914 5.23871 0.836914 3.37543C0.836914 1.51215 3.52285 0.000427246 6.83691 0.000427246C10.151 0.000427246 12.8369 1.51215 12.8369 3.37543C12.8369 5.23871 10.151 6.75043 6.83691 6.75043ZM2.8666 4.31761C3.14785 4.5848 3.51582 4.78871 3.90723 4.94574C4.69473 5.2598 5.73066 5.43793 6.83691 5.43793C7.94316 5.43793 8.9791 5.2598 9.7666 4.94574C10.158 4.78871 10.526 4.5848 10.8072 4.31761C11.0908 4.04808 11.3369 3.6684 11.3369 3.18793C11.3369 2.70746 11.0908 2.32777 10.8072 2.05824C10.526 1.79105 10.158 1.58715 9.7666 1.43011C8.9791 1.11605 7.94316 0.937927 6.83691 0.937927C5.73066 0.937927 4.69473 1.11605 3.90723 1.43011C3.51582 1.58715 3.14785 1.79105 2.8666 2.05824C2.58301 2.32777 2.33691 2.70746 2.33691 3.18793C2.33691 3.6684 2.58301 4.04808 2.8666 4.31761ZM3.08691 3.18793C3.08691 2.36058 4.76504 1.68793 6.83691 1.68793C8.90879 1.68793 10.5869 2.36058 10.5869 3.18793C10.5869 4.01527 8.90879 4.68793 6.83691 4.68793C4.76504 4.68793 3.08691 4.01527 3.08691 3.18793ZM0.836914 5.29965C1.14629 5.66527 1.53301 5.98636 1.96191 6.25824V7.75121C1.2541 7.25668 0.836914 6.65433 0.836914 6.00043V5.29965ZM2.71191 8.18011V6.66371C3.37754 6.97308 4.13926 7.20277 4.96191 7.3434V8.85043C4.11348 8.7098 3.34707 8.47777 2.71191 8.17777V8.18011ZM5.71191 8.94886V7.44652C6.07988 7.48402 6.45488 7.50277 6.83691 7.50277C7.21895 7.50277 7.59395 7.48402 7.96191 7.44652V8.94886C7.59863 8.98402 7.22129 9.00043 6.83691 9.00043C6.45254 9.00043 6.0752 8.98168 5.71191 8.94886ZM8.71191 8.85277V7.34574C9.53457 7.20511 10.2963 6.97308 10.9619 6.66605V8.18246C10.3268 8.48246 9.56035 8.71449 8.71191 8.85511V8.85277ZM11.7119 7.75121V6.25824C12.1408 5.98871 12.5275 5.66761 12.8369 5.29965V6.00043C12.8369 6.65433 12.4197 7.25668 11.7119 7.74887V7.75121Z" />
</svg>