<svg width="12" height="12" viewBox="0 0 12 12" fill="none" xmlns="http://www.w3.org/2000/svg">
    <path
        d="M8.8232 4.02369C9.05758 3.78932 9.05758 3.40869 8.8232 3.17432C8.58883 2.93994 8.2082 2.93994 7.97383 3.17432L5.99945 5.15057L4.0232 3.17619C3.78883 2.94182 3.4082 2.94182 3.17383 3.17619C2.93945 3.41057 2.93945 3.79119 3.17383 4.02557L5.15008 5.99994L3.1757 7.97619C2.94133 8.21057 2.94133 8.59119 3.1757 8.82557C3.41008 9.05994 3.7907 9.05994 4.02508 8.82557L5.99945 6.84932L7.9757 8.82369C8.21008 9.05807 8.5907 9.05807 8.82508 8.82369C9.05945 8.58932 9.05945 8.20869 8.82508 7.97432L6.84883 5.99994L8.8232 4.02369Z"
        fill="white" />
</svg>