<svg width="13" height="13" viewBox="0 0 13 13" fill="none" xmlns="http://www.w3.org/2000/svg">
    <path
        d="M2.12039 2.60202L2.03836 1.70436L2.93367 1.78639L9.44695 8.29967L10.2415 7.50514L3.73055 0.991859C3.54539 0.804359 3.2993 0.689515 3.0368 0.666078L1.24383 0.504359C1.13367 0.49264 1.02352 0.532484 0.946174 0.612171C0.86883 0.691859 0.826642 0.799671 0.838361 0.909828L1.00008 2.7028C1.02352 2.9653 1.13836 3.21139 1.32586 3.39655L7.8368 9.90983L8.63133 9.1153L2.12039 2.60202ZM11.6009 7.73717C11.4555 7.59186 11.2165 7.59186 11.0712 7.73717L8.07117 10.7372C7.92586 10.8825 7.92586 11.1215 8.07117 11.2669L8.44617 11.6419C8.55633 11.752 8.72274 11.7825 8.86336 11.7192L10.3165 11.0747L11.6337 12.3919C11.779 12.5372 12.018 12.5372 12.1634 12.3919L12.7259 11.8294C12.8712 11.684 12.8712 11.445 12.7259 11.2997L11.4087 9.98248L12.0532 8.52936C12.1165 8.38639 12.086 8.22233 11.9759 8.11217L11.6009 7.73717ZM8.97586 5.17545L9.77039 5.96998L12.3462 3.39655C12.5313 3.21139 12.6462 2.9653 12.672 2.7028L12.836 0.909828C12.8454 0.799671 12.8055 0.689515 12.7282 0.609828C12.6509 0.53014 12.5407 0.490296 12.4282 0.502015L10.6352 0.666078C10.3727 0.689515 10.1266 0.804359 9.94149 0.991859L7.36571 3.5653L8.16024 4.35983L10.736 1.78639L11.6313 1.70436L11.5493 2.59967L8.97586 5.17545ZM6.30633 9.43873L5.5118 8.6442L4.51102 9.64498L3.69774 8.8317L4.69852 7.83092L3.90399 7.03639L2.89852 8.03483L2.60086 7.73717C2.45555 7.59186 2.21649 7.59186 2.07117 7.73717L1.69617 8.11217C1.58602 8.22233 1.55555 8.38873 1.61883 8.52936L2.26336 9.98248L0.946174 11.2997C0.800861 11.445 0.800861 11.684 0.946174 11.8294L1.50867 12.3919C1.65399 12.5372 1.89305 12.5372 2.03836 12.3919L3.35555 11.0747L4.80867 11.7192C4.9493 11.7825 5.11571 11.752 5.22586 11.6419L5.60086 11.2669C5.74617 11.1215 5.74617 10.8825 5.60086 10.7372L5.30321 10.4395L6.30399 9.43873H6.30633Z" />
</svg>