<svg width="13" height="13" viewBox="0 0 13 13" fill="none" xmlns="http://www.w3.org/2000/svg">
    <path
        d="M6.66309 1.26172C7.95602 1.26172 9.19599 1.77533 10.1102 2.68957C11.0245 3.60381 11.5381 4.84379 11.5381 6.13672C11.5381 7.42965 11.0245 8.66962 10.1102 9.58386C9.19599 10.4981 7.95602 11.0117 6.66309 11.0117C5.37016 11.0117 4.13018 10.4981 3.21594 9.58386C2.3017 8.66962 1.78809 7.42965 1.78809 6.13672C1.78809 4.84379 2.3017 3.60381 3.21594 2.68957C4.13018 1.77533 5.37016 1.26172 6.66309 1.26172ZM6.66309 12.1367C8.25438 12.1367 9.78051 11.5046 10.9057 10.3794C12.0309 9.25414 12.6631 7.72802 12.6631 6.13672C12.6631 4.54542 12.0309 3.0193 10.9057 1.89408C9.78051 0.76886 8.25438 0.136719 6.66309 0.136719C5.07179 0.136719 3.54566 0.76886 2.42045 1.89408C1.29523 3.0193 0.663086 4.54542 0.663086 6.13672C0.663086 7.72802 1.29523 9.25414 2.42045 10.3794C3.54566 11.5046 5.07179 12.1367 6.66309 12.1367ZM8.95762 4.63672L8.16309 3.84219L7.76465 4.24063L6.66309 5.34219L5.56152 4.24063L5.16309 3.84219L4.36855 4.63672L4.76699 5.03516L5.86856 6.13672L4.76699 7.23828L4.36855 7.63672L5.16309 8.43125L5.56152 8.03281L6.66309 6.93125L7.76465 8.03281L8.16309 8.43125L8.95762 7.63672L8.55918 7.23828L7.45762 6.13672L8.55918 5.03516L8.95762 4.63672Z" />
</svg>