<svg width="17" height="17" viewBox="0 0 17 17" fill="none" xmlns="http://www.w3.org/2000/svg">
    <path
        d="M8.50032 1.41699C4.58324 1.41699 1.41699 4.60449 1.41699 8.50032C1.41699 12.3962 4.60449 15.5837 8.50032 15.5837C12.3962 15.5837 15.5837 12.3962 15.5837 8.50032C15.5837 4.60449 12.3962 1.41699 8.50032 1.41699ZM8.50032 14.167C5.36949 14.167 2.83366 11.6312 2.83366 8.50032C2.83366 5.36949 5.36949 2.83366 8.50032 2.83366C11.6312 2.83366 14.167 5.36949 14.167 8.50032C14.167 11.6312 11.6312 14.167 8.50032 14.167ZM5.66699 9.91699L4.95866 5.66699L7.08366 7.08366L8.50032 4.95866L9.91699 7.08366L12.042 5.66699L11.3337 9.91699H5.66699ZM6.06366 11.3337C5.82283 11.3337 5.66699 11.1778 5.66699 10.937V10.6253H11.3337V10.937C11.3337 11.1778 11.1778 11.3337 10.937 11.3337H6.06366Z" />
</svg>