<svg viewBox="0 0 14 16" fill="none" xmlns="http://www.w3.org/2000/svg">
    <path
        d="M2.15039 7.43555C1.93945 7.43555 1.76367 7.36914 1.62305 7.23633C1.48242 7.09961 1.41211 6.92773 1.41211 6.7207V3.73828C1.41211 3.37891 1.51172 3.09961 1.71094 2.90039C1.91406 2.69727 2.19727 2.5957 2.56055 2.5957H5.625C5.83594 2.5957 6.00781 2.66602 6.14062 2.80664C6.27734 2.94336 6.3457 3.11719 6.3457 3.32812C6.3457 3.53906 6.27734 3.71289 6.14062 3.84961C6.00781 3.98633 5.83594 4.05469 5.625 4.05469H5.25L3.75586 3.9375L4.88086 5.00391L6.3457 6.46289C6.41211 6.5293 6.46484 6.60742 6.50391 6.69727C6.54297 6.7832 6.5625 6.875 6.5625 6.97266C6.5625 7.19922 6.49219 7.38477 6.35156 7.5293C6.21094 7.66992 6.02734 7.74023 5.80078 7.74023C5.58984 7.74023 5.41602 7.66992 5.2793 7.5293L3.83203 6.06445L2.75977 4.93359L2.88281 6.41602V6.7207C2.88281 6.93164 2.8125 7.10352 2.67188 7.23633C2.53125 7.36914 2.35742 7.43555 2.15039 7.43555ZM8.01562 13.4121C7.80469 13.4121 7.63086 13.3418 7.49414 13.2012C7.36133 13.0645 7.29492 12.8906 7.29492 12.6797C7.29492 12.4688 7.36133 12.2949 7.49414 12.1582C7.63086 12.0215 7.80469 11.9531 8.01562 11.9531H8.39062L9.89062 12.0762L8.75391 11.0039L7.29492 9.55078C7.22461 9.48047 7.16992 9.40234 7.13086 9.31641C7.0957 9.23047 7.07812 9.13672 7.07812 9.03516C7.07812 8.80859 7.14844 8.625 7.28906 8.48438C7.43359 8.33984 7.61719 8.26758 7.83984 8.26758C8.05078 8.26758 8.22461 8.33984 8.36133 8.48438L9.80859 9.94336L10.8867 11.0742L10.7578 9.59766V9.28711C10.7578 9.08008 10.8281 8.91016 10.9688 8.77734C11.1094 8.64062 11.2832 8.57227 11.4902 8.57227C11.7012 8.57227 11.877 8.64062 12.0176 8.77734C12.1582 8.91016 12.2285 9.08008 12.2285 9.28711V12.2695C12.2285 12.6328 12.127 12.9141 11.9238 13.1133C11.7246 13.3125 11.4434 13.4121 11.0801 13.4121H8.01562Z" />
</svg>