<svg width="15" height="12" viewBox="0 0 15 12" fill="none" xmlns="http://www.w3.org/2000/svg">
    <g clip-path="url(#clip0_1367_24609)">
        <path
            d="M7.5 0.75C7.91484 0.75 8.25 1.08516 8.25 1.5V10.5C8.25 10.9148 7.91484 11.25 7.5 11.25H6V9.75C6 8.92266 5.32734 8.25 4.5 8.25C3.67266 8.25 3 8.92266 3 9.75V11.25H1.5C1.08516 11.25 0.75 10.9148 0.75 10.5V1.5C0.75 1.08516 1.08516 0.75 1.5 0.75H7.5ZM4.5 9C4.91484 9 5.25 9.33516 5.25 9.75V11.25H3.75V9.75C3.75 9.33516 4.08516 9 4.5 9ZM1.5 12H3H3.75H5.25H6H7.5C8.32734 12 9 11.3273 9 10.5V1.5C9 0.672656 8.32734 0 7.5 0H1.5C0.672656 0 0 0.672656 0 1.5V10.5C0 11.3273 0.672656 12 1.5 12ZM2.0625 2.25C1.75078 2.25 1.5 2.50078 1.5 2.8125V3.9375C1.5 4.24922 1.75078 4.5 2.0625 4.5H3.1875C3.49922 4.5 3.75 4.24922 3.75 3.9375V2.8125C3.75 2.50078 3.49922 2.25 3.1875 2.25H2.0625ZM2.25 3.75V3H3V3.75H2.25ZM5.25 2.8125V3.9375C5.25 4.24922 5.50078 4.5 5.8125 4.5H6.9375C7.24922 4.5 7.5 4.24922 7.5 3.9375V2.8125C7.5 2.50078 7.24922 2.25 6.9375 2.25H5.8125C5.50078 2.25 5.25 2.50078 5.25 2.8125ZM6 3H6.75V3.75H6V3ZM2.0625 5.25C1.75078 5.25 1.5 5.50078 1.5 5.8125V6.9375C1.5 7.24922 1.75078 7.5 2.0625 7.5H3.1875C3.49922 7.5 3.75 7.24922 3.75 6.9375V5.8125C3.75 5.50078 3.49922 5.25 3.1875 5.25H2.0625ZM2.25 6.75V6H3V6.75H2.25ZM5.25 5.8125V6.9375C5.25 7.24922 5.50078 7.5 5.8125 7.5H6.9375C7.24922 7.5 7.5 7.24922 7.5 6.9375V5.8125C7.5 5.50078 7.24922 5.25 6.9375 5.25H5.8125C5.50078 5.25 5.25 5.50078 5.25 5.8125ZM6 6H6.75V6.75H6V6ZM14.625 4.5H14.25C13.4672 4.5 12.7781 4.89844 12.375 5.50547C11.9719 4.89844 11.2828 4.5 10.5 4.5H10.125C9.91875 4.5 9.75 4.66875 9.75 4.875V5.25C9.75 5.82656 9.96562 6.35156 10.3219 6.75H10.125C9.91875 6.75 9.75 6.91875 9.75 7.125V7.5C9.75 8.07656 9.96562 8.60156 10.3219 9H10.125C9.91875 9 9.75 9.16875 9.75 9.375V9.75C9.75 10.9922 10.7578 12 12 12H12.375H12.75C13.9922 12 15 10.9922 15 9.75V9.375C15 9.16875 14.8313 9 14.625 9H14.4281C14.7844 8.60156 15 8.07656 15 7.5V7.125C15 6.91875 14.8313 6.75 14.625 6.75H14.4281C14.7844 6.35156 15 5.82656 15 5.25V4.875C15 4.66875 14.8313 4.5 14.625 4.5ZM12.75 6.75C12.75 5.92266 13.4227 5.25 14.25 5.25C14.25 6.07734 13.5773 6.75 12.75 6.75ZM12 6.75C11.1727 6.75 10.5 6.07734 10.5 5.25C11.3273 5.25 12 5.92266 12 6.75ZM12.375 7.5H12.5719C12.4992 7.57969 12.4336 7.66641 12.375 7.75547C12.3141 7.66641 12.2484 7.57969 12.1781 7.5H12.375ZM12.375 10.0055C12.3141 9.91641 12.2484 9.82969 12.1781 9.75H12.375H12.5719C12.4992 9.82969 12.4336 9.91641 12.375 10.0055ZM12.75 9C12.75 8.17266 13.4227 7.5 14.25 7.5C14.25 8.32734 13.5773 9 12.75 9ZM12 9C11.1727 9 10.5 8.32734 10.5 7.5C11.3273 7.5 12 8.17266 12 9ZM12.75 11.25C12.75 10.4227 13.4227 9.75 14.25 9.75C14.25 10.5773 13.5773 11.25 12.75 11.25ZM12 11.25C11.1727 11.25 10.5 10.5773 10.5 9.75C11.3273 9.75 12 10.4227 12 11.25ZM12.375 0.75C12.1687 0.75 12 0.91875 12 1.125V3.75C12 3.95625 12.1687 4.125 12.375 4.125C12.5813 4.125 12.75 3.95625 12.75 3.75V1.125C12.75 0.91875 12.5813 0.75 12.375 0.75ZM13.875 1.875C13.6687 1.875 13.5 2.04375 13.5 2.25V3.375C13.5 3.58125 13.6687 3.75 13.875 3.75C14.0813 3.75 14.25 3.58125 14.25 3.375V2.25C14.25 2.04375 14.0813 1.875 13.875 1.875ZM10.5 3.375C10.5 3.58125 10.6687 3.75 10.875 3.75C11.0813 3.75 11.25 3.58125 11.25 3.375V2.25C11.25 2.04375 11.0813 1.875 10.875 1.875C10.6687 1.875 10.5 2.04375 10.5 2.25V3.375Z"
            fill="#E0AF65" />
    </g>
    <defs>
        <clipPath id="clip0_1367_24609">
            <rect width="15" height="12" fill="white" />
        </clipPath>
    </defs>
</svg>