<svg xmlns="http://www.w3.org/2000/svg" width="80" height="80" viewBox="0 0 80 80" fill="none">
    <path d="M53.7903 16.5691H60.0971L30.534 46.1301L27.2492 43.0427M10.9567 62.9471L13.7159 65.7061C14.0198 66.0106 14.3808 66.2522 14.7781 66.417C15.1755 66.5818 15.6015 66.6667 16.0317 66.6667C16.4619 66.6667 16.8879 66.5818 17.2852 66.417C17.6826 66.2522 18.0436 66.0106 18.3475 65.7061L28.596 55.4583L37.3992 64.1952L42.0307 59.564L37.3664 54.8999L66.6666 25.6017V10H51.0639L21.7636 39.2983L17.0992 34.6342L12.4677 39.2654L21.2381 48.0352L10.9895 58.283C9.67563 59.5968 9.67563 61.6661 10.9567 62.9471Z" fill="#D8B26F"/>
</svg>