<svg xmlns="http://www.w3.org/2000/svg" width="80" height="80" viewBox="0 0 80 80" fill="none">
    <path d="M33.6863 10L33.2975 10.2754C31.4444 11.5921 30.3384 14.0172 30.0132 17.2626C27.5131 18.7843 25.0919 19.099 23.4245 18.7174C22.8984 19.3828 22.5666 20.1464 22.2664 20.977C24.918 21.8722 28.4245 21.3368 31.8155 19.0634L32.3217 18.7256L32.3622 18.1044C32.5425 15.2844 33.3457 13.5268 34.3384 12.6098L37.2339 13.0225C37.0178 15.455 37.0561 18.1184 38.2097 21.0771L38.554 21.9525L39.4653 21.8484C42.5517 21.4965 43.5715 21.3612 46.5681 21.9025L47.5443 22.0776L47.9045 21.127C48.4146 19.7817 48.9125 18.6405 49.5083 17.6626C50.3997 18.5591 51.5558 19.2755 52.7882 19.8096C54.3232 20.4746 56.002 20.8942 57.5306 20.489C57.1113 19.7072 56.6177 18.8326 56.109 18.0877C55.4157 18.0543 54.5606 17.8733 53.7279 17.5124C52.2683 16.8798 50.9238 15.7478 50.5289 15.011L49.7029 13.4686L48.5647 14.7861C47.4212 16.1104 46.6804 17.6464 46.0135 19.3096C43.826 18.9896 42.29 19.0427 40.1576 19.2719C39.3477 16.7088 39.4634 14.459 39.7486 12.1013L39.8944 10.8841L38.712 10.7133L34.1522 10.067L33.6863 10.0003V10ZM55.8582 10.9132L54.5256 13.035C56.8564 14.754 58.4179 16.6734 59.7578 19.4137L60.1831 20.2849L59.6285 21.0773C58.8108 22.242 58.1469 23.7048 57.567 25.3963C58.097 26.8961 58.3792 28.6935 58.3808 30.1946L58.3851 32.0874L56.5665 31.7833L52.7521 31.141L49.3058 35.0349L47.7546 36.7859L46.7464 34.6596L44.596 30.1198C43.2488 31.8354 42.0966 33.2124 40.6315 34.2469C38.6436 35.6503 36.1897 36.1659 32.7266 35.923L31.6735 35.8479L31.3495 34.814L29.9159 30.2739L24.6515 31.3203L23.1046 31.633L22.8208 30.0322C22.8208 30.0322 22.5282 28.4123 22.0031 26.626C21.7403 25.7328 21.419 24.8039 21.0756 24.0705C20.7322 23.337 20.3201 22.8218 20.2009 22.7324L19.3624 22.1027L19.6055 21.0604C20.1998 18.5027 21.8342 16.2577 24.4286 14.3401L23.0394 11.6969C14.1449 19.1416 10.1821 32.7846 10 45.9284C15.6805 48.9941 19.5637 52.3093 21.9585 55.9131C24.2571 59.3714 25.1282 63.0834 24.9918 66.7941C26.4817 67.6336 27.9693 68.3862 29.6168 68.8411C32.4431 69.6215 35.4989 70.0004 38.6595 70C41.821 69.9996 45.0625 69.6206 48.0385 68.8371C50.4139 68.2114 52.5878 67.2578 54.603 66.1062C54.8557 58.7338 59.178 51.4205 70 45.8993C69.7991 32.9063 65.5907 18.3417 55.8586 10.9133L55.8582 10.9132ZM33.111 39.7542C33.8888 40.175 34.5684 40.8076 35.0063 41.5885C36.5899 44.4117 34.8816 48.471 31.22 50.6477C27.5583 52.824 23.2785 52.2657 21.6952 49.4426C20.7914 47.8315 20.9889 45.8342 21.9745 43.998C23.6378 43.9687 25.5973 43.6238 27.7089 42.7933C29.7203 42.0022 31.6066 40.9172 33.1112 39.7539L33.111 39.7542ZM46.876 39.7542C48.3805 40.9175 50.2666 42.0024 52.2782 42.7932C54.3897 43.6239 56.3492 43.9688 58.0125 43.9981C58.9983 45.8344 59.1956 47.8316 58.2919 49.4429C56.7086 52.2658 52.4328 52.8242 48.771 50.6476C45.1094 48.4711 43.4013 44.4117 44.9848 41.5884C45.4228 40.8076 46.0982 40.175 46.8759 39.7541L46.876 39.7542ZM39.9996 49.8431C42.4009 54.6628 44.3062 59.4812 45.2519 64.3011C41.7504 63.2013 38.2486 63.0547 34.7471 64.3011C36.0256 59.4811 37.5627 54.6628 39.9996 49.8431Z" fill="#D8B26F"/>
</svg>