<svg xmlns="http://www.w3.org/2000/svg" width="80" height="80" viewBox="0 0 80 80" fill="none">
    <path d="M40.7487 10C32.3912 14.1379 21.9444 16.9828 11.4975 16.9828C11.4975 22.9371 12.1146 28.5564 13.1977 33.753C16.527 33.4222 20.1357 33.4384 23.8875 33.6159L22.8937 29.679L22.6297 28.6334L31.235 25.7928L32.654 34.2231C36.3522 34.5251 40.0852 34.8463 43.7407 35.0297C45.6155 34.4258 47.4067 33.9525 49.0203 33.1728L50.0363 27.1363L50.2625 25.7928L58.8678 28.6335L57.6171 33.5881C58.8194 34.2251 60.2814 35.5162 60.7472 36.4777C61.1849 37.4219 61.0993 38.4604 60.7806 39.6011C61.0771 40.4041 61.0823 41.2753 60.8368 42.0951C60.6213 42.8153 60.1904 43.5141 59.5513 44.0314C59.6048 45.3382 58.8443 46.5555 57.6451 47.0512C56.9863 48.3986 55.6752 49.9025 54.3614 50.3716C54.0254 50.4841 53.6773 50.5579 53.3242 50.5914L51.9804 55.9138L45.7149 52.8117L46.643 47.297C45.7057 46.9262 44.7165 46.4984 43.6203 46.0352C40.6814 46.406 37.7374 46.7722 34.8208 47.0972L35.7827 52.8118L29.5172 55.914L27.4711 47.8103C24.1579 48.0734 20.921 48.2358 17.8152 48.2355C23.8278 61.7539 33.0716 70 40.7487 70C53.285 70 70 48.0172 70 16.9828C59.5531 16.9828 49.1062 14.1379 40.7487 10ZM29.3687 28.8625L25.4378 30.16L31.0867 52.5343L33.1787 51.4988L29.3687 28.8625ZM52.1288 28.8625L51.616 31.9093C52.8901 31.3815 54.4071 30.768 55.7313 31.4602L56.0596 30.1596L52.1287 28.8622L52.1288 28.8625ZM54.4391 33.4784C53.7198 33.5759 52.4485 34.0803 51.1288 34.7353C48.6681 36.1644 46.5195 36.4771 44.0819 37.3794C40.2539 37.1831 36.3429 36.8764 33.0566 36.6149L34.4327 44.7912C37.7983 44.4126 41.039 44.0166 43.9563 43.6475C45.0056 44.0835 46.0999 44.5604 47.0385 44.947L47.7118 40.9458L47.6476 38.8709C51.7475 38.7461 52.9957 36.5691 53.7362 35.4907C54.03 35.0632 54.3813 34.2441 54.4445 33.738C54.4656 33.5673 54.4484 33.5354 54.439 33.4784H54.4391ZM56.3454 35.5868C55.9924 36.3269 55.6555 36.8394 55.3046 37.4704C56.2446 37.9756 57.327 38.2186 58.6898 38.2741C58.7454 37.8868 58.705 37.6517 58.6108 37.4488C58.4548 37.1121 57.9226 36.5892 56.8053 35.8047C56.6081 35.687 56.4561 35.6231 56.3451 35.5869L56.3454 35.5868ZM19.1767 35.8487C16.232 35.8371 13.4714 35.9862 10.9848 36.3991C9.60006 39.1702 9.6822 42.1467 11.1898 45.5905C15.9343 46.0581 21.2682 45.9322 26.8893 45.5049L24.493 36.0127C22.6707 35.9173 20.892 35.8556 19.1767 35.8487ZM53.5744 39.1207C53.3244 39.321 53.0641 39.5083 52.7945 39.6819C53.0939 40.8897 54.1918 41.2116 55.383 41.4806C56.3963 41.7043 57.5191 41.8137 58.4034 41.8429C58.48 41.7142 58.5404 41.5768 58.5831 41.4335C58.6684 41.1488 58.6748 40.8445 58.6328 40.5956C56.719 40.5034 55.0252 40.045 53.5742 39.1206L53.5744 39.1207ZM50.723 40.6756C50.5208 40.7432 50.3164 40.804 50.1101 40.858L49.842 42.4511C50.0664 41.9192 50.4295 41.4559 50.894 41.1084C50.8287 40.9675 50.7716 40.823 50.7229 40.6756H50.723ZM52.4039 42.9185C52.2122 43.0341 52.0497 43.2211 51.9867 43.4121C51.9034 43.6647 51.8444 43.8476 52.2159 44.1276C52.6919 44.4041 53.4578 44.7013 54.272 44.8534C54.941 44.9784 55.6483 45.0184 56.2052 45.0092L56.5807 44.9488C56.8385 44.9077 57.1846 44.4943 57.2013 44.1015C56.4582 44.036 55.6598 43.9263 54.8721 43.7523C54.0113 43.5622 53.1562 43.3221 52.4041 42.9187L52.4039 42.9185ZM49.6316 43.6996L48.3192 51.4988L50.4109 52.5343L51.0273 50.0929C49.7965 49.3436 49.1207 48.1582 49.138 47.004C49.1491 46.2524 49.4749 45.5241 50.0068 44.9845C49.7866 44.5741 49.6607 44.1329 49.6317 43.6997L49.6316 43.6996ZM51.7122 46.5328C51.5555 46.6246 51.4919 46.7914 51.4883 47.0381C51.483 47.3844 51.6531 47.89 52.6079 48.2808C52.6946 48.298 53.0434 48.3571 53.6027 48.1683C53.9715 48.0437 54.3956 47.8066 54.8075 47.2877C54.482 47.2498 54.158 47.2008 53.8359 47.1406C53.1122 47.0055 52.3825 46.8246 51.7122 46.5329V46.5328Z" fill="#D8B26F"/>
</svg>