<svg xmlns="http://www.w3.org/2000/svg" width="80" height="80" viewBox="0 0 80 80" fill="none">
    <path d="M40.0255 10.0004C33.971 10.0004 28.4919 10.3637 24.4634 10.9638C22.4495 11.2638 20.8054 11.6148 19.568 12.0504C18.9494 12.2683 18.4306 12.4982 17.9792 12.8268C17.5493 13.1397 17.0963 13.6369 17.0538 14.3236H16.9543C16.9543 15.6076 17.0023 16.8741 17.0955 18.1214H13.656C13.6401 17.1084 13.6564 16.0931 13.7059 15.08L10.1464 14.28C9.01208 27.8688 14.5282 41.0948 24.6796 50.5138L26.7579 46.7438C26.2006 46.3009 25.6626 45.8441 25.1439 45.3744C25.9201 44.5958 26.776 43.8763 27.7035 43.2288C29.4916 44.9067 31.445 46.2307 33.5201 47.1339C36.456 49.3943 34.5892 50.875 30.4003 51.7517C38.2149 53.102 35.571 59.6838 28.5251 63.5113C28.241 63.5457 27.96 63.578 27.6913 63.6148C26.092 63.8336 24.7871 64.0874 23.7874 64.411C23.2876 64.5727 22.8637 64.7422 22.4723 65.0041C22.0807 65.2659 21.5926 65.7308 21.5926 66.4571C21.5926 67.1834 22.0808 67.6443 22.4723 67.9061C22.8637 68.1679 23.2874 68.3376 23.7874 68.4994C24.7871 68.8229 26.0921 69.0767 27.6913 69.2955C30.89 69.7332 35.2299 70 40.0255 70C44.8212 70 49.1609 69.7332 52.3596 69.2955C53.9591 69.0767 55.264 68.8229 56.2637 68.4994C56.7634 68.3376 57.1873 68.1679 57.5787 67.9062C57.9701 67.6445 58.4582 67.1834 58.4582 66.4572C58.4582 65.7308 57.9701 65.2659 57.5787 65.0041C57.1873 64.7423 56.7635 64.5726 56.2636 64.411C55.2639 64.0874 53.9589 63.8336 52.3594 63.6148C52.0921 63.5782 51.8124 63.5455 51.5296 63.5112C44.4833 59.6838 41.8395 53.1023 49.6544 51.7517C45.4634 50.8745 43.5966 49.3922 46.5388 47.1301C48.6284 46.2192 50.5942 44.881 52.3924 43.1848C53.275 43.7929 54.0971 44.4636 54.8445 45.1874C54.2995 45.7189 53.7375 46.2392 53.1558 46.7437L55.3049 50.5136C65.8086 41.3474 70.7309 27.6436 69.9124 14.2079L66.2825 15.2232C66.3423 16.1926 66.3675 17.1582 66.3571 18.1213H62.9593C63.0525 16.8739 63.1004 15.6073 63.1004 14.3233H63.0008C62.958 13.6367 62.5013 13.1395 62.0715 12.8265C61.6199 12.4978 61.1011 12.2682 60.4824 12.0503C59.2451 11.6144 57.601 11.2634 55.5869 10.9634C51.5587 10.3634 46.0796 10 40.0248 10L40.0255 10.0004ZM40.0255 12.381C45.976 12.381 51.3666 12.7446 55.2057 13.3164C57.1254 13.6024 58.6654 13.9447 59.6283 14.2838C59.7664 14.3325 59.864 14.3794 59.9768 14.4271C59.864 14.4749 59.7671 14.5217 59.6283 14.5704C58.6656 14.9096 57.1253 15.2558 55.2057 15.5418C51.3666 16.1138 45.976 16.4773 40.0255 16.4773C34.0752 16.4773 28.6845 16.1136 24.8452 15.5417C22.9255 15.2557 21.3855 14.9094 20.4228 14.5703C20.2834 14.5211 20.1878 14.475 20.0743 14.427C20.1875 14.3791 20.2836 14.3327 20.4228 14.2837C21.3855 13.9446 22.9257 13.6022 24.8454 13.3163C28.6845 12.7443 34.0751 12.381 40.0255 12.381ZM13.8387 21.5369H17.4689C18.5385 28.9099 21.2167 35.4006 24.9283 40.1675C24.0025 40.8987 23.1484 41.6921 22.381 42.5482C17.2501 36.6302 14.5426 29.2173 13.8387 21.5369ZM62.5864 21.5369H66.1709C65.4295 29.1335 62.4857 36.3335 57.533 42.2775C56.8108 41.5061 56.0187 40.7832 55.1643 40.1157C58.8563 35.3539 61.5199 28.8832 62.5864 21.5371V21.5369Z" fill="#D8B26F"/>
</svg>