<svg width="32" height="36" viewBox="0 0 32 36" fill="none" xmlns="http://www.w3.org/2000/svg">
<path id="Shape" d="M32 19.8C31.883 21.9561 31.2569 24.0524 30.1742 25.9128C29.0915 27.7733 27.5839 29.3436 25.7778 30.492L16 36L6.22222 30.492C4.41612 29.3436 2.90846 27.7733 1.82578 25.9128C0.743095 24.0524 0.116985 21.9561 0 19.8V5.4C6.00889 5.4 11.5556 3.384 16 0C20.4444 3.402 25.9911 5.4 32 5.4V19.8ZM16 21.744L21.1911 25.416L19.36 19.278L24.4089 15.408L18.08 15.264L16 9.216L13.92 15.264L7.59111 15.408L12.6222 19.26L10.7911 25.38L16 21.762V21.744Z" fill="#746858"/>
</svg>
