<svg width="16" height="16" viewBox="0 0 16 16" fill="none" xmlns="http://www.w3.org/2000/svg">
<g id="Basic / cog-gear">
<path id="Shape" fill-rule="evenodd" clip-rule="evenodd" d="M6.2354 2.72109C6.68455 0.870963 9.31578 0.870966 9.76493 2.72109C9.84205 3.03876 10.206 3.18951 10.4852 3.01942C12.111 2.02878 13.9715 3.88934 12.9809 5.51517C12.8108 5.79433 12.9616 6.15828 13.2792 6.2354C15.1294 6.68455 15.1294 9.31578 13.2792 9.76493C12.9616 9.84205 12.8108 10.206 12.9809 10.4852C13.9715 12.111 12.111 13.9715 10.4852 12.9809C10.206 12.8108 9.84205 12.9616 9.76493 13.2792C9.31578 15.1294 6.68455 15.1294 6.2354 13.2792C6.15828 12.9616 5.79433 12.8108 5.51517 12.9809C3.88934 13.9715 2.02878 12.111 3.01942 10.4852C3.18951 10.206 3.03876 9.84205 2.72109 9.76493C0.870966 9.31578 0.870963 6.68455 2.72109 6.2354C3.03876 6.15828 3.18951 5.79433 3.01942 5.51517C2.02878 3.88934 3.88934 2.02878 5.51517 3.01942C5.79433 3.18951 6.15828 3.03876 6.2354 2.72109ZM8.46923 3.03565C8.34985 2.54389 7.65048 2.54389 7.5311 3.03565C7.24095 4.23081 5.87167 4.79798 4.8214 4.15804C4.38926 3.89473 3.89473 4.38926 4.15804 4.8214C4.79798 5.87167 4.23081 7.24095 3.03565 7.5311C2.54389 7.65048 2.54389 8.34985 3.03565 8.46923C4.23081 8.75938 4.79798 10.1287 4.15804 11.1789C3.89473 11.6111 4.38926 12.1056 4.8214 11.8423C5.87167 11.2023 7.24095 11.7695 7.5311 12.9647C7.65048 13.4564 8.34985 13.4564 8.46923 12.9647C8.75938 11.7695 10.1287 11.2023 11.1789 11.8423C11.6111 12.1056 12.1056 11.6111 11.8423 11.1789C11.2023 10.1287 11.7695 8.75938 12.9647 8.46923C13.4564 8.34985 13.4564 7.65048 12.9647 7.5311C11.7695 7.24095 11.2023 5.87167 11.8423 4.8214C12.1056 4.38926 11.6111 3.89473 11.1789 4.15804C10.1287 4.79798 8.75938 4.23081 8.46923 3.03565ZM8.00016 6.66683C7.26378 6.66683 6.66683 7.26378 6.66683 8.00016C6.66683 8.73654 7.26378 9.3335 8.00016 9.3335C8.73654 9.3335 9.3335 8.73654 9.3335 8.00016C9.3335 7.26378 8.73654 6.66683 8.00016 6.66683ZM5.3335 8.00016C5.3335 6.5274 6.5274 5.3335 8.00016 5.3335C9.47292 5.3335 10.6668 6.5274 10.6668 8.00016C10.6668 9.47292 9.47292 10.6668 8.00016 10.6668C6.5274 10.6668 5.3335 9.47292 5.3335 8.00016Z" fill="#746858"/>
</g>
</svg>
