<svg width="20" height="20" viewBox="0 0 20 20" fill="none" xmlns="http://www.w3.org/2000/svg">
    <g clip-path="url(#clip0_1161_44572)">
        <path
            d="M15.8359 13.5156C15.54 13.5127 15.2441 13.624 15.0215 13.8496C14.7988 14.0752 14.6875 14.3711 14.6875 14.667C14.6875 14.6699 14.6875 14.6729 14.6875 14.6758C14.6875 14.9834 14.8105 15.2793 15.0273 15.4961L17.0312 17.5L19.0352 15.4961C19.252 15.2793 19.375 14.9834 19.375 14.6758C19.375 14.0342 18.8564 13.5156 18.2148 13.5156C17.9072 13.5156 17.6113 13.6387 17.3945 13.8555L17.0312 14.2188L16.668 13.8555C16.4512 13.6387 16.1553 13.5156 15.8477 13.5156C15.8447 13.5156 15.8389 13.5156 15.8359 13.5156ZM16.9229 12.8916C17.2949 12.001 17.5 11.0254 17.5 10C17.5 9.28223 17.4004 8.58789 17.21 7.93164L17.0166 7.25488L15.666 7.6416L15.8594 8.31836C16.0117 8.85156 16.0938 9.41406 16.0938 10C16.0938 10.9316 15.8857 11.8135 15.5107 12.6016C15.9912 12.5283 16.4951 12.625 16.9199 12.8916H16.9229ZM13.7559 14.7988C12.7188 15.6104 11.415 16.0938 10 16.0938C8.52344 16.0938 7.16992 15.5693 6.11523 14.6963C6.01562 14.9629 5.85742 15.2148 5.64355 15.4287L5.25977 15.8125C6.55469 16.8672 8.2041 17.5 10 17.5C11.6172 17.5 13.1172 16.9873 14.3418 16.1172C13.9814 15.748 13.7852 15.2793 13.7559 14.8018V14.7988ZM4.20215 11.8779C4.00879 11.2861 3.90625 10.6562 3.90625 10C3.90625 6.63379 6.63379 3.90625 10 3.90625C10.8994 3.90625 11.7549 4.10254 12.5225 4.45117L13.1611 4.74121L13.7441 3.46094L13.1055 3.1709C12.1562 2.74023 11.1045 2.5 10 2.5C5.85742 2.5 2.5 5.85742 2.5 10C2.5 10.7529 2.61133 11.4795 2.81641 12.1621C2.86914 12.1943 2.91895 12.2266 2.96875 12.2617C3.33496 11.998 3.76855 11.8691 4.19922 11.875L4.20215 11.8779ZM10 14.2188C11.8135 14.2188 13.2812 13.1406 13.8672 12.2646L12.6953 11.4854C12.3438 12.0156 11.292 12.8125 10 12.8125C8.70801 12.8125 7.65625 12.0156 7.30469 11.4854L6.13281 12.2646C6.71582 13.1406 8.18359 14.2188 10 14.2188ZM6.47559 9.36426C7.06152 8.57031 8.22754 8.57031 8.81348 9.36426L9.75684 8.66699C8.70215 7.24023 6.58691 7.24023 5.53223 8.66699L6.47559 9.36426ZM13.501 9.36426L14.4443 8.66699C13.3896 7.24023 11.2744 7.24023 10.2197 8.66699L11.1631 9.36426C11.749 8.57031 12.915 8.57031 13.501 9.36426ZM2.96875 13.5156L2.60547 13.1523C2.38867 12.9355 2.09277 12.8125 1.78516 12.8125C1.14355 12.8125 0.625 13.3311 0.625 13.9727C0.625 14.2803 0.748047 14.5762 0.964844 14.793L2.96875 16.7969L4.97266 14.793C5.18945 14.5762 5.3125 14.2803 5.3125 13.9727C5.3125 13.3311 4.79395 12.8125 4.15234 12.8125C3.84473 12.8125 3.54883 12.9355 3.33203 13.1523L2.96875 13.5156ZM16.668 2.83984C16.4512 2.62305 16.1553 2.5 15.8477 2.5C15.2061 2.5 14.6875 3.01855 14.6875 3.66016C14.6875 3.96777 14.8105 4.26367 15.0273 4.48047L17.0312 6.48438L19.0352 4.48047C19.252 4.26367 19.375 3.96777 19.375 3.66016C19.375 3.01855 18.8564 2.5 18.2148 2.5C17.9072 2.5 17.6113 2.62305 17.3945 2.83984L17.0312 3.20312L16.668 2.83984Z" />
    </g>
    <defs>
        <clipPath id="clip0_1161_44572">
            <rect width="18.75" height="15" fill="white" transform="translate(0.625 2.5)" />
        </clipPath>
    </defs>
</svg>