<svg viewBox="0 0 161 12" style="opacity: 0.7" fill="none" xmlns="http://www.w3.org/2000/svg">
    <path
        d="M160.887 6L158 8.88675L155.114 6L158 3.11325L160.887 6ZM158 6.5L1.23923 6.50001L1.23923 5.50001L158 5.5L158 6.5Z"
        fill="#CAB1A6" />
    <path
        d="M17.5991 1L22.2787 4L28.5552 6.00003L22.2787 8L17.5991 11L11.0005 6.5C11.0005 6.5 7.41925 8 5.95987 8C4.50049 8 1.00014 6.00003 1.00014 6.00003C1.00014 6.00003 4.50049 4 5.95987 4C7.41925 4 11.0005 5.5 11.0005 5.5L17.5991 1Z"
        fill="#CAB1A6" stroke="#CAB1A6" stroke-linejoin="round" />
    <circle cx="17.5" cy="6" r="1.5" fill="#1B1B1B" />
    <circle cx="6" cy="6" r="1" fill="#1B1B1B" />
</svg>