<svg width="64" height="12" style="opacity: 0.7" viewBox="0 0 64 12" fill="none" xmlns="http://www.w3.org/2000/svg">
    <path d="M0.113249 6L3 8.88675L5.88675 6L3 3.11325L0.113249 6ZM3 6.5L62.7613 6.50001L62.7613 5.50001L3 5.5L3 6.5Z"
        fill="#CAB1A6" />
    <path
        d="M46.4014 1L41.7218 4L35.4453 6.00003L41.7218 8L46.4014 11L53 6.5C53 6.5 56.5812 8 58.0406 8C59.5 8 63.0004 6.00003 63.0004 6.00003C63.0004 6.00003 59.5 4 58.0406 4C56.5812 4 53 5.5 53 5.5L46.4014 1Z"
        fill="#CAB1A6" stroke="#CAB1A6" stroke-linejoin="round" />
    <circle cx="1.5" cy="1.5" r="1.5" transform="matrix(-1 0 0 1 48 4.5)" fill="#1B1B1B" />
    <circle cx="1" cy="1" r="1" transform="matrix(-1 0 0 1 59 5)" fill="#1B1B1B" />
</svg>