<svg xmlns="http://www.w3.org/2000/svg" width="14" height="14" viewBox="0 0 14 14" version="1.1">
	<path d="M6.776 0.30076200000000003C6.6154340000000005 0.338086 6.503854 0.391146 6.3596960000000005 0.49875C6.1735240000000005 0.637728 6.177766 0.6300979999999999 5.282676 2.437666C4.831302 3.349206 4.461296 4.096078 4.460456 4.09738C4.459602 4.098696 3.64623 4.219922 2.652944 4.366796C1.659672 4.513656 0.80941 4.64401 0.763476 4.656484C0.430696 4.746784 0.162834 5.0076600000000004 0.046256 5.355C0.012950000000000001 5.454232 0.008638 5.488546 0.008372 5.656C0.008092 5.834542 0.010696 5.852658000000001 0.055412 5.983348C0.148946 6.25667 0.0756 6.178368 1.729 7.769832000000001C2.2911 8.310876 2.7841240000000003 8.785952 2.824626 8.825543999999999L2.898238 8.897546 2.587592 10.70328C2.30545 12.343212000000001 2.276932 12.523784000000001 2.276918 12.67C2.276904 12.847478 2.298254 12.949832 2.366812 13.101032C2.5820060000000002 13.575632 3.140144 13.825742 3.633 13.668424C3.7324279999999996 13.636686 3.738042 13.633788000000001 5.43312 12.738376C6.276886 12.292672 6.981982 11.928 7 11.928C7.018018 11.928 7.723114 12.292672 8.56688 12.738376C10.261958 13.633788000000001 10.267572000000001 13.636686 10.367 13.668424C10.859855999999999 13.825742 11.417994 13.575632 11.633188 13.101032C11.701732 12.949874 11.723096 12.847464 11.72311 12.67C11.72311 12.523112000000001 11.695879999999999 12.352480000000002 11.412534 10.724L11.101944 8.939 12.444614 7.602C13.761734 6.290438 13.788348 6.262872000000001 13.84334 6.1530000000000005C13.938624 5.962614 13.965014 5.856256 13.964902 5.663C13.964846000000001 5.566091999999999 13.956586 5.462842 13.945400000000001 5.419008C13.856584 5.070954 13.61346 4.7984860000000005 13.283144000000002 4.67677C13.17722 4.637738 13.148660000000001 4.6331880000000005 11.256084 4.35337C10.312876000000001 4.213916 9.54044 4.098738 9.539572 4.097408000000001C9.538704000000001 4.096078 9.168698000000001 3.349206 8.717324000000001 2.437666C8.08647 1.163708 7.87871 0.756518 7.819126000000001 0.677362C7.677207999999999 0.48881 7.444178 0.345226 7.1988140000000005 0.295148C7.101206 0.27522599999999997 6.872838 0.278264 6.776 0.30076200000000003M6.975304 1.2915C6.967548000000001 1.301132 6.596254 2.046282 6.150228 2.947392C5.704188 3.848516 5.3131960000000005 4.624172 5.281346 4.671072000000001C5.146358 4.8698440000000005 4.890746 5.038614 4.657786000000001 5.082798C4.619384 5.090078 3.7966460000000004 5.212802 2.829484 5.3554900000000005C1.862322 5.498192 1.056818 5.618004 1.0395 5.621742C1.021188 5.62569 1.008 5.638962 1.008 5.653438C1.008 5.668138000000001 1.52558 6.177654 2.26968 6.895462C2.963604 7.564858 3.5750539999999997 8.159354 3.6284639999999997 8.216543999999999C3.739862 8.335824 3.834418 8.512924 3.8721620000000003 8.673C3.921092 8.88048 3.91951 8.892506 3.5853720000000004 10.842118000000001C3.415216 11.834928 3.2760000000000002 12.658226 3.2760000000000002 12.671666C3.2760000000000002 12.685106 3.28839 12.700044 3.303538 12.704846C3.3232500000000003 12.711104 3.785488 12.473636 4.931038 11.868738C5.8110219999999995 11.404064 6.5562000000000005 11.013324 6.587 11.000416000000001C6.727868 10.941419999999999 6.80834 10.92714 7 10.92714C7.191660000000001 10.92714 7.272132 10.941419999999999 7.413 11.000416000000001C7.4438 11.013324 8.188978 11.404064 9.068962 11.868738C10.214512 12.473636 10.67675 12.711104 10.696462 12.704846C10.71161 12.700044 10.724 12.685414 10.724 12.672338C10.724 12.659262 10.584924 11.845414 10.414935999999999 10.86379C10.073 8.889216 10.075114 8.90568 10.13495 8.687574000000001C10.17471 8.542632 10.257492000000001 8.38565 10.349346 8.281C10.389904 8.234800000000002 10.993206 7.63133 11.690042 6.939954C12.606468 6.030696 12.957 5.674368 12.957 5.652052C12.957 5.621812 12.925696 5.616562 11.382 5.38804C9.246188 5.071864000000001 9.313794 5.082476 9.218216 5.048022C9.018113999999999 4.975866 8.828456000000001 4.832758 8.718653999999999 4.671072000000001C8.686804 4.624172 8.295812 3.848516 7.849772 2.947392C7.403746000000001 2.046282 7.032452 1.301132 7.0246960000000005 1.2915C7.016926 1.281882 7.00581 1.274 7 1.274C6.99419 1.274 6.983074 1.281882 6.975304 1.2915" stroke="none" fill="currentColor" fill-rule="evenodd"></path>
</svg>