<svg width="13" height="11" viewBox="0 0 13 11" fill="none" xmlns="http://www.w3.org/2000/svg">
    <path
        d="M1.25243 0.278476C1.0493 0.11832 0.754382 0.155429 0.594226 0.358554C0.43407 0.561679 0.471179 0.856601 0.674304 1.01676L12.2368 10.0793C12.4399 10.2394 12.7349 10.2023 12.895 9.99918C13.0552 9.79605 13.0181 9.50113 12.8149 9.34098L10.7505 7.72184C11.3677 7.05387 11.7446 6.16129 11.7446 5.17887C11.7446 4.00504 11.2036 2.95621 10.3599 2.26871C10.1587 2.10465 9.86376 2.1359 9.69969 2.33707C9.53563 2.53824 9.56688 2.83316 9.76805 2.99723C10.4028 3.51285 10.8071 4.29801 10.8071 5.17887C10.8071 5.94254 10.5024 6.63394 10.0083 7.14176L9.26415 6.55777C9.63524 6.21598 9.86962 5.72379 9.86962 5.17887C9.86962 4.59098 9.59813 4.06754 9.17821 3.72379C8.97704 3.55973 8.68212 3.59098 8.51805 3.79215C8.35399 3.99332 8.38524 4.28824 8.58641 4.4523C8.79735 4.62418 8.93212 4.8859 8.93212 5.17887C8.93212 5.47184 8.79735 5.73355 8.58641 5.90738C8.56102 5.92691 8.53954 5.95035 8.52001 5.97379L7.36962 5.0734V1.3859C7.36962 1.06363 7.10985 0.803867 6.78759 0.803867C6.64501 0.803867 6.50829 0.856601 6.40087 0.950351L4.3911 2.73746L1.25243 0.278476ZM5.1411 3.32535L6.43212 2.17691V4.33902L5.1411 3.3273V3.32535ZM1.11962 4.39762V5.96012C1.11962 6.56363 1.60985 7.05387 2.21337 7.05387H3.75438L6.40087 9.40738C6.50829 9.50113 6.64501 9.55387 6.78759 9.55387C7.10985 9.55387 7.36962 9.2941 7.36962 8.97184V7.46988L6.43212 6.7316V8.18082L4.24266 6.23551C4.15673 6.15934 4.0454 6.11637 3.93212 6.11637H2.21337C2.12743 6.11637 2.05712 6.04605 2.05712 5.96012V4.39762C2.05712 4.31168 2.12743 4.24137 2.21337 4.24137H3.27196L2.09032 3.31168C1.54344 3.37223 1.11962 3.83512 1.11962 4.39762Z"
        fill="#E0AF65" />
</svg>