<svg width="16" height="15" viewBox="0 0 16 15" fill="none" xmlns="http://www.w3.org/2000/svg">
    <path
        d="M10.4447 2.30182C10.9259 1.82062 11.7037 1.82062 12.1849 2.30182L13.1979 3.31476C13.6791 3.79596 13.6791 4.57379 13.1979 5.05499L11.6378 6.61505L11.4071 6.84357L10.515 10.1197C10.4096 10.5108 10.1173 10.8228 9.73499 10.9568L3.93201 12.9959C3.52552 13.1387 3.07288 13.0355 2.76966 12.7322C2.46644 12.429 2.36097 11.9742 2.50379 11.5677L4.54285 5.76471C4.67689 5.38238 4.9889 5.09235 5.38001 4.98468L8.65614 4.09259L8.88465 3.86407L10.4447 2.30402V2.30182ZM8.87367 5.1253L5.65687 6.00201C5.60194 6.01739 5.55579 6.05914 5.53822 6.11407L3.72327 11.2798L5.96888 9.03424C5.90296 8.89581 5.86561 8.742 5.86561 8.57941C5.86561 7.99713 6.33802 7.52472 6.9203 7.52472C7.50257 7.52472 7.97498 7.99713 7.97498 8.57941C7.97498 9.16168 7.50257 9.63409 6.9203 9.63409C6.7577 9.63409 6.60389 9.59674 6.46546 9.53082L4.21986 11.7764L9.38563 9.96149C9.44056 9.94171 9.48231 9.89777 9.49769 9.84283L10.3744 6.62604L8.87367 5.1253Z" />
</svg>