<svg xmlns="http://www.w3.org/2000/svg" width="14" height="14" viewBox="0 0 14 14" version="1.1">
	<path d="M4.759552 1.0073C3.965668 1.0735620000000001 3.2144 1.458786 2.714292 2.0560400000000003C2.3582020000000004 2.4812760000000003 2.1266000000000003 2.979508 2.036524 3.5140000000000002C2.004954 3.7012780000000003 1.993992 4.118366 2.01551 4.313232C2.081156 4.907686 2.3186940000000003 5.470836 2.69318 5.919816C3.58092 6.984166 5.077954 7.3027500000000005 6.321 6.691846C7.219996000000001 6.25002 7.833938 5.401928 7.972817999999999 4.41C8.002778 4.196052 8.00289 3.794868 7.973042 3.591C7.812126 2.49193 7.105126 1.60125 6.073424 1.19784C5.683104 1.0452260000000002 5.179762 0.9722299999999999 4.759552 1.0073M8.905610000000001 1.0093159999999999C8.636768 1.05567 8.449224 1.3426420000000001 8.511902000000001 1.6117640000000002C8.533363999999999 1.70394 8.568672 1.7665060000000001 8.643656 1.845172C8.755782 1.962828 8.841308000000001 1.9925499999999998 9.114 2.008664C9.773386 2.0475980000000003 10.374168 2.411276 10.714956 2.9778C10.981894 3.42153 11.061722000000001 3.976742 10.933062 4.494784C10.825528 4.927776 10.53402 5.355672 10.168074 5.617654000000001C9.856028 5.841066 9.433956 5.989984 9.107 5.992042C8.887662 5.9934140000000005 8.759674 6.037178 8.647632 6.149094C8.402282 6.394206 8.4763 6.80764 8.792 6.955592C8.888124 7.00063 9.05268 7.010836 9.291996000000001 6.986574C9.972228000000001 6.917610000000001 10.595186 6.629868 11.078550000000002 6.161358C11.55735 5.697272 11.854038 5.130888000000001 11.965982 4.467232C12.001514 4.25663 12.000674 3.7199120000000003 11.964512 3.521C11.905348 3.19564 11.82118 2.93622 11.687424 2.6670000000000003C11.200503999999999 1.6868880000000002 10.227938 1.0529680000000001 9.135 1.0033100000000001C9.0503 0.9994740000000001 8.947078 1.002162 8.905610000000001 1.0093159999999999M4.762436 2.0175400000000003C4.34462 2.066064 3.9321800000000002 2.261238 3.627694 2.5545240000000002C3.183096 2.982784 2.97059 3.530982 3.011582 4.144C3.074218 5.0809500000000005 3.790164 5.843908000000001 4.733204000000001 5.978644C4.886056 6.000484 5.260318000000001 5.98843 5.404 5.9570419999999995C6.1709060000000004 5.789476 6.76606 5.208994000000001 6.941984 4.456942000000001C7.090244 3.823176 6.92398 3.166058 6.491338 2.6758759999999997C6.05955 2.186674 5.416040000000001 1.9416319999999998 4.762436 2.0175400000000003M4.564 8.014818C4.028612 8.064182 3.550946 8.181992 3.0734619999999997 8.382486C2.787148 8.502704 2.554902 8.626842 2.263604 8.815408C1.112916 9.560222000000001 0.295358 10.807118000000001 0.071316 12.159C0.015246 12.497366 0.007672000000000001 12.611578 0.0073360000000000005 13.125L0.007 13.629 0.043134 13.706028C0.08932 13.804476 0.195524 13.910680000000001 0.293972 13.956866L0.371 13.993 4.998 13.993L9.625 13.993 9.705304 13.955368C9.802002 13.910036 9.906288 13.80841 9.954 13.713000000000001C9.988804 13.643392 9.989028 13.64048 9.993634 13.195C9.996392 12.929182 9.991744 12.675838 9.982224 12.572000000000001C9.924208 11.93941 9.771832000000002 11.388034000000001 9.500526 10.829C9.100448 10.00461 8.524502 9.342186 7.7700000000000005 8.838605999999999C6.817944 8.203174 5.6833 7.911624 4.564 8.014818M9.8462 8.132068C9.50306 8.250634 9.39141 8.645882 9.619638 8.934072C9.678592 9.008496000000001 9.777656 9.066175999999999 9.905 9.10021C10.512936 9.262666000000001 10.985688 9.487870000000001 11.430132 9.826726C12.147114 10.373356 12.6644 11.167800000000002 12.884928 12.061C12.947662 12.315058 12.991692 12.645052 12.991888 12.8625L12.992 12.992 12.2605 12.99228C11.857804 12.992434 11.486300000000002 12.998734 11.43401 13.006294C11.308122 13.024494 11.219754 13.071464 11.133206000000001 13.166160000000001C11.032728 13.276102 10.999674 13.369706 11.006855999999999 13.524000000000001C11.01107 13.614398 11.020632 13.65945 11.046658 13.71146C11.10025 13.818546 11.177222 13.895924 11.280948 13.946982L11.374412 13.993 12.501706 13.993L13.629 13.993 13.706028 13.956866C13.804476 13.910680000000001 13.910680000000001 13.804476 13.956866 13.706028C13.992552 13.629966 13.993056000000001 13.624156000000001 13.997536 13.244C14.00385 12.707184 13.977333999999999 12.384274 13.892914000000001 11.970056000000001C13.711404 11.079474 13.246184 10.201758 12.598432 9.527826C11.952234 8.85549 11.088014 8.357622 10.192 8.14149C10.01924 8.099826 9.945348 8.097809999999999 9.8462 8.132068M4.6690000000000005 9.011352C4.402202 9.033444 4.044824 9.10581 3.7800000000000002 9.19135C2.454396 9.619554 1.451128 10.699906 1.115072 12.061C1.052338 12.315058 1.0083080000000002 12.645052 1.008112 12.8625L1.008 12.992 5.005 12.992C8.193387999999999 12.992 9.001958 12.988458 9.00179 12.9745C9.000544 12.874582 8.968568 12.506872 8.951558 12.397C8.67055 10.581564 7.194376 9.189726 5.366102000000001 9.01635C5.227837999999999 9.003246 4.803624 9.000194 4.6690000000000005 9.011352" stroke="none" fill="currentColor" fill-rule="evenodd"></path>
</svg>