<svg width="13" height="12" viewBox="0 0 13 12" fill="none" xmlns="http://www.w3.org/2000/svg">
    <path
        d="M12.1573 9.99922L6.88929 4.73139C7.07282 4.40759 7.02761 3.98825 6.75191 3.71262L6.73176 3.69247L9.45927 0.965031C9.58729 0.837017 9.64152 0.654714 9.60432 0.47731C9.56729 0.300908 9.44518 0.156635 9.27763 0.0913191C9.12221 0.0307366 8.94352 0 8.74657 0C7.81442 0 6.40266 0.703825 4.93328 1.89404L4.81857 1.77933C4.65842 1.61913 4.44521 1.53093 4.2183 1.53093C4.0689 1.53093 3.92584 1.56985 3.79955 1.64174L3.76959 1.61178C3.54819 1.39039 3.25385 1.2685 2.94079 1.2685C2.62768 1.2685 2.33334 1.39039 2.11199 1.61178C1.8906 1.83318 1.7687 2.12746 1.7687 2.44056C1.7687 2.75366 1.8906 3.04794 2.11199 3.26934L2.14218 3.29952C1.95864 3.62331 2.00386 4.04265 2.27955 4.31834L2.39437 4.43315C1.22111 5.88479 0.180319 7.72242 0.591489 8.77721C0.671563 8.98263 0.866401 9.11532 1.0878 9.11532C1.23024 9.11532 1.36427 9.05975 1.46517 8.95885L4.19268 6.23142L4.21284 6.25157C4.37304 6.41177 4.5862 6.49997 4.81311 6.49997C4.96251 6.49997 5.10556 6.46105 5.23185 6.38916L10.4996 11.6567C10.721 11.8781 11.0153 12 11.3284 12C11.6414 12 11.9358 11.8781 12.1572 11.6567C12.6143 11.1998 12.6143 10.4563 12.1573 9.99922ZM4.81317 5.85372C4.75887 5.85372 4.70798 5.83273 4.66989 5.79464L4.19274 5.31744L1.15184 8.35826C1.11948 8.03948 1.2357 7.56813 1.48527 7.02327C1.82077 6.29094 2.37143 5.45999 3.07778 4.62025L3.26866 4.39334L2.7366 3.86129C2.65759 3.78228 2.65759 3.65371 2.7366 3.5747L4.07508 2.23626C4.11322 2.19812 4.16412 2.17713 4.21835 2.17713C4.27264 2.17713 4.32354 2.19812 4.36163 2.23626L4.89369 2.76831L5.12054 2.57748C6.53681 1.38627 7.92623 0.64625 8.74662 0.64625C8.78588 0.64625 8.82325 0.648032 8.8586 0.651651L5.81776 3.69241L6.29492 4.16955C6.37393 4.24857 6.37393 4.37714 6.29492 4.45615L4.95644 5.79459C4.9183 5.83273 4.8674 5.85372 4.81317 5.85372ZM2.43663 2.29088C2.44627 2.25837 2.45907 2.22657 2.47511 2.19606C2.49916 2.15029 2.53046 2.1073 2.56894 2.06877C2.63309 2.00462 2.70971 1.96047 2.791 1.93641C2.83978 1.92199 2.89023 1.91475 2.94068 1.91475C2.99113 1.91475 3.04158 1.92199 3.09036 1.93641C3.1554 1.95568 3.21743 1.98775 3.2725 2.03269C3.28626 2.04393 3.29962 2.05596 3.31243 2.06877L3.32039 2.07673L2.57679 2.82031L2.56883 2.81235C2.49182 2.73534 2.4437 2.6404 2.42444 2.54101C2.41803 2.50788 2.4148 2.47425 2.4148 2.44061C2.41497 2.39011 2.42221 2.33966 2.43663 2.29088ZM11.8518 10.8784C11.847 10.9287 11.835 10.9784 11.8158 11.0259C11.7901 11.0892 11.7516 11.1485 11.7003 11.1998C11.6489 11.2512 11.5896 11.2897 11.5263 11.3153C11.4947 11.3282 11.462 11.3378 11.4289 11.3442C11.3957 11.3506 11.3621 11.3539 11.3284 11.3539C11.1938 11.3539 11.0593 11.3025 10.9566 11.1998L5.71085 5.95423L6.45445 5.21065L7.50638 6.26254L11.7002 10.4563C11.7516 10.5076 11.79 10.5669 11.8157 10.6302C11.835 10.6777 11.847 10.7274 11.8518 10.7777C11.855 10.8111 11.855 10.8449 11.8518 10.8784Z"
        fill="#7DFFBA" />
</svg>