<svg width="20" height="20" viewBox="0 0 20 20" fill="none" xmlns="http://www.w3.org/2000/svg">
    <g clip-path="url(#clip0_1161_44582)">
        <path
            d="M9.99977 2.5L10.3396 2.63184L16.4187 4.99023L16.9812 5.20703L17.0164 5.80762C17.1013 7.27246 16.8728 9.50781 15.9236 11.6934C14.9656 13.8965 13.2546 16.0879 10.3748 17.3359L9.99977 17.5L9.6277 17.3389C6.74488 16.0908 5.03395 13.9023 4.07887 11.6963C3.12672 9.51074 2.8982 7.27246 2.98609 5.81055L3.02125 5.20996L3.58082 4.99023L9.65992 2.63184L9.99977 2.5ZM13.3103 8.62305L13.8084 8.125L12.8123 7.13184L12.3142 7.62988L9.06227 10.8818L7.68531 9.50488L7.18727 9.00684L6.1941 10L6.69215 10.498L8.56715 12.373L9.0652 12.8711L9.56324 12.373L13.3103 8.62305Z" />
    </g>
    <defs>
        <clipPath id="clip0_1161_44582">
            <rect width="15" height="15" fill="white" transform="translate(2.5 2.5)" />
        </clipPath>
    </defs>
</svg>