<svg xmlns="http://www.w3.org/2000/svg" fill="none" viewBox="-0.5 -0.5 14 14" height="14" width="14"><g id="ai-redo-spark--arrow-refresh-sync-synchronize-artificial-intelligence-ai"><path id="Vector" stroke="currentColor" stroke-linecap="round" stroke-linejoin="round" d="M1.8938678571428573 12.4878v-2.30295H4.196864285714286" stroke-width="1"></path><path id="Ellipse 1132" stroke="currentColor" stroke-linecap="round" stroke-linejoin="round" d="M12.38612142857143 5.399587142857143c0.5730214285714286 3.047274285714286 -1.2917357142857144 6.06827 -4.336354285714286 6.884112857142857 -2.330222142857143 0.6243714285714286 -4.707829285714285 -0.21552142857142859 -6.155899285714286 -1.9556642857142859" stroke-width="1"></path><path id="Ellipse 1133" stroke="currentColor" stroke-linecap="round" stroke-linejoin="round" d="M0.6139203571428572 7.600375714285715C0.04089567857142857 4.553101428571429 1.9056978571428573 1.5320685714285716 4.950288571428572 0.7162749285714286c2.3300642857142857 -0.6243392071428572 4.707504285714285 0.2153979285714286 6.155611428571429 1.9552993571428574" stroke-width="1"></path><path id="Vector_2" stroke="currentColor" stroke-linecap="round" stroke-linejoin="round" d="M11.105807142857143 0.5123467142857143V2.815345H8.802838571428572" stroke-width="1"></path><path id="Vector 2136" stroke="currentColor" stroke-linecap="round" stroke-linejoin="round" d="M3.7974950000000005 6.809780714285715c-0.3258635714285715 -0.05668928571428571 -0.3258635714285715 -0.5244850000000001 0 -0.5811742857142858 1.1805485714285715 -0.20538142857142858 2.1195107142857146 -1.104582142857143 2.37575 -2.275139285714286l0.019639285714285713 -0.08972785714285714c0.07050642857142857 -0.32205642857142863 0.5290721428571429 -0.3240621428571429 0.6023828571428571 -0.0026371428571428574l0.023855 0.10456642857142857c0.26572 1.1650414285714288 1.2049328571428572 2.0566371428571433 2.382203571428571 2.261452142857143 0.3274885714285714 0.05698642857142858 0.3274885714285714 0.5271592857142858 0 0.5841364285714286 -1.1772707142857144 0.204815 -2.1164835714285717 1.0964200000000002 -2.382203571428571 2.261452142857143l-0.023855 0.10456642857142857c-0.0733107142857143 0.32145285714285715 -0.5318764285714286 0.31941 -0.6023828571428571 -0.002627857142857143l-0.019639285714285713 -0.08972785714285714c-0.2562392857142857 -1.1705664285714286 -1.1952014285714285 -2.069757857142857 -2.37575 -2.275139285714286Z" stroke-width="1"></path></g></svg>