<svg width="10" height="14" viewBox="0 0 10 14" fill="none" xmlns="http://www.w3.org/2000/svg">
    <path
        d="M8.36706 4.72522C8.08118 3.42087 7.04353 2.39826 5.72 2.11652L5.79412 1H4.20588L4.28 2.11652C2.95647 2.39826 1.91882 3.42087 1.63294 4.72522L0.5 4.65217V6.21739L1.63294 6.14435C1.92412 7.47478 3.00412 8.51304 4.36471 8.76348L4.20588 13H5.79412L5.63529 8.76348C6.99588 8.51304 8.07588 7.47478 8.36706 6.14435L9.5 6.21739V4.65217L8.36706 4.72522ZM7.28176 6.0713C7.05412 6.86957 6.41353 7.49043 5.59294 7.69913L5.52941 5.95652L7.28176 6.0713ZM4.47059 4.91304L2.71824 4.79826C2.94059 4.01565 3.56 3.40522 4.35412 3.18609L4.47059 4.91304ZM4.47059 5.95652L4.40706 7.69913C3.58647 7.49043 2.94588 6.86957 2.71824 6.0713L4.47059 5.95652ZM7.28176 4.79826L5.52941 4.91304L5.64588 3.18609C6.44 3.40522 7.05941 4.01565 7.28176 4.79826Z"
        stroke="#FFF5EA" stroke-width="0.5" stroke-miterlimit="10" stroke-linecap="round" stroke-linejoin="round" />
</svg>