<svg width="17" height="17" viewBox="0 0 17 17" fill="none" xmlns="http://www.w3.org/2000/svg">
    <path
        d="M8.50001 10.9795C7.84249 10.9795 7.21191 10.7183 6.74697 10.2534C6.28204 9.78842 6.02084 9.15784 6.02084 8.50032C6.02084 7.84281 6.28204 7.21222 6.74697 6.74729C7.21191 6.28235 7.84249 6.02116 8.50001 6.02116C9.15752 6.02116 9.78811 6.28235 10.253 6.74729C10.718 7.21222 10.9792 7.84281 10.9792 8.50032C10.9792 9.15784 10.718 9.78842 10.253 10.2534C9.78811 10.7183 9.15752 10.9795 8.50001 10.9795ZM13.7629 9.18741C13.7913 8.96074 13.8125 8.73407 13.8125 8.50032C13.8125 8.26657 13.7913 8.03282 13.7629 7.79199L15.2575 6.63741C15.3921 6.53116 15.4275 6.33991 15.3425 6.18407L13.9258 3.73324C13.8408 3.57741 13.6496 3.51366 13.4938 3.57741L11.73 4.28574C11.3617 4.00949 10.9792 3.76866 10.5329 3.59158L10.2708 1.71449C10.2425 1.54449 10.0938 1.41699 9.91667 1.41699H7.08334C6.90626 1.41699 6.75751 1.54449 6.72917 1.71449L6.46709 3.59158C6.02084 3.76866 5.63834 4.00949 5.27001 4.28574L3.50626 3.57741C3.35042 3.51366 3.15918 3.57741 3.07418 3.73324L1.65751 6.18407C1.56542 6.33991 1.60793 6.53116 1.74251 6.63741L3.23709 7.79199C3.20876 8.03282 3.18751 8.26657 3.18751 8.50032C3.18751 8.73407 3.20876 8.96074 3.23709 9.18741L1.74251 10.3632C1.60793 10.4695 1.56542 10.6607 1.65751 10.8166L3.07418 13.2674C3.15918 13.4232 3.35042 13.4799 3.50626 13.4232L5.27001 12.7078C5.63834 12.9912 6.02084 13.232 6.46709 13.4091L6.72917 15.2862C6.75751 15.4562 6.90626 15.5837 7.08334 15.5837H9.91667C10.0938 15.5837 10.2425 15.4562 10.2708 15.2862L10.5329 13.4091C10.9792 13.2249 11.3617 12.9912 11.73 12.7078L13.4938 13.4232C13.6496 13.4799 13.8408 13.4232 13.9258 13.2674L15.3425 10.8166C15.4275 10.6607 15.3921 10.4695 15.2575 10.3632L13.7629 9.18741Z" />
</svg>