<svg xmlns="http://www.w3.org/2000/svg" width="23" height="26" viewBox="0 0 23 26" fill="none">
    <g filter="url(#filter0_di_1685_15051)">
        <path
            d="M11.5 10.9792C10.8425 10.9792 10.2119 10.718 9.74697 10.2531C9.28204 9.78818 9.02084 9.1576 9.02084 8.50008C9.02084 7.84256 9.28204 7.21198 9.74697 6.74704C10.2119 6.28211 10.8425 6.02091 11.5 6.02091C12.1575 6.02091 12.7881 6.28211 13.253 6.74704C13.718 7.21198 13.9792 7.84256 13.9792 8.50008C13.9792 9.1576 13.718 9.78818 13.253 10.2531C12.7881 10.718 12.1575 10.9792 11.5 10.9792ZM16.7629 9.18716C16.7913 8.9605 16.8125 8.73383 16.8125 8.50008C16.8125 8.26633 16.7913 8.03258 16.7629 7.79175L18.2575 6.63716C18.3921 6.53091 18.4275 6.33966 18.3425 6.18383L16.9258 3.733C16.8408 3.57716 16.6496 3.51341 16.4938 3.57716L14.73 4.2855C14.3617 4.00925 13.9792 3.76841 13.5329 3.59133L13.2708 1.71425C13.2425 1.54425 13.0938 1.41675 12.9167 1.41675H10.0833C9.90626 1.41675 9.75751 1.54425 9.72917 1.71425L9.46709 3.59133C9.02084 3.76841 8.63834 4.00925 8.27001 4.2855L6.50626 3.57716C6.35042 3.51341 6.15918 3.57716 6.07418 3.733L4.65751 6.18383C4.56542 6.33966 4.60793 6.53091 4.74251 6.63716L6.23709 7.79175C6.20876 8.03258 6.18751 8.26633 6.18751 8.50008C6.18751 8.73383 6.20876 8.9605 6.23709 9.18716L4.74251 10.363C4.60793 10.4692 4.56542 10.6605 4.65751 10.8163L6.07418 13.2672C6.15918 13.423 6.35042 13.4797 6.50626 13.423L8.27001 12.7076C8.63834 12.9909 9.02084 13.2317 9.46709 13.4088L9.72917 15.2859C9.75751 15.4559 9.90626 15.5834 10.0833 15.5834H12.9167C13.0938 15.5834 13.2425 15.4559 13.2708 15.2859L13.5329 13.4088C13.9792 13.2247 14.3617 12.9909 14.73 12.7076L16.4938 13.423C16.6496 13.4797 16.8408 13.423 16.9258 13.2672L18.3425 10.8163C18.4275 10.6605 18.3921 10.4692 18.2575 10.363L16.7629 9.18716Z"
            fill="white" />
    </g>
    <defs>
        <filter id="filter0_di_1685_15051" x="0.608398" y="1.41675" width="21.7803" height="24.1667"
            filterUnits="userSpaceOnUse" color-interpolation-filters="sRGB">
            <feFlood flood-opacity="0" result="BackgroundImageFix" />
            <feColorMatrix in="SourceAlpha" type="matrix" values="0 0 0 0 0 0 0 0 0 0 0 0 0 0 0 0 0 0 127 0"
                result="hardAlpha" />
            <feOffset dy="6" />
            <feGaussianBlur stdDeviation="2" />
            <feComposite in2="hardAlpha" operator="out" />
            <feColorMatrix type="matrix" values="0 0 0 0 0 0 0 0 0 0 0 0 0 0 0 0 0 0 0.55 0" />
            <feBlend mode="normal" in2="BackgroundImageFix" result="effect1_dropShadow_1685_15051" />
            <feBlend mode="normal" in="SourceGraphic" in2="effect1_dropShadow_1685_15051" result="shape" />
            <feColorMatrix in="SourceAlpha" type="matrix" values="0 0 0 0 0 0 0 0 0 0 0 0 0 0 0 0 0 0 127 0"
                result="hardAlpha" />
            <feOffset dy="1" />
            <feGaussianBlur stdDeviation="0.5" />
            <feComposite in2="hardAlpha" operator="arithmetic" k2="-1" k3="1" />
            <feColorMatrix type="matrix" values="0 0 0 0 0.878431 0 0 0 0 0.686275 0 0 0 0 0.396078 0 0 0 1 0" />
            <feBlend mode="normal" in2="shape" result="effect2_innerShadow_1685_15051" />
        </filter>
    </defs>
</svg>