<svg width="12" height="15" viewBox="0 0 12 15" fill="none" xmlns="http://www.w3.org/2000/svg">
    <path
        d="M11.5 9.49179L12 9.49181V9.49179H11.5ZM10.3476 11.216L10.5353 11.6794L10.5354 11.6794L10.3476 11.216ZM9.66924 11.4908L9.48151 11.0274L9.48129 11.0275L9.66924 11.4908ZM9.11094 12.1719L9.60152 12.2685L9.60159 12.2681L9.11094 12.1719ZM8.82448 13.6268L9.315 13.7237L9.31506 13.7234L8.82448 13.6268ZM8.37417 14L8.37515 13.5H8.37417V14ZM3.62583 14V13.5H3.6258L3.62583 14ZM3.17638 13.6268L2.68585 13.7237L2.68586 13.7237L3.17638 13.6268ZM2.88906 12.1719L2.39851 12.2686L2.39854 12.2687L2.88906 12.1719ZM2.33076 11.4917L2.51861 11.0283L2.51849 11.0283L2.33076 11.4917ZM1.65242 11.2169L1.46465 11.6803L1.46469 11.6803L1.65242 11.2169ZM0.5 9.49266H0V9.49268L0.5 9.49266ZM6 9.82143L6.47495 9.66514C6.40746 9.46004 6.21592 9.32143 6 9.32143C5.78408 9.32143 5.59255 9.46004 5.52505 9.66514L6 9.82143ZM5.54167 11.2143L5.06672 11.058C5.01659 11.2103 5.04258 11.3775 5.13661 11.5074C5.23064 11.6374 5.38128 11.7143 5.54167 11.7143V11.2143ZM6.45833 11.2143V11.7143C6.61872 11.7143 6.76936 11.6374 6.86339 11.5074C6.95742 11.3775 6.98341 11.2103 6.93328 11.058L6.45833 11.2143ZM6.5 13.0714C6.5 12.7953 6.27614 12.5714 6 12.5714C5.72386 12.5714 5.5 12.7953 5.5 13.0714H6.5ZM5.5 14C5.5 14.2761 5.72386 14.5 6 14.5C6.27614 14.5 6.5 14.2761 6.5 14H5.5ZM5.125 13.0714C5.125 12.7953 4.90114 12.5714 4.625 12.5714C4.34886 12.5714 4.125 12.7953 4.125 13.0714H5.125ZM4.125 14C4.125 14.2761 4.34886 14.5 4.625 14.5C4.90114 14.5 5.125 14.2761 5.125 14H4.125ZM7.875 13.0714C7.875 12.7953 7.65114 12.5714 7.375 12.5714C7.09886 12.5714 6.875 12.7953 6.875 13.0714H7.875ZM6.875 14C6.875 14.2761 7.09886 14.5 7.375 14.5C7.65114 14.5 7.875 14.2761 7.875 14H6.875ZM11 6.61902V9.49179H12V6.61902H11ZM11 9.49177C11 9.76444 10.9193 10.0303 10.7691 10.2551L11.6005 10.8107C11.8611 10.4208 12 9.96144 12 9.49181L11 9.49177ZM10.7691 10.2551C10.6189 10.4797 10.4064 10.6527 10.1598 10.7526L10.5354 11.6794C10.9691 11.5037 11.3398 11.2007 11.6005 10.8107L10.7691 10.2551ZM10.1598 10.7526L9.48151 11.0274L9.85698 11.9542L10.5353 11.6794L10.1598 10.7526ZM9.48129 11.0275C9.26172 11.1166 9.06828 11.2595 8.91814 11.4426L9.69149 12.0766C9.73634 12.0219 9.79343 11.98 9.8572 11.9542L9.48129 11.0275ZM8.91814 11.4426C8.76803 11.6257 8.66585 11.8434 8.62029 12.0756L9.60159 12.2681C9.61551 12.1971 9.64661 12.1313 9.69149 12.0766L8.91814 11.4426ZM8.62036 12.0753L8.3339 13.5302L9.31506 13.7234L9.60152 12.2685L8.62036 12.0753ZM8.33396 13.5299C8.33527 13.5233 8.33905 13.516 8.34623 13.5101L8.9843 14.2801C9.15573 14.138 9.27205 13.9411 9.315 13.7237L8.33396 13.5299ZM8.34623 13.5101C8.35356 13.504 8.36375 13.5 8.37515 13.5L8.37318 14.5C8.59678 14.5004 8.81274 14.4222 8.9843 14.2801L8.34623 13.5101ZM8.37417 13.5H3.62583V14.5H8.37417V13.5ZM3.6258 13.5C3.63718 13.5 3.64735 13.504 3.65466 13.5101L3.01586 14.2795C3.18705 14.4216 3.40258 14.5 3.62587 14.5L3.6258 13.5ZM3.65466 13.5101C3.66182 13.5161 3.66559 13.5233 3.6669 13.5299L2.68586 13.7237C2.72875 13.9408 2.84481 14.1375 3.01586 14.2795L3.65466 13.5101ZM3.66691 13.53L3.37959 12.075L2.39854 12.2687L2.68585 13.7237L3.66691 13.53ZM3.37961 12.0751C3.33385 11.8431 3.23158 11.6257 3.08148 11.4429L2.30852 12.0773C2.3534 12.132 2.38453 12.1977 2.39851 12.2686L3.37961 12.0751ZM3.08148 11.4429C2.93135 11.26 2.73802 11.1173 2.51861 11.0283L2.1429 11.9551C2.20662 11.9809 2.26368 12.0227 2.30852 12.0773L3.08148 11.4429ZM2.51849 11.0283L1.84016 10.7535L1.46469 11.6803L2.14302 11.9551L2.51849 11.0283ZM1.8402 10.7535C1.59357 10.6536 1.38108 10.4806 1.23092 10.2559L0.39952 10.8116C0.660178 11.2016 1.03091 11.5045 1.46465 11.6803L1.8402 10.7535ZM1.23092 10.2559C1.0807 10.0312 1.00001 9.76531 1 9.49264L0 9.49268C1.52886e-05 9.96231 0.138911 10.4217 0.39952 10.8116L1.23092 10.2559ZM1 9.49266V6.57143H0V9.49266H1ZM1 6.57143C1 3.76761 3.23965 1.50501 5.99088 1.50001L5.98907 0.50001C2.67426 0.506035 0 3.22811 0 6.57143H1ZM5.99088 1.50001C8.73572 1.49502 11 3.81389 11 6.61902H12C12 3.28456 9.31027 0.493972 5.98907 0.50001L5.99088 1.50001ZM4.125 8.19643C4.125 8.56744 3.82979 8.85715 3.47917 8.85715V9.85715C4.3942 9.85715 5.125 9.10752 5.125 8.19643H4.125ZM3.47917 8.85715C3.12855 8.85715 2.83333 8.56744 2.83333 8.19643H1.83333C1.83333 9.10752 2.56414 9.85715 3.47917 9.85715V8.85715ZM2.83333 8.19643C2.83333 7.82543 3.12855 7.53572 3.47917 7.53572V6.53572C2.56414 6.53572 1.83333 7.28535 1.83333 8.19643H2.83333ZM3.47917 7.53572C3.82979 7.53572 4.125 7.82543 4.125 8.19643H5.125C5.125 7.28535 4.3942 6.53572 3.47917 6.53572V7.53572ZM9.16667 8.19643C9.16667 8.56744 8.87146 8.85715 8.52083 8.85715V9.85715C9.43586 9.85715 10.1667 9.10752 10.1667 8.19643H9.16667ZM8.52083 8.85715C8.17021 8.85715 7.875 8.56744 7.875 8.19643H6.875C6.875 9.10752 7.6058 9.85715 8.52083 9.85715V8.85715ZM7.875 8.19643C7.875 7.82543 8.17021 7.53572 8.52083 7.53572V6.53572C7.6058 6.53572 6.875 7.28535 6.875 8.19643H7.875ZM8.52083 7.53572C8.87146 7.53572 9.16667 7.82543 9.16667 8.19643H10.1667C10.1667 7.28535 9.43586 6.53572 8.52083 6.53572V7.53572ZM5.52505 9.66514L5.06672 11.058L6.01661 11.3706L6.47495 9.97772L5.52505 9.66514ZM5.54167 11.7143H6.45833V10.7143H5.54167V11.7143ZM6.93328 11.058L6.47495 9.66514L5.52505 9.97772L5.98339 11.3706L6.93328 11.058ZM5.5 13.0714V14H6.5V13.0714H5.5ZM4.125 13.0714V14H5.125V13.0714H4.125ZM6.875 13.0714V14H7.875V13.0714H6.875Z" />
</svg>