<svg width="48" height="48" viewBox="0 0 48 48" fill="none" xmlns="http://www.w3.org/2000/svg">
<g id="System / check-circle">
<path id="Shape" fill-rule="evenodd" clip-rule="evenodd" d="M23.9998 43.2001C34.6037 43.2001 43.1998 34.6039 43.1998 24C43.1998 13.3962 34.6037 4.80005 23.9998 4.80005C13.3959 4.80005 4.7998 13.3962 4.7998 24C4.7998 34.6039 13.3959 43.2001 23.9998 43.2001ZM32.8969 20.8971C33.8341 19.9598 33.8341 18.4403 32.8969 17.503C31.9596 16.5657 30.44 16.5657 29.5028 17.503L21.5998 25.4059L18.4969 22.303C17.5596 21.3657 16.04 21.3657 15.1027 22.303C14.1655 23.2403 14.1655 24.7598 15.1027 25.6971L19.9027 30.4971C20.84 31.4344 22.3596 31.4344 23.2969 30.4971L32.8969 20.8971Z" fill="#7DFFBA"/>
</g>
</svg>
