<svg width="13" height="11" viewBox="0 0 13 11" fill="none" xmlns="http://www.w3.org/2000/svg">
    <path
        d="M4.0637 3.97117L6.56594 1.74795V8.60956L4.0637 6.38635C3.96549 6.29929 3.83826 6.25019 3.70879 6.25019H1.74451C1.64629 6.25019 1.56594 6.16983 1.56594 6.07161V4.2859C1.56594 4.18769 1.64629 4.10733 1.74451 4.10733H3.70879C3.84049 4.10733 3.96772 4.05822 4.0637 3.97117ZM6.97219 0.178757C6.80924 0.178757 6.65299 0.239025 6.53022 0.346167L3.50567 3.0359H1.74451C1.05477 3.0359 0.494507 3.59617 0.494507 4.2859V6.07161C0.494507 6.76135 1.05477 7.32161 1.74451 7.32161H3.50567L6.53022 10.0113C6.65299 10.1185 6.80924 10.1788 6.97219 10.1788C7.34049 10.1788 7.63736 9.88188 7.63736 9.51358V0.843935C7.63736 0.475632 7.34049 0.178757 6.97219 0.178757ZM11.0548 1.85286C10.8249 1.66536 10.4878 1.70108 10.3003 1.93099C10.1128 2.1609 10.1485 2.49795 10.3784 2.68545C11.1039 3.27474 11.5659 4.17206 11.5659 5.17876C11.5659 6.18545 11.1039 7.08277 10.3784 7.67429C10.1485 7.86179 10.115 8.19885 10.3003 8.42876C10.4856 8.65867 10.8249 8.69215 11.0548 8.50688C12.0191 7.72117 12.6374 6.52251 12.6374 5.18099C12.6374 3.83947 12.0191 2.64081 11.0548 1.8551V1.85286ZM9.70433 3.51581C9.47442 3.32831 9.13736 3.36402 8.94986 3.59394C8.76236 3.82385 8.79808 4.1609 9.02799 4.3484C9.26906 4.54483 9.42308 4.84394 9.42308 5.17876C9.42308 5.51358 9.26906 5.81269 9.02799 6.01135C8.79808 6.19885 8.7646 6.5359 8.94986 6.76581C9.13513 6.99572 9.47442 7.0292 9.70433 6.84394C10.1842 6.44885 10.4945 5.85063 10.4945 5.17876C10.4945 4.50688 10.1842 3.90867 9.70433 3.51581Z"
        fill="#E0AF65" />
</svg>