<svg width="15" height="12" viewBox="0 0 15 12" fill="none" xmlns="http://www.w3.org/2000/svg">
    <g clip-path="url(#clip0_1367_24523)">
        <path
            d="M9.47109 0.86958C9.62109 0.703174 9.87891 0.703174 10.0289 0.86958L12.6211 3.75005H11.25C11.1047 3.75005 10.9734 3.83442 10.9102 3.96333C10.8469 4.09224 10.868 4.24927 10.9594 4.36177L13.4953 7.46724C13.4977 7.47192 13.5 7.47427 13.5 7.47896C13.5 7.49067 13.4906 7.50005 13.4789 7.50005H11.625C11.4773 7.50005 11.3414 7.58677 11.2828 7.72271C11.2242 7.85864 11.25 8.01802 11.3484 8.12583L14.2031 11.25H9.7125C9.65625 11.5266 9.53906 11.7821 9.375 12H14.2875C14.6812 12 15 11.6813 15 11.2875C15 11.1094 14.9344 10.9383 14.8125 10.8071L12.4758 8.25005H13.4789C13.9031 8.25005 14.25 7.90552 14.25 7.47896C14.25 7.30083 14.1891 7.12974 14.0766 6.99146L12.0398 4.50005H12.8531C13.2094 4.50005 13.5 4.21177 13.5 3.85317C13.5 3.6938 13.4414 3.53911 13.3336 3.42192L10.5867 0.368018C10.1391 -0.128857 9.36094 -0.128857 8.91328 0.368018L6.67734 2.85239L7.23047 3.35864L9.47109 0.86958ZM0.75 6.66099C0.75 6.45005 0.839063 6.25083 0.99375 6.10786L3.99375 3.35864C4.27969 3.09614 4.72031 3.09614 5.00625 3.35864L8.00625 6.10786C8.16094 6.25083 8.25 6.45005 8.25 6.66099V10.5C8.25 10.9149 7.91484 11.25 7.5 11.25H1.5C1.08516 11.25 0.75 10.9149 0.75 10.5V6.66099ZM0 10.5C0 11.3274 0.672656 12 1.5 12H7.5C8.32734 12 9 11.3274 9 10.5V6.66099C9 6.24146 8.82422 5.83833 8.5125 5.55474L5.5125 2.80552C4.93828 2.28052 4.05937 2.28052 3.48516 2.80552L0.4875 5.55474C0.175781 5.83833 0 6.23911 0 6.66099V10.5ZM5.25 6.75005V8.25005H3.75V6.75005H5.25ZM3.75 6.00005C3.33516 6.00005 3 6.33521 3 6.75005V8.25005C3 8.66489 3.33516 9.00005 3.75 9.00005H5.25C5.66484 9.00005 6 8.66489 6 8.25005V6.75005C6 6.33521 5.66484 6.00005 5.25 6.00005H3.75Z"
            fill="#E0AF65" />
    </g>
    <defs>
        <clipPath id="clip0_1367_24523">
            <rect width="15" height="12" fill="white" />
        </clipPath>
    </defs>
</svg>