<svg width="19" height="19" viewBox="0 0 19 19" fill="none" xmlns="http://www.w3.org/2000/svg">
    <path
        d="M14.2102 13.396C14.0152 12.796 13.4527 12.3535 12.7852 12.3535H12.0352V10.1035C12.0352 9.9046 11.9561 9.71384 11.8155 9.57319C11.6748 9.43253 11.4841 9.35352 11.2852 9.35352H6.78516V7.85352H8.28516C8.48407 7.85352 8.67483 7.7745 8.81549 7.63385C8.95614 7.49319 9.03516 7.30243 9.03516 7.10352V5.60352H10.5352C10.933 5.60352 11.3145 5.44548 11.5958 5.16418C11.8771 4.88287 12.0352 4.50134 12.0352 4.10352V3.79602C14.2327 4.68102 15.7852 6.83352 15.7852 9.35352C15.7852 10.9135 15.1852 12.331 14.2102 13.396ZM9.03516 15.301C6.07266 14.9335 3.78516 12.4135 3.78516 9.35352C3.78516 8.88852 3.84516 8.43852 3.94266 8.01102L7.53516 11.6035V12.3535C7.53516 12.7513 7.69319 13.1329 7.9745 13.4142C8.2558 13.6955 8.63733 13.8535 9.03516 13.8535M9.78516 1.85352C8.80024 1.85352 7.82497 2.04751 6.91503 2.42442C6.00509 2.80133 5.17829 3.35378 4.48186 4.05021C3.07533 5.45674 2.28516 7.36439 2.28516 9.35352C2.28516 11.3426 3.07533 13.2503 4.48186 14.6568C5.17829 15.3533 6.00509 15.9057 6.91503 16.2826C7.82497 16.6595 8.80024 16.8535 9.78516 16.8535C11.7743 16.8535 13.6819 16.0633 15.0885 14.6568C16.495 13.2503 17.2852 11.3426 17.2852 9.35352C17.2852 8.3686 17.0912 7.39333 16.7143 6.48339C16.3373 5.57345 15.7849 4.74665 15.0885 4.05021C14.392 3.35378 13.5652 2.80133 12.6553 2.42442C11.7453 2.04751 10.7701 1.85352 9.78516 1.85352Z" />
</svg>